<svg width="296" height="210" viewBox="0 0 296 210" fill="none" xmlns="http://www.w3.org/2000/svg">
<g clip-path="url(#clip0_4_3002)">
<path d="M237.538 18.3718H227.297V25.8105H237.538V18.3718Z" fill="#311206"/>
<path d="M239.629 21.03H225.846C223.157 21.03 221.109 18.5862 221.579 15.9065L223.755 3.60147C224.118 1.52205 225.931 0 228.022 0H237.474C239.587 0 241.379 1.52205 241.742 3.60147L243.918 15.9065C244.387 18.5647 242.339 21.03 239.651 21.03H239.629Z" fill="#FA0A0B"/>
<path d="M204.83 181.403H291.456V88.9006C291.456 86.9283 290.986 84.9775 290.09 83.2197L263.782 31.8987C263.014 27.4398 259.152 24.1813 254.65 24.1813H204.851V181.403H204.83Z" fill="#EFFAFF"/>
<path d="M291.456 92.4377V88.9006C291.456 86.9284 290.986 84.9776 290.09 83.2197L263.782 31.8987C263.014 27.4398 259.152 24.1813 254.65 24.1813H204.851V92.4377H291.477H291.456Z" fill="#CFE0E5"/>
<path d="M240.781 143.223L238.669 139.557C236.749 136.213 233.698 134.24 230.433 134.24H204.808V181.403H290.773C293.653 181.403 295.979 179.066 295.979 176.172V153.748C295.979 150.854 293.653 148.518 290.773 148.518H249.017C245.753 148.518 242.702 146.546 240.781 143.201V143.223Z" fill="#FA0A0B"/>
<path d="M209.588 24.1813H204.83V181.403H209.588V24.1813Z" fill="#311206"/>
<path d="M235.597 151.583H204.83V181.424H264.657V180.802C264.657 164.682 251.642 151.605 235.597 151.605V151.583Z" fill="#311206"/>
<path d="M216.33 79.7468C213.257 79.7468 210.782 77.2387 210.782 74.1731V35.3287C210.782 32.2417 213.279 29.755 216.33 29.755H250.554C256.656 29.755 259.814 34.214 262.545 40.4308L277.032 73.5086C277.224 75.0949 276.733 76.6813 275.688 77.8818C274.642 79.0823 273.127 79.7683 271.527 79.7683H216.33V79.7468Z" fill="#E8EDEF"/>
<path d="M216.33 77.6031H271.549C273.597 77.6031 275.197 75.8024 274.941 73.7444L260.454 40.6666C257.957 35.2644 255.61 31.8773 250.575 31.8773H216.351C214.452 31.8773 212.938 33.4208 212.938 35.3073V74.1517C212.938 76.0596 214.474 77.5817 216.351 77.5817L216.33 77.6031Z" fill="#311206"/>
<path d="M276.264 71.8794C274.493 68.7924 272.722 65.7054 270.972 62.597C270.375 61.5251 269.735 60.4318 268.775 59.6815C266.833 58.138 264.081 58.3524 261.627 58.6311C261.712 63.3473 261.798 68.0635 261.883 72.8012V81.6119C265.148 80.9474 268.625 81.8049 271.698 80.5829C274.962 79.2967 278.013 74.9449 276.264 71.8794Z" fill="#FA0A0B"/>
<path d="M293.93 112.996H286.207V141.401H293.93V112.996Z" fill="#311206"/>
<path d="M232.012 83.777H215.989V85.3848H232.012V83.777Z" fill="#311206"/>
<path d="M204.83 174.971H0V189.442H204.83V174.971Z" fill="#311206"/>
<path d="M204.83 6.85995H4.26733V181.403H204.83V6.85995Z" fill="#EFFAFF"/>
<path d="M204.83 84.8918H4.26733V93.5096H204.83V84.8918Z" fill="#CFE0E5"/>
<path d="M204.83 99.1047H4.26733V102.878H204.83V99.1047Z" fill="#CFE0E5"/>
<path d="M204.83 20.7942H4.26733V24.3743H204.83V20.7942Z" fill="#FA0A0B"/>
<path d="M204.83 126.695H4.26733V135.312H204.83V126.695Z" fill="#FA0A0B"/>
<path d="M204.83 6.85995H4.26733V16.9569H204.83V6.85995Z" fill="#CFE0E5"/>
<path d="M204.83 147.103H4.26733V181.403H204.83V147.103Z" fill="#FA0A0B"/>
<path d="M189.937 32.0703H96.5686C90.8299 32.0703 86.1777 36.7444 86.1777 42.5102V68.7924C86.1777 74.5582 90.8299 79.2324 96.5686 79.2324H189.937C195.675 79.2324 200.328 74.5582 200.328 68.7924V42.5102C200.328 36.7444 195.675 32.0703 189.937 32.0703Z" fill="#CFE0E5"/>
<path d="M189.937 34.214H96.5686C92.0083 34.214 88.3114 37.9283 88.3114 42.5102V68.7924C88.3114 73.3743 92.0083 77.0886 96.5686 77.0886H189.937C194.497 77.0886 198.194 73.3743 198.194 68.7924V42.5102C198.194 37.9283 194.497 34.214 189.937 34.214Z" fill="#311206"/>
<path d="M204.958 102.728H8.57727V104.335H204.958V102.728Z" fill="#311206"/>
<path d="M49.6071 156.042C64.2866 156.042 76.171 168.004 76.171 182.753C76.171 197.502 64.2866 209.464 49.6071 209.464C34.9277 209.464 23.022 197.502 23.022 182.753C23.022 168.004 34.9277 156.042 49.6071 156.042ZM68.2338 182.753C68.2338 172.42 59.8913 164.038 49.6071 164.038C39.323 164.038 30.9591 172.42 30.9591 182.753C30.9591 193.086 39.3017 201.468 49.6071 201.468C59.9126 201.468 68.2338 193.086 68.2338 182.753ZM51.7194 203.269C58.2697 203.226 64.6493 199.324 67.6791 193.493C63.1984 197.909 57.6936 201.275 51.7194 203.269ZM49.4364 158.808C44.7851 158.014 39.8777 159.279 36.0372 162.002C32.1966 164.746 29.4229 168.883 28.0574 173.406C32.41 165.582 40.5818 160.008 49.4364 158.808Z" fill="#311206"/>
<path d="M49.6071 164.038C59.8913 164.038 68.2338 172.42 68.2338 182.753C68.2338 193.086 59.8913 201.468 49.6071 201.468C39.323 201.468 30.9591 193.086 30.9591 182.753C30.9591 172.42 39.3016 164.038 49.6071 164.038ZM62.601 182.753C62.601 175.55 56.7762 169.698 49.6071 169.698C42.4381 169.698 36.5919 175.55 36.5919 182.753C36.5919 189.956 42.4168 195.808 49.6071 195.808C56.7975 195.808 62.601 189.977 62.601 182.753Z" fill="#543832"/>
<path d="M67.6791 193.493C64.6493 199.324 58.2698 203.226 51.7195 203.269C57.6937 201.275 63.1985 197.909 67.6791 193.493Z" fill="#543832"/>
<path d="M49.6071 169.698C56.7762 169.698 62.601 175.55 62.601 182.753C62.601 189.956 56.7762 195.808 49.6071 195.808C42.4381 195.808 36.5919 189.978 36.5919 182.753C36.5919 175.529 42.4168 169.698 49.6071 169.698Z" fill="#E8EDEF"/>
<path d="M36.0372 162.002C39.8777 159.279 44.7851 158.014 49.4365 158.808C40.5818 160.008 32.41 165.582 28.0574 173.406C29.4229 168.883 32.1966 164.746 36.0372 162.002Z" fill="#543832"/>
<path d="M261.556 188.845C264.912 174.483 256.044 160.108 241.75 156.737C227.456 153.366 213.148 162.275 209.793 176.637C206.438 190.999 215.305 205.374 229.599 208.745C243.894 212.116 258.201 203.207 261.556 188.845Z" fill="#311206"/>
<path d="M242.845 200.014C252.34 196.037 256.828 185.079 252.87 175.539C248.912 165.999 238.006 161.489 228.51 165.466C219.015 169.443 214.527 180.401 218.485 189.941C222.443 199.481 233.349 203.991 242.845 200.014Z" fill="#543832"/>
<path d="M248.676 182.753C248.676 189.978 242.851 195.809 235.682 195.809C228.513 195.809 222.688 189.956 222.688 182.753C222.688 175.55 228.513 169.698 235.682 169.698C242.851 169.698 248.676 175.55 248.676 182.753Z" fill="#E8EDEF"/>
<path d="M214.132 173.407C218.485 165.582 226.657 160.008 235.511 158.808C230.881 157.993 225.974 159.279 222.133 162.002C218.293 164.746 215.519 168.862 214.154 173.385L214.132 173.407Z" fill="#543832"/>
<path d="M237.794 203.269C244.345 203.226 250.724 199.324 253.754 193.493C249.273 197.909 243.747 201.296 237.794 203.269Z" fill="#543832"/>
</g>
<defs>
<clipPath id="clip0_4_3002">
<rect width="296" height="210" fill="white"/>
</clipPath>
</defs>
</svg>
