<svg width="1440" height="900" viewBox="0 0 1440 900" fill="none" xmlns="http://www.w3.org/2000/svg">
<g clip-path="url(#clip0_18_6626)">
<rect width="1447" height="900" transform="translate(-7)" fill="#B5EBFF"/>
<path d="M1448.54 1.5H-1.47675V901.5H1448.54V1.5Z" fill="#B5EBFF"/>
<path d="M1442 208.16V485.574L1441.41 483.828C1441.25 483.332 1441.04 483.318 1440.78 483.786L1404.06 551.312C1399.84 544.573 1395.99 538.244 1392.54 532.327C1390.45 528.709 1383.38 526.623 1378.6 529.248C1376.71 530.284 1375.3 531.66 1374.33 533.377C1362.53 554.704 1350.21 577.137 1337.39 600.705C1334.46 606.083 1337.47 611.929 1345 612.667C1346.97 612.865 1348.84 612.951 1350.59 612.936C1359.18 612.851 1366.86 612.724 1373.63 612.567L1373.53 632.844L1297.87 632.645C1296.78 629.992 1294.75 628.119 1291.76 627.012C1291.04 626.743 1290.69 626.303 1290.69 625.664L1290.75 613.674C1290.76 613.149 1290.49 612.738 1289.93 612.44L1289.21 612.057C1288.67 611.773 1288.39 611.361 1288.39 610.822V562.508C1288.39 562.011 1288.58 561.557 1288.96 561.174C1290.05 560.081 1290.8 558.847 1291.22 557.471C1291.36 557.002 1291.69 556.591 1292.13 556.264C1295.09 554.079 1298.69 551.852 1299.42 548.432C1300.53 543.31 1301.63 538.216 1302.73 533.179C1302.87 532.554 1302.61 531.916 1302.07 531.476L1291.8 523.289C1289.17 521.189 1284.96 521.203 1282.35 523.303L1272.03 531.618C1271.43 532.1 1271.17 532.795 1271.35 533.462C1272.55 538.017 1273.64 542.813 1274.64 547.85C1275.37 551.61 1278.45 553.654 1281.74 555.952C1282.23 556.307 1282.58 556.733 1282.77 557.244C1283.31 558.691 1284.12 559.968 1285.22 561.06C1285.64 561.472 1285.85 561.954 1285.85 562.508V611.063C1285.87 611.631 1285.52 611.943 1284.8 612.014C1284.5 612.042 1284.2 612.113 1283.94 612.241C1283.36 612.511 1283 613.021 1283.02 613.561L1283.05 625.863C1283.05 626.359 1282.77 626.714 1282.21 626.927C1279.1 628.048 1276.96 629.963 1275.83 632.702L1226.82 632.929L1226.72 602.493C1239.68 602.678 1252.24 602.777 1264.44 602.777C1278.73 602.791 1285.83 594.377 1279.76 583.338C1261.95 550.972 1244.62 519.33 1227.75 488.426C1224.71 482.849 1221.72 476.89 1213.06 476.109C1205.1 475.386 1199.39 478.337 1195.97 484.949C1191.19 494.158 1183.09 508.901 1171.65 529.177C1166.73 527.716 1162.71 527.744 1159.54 529.291C1157.6 530.227 1156.22 531.462 1155.38 532.994C1142.49 556.335 1130.4 578.4 1119.08 599.187C1116.05 604.749 1116.63 608.665 1120.81 610.936C1123.03 612.142 1126.76 612.78 1131.97 612.88C1139.25 613.007 1146.51 612.993 1153.73 612.837L1154.15 632.872L1062.07 632.39L1054.68 627.012C1054.23 626.686 1054 626.26 1053.98 625.763C1053.88 621.649 1054.86 614.753 1051.95 611.475C1051.55 611.007 1051.33 610.439 1051.33 609.857C1051.41 595.342 1051.38 580.642 1051.26 565.757C1051.22 560.181 1055.3 555.385 1060.74 552.036C1061.42 551.61 1061.89 550.986 1062.03 550.291L1065.71 533.25C1065.83 532.682 1065.65 532.199 1065.15 531.788L1055.14 523.501C1052.43 521.26 1047.98 521.231 1045.22 523.445L1035.18 531.504C1034.58 531.972 1034.32 532.654 1034.48 533.335C1035.62 538.23 1036.72 543.338 1037.8 548.645C1038.47 551.951 1042.37 554.207 1045.15 556.364C1045.59 556.719 1045.88 557.13 1046.01 557.612C1046.37 558.975 1047.11 560.152 1048.21 561.131C1048.63 561.514 1048.84 561.969 1048.84 562.479V609.644C1048.84 610.212 1048.61 610.751 1048.19 611.205C1046.93 612.539 1046.04 613.348 1046.08 615.207C1046.16 618.825 1046.06 622.415 1045.74 625.976C1045.69 626.473 1045.41 626.856 1044.89 627.126C1042.12 628.474 1040.06 630.261 1038.68 632.489L982.696 632.674L982.032 602.465C995.117 602.663 1008.34 602.805 1021.71 602.876C1027.53 602.919 1031.94 601.273 1034.93 597.938C1038.5 593.951 1038.87 589.368 1036.04 584.189C1017.98 551.256 999.596 517.797 980.877 483.828C978.515 479.557 975.034 477.074 970.398 476.351C957.453 474.322 953.884 481.104 949.038 490.072C935.043 515.882 920.436 542.373 905.198 569.517C899.408 560.067 892.585 547.907 884.713 533.051C881.039 526.126 869.458 526.566 865.679 533.164C856.32 549.496 845.159 570.142 832.214 595.072C831.496 596.448 829.712 599.017 826.86 602.805L826.93 563.373C826.93 562.862 827.07 562.38 827.333 561.926L830.464 556.52C830.604 556.279 830.814 556.066 831.059 555.881C833.875 553.852 837.164 551.979 837.899 548.787C839.141 543.381 840.261 538.216 841.258 533.278C841.398 532.54 841.135 531.902 840.488 531.377L830.324 523.289C827.7 521.203 823.484 521.217 820.895 523.317L810.696 531.604C810.066 532.114 809.786 532.852 809.961 533.562C811.186 538.514 812.34 543.622 813.408 548.858C814.265 552.973 819.653 554.037 821.35 557.485C822.487 559.783 824.394 561.259 824.394 563.827C824.429 581.45 824.411 597.257 824.341 611.234C824.341 611.915 823.921 612.184 823.099 612.057C822.837 612.014 822.592 612.057 822.382 612.184C821.875 612.496 821.63 612.908 821.612 613.405L821.455 625.919C821.455 626.388 821.192 626.742 820.667 626.984C817.886 628.218 815.717 630.063 814.16 632.518L738.359 632.957V602.607C750.272 602.72 761.923 602.834 773.276 602.933C778.49 602.975 782.583 602.451 785.575 601.344C790.315 599.598 793.045 596.278 793.762 591.383C794.024 589.482 793.027 586.459 790.753 582.302C774.746 552.944 758.739 523.87 742.732 495.08C740.003 490.185 737.816 484.609 734.177 480.607C727.495 473.257 713.202 474.946 708.426 483.601C693.452 510.717 679.771 535.718 667.403 558.606C662.907 566.906 658.026 575.675 652.743 584.913C648.317 592.674 654.23 602.436 665.269 602.649C672.739 602.805 686.664 602.791 707.027 602.621L706.799 632.858C675.783 632.745 644.433 632.645 612.787 632.574C612.42 632.574 612.017 632.376 611.58 631.993C610.688 629.68 608.798 628.048 605.912 627.069C605.37 626.884 605.09 626.544 605.09 626.076L604.985 612.681C612.315 613.036 622.951 613.915 624.211 606.211C624.578 604.011 623.668 600.918 621.499 596.945C616.443 587.68 611.457 578.669 606.577 569.915C605.614 568.183 604.845 564.962 604.267 560.266L605.282 557.4C605.439 556.96 605.719 556.605 606.139 556.307C608.711 554.448 612.647 551.937 613.312 549.085C614.624 543.551 615.796 538.343 616.846 533.448C616.986 532.81 616.741 532.171 616.198 531.703C613.189 529.135 610.058 526.581 606.787 524.041C602.92 521.018 599.229 520.933 595.713 523.785C591.059 527.574 587.788 530.057 585.899 531.263C584.779 530.823 583.537 530.284 582.155 529.631C574.965 526.212 569.822 529.305 566.83 534.81C559.465 548.418 551.646 562.252 543.388 576.314C526.612 546.02 510.325 516.435 494.545 487.56C490.294 479.784 486.866 475.244 475.897 476.195C469.966 476.705 466.17 479.969 463.861 484.169C445.492 517.712 427.071 551.298 408.598 584.913C406.043 589.552 406.498 593.838 409.962 597.796C412.604 600.805 416.068 602.38 420.354 602.507C426.616 602.692 440.699 602.72 462.601 602.578L462.339 632.773L386.958 632.645C386.398 630.105 384.578 628.247 381.499 627.069C380.817 626.813 380.485 626.388 380.502 625.778C380.555 621.89 381.499 615.505 379.155 611.971C378.263 610.638 377.826 609.176 377.843 607.573C378.071 593.909 378.088 579.989 377.913 565.814C377.878 563.331 378.56 561.032 379.978 558.904C381.692 556.293 383.949 554.108 386.765 552.334C387.832 551.667 388.55 550.702 388.794 549.638L392.381 533.335C392.521 532.725 392.276 532.1 391.751 531.66C388.759 529.206 385.593 526.609 382.217 523.899C379.12 521.401 376.041 521.061 373.015 522.863C370.233 524.523 366.437 527.517 361.644 531.816C361.137 532.27 360.962 532.795 361.102 533.391C362.274 538.542 363.393 543.707 364.495 548.886C365.125 551.795 369.079 554.406 371.65 556.293C372.263 556.733 372.648 557.272 372.84 557.925C373.172 559.131 373.82 560.209 374.764 561.146C375.167 561.557 375.359 562.011 375.359 562.522V609.843C375.359 610.482 375.114 611.063 374.607 611.56L373.417 612.695C372.962 613.149 372.735 613.66 372.718 614.242L372.578 625.721C372.578 626.26 372.263 626.657 371.685 626.927C368.904 628.19 366.84 630.063 365.458 632.546L318.416 632.844L318.329 612.695C326.219 612.823 334.283 612.88 342.488 612.851C345.689 612.837 348.016 612.61 349.433 612.142C359.405 608.892 353.457 599.13 350.588 594.05C341.088 577.265 331.274 559.244 321.145 539.989C319.483 536.854 317.559 533.931 315.355 531.192C311.051 525.843 301.972 527.588 298.736 532.781C295.587 537.847 291.86 544.345 287.557 552.277C287.452 552.476 287.242 552.632 286.997 552.703C286.84 552.746 286.665 552.788 286.49 552.802C285.633 551.681 284.408 549.666 282.816 546.729C271.9 526.85 260.476 505.921 248.563 483.956C245.956 479.16 241.53 476.563 235.32 476.152C223.966 475.4 220.293 482.75 216.549 489.674C200.28 519.826 183.293 550.731 165.572 582.387C161.81 589.127 161.076 596.278 169.753 600.79C172.149 602.025 176.47 602.663 182.733 602.706C194.664 602.777 206.543 602.734 218.351 602.578L218.753 633L163 632.546C161.915 630.049 159.921 628.161 157.017 626.884C156.457 626.643 156.16 626.274 156.142 625.763C155.95 622.088 155.915 618.442 156.037 614.824C156.09 613.561 155.53 612.539 154.358 611.759C153.816 611.404 153.553 610.95 153.553 610.382V562.749C153.553 562.593 153.588 562.451 153.676 562.309L157.105 556.548C157.192 556.421 157.297 556.307 157.419 556.208C160.533 553.909 163.927 551.923 164.679 548.276C165.782 542.927 166.866 537.96 167.933 533.391C168.091 532.682 167.811 531.958 167.181 531.447L156.965 523.218C154.393 521.146 150.264 521.132 147.693 523.189L137.389 531.419C136.724 531.944 136.427 532.724 136.602 533.462L140.433 550.262C140.538 550.759 140.8 551.171 141.238 551.525L147.256 556.392C147.763 556.804 148.113 557.286 148.305 557.84C148.777 559.131 149.477 560.308 150.404 561.373C150.789 561.812 150.982 562.323 150.982 562.877L151.069 610.794C151.069 611.432 150.702 611.872 149.95 612.085L149.215 612.298C148.55 612.482 148.218 612.865 148.235 613.433V625.607C148.235 626.118 147.973 626.515 147.43 626.785C145.646 627.707 144.089 628.729 142.76 629.864C141.448 630.985 141.08 631.922 141.692 632.659L47.8374 632.844V612.752C54.5551 612.78 61.6576 612.865 69.145 613.021C73.3436 613.107 76.9998 612.61 80.1137 611.532C86.499 609.332 85.8867 603.94 83.5076 599.641C72.1715 579.18 60.2581 557.584 47.7674 534.839C46.2105 532.015 44.2512 530.057 41.8895 528.964C38.3032 527.304 34.2096 527.588 29.6087 529.816C20.7918 514.406 12.2022 498.954 3.82264 483.474C2.63305 481.274 0.586259 479.217 -2.31774 477.287L-3 473.938V245.364L104.238 245.406C105.375 245.406 106.302 246.158 106.302 247.081V321.659C106.302 322.497 107.142 323.178 108.192 323.178L166.044 322.993C166.726 322.993 167.286 323.447 167.286 324.001L167.618 457.181C167.618 457.961 168.371 458.614 169.333 458.671C174.913 459.011 180.197 458.969 185.165 458.529C186.057 458.444 186.739 457.834 186.739 457.11L186.652 434.521C186.652 433.74 187.422 433.102 188.384 433.102L229.04 432.96C229.897 432.96 230.579 432.406 230.579 431.711L230.527 345.724C230.527 344.547 231.716 343.582 233.186 343.582C274.332 343.568 317.244 343.553 361.924 343.568C371.615 343.568 381.587 344.759 391.086 344.22C401.81 343.61 412.849 343.355 424.167 343.468C425.252 343.482 426.162 344.135 426.284 345.015C426.564 347.044 426.686 349.03 426.669 350.96C426.406 378.53 426.371 405.419 426.546 431.654C426.546 432.563 427.491 433.272 428.593 433.215C434.506 432.903 440.979 432.96 447.994 433.371C450.268 433.499 452.455 433.371 454.554 432.988C455.236 432.846 455.709 432.321 455.621 431.754C455.149 428.221 454.589 424.702 454.624 421.126C454.712 408.895 454.642 396.777 454.414 384.759C454.414 383.936 455.201 383.269 456.216 383.269L521.906 383.141C523.025 383.141 523.935 383.879 523.935 384.787V457.763C523.935 458.543 524.74 459.182 525.72 459.167L553.448 458.699C554.13 458.685 554.672 458.231 554.672 457.678L554.62 199.561C554.62 198.78 555.389 198.142 556.351 198.142L639.22 198C639.868 198 640.375 198.411 640.392 198.936C640.585 210.87 640.777 222.505 641.565 234.31C642.107 242.498 642.089 250.472 641.512 258.233C640.9 266.392 640.567 274.21 640.497 281.702C640.2 317.36 640.235 353.684 640.637 390.662C640.637 391.329 641.302 391.854 642.124 391.839C661.927 391.442 680.891 392.265 699.994 392.01C719.885 391.74 741.14 391.612 763.725 391.655C766.856 391.669 769.935 391.556 772.944 391.343C774.186 391.258 775.271 392.066 775.236 393.088C774.553 414.826 774.501 436.323 775.043 457.592C775.078 459.096 776.67 460.274 778.525 460.161L807.81 458.458C808.457 458.43 808.964 457.99 808.964 457.465L808.999 313.756C808.999 313.089 809.664 312.55 810.486 312.55L972.812 312.408C973.687 312.408 974.387 312.976 974.387 313.685C974.299 352.89 974.299 389.413 974.387 423.269C974.422 435.188 973.862 446.198 972.707 456.301C972.62 456.996 972.2 457.99 971.448 459.253C971.133 459.806 971.343 460.033 972.078 459.962C983.781 458.784 996.254 458.458 1009.46 458.983C1011.07 459.054 1012.42 458.018 1012.42 456.713L1012.21 349.655C1012.21 348.818 1012.73 348.392 1013.77 348.392L1057.66 348.136C1058.34 348.136 1058.88 347.682 1058.88 347.143C1058.83 316.906 1058.81 286.002 1058.83 254.431C1058.83 247.932 1060.16 241.604 1059.56 235.105C1058.71 226.095 1058.55 216.645 1059.06 206.769C1059.09 206.074 1059.81 205.52 1060.67 205.52L1172.94 205.378C1173.52 205.378 1173.99 205.747 1173.99 206.216L1174.1 371.946C1174.1 372.797 1174.62 373.223 1175.65 373.223L1203.58 373.294C1204.75 373.294 1205.32 373.776 1205.32 374.727L1205.25 456.741C1205.25 458.245 1206.18 458.969 1208.04 458.912L1219.35 458.543C1220.51 458.501 1221.4 457.72 1221.38 456.784C1220.89 439.742 1221 423.382 1221.7 407.675C1221.82 405.163 1223.41 403.886 1226.51 403.872L1256.25 403.687C1257.14 403.687 1257.88 403.091 1257.88 402.354L1257.93 313.401C1257.93 312.905 1258.44 312.507 1259.05 312.507C1276.45 312.55 1293 312.507 1308.73 312.351C1313.02 312.309 1317.41 312.465 1321.9 312.791C1327.71 313.217 1333.75 313.671 1339.64 313.117C1345.19 312.607 1350.89 312.294 1356.77 312.167C1358.64 312.124 1359.59 311.358 1359.59 309.868L1359.31 209.891C1359.29 208.912 1360.29 208.103 1361.49 208.103L1442 208.16Z" fill="white" fill-opacity="0.33"/>
<path d="M1440 484H-7V900H1440V484Z" fill="#0357A4"/>
<g opacity="0.5">
<path d="M1440 780H-7V851H1440V780Z" fill="#85A4D9"/>
</g>
<g opacity="0.5">
<path d="M1458 731H-1V760H1458V731Z" fill="#85A4D9" style="mix-blend-mode:multiply"/>
</g>
<g opacity="0.5">
<path d="M1440 509H-7V686H1440V509Z" fill="#85A4D9"/>
</g>
<path d="M91.96 358.712L96.28 357.052C93.43 349.632 87.6 344.782 80.68 344.082C73.6 343.382 66.72 347.182 62.21 354.282L66.11 356.762C69.72 351.082 74.88 348.152 80.22 348.682C85.37 349.202 89.76 352.942 91.97 358.702L91.96 358.712Z" fill="black"/>
<path d="M96.1 358.712C98.31 352.952 102.7 349.212 107.85 348.692C113.21 348.152 118.34 351.102 121.96 356.772L125.86 354.292C121.34 347.192 114.43 343.392 107.39 344.092C100.47 344.792 94.64 349.632 91.79 357.062L96.11 358.722L96.1 358.712Z" fill="black"/>
<path d="M90.97 354H95.86V486.96H90.97V354Z" fill="black"/>
<path d="M130.86 371.68C130.86 360.26 126.41 351 120.93 351C115.45 351 111 360.26 111 371.68" fill="black"/>
<path d="M75.86 371.68C75.86 360.26 71.41 351 65.93 351C60.45 351 56 360.26 56 371.68" fill="black"/>
</g>
<path opacity="0.5" d="M1836.78 -23.8126C1836.66 -21.7931 1836.21 -19.7887 1835.47 -17.845C1835.19 -17.0706 1834.84 -16.2962 1834.46 -15.537C1832.14 -10.9816 1828.29 -6.79053 1823.45 -3.3588C1820.97 -1.59737 1818.23 -0.230804 1815.37 0.756195C1814.19 1.16618 1812.98 1.51541 1811.75 1.78874C1811.05 1.94058 1810.35 2.07726 1809.65 2.18355C1808.24 2.39613 1806.82 2.53281 1805.39 2.56317C1803.96 2.60872 1802.53 2.5632 1801.12 2.41136C1797.57 2.04694 1794.07 1.12061 1790.83 -0.382675C1790.87 0.740997 1790.89 1.87984 1790.89 3.01869C1790.89 3.38312 1790.89 3.76282 1790.89 4.12724C1790.89 4.90166 1790.87 5.67604 1790.84 6.45045C1790.84 6.89081 1790.81 7.31595 1790.8 7.7563C1790.77 8.48517 1790.72 9.21411 1790.68 9.9278C1790.65 10.3681 1790.62 10.8085 1790.59 11.2489C1790.52 12.084 1790.43 12.9191 1790.36 13.7543C1790.3 14.3161 1790.24 14.878 1790.16 15.4398C1790.05 16.2446 1789.96 17.0494 1789.84 17.839C1789.76 18.3856 1789.66 18.9323 1789.57 19.4789C1789.47 20.0256 1789.38 20.5723 1789.28 21.1189C1789.17 21.7111 1789.05 22.3185 1788.91 22.9107C1788.81 23.3966 1788.7 23.8673 1788.59 24.3532C1788.44 24.991 1788.3 25.6136 1788.14 26.2361C1788.04 26.6006 1787.94 26.9801 1787.83 27.3446C1787.44 28.8023 1787.01 30.2449 1786.52 31.6571C1786.46 31.8241 1786.42 31.9911 1786.35 32.1581C1786.11 32.8718 1785.85 33.5703 1785.58 34.2688C1785.46 34.5877 1785.34 34.9065 1785.21 35.2102C1784.94 35.8935 1784.65 36.5769 1784.36 37.245C1784.22 37.5487 1784.1 37.8372 1783.97 38.1409C1783.65 38.8394 1783.33 39.5379 1782.99 40.2212C1782.92 40.373 1782.82 40.5248 1782.75 40.6919C1780.18 45.7787 1776.97 50.4861 1772.98 54.6011C1759.27 68.7684 1735.46 73.673 1719.6 62.0415C1706.16 85.927 1678.67 100.914 1651.6 99.1074C1624.53 97.3004 1599.21 78.8055 1588.96 53.3559C1564.13 61.0698 1538.9 55.3299 1518.91 41.2689C1518.05 40.6615 1517.2 40.039 1516.37 39.4012C1516.18 39.2646 1515.98 39.1279 1515.8 38.9761C1515.04 38.3839 1514.28 37.7765 1513.54 37.1691C1513.29 36.9717 1513.05 36.7743 1512.8 36.5617C1512.09 35.9695 1511.39 35.3621 1510.69 34.7395C1510.43 34.5117 1510.17 34.2688 1509.91 34.0411C1509.24 33.4337 1508.57 32.8111 1507.9 32.1733C1507.65 31.9152 1507.39 31.657 1507.13 31.3989C1506.79 31.0648 1506.46 30.7308 1506.12 30.3967C1506.08 30.5182 1506.05 30.6245 1506 30.7459C1505.7 31.5507 1505.33 32.3555 1504.94 33.1451C1502.53 37.8979 1498.52 42.256 1493.49 45.8092C1489.84 48.4058 1485.67 50.1975 1481.32 51.1541C1479.88 51.473 1478.4 51.7008 1476.92 51.8375C1475.45 51.9741 1473.96 52.0197 1472.47 51.959C1471.72 51.9286 1470.99 51.883 1470.24 51.8071C1466.55 51.4427 1462.92 50.4709 1459.55 48.8916C1459.59 50.0609 1459.61 51.2453 1459.62 52.4297C1459.62 52.8093 1459.62 53.2041 1459.62 53.5838C1459.62 54.3885 1459.61 55.1933 1459.58 55.9829C1459.58 56.4384 1459.55 56.894 1459.53 57.3495C1459.5 58.1088 1459.45 58.8528 1459.41 59.612C1459.38 60.0676 1459.35 60.5231 1459.32 60.9787C1459.26 61.8442 1459.17 62.7097 1459.07 63.5752C1459.01 64.1674 1458.95 64.7445 1458.88 65.3215C1458.77 66.1566 1458.66 66.9918 1458.54 67.827C1458.45 68.404 1458.36 68.9658 1458.25 69.5428C1458.16 70.1198 1458.05 70.6816 1457.95 71.2587C1457.83 71.8812 1457.7 72.5038 1457.57 73.1112C1457.46 73.6123 1457.36 74.1134 1457.23 74.6145C1457.08 75.2674 1456.93 75.9203 1456.76 76.5733C1456.67 76.9529 1456.55 77.3325 1456.46 77.7121C1456.05 79.2306 1455.61 80.7187 1455.1 82.1916C1455.04 82.3738 1454.98 82.5561 1454.92 82.7383C1454.66 83.4671 1454.39 84.196 1454.11 84.9249C1453.99 85.2589 1453.87 85.593 1453.73 85.9119C1453.44 86.6256 1453.16 87.3241 1452.85 88.0378C1452.71 88.3415 1452.58 88.6603 1452.44 88.964C1452.11 89.6929 1451.79 90.4066 1451.42 91.1202C1451.34 91.2873 1451.25 91.4391 1451.18 91.6062C1450.32 93.2917 1449.41 94.9316 1448.42 96.526C1446.29 99.9425 1443.84 103.147 1441.01 106.062C1426.75 120.791 1401.97 125.908 1385.47 113.806C1371.49 138.648 1342.9 154.243 1314.73 152.36C1286.56 150.492 1260.22 131.238 1249.56 104.756C1222.61 113.123 1195.22 106.259 1174.04 90.2395C1173.84 90.0876 1173.65 89.951 1173.46 89.8144C1172.65 89.207 1171.87 88.5692 1171.08 87.9315C1170.82 87.7189 1170.58 87.5215 1170.34 87.3089C1169.59 86.6863 1168.86 86.0485 1168.13 85.4108C1167.86 85.1678 1167.58 84.9249 1167.31 84.6819C1166.61 84.0442 1165.91 83.3912 1165.22 82.7383C1164.95 82.4801 1164.68 82.2068 1164.42 81.9335C1163.75 81.2654 1163.06 80.5972 1162.41 79.9139C1162.17 79.6558 1161.92 79.3824 1161.68 79.1243C1161.01 78.4106 1160.34 77.697 1159.7 76.9529C1159.58 76.8162 1159.46 76.6796 1159.35 76.5278C1157.92 74.8727 1156.54 73.172 1155.2 71.4258C1155.06 71.2587 1154.92 71.0916 1154.8 70.9094C1154.33 70.2869 1153.89 69.6491 1153.43 69.0113C1153.08 68.5254 1152.73 68.0396 1152.38 67.5385C1151.99 66.9463 1151.59 66.354 1151.21 65.7618C1150.85 65.2 1150.46 64.623 1150.11 64.0611C1149.75 63.4841 1149.41 62.9071 1149.06 62.3301C1148.7 61.7075 1148.33 61.0849 1147.97 60.4624C1147.65 59.9005 1147.33 59.3387 1147.03 58.7617C1146.81 58.3669 1146.58 57.9721 1146.39 57.5773C1140.44 61.5557 1133.57 64.1978 1126.51 65.2456C1122.37 75.8748 1113.52 84.9249 1102.76 88.797C1093.22 92.2439 1082.19 91.9098 1071.73 88.7362C1065.88 86.9596 1060.21 84.2871 1055.09 80.8858C1054.84 80.7339 1054.61 80.5669 1054.37 80.3999C1053.84 80.0354 1053.29 79.671 1052.77 79.2762C1051.68 78.4714 1050.61 77.6362 1049.59 76.7707C1049.3 76.5277 1049.01 76.2848 1048.73 76.0267C1048.3 75.6622 1047.89 75.2978 1047.49 74.9182C1047.14 74.5993 1046.81 74.2652 1046.46 73.9312C1045.93 73.3997 1045.39 72.8682 1044.88 72.3216C1044.5 71.9116 1044.1 71.5016 1043.73 71.0764C1043.45 70.7424 1043.16 70.4084 1042.88 70.0743C1042.49 69.6036 1042.11 69.1329 1041.74 68.6621C1041.53 68.3888 1041.3 68.1154 1041.1 67.8421C1040.57 67.1132 1040.05 66.3844 1039.55 65.6404C1039.37 65.3671 1039.2 65.0937 1039.03 64.8204C1038.67 64.2282 1038.3 63.636 1037.97 63.0438C1037.83 62.7856 1037.68 62.5427 1037.54 62.2845C1037.1 61.4646 1036.67 60.6294 1036.29 59.779C1036.22 59.5968 1036.14 59.4146 1036.07 59.2324C1035.75 58.5187 1035.46 57.7899 1035.18 57.061C1035.09 56.8029 1035 56.5599 1034.91 56.3018C1034.59 55.3907 1034.3 54.4796 1034.06 53.5534C1024.09 57.5317 1012.94 59.7639 1002.68 56.651C998.739 55.4514 995.011 53.2801 991.922 50.4557C991.542 58.0329 989.655 65.6555 985.85 71.6839C982.701 76.6644 978.242 80.5668 972.247 82.4498C971.501 82.6927 970.74 82.875 969.979 83.0572C969.827 83.0876 969.66 83.1331 969.508 83.1635C968.808 83.3153 968.108 83.4368 967.408 83.5279C967.149 83.5583 966.906 83.5886 966.647 83.619C966.114 83.6797 965.582 83.7253 965.064 83.7709C964.593 83.8013 964.121 83.8316 963.649 83.8468C963.33 83.8468 962.995 83.8619 962.675 83.8771C961.762 83.8771 960.849 83.8772 959.936 83.8316C957.045 83.6798 954.169 83.285 951.339 82.7232C952.298 99.7907 950.061 115.355 937.218 127.108C926.292 137.099 911.821 142.794 897.213 143.872C883.959 144.844 870.158 142.687 858.852 135.627C847.546 128.55 839.101 116.099 838.812 102.63C829.286 110.42 814.678 109.752 804.513 102.828C794.348 95.9034 788.383 83.862 786.497 71.608C783.575 73.3542 780.669 74.5386 777.808 75.2826C772.178 76.7707 766.745 76.4366 761.754 74.7815C759.852 77.7273 757.707 80.5366 755.241 83.0876C741.531 97.2549 717.717 102.159 701.861 90.528C688.425 114.414 660.928 129.401 633.858 127.594C606.787 125.787 581.467 107.292 571.226 81.8424C546.392 89.5562 521.163 83.8164 501.168 69.7554C500.316 69.148 499.464 68.5255 498.627 67.8877C498.445 67.751 498.247 67.6143 498.064 67.4625C497.303 66.8703 496.542 66.2629 495.797 65.6555C495.553 65.4581 495.31 65.2608 495.066 65.0482C494.351 64.456 493.651 63.8486 492.951 63.226C492.693 62.9982 492.434 62.7552 492.175 62.5275C491.506 61.9201 490.836 61.2975 490.167 60.6598C489.908 60.4016 489.649 60.1435 489.391 59.8853C489.056 59.5513 488.721 59.2173 488.386 58.8832C488.341 59.0047 488.31 59.1109 488.265 59.2324C487.96 60.0372 487.595 60.842 487.199 61.6316C484.795 66.3844 480.778 70.7424 475.756 74.2956C472.104 76.8922 467.935 78.684 463.583 79.6406C462.137 79.9595 460.661 80.1873 459.185 80.324C457.709 80.4606 456.218 80.5062 454.727 80.4455C453.981 80.4151 453.251 80.3695 452.505 80.2935C448.808 79.9291 445.186 78.9573 441.808 77.3781C441.854 78.5473 441.869 79.7318 441.884 80.9162C441.884 81.2958 441.884 81.6905 441.884 82.0701C441.884 82.8749 441.869 83.6797 441.838 84.4693C441.838 84.9249 441.808 85.3805 441.793 85.836C441.762 86.5952 441.717 87.3393 441.671 88.0985C441.641 88.554 441.61 89.0096 441.58 89.4651C441.519 90.3307 441.427 91.1962 441.336 92.0617C441.275 92.6539 441.214 93.2309 441.138 93.8079C441.032 94.6431 440.925 95.4782 440.804 96.3134C440.712 96.8904 440.621 97.4522 440.515 98.0292C440.423 98.6063 440.317 99.1681 440.21 99.7451C440.088 100.368 439.967 100.99 439.83 101.598C439.723 102.099 439.617 102.6 439.495 103.101C439.343 103.754 439.191 104.407 439.023 105.06C438.932 105.439 438.81 105.819 438.719 106.199C438.308 107.717 437.867 109.205 437.365 110.678C437.304 110.86 437.243 111.043 437.182 111.225C436.923 111.954 436.649 112.682 436.375 113.411C436.254 113.745 436.132 114.079 435.995 114.398C435.706 115.112 435.417 115.811 435.113 116.524C434.976 116.828 434.839 117.147 434.702 117.451C434.367 118.179 434.047 118.893 433.682 119.607C433.606 119.774 433.515 119.926 433.439 120.093C432.587 121.778 431.674 123.418 430.685 125.012C428.554 128.429 426.104 131.633 423.274 134.548C409.016 149.278 384.228 154.395 367.733 142.293C353.749 167.135 325.157 182.729 296.991 180.847C268.825 178.979 242.484 159.725 231.818 133.243C204.869 141.609 177.479 134.746 156.297 118.726C156.099 118.574 155.917 118.438 155.719 118.301C154.912 117.693 154.136 117.056 153.345 116.418C153.086 116.205 152.843 116.008 152.599 115.795C151.854 115.173 151.123 114.535 150.393 113.897C150.119 113.654 149.845 113.411 149.571 113.168C148.871 112.531 148.171 111.878 147.487 111.225C147.213 110.967 146.939 110.693 146.68 110.42C146.011 109.752 145.326 109.084 144.672 108.4C144.428 108.142 144.185 107.869 143.941 107.611C143.272 106.897 142.602 106.183 141.963 105.439C141.841 105.303 141.719 105.166 141.613 105.014C140.183 103.359 138.798 101.658 137.459 99.9121C137.322 99.7451 137.185 99.5781 137.063 99.3959C136.591 98.7733 136.15 98.1356 135.694 97.4978C135.344 97.0119 134.994 96.5259 134.644 96.0249C134.248 95.4327 133.852 94.8405 133.472 94.2483C133.107 93.6864 132.726 93.1094 132.376 92.5476C132.011 91.9706 131.676 91.3935 131.327 90.8165C130.961 90.1939 130.596 89.5714 130.231 88.9488C129.911 88.387 129.592 87.8252 129.287 87.2482C129.074 86.8534 128.846 86.4585 128.648 86.0637C122.699 90.0421 115.836 92.6843 108.775 93.732C104.636 104.361 95.7802 113.411 85.022 117.283C75.4812 120.73 64.4491 120.396 53.9952 117.223C48.1368 115.446 42.4762 112.774 37.3482 109.372C37.1047 109.22 36.8765 109.053 36.633 108.886C36.1004 108.522 35.5526 108.157 35.0352 107.763C33.9396 106.958 32.8745 106.123 31.8549 105.257C31.5658 105.014 31.2767 104.771 30.9876 104.513C30.5615 104.149 30.1507 103.784 29.755 103.405C29.405 103.086 29.0703 102.752 28.7203 102.418C28.1877 101.886 27.6551 101.355 27.1378 100.808C26.7573 100.398 26.3617 99.9881 25.9965 99.5629C25.7074 99.2289 25.4183 98.8948 25.1444 98.5608C24.7487 98.09 24.3683 97.6193 24.0031 97.1486C23.7901 96.8753 23.5619 96.6019 23.364 96.3286C22.8315 95.5997 22.3141 94.8708 21.812 94.1268C21.6293 93.8534 21.4619 93.5802 21.2946 93.3068C20.9294 92.7146 20.5641 92.1225 20.2294 91.5303C20.0924 91.2721 19.9403 91.0292 19.8033 90.771C19.3621 89.951 18.936 89.1158 18.5556 88.2655C18.4795 88.0833 18.4034 87.9011 18.3273 87.7189C18.0078 87.0052 17.7187 86.2763 17.4448 85.5475C17.3535 85.2893 17.2621 85.0464 17.1708 84.7882C16.8513 83.8772 16.5622 82.9661 16.3187 82.0398C6.35178 86.0182 -4.80209 88.2503 -15.0581 85.1375C-18.9993 83.9379 -22.7274 81.7664 -25.8163 78.9421C-26.1968 86.5192 -28.0836 94.142 -31.8878 100.17C-35.0376 105.151 -39.4962 109.053 -45.4915 110.936C-46.2372 111.179 -46.998 111.361 -47.7588 111.544C-47.911 111.574 -48.0784 111.62 -48.2305 111.65C-48.9305 111.802 -49.6305 111.923 -50.3304 112.014C-50.5891 112.045 -50.8326 112.075 -51.0912 112.105C-51.6238 112.166 -52.1564 112.212 -52.6738 112.257C-53.1455 112.288 -53.6172 112.318 -54.0889 112.333C-54.4085 112.333 -54.7433 112.348 -55.0628 112.364C-55.9758 112.364 -56.8888 112.364 -57.8018 112.318C-60.693 112.166 -63.569 111.771 -66.3993 111.21C-65.4406 128.277 -67.6775 143.841 -80.5204 155.594C-91.4459 165.586 -105.917 171.28 -120.525 172.358C-133.779 173.33 -147.58 171.174 -158.886 164.113C-170.192 157.037 -178.638 144.586 -178.927 131.117C-188.452 138.906 -203.06 138.238 -213.225 131.314C-223.39 124.39 -229.355 112.348 -231.242 100.094C-234.163 101.841 -237.07 103.025 -239.93 103.769C-251.663 106.867 -262.588 102.159 -270.242 93.656C-270.333 93.5649 -270.409 93.4738 -270.501 93.3675C-270.866 92.9424 -271.231 92.5172 -271.581 92.0921C-271.718 91.925 -271.855 91.758 -271.977 91.591C-272.296 91.181 -272.601 90.771 -272.905 90.3458C-273.057 90.1332 -273.209 89.9207 -273.362 89.7081C-273.635 89.3133 -273.925 88.9033 -274.183 88.4933C-274.335 88.2504 -274.503 87.9922 -274.655 87.7493C-274.898 87.3545 -275.142 86.9444 -275.385 86.5344C-275.538 86.2611 -275.69 85.9726 -275.842 85.6993C-276.055 85.3045 -276.283 84.9097 -276.481 84.4997C-276.633 84.1809 -276.785 83.862 -276.937 83.5431C-277.12 83.1635 -277.318 82.7686 -277.485 82.3738C-277.713 81.8424 -277.927 81.2957 -278.14 80.7643C-278.322 80.3087 -278.49 79.8684 -278.642 79.3977C-278.809 78.927 -278.976 78.4714 -279.129 78.0006C-279.235 77.6818 -279.326 77.3478 -279.418 77.0137C-279.555 76.5733 -279.676 76.133 -279.798 75.6774C-279.889 75.3434 -279.966 74.9942 -280.042 74.6601C-280.148 74.2197 -280.239 73.7642 -280.331 73.3238C-280.392 72.9746 -280.453 72.6404 -280.513 72.2912C-280.589 71.8356 -280.666 71.3802 -280.726 70.9246C-280.772 70.5754 -280.818 70.2413 -280.863 69.8921C-280.924 69.4214 -280.955 68.9506 -281 68.495C-281.031 68.161 -281.061 67.8269 -281.076 67.4777C-281.107 66.9918 -281.122 66.5059 -281.122 66.0048C-281.122 65.6859 -281.137 65.3671 -281.137 65.0482C-281.137 64.5015 -281.107 63.97 -281.092 63.4234C-281.092 63.1501 -281.092 62.8768 -281.061 62.6035C-281.016 61.7987 -280.939 60.9938 -280.833 60.189C-280.833 60.189 -280.833 60.189 -280.833 60.1739C-285.2 61.6164 -289.963 61.7075 -294.421 60.5839C-298.515 59.5665 -302.349 57.5318 -305.423 54.6163C-309.836 50.4253 -312.545 44.5033 -313.108 38.3991C-313.366 35.6203 -313.168 32.8111 -312.484 30.1082C-316.379 32.1581 -321.051 32.31 -325.19 30.8978C-328.416 29.8045 -331.307 27.7546 -333.254 24.9151C-334.609 22.9563 -335.43 20.6937 -335.796 18.3401C-335.811 18.2186 -335.841 18.0972 -335.856 17.9909C-336.252 14.9084 -335.826 11.6892 -334.624 8.83446C-333.757 6.76935 -332.509 4.88646 -330.865 3.368C-329.694 2.28989 -328.4 1.43948 -327.031 0.740982C-325.661 0.0576782 -324.231 -0.47374 -322.74 -0.8078C-322.146 -0.944458 -321.538 -1.05078 -320.914 -1.14189C-318.449 -1.49113 -315.877 -1.44559 -313.29 -1.14189C-309.425 -0.655975 -305.53 0.467682 -301.984 1.87985C-298.423 -1.56708 -294.467 -4.49771 -290.222 -6.94244C-274.944 -15.704 -256.014 -17.8906 -239.002 -13.3048C-237.115 -12.7886 -235.244 -12.1963 -233.418 -11.5282C-231.576 -10.8449 -229.781 -10.0856 -228.016 -9.25046C-223.603 -7.13979 -219.449 -4.49771 -215.645 -1.32411C-190.537 -23.676 -149.437 -24.6022 -123.371 -3.41959C-115.884 -13.8818 -105.156 -22.2638 -92.7698 -25.3463C-92.0546 -25.5285 -91.3394 -25.6803 -90.6242 -25.8018C-89.1939 -26.06 -87.7787 -26.2118 -86.3484 -26.2877C-84.9332 -26.3637 -83.5181 -26.3485 -82.1181 -26.2877C-75.8032 -25.9385 -69.5948 -24.1466 -63.4472 -22.1423C-62.0777 -21.7019 -60.7234 -21.2464 -59.3691 -20.7909C-56.7823 -19.9254 -29.727 -4.36105 -32.9377 -1.4304C-29.727 -4.37624 -26.2424 -6.98798 -22.5599 -9.28087C-18.8775 -11.5738 -14.982 -13.5174 -10.9648 -15.1118C-9.62576 -15.6433 -8.27148 -16.1444 -6.90198 -16.5999C5.42355 -20.6846 18.8142 -21.55 31.4897 -18.7257C34.807 -17.9816 38.0786 -16.9795 41.2589 -15.7344C44.1044 -16.5695 47.026 -17.1769 49.978 -17.4957C53.3561 -17.8602 56.7647 -17.8754 60.1276 -17.5565C61.9079 -17.3895 63.6882 -17.1314 65.4381 -16.7821C67.1272 -16.4481 68.8163 -16.0228 70.4597 -15.5217C77.0789 -13.5022 83.3026 -10.1919 88.6284 -5.72762C89.3284 -6.53241 90.0588 -7.3069 90.8044 -8.08131C95.8107 -13.1682 101.745 -17.2832 108.182 -20.2746C108.775 -20.5479 109.354 -20.8061 109.962 -21.0642C117.51 -24.2834 125.681 -25.9689 133.852 -25.8322L135.968 -26.3788C135.526 -26.1814 135.1 -25.9992 134.659 -25.8018C141.674 -25.5741 148.628 -24.0404 155.125 -21.3375C155.582 -21.4893 156.054 -21.6412 156.525 -21.7626C157.058 -21.9145 157.606 -22.0512 158.154 -22.1727C160.893 -22.7952 163.753 -23.1293 166.416 -23.2963C182.196 -24.3592 197.96 -25.407 213.74 -26.4699C221.942 -27.0166 230.159 -27.5632 238.376 -28.0643C243.854 -28.3984 249.332 -28.702 254.825 -28.9754C260.303 -29.2487 265.796 -29.4765 271.274 -29.6587C276.753 -29.8409 282.246 -29.9624 287.724 -30.0231C293.202 -30.0839 298.68 -30.0687 304.158 -29.9624C309.636 -29.8561 315.099 -29.6739 320.561 -29.4006C328.763 -28.9754 336.95 -28.3224 345.121 -27.3962C346.019 -27.2899 346.947 -27.1685 347.86 -26.9711C350.599 -26.394 353.216 -25.2856 354.327 -22.7953C354.662 -22.0209 354.799 -21.2161 354.784 -20.4113C354.738 -18.9839 354.175 -17.5717 353.308 -16.3569C353.064 -16.0077 352.79 -15.6888 352.486 -15.3699C352.182 -15.0511 351.877 -14.7777 351.543 -14.5196C351.375 -14.3981 351.208 -14.2767 351.025 -14.1552C348.225 -12.333 344.771 -11.9534 341.469 -11.6345C361.433 -11.6648 381.413 -11.6952 401.377 -11.7104C408.438 -11.7104 415.498 -11.7256 422.559 -11.7104C423.913 -13.2592 425.465 -14.6411 427.063 -15.9318C432.374 -20.229 438.141 -23.6456 444.243 -26.3788C445.003 -26.7281 445.779 -27.0469 446.54 -27.381C448.092 -28.0187 449.66 -28.6261 451.242 -29.188C452.825 -29.7498 454.423 -30.2813 456.036 -30.7672C468.955 -34.7152 482.832 -36.4615 496.497 -37.6003C497.349 -37.6763 498.201 -37.7369 499.053 -37.8129C500.757 -37.9495 502.462 -38.071 504.151 -38.1925C508.625 -38.5114 513.129 -38.8302 517.633 -39.058C522.137 -39.2858 526.626 -39.4376 531.13 -39.4376C538.997 -39.4376 546.833 -39.0125 554.594 -37.7825C555.705 -37.6003 556.801 -37.4181 557.911 -37.2055C575.578 -33.8801 592.955 -25.6955 604.14 -11.4523C606.559 -15.1421 609.77 -17.9361 613.467 -20.0771C614.943 -20.9275 616.496 -21.6715 618.109 -22.3397C618.915 -22.6737 619.737 -22.9775 620.574 -23.266C627.239 -25.5589 634.68 -26.5307 641.649 -27.1988C660.122 -28.9602 678.762 -30.4787 697.403 -30.9646C705.224 -31.162 713.03 -31.162 720.836 -30.9646C722.997 -32.6349 725.249 -34.1534 727.608 -35.5048C742.885 -44.2664 761.815 -46.453 778.827 -41.8672C780.714 -41.351 782.586 -40.7587 784.412 -40.0906C786.253 -39.4073 788.049 -38.648 789.814 -37.8129C794.227 -35.7022 798.381 -33.0601 802.185 -29.8865C827.292 -52.2384 868.393 -53.1646 894.459 -31.982C901.946 -42.4442 912.673 -50.8262 925.06 -53.9087C925.775 -54.0909 926.49 -54.2427 927.205 -54.3642C928.636 -54.6223 930.051 -54.7742 931.481 -54.8501C932.896 -54.9261 934.311 -54.9109 935.711 -54.8501C942.026 -54.5009 948.235 -52.7091 954.382 -50.7047C955.752 -50.2644 957.106 -49.8088 958.46 -49.3533C961.047 -48.4877 988.103 -32.9234 984.892 -29.9928C988.103 -32.9386 991.587 -35.5504 995.27 -37.8433C998.952 -40.1362 1002.85 -42.0798 1006.86 -43.6742C1008.2 -44.2057 1009.56 -44.7067 1010.93 -45.1623C1023.25 -49.247 1036.64 -50.1125 1049.32 -47.2882C1052.64 -46.5441 1055.91 -45.5419 1059.09 -44.2967C1061.93 -45.1319 1064.86 -45.7392 1067.81 -46.0581C1071.19 -46.4225 1074.58 -46.4378 1077.96 -46.1189C1079.74 -45.9519 1081.52 -45.6937 1083.27 -45.3445C1084.96 -45.0104 1086.65 -44.5852 1088.29 -44.0841C1094.91 -42.0646 1101.13 -38.7543 1106.46 -34.29C1107.16 -35.0948 1107.89 -35.8693 1108.63 -36.6437C1113.64 -41.7306 1119.57 -45.8456 1126.01 -48.8369C1126.6 -49.1103 1127.18 -49.3684 1127.79 -49.6266C1135.34 -52.8457 1143.51 -54.5313 1151.68 -54.3946L1153.8 -54.9412C1153.36 -54.7438 1152.93 -54.5616 1152.49 -54.3642C1159.5 -54.1364 1166.46 -52.6028 1172.95 -49.8999C1173.41 -50.0517 1173.88 -50.2036 1174.35 -50.3251C1174.89 -50.477 1175.44 -50.6136 1175.98 -50.735C1178.72 -51.3576 1181.58 -51.6917 1184.25 -51.8587C1200.03 -52.9216 1215.79 -53.9694 1231.57 -55.0323C1239.77 -55.579 1247.99 -56.1256 1256.21 -56.6267C1261.68 -56.9608 1267.16 -57.2645 1272.65 -57.5378C1278.13 -57.8112 1283.63 -58.0388 1289.1 -58.2211C1294.58 -58.4033 1300.08 -58.5247 1305.55 -58.5855C1311.03 -58.6462 1316.51 -58.6311 1321.99 -58.5248C1327.47 -58.4185 1332.93 -58.2363 1338.39 -57.963C1346.59 -57.5378 1354.78 -56.8848 1362.95 -55.9586C1363.85 -55.8523 1364.78 -55.7309 1365.69 -55.5334C1368.43 -54.9564 1371.05 -53.8479 1372.16 -51.3577C1372.49 -50.5833 1372.63 -49.7784 1372.61 -48.9736C1372.57 -47.5463 1372 -46.134 1371.14 -44.9193C1370.89 -44.57 1370.62 -44.2512 1370.32 -43.9323C1370.03 -43.6286 1369.71 -43.3401 1369.37 -43.082C1369.2 -42.9605 1369.04 -42.8391 1368.85 -42.7176C1366.05 -40.8954 1362.62 -40.5157 1359.3 -40.1969C1379.26 -40.2272 1399.24 -40.2576 1419.21 -40.2728C1426.27 -40.2728 1433.33 -40.2879 1440.39 -40.2728C1441.74 -41.8216 1443.29 -43.2035 1444.89 -44.4942C1450.2 -48.7914 1455.97 -52.208 1462.07 -54.9412C1462.83 -55.2905 1463.61 -55.6093 1464.37 -55.9434C1465.92 -56.5811 1467.49 -57.1885 1469.07 -57.7504C1470.65 -58.3122 1472.25 -58.8437 1473.87 -59.3296C1486.78 -63.2776 1500.66 -65.0239 1514.33 -66.1627C1515.18 -66.2386 1516.03 -66.2993 1516.88 -66.3752C1518.59 -66.5119 1520.29 -66.6334 1521.98 -66.7549C1526.45 -67.0737 1530.96 -67.3926 1535.46 -67.6204C1539.97 -67.8482 1544.46 -68 1548.96 -68C1556.83 -68 1564.66 -67.5749 1572.42 -66.3449C1573.53 -66.1627 1574.63 -65.9805 1575.74 -65.7679C1593.41 -62.4425 1610.79 -54.2579 1621.97 -40.0146C1624.39 -43.7045 1627.6 -46.4985 1631.3 -48.6395C1632.77 -49.4899 1634.33 -50.2339 1635.94 -50.902C1636.74 -51.2361 1637.57 -51.5399 1638.4 -51.8284C1645.07 -54.1213 1652.51 -55.093 1659.48 -55.7612C1677.95 -57.5226 1696.59 -59.0411 1715.23 -59.527C1739.2 -60.1496 1763.15 -59.0867 1786.77 -54.6831C1801.16 -51.9954 1819.66 -51.1754 1830.5 -39.8172C1835.37 -34.7 1837.29 -29.2639 1836.97 -23.9948L1836.78 -23.8126Z" fill="white"/>
<path d="M1361.46 850.822L1417.48 851C1414.59 842.388 1409.17 836.364 1401.25 832.839C1399.83 832.17 1399.12 831.055 1399.12 829.493L1399.21 790.807C1399.25 789.111 1398.32 787.505 1396.85 786.657C1396.18 786.256 1395.43 786.032 1394.67 785.943C1392.85 785.72 1391.96 784.738 1391.96 782.954V630.262C1392 628.522 1392.54 627.005 1393.6 625.711C1396.41 622.275 1398.45 618.259 1399.83 613.708C1400.32 612.101 1401.21 610.763 1402.45 609.647C1410.81 602.419 1418.64 595.993 1420.51 584.169C1423.04 568.373 1425.8 553.247 1428.86 538.968C1429.31 536.871 1428.64 534.685 1427.13 533.168L1400.9 506.975C1394.27 500.371 1383.55 500.327 1376.89 506.931L1350.78 532.677C1349.41 534.06 1348.74 536.068 1349.09 538.031C1351.9 553.871 1354.7 569.89 1357.5 585.998C1359.37 596.752 1368.53 603.757 1376.04 610.629C1377.15 611.655 1378 612.949 1378.35 614.422C1379.42 618.75 1381.33 622.632 1384.09 626.068C1385.07 627.272 1385.56 628.7 1385.56 630.262V782.195C1385.56 783.891 1384.84 785.185 1383.47 786.077L1381.64 787.282C1380.22 788.219 1379.51 789.513 1379.55 791.164L1379.69 828.868C1379.69 830.876 1378.8 832.259 1376.97 833.107C1369.37 836.588 1364.21 842.477 1361.46 850.822ZM1413.92 586.712C1413.7 587.872 1412.77 588.72 1411.61 588.809L1404.01 589.389C1402.5 589.523 1401.21 588.274 1401.25 586.712L1402.67 543.118C1402.72 541.69 1403.88 540.575 1405.3 540.619L1419.44 540.753C1421.04 540.798 1422.24 542.226 1421.93 543.832L1413.92 586.712ZM1395.34 586.578C1395.29 587.917 1394.23 588.988 1392.89 589.033L1385.16 589.3C1383.73 589.345 1382.58 588.274 1382.53 586.846L1380.93 543.475C1380.89 542.047 1382 540.842 1383.42 540.842L1394.14 540.575C1395.6 540.575 1396.76 541.735 1396.72 543.207L1395.34 586.578ZM1355.85 544.189C1355.45 542.315 1356.92 540.53 1358.88 540.53L1372.17 540.619C1373.86 540.619 1375.2 541.913 1375.24 543.609L1376.53 586.088C1376.57 587.828 1375.11 589.3 1373.37 589.256L1366.7 589.033C1365.28 589.033 1364.08 587.917 1363.81 586.534L1355.85 544.189Z" fill="#0A0201"/>
<defs>
<clipPath id="clip0_18_6626">
<rect width="1447" height="900" fill="white" transform="translate(-7)"/>
</clipPath>
</defs>
</svg>
