<svg width="142" height="337" viewBox="0 0 142 337" fill="none" xmlns="http://www.w3.org/2000/svg">
<g clip-path="url(#clip0_4_2748)">
<path fill-rule="evenodd" clip-rule="evenodd" d="M8.56999 312.61C8.56999 325.68 38.3 336.28 74.98 336.28C111.66 336.28 141.4 325.68 141.4 312.61C141.4 299.54 111.67 288.94 74.99 288.94C38.31 288.94 8.57999 299.54 8.57999 312.61H8.56999Z" fill="#96A6BB"/>
<path fill-rule="evenodd" clip-rule="evenodd" d="M77.77 86C77.53 86.92 77.32 87.7 77.12 88.48C75.38 95.28 74.74 102.21 74.67 109.19C74.61 114.59 74.72 119.99 74.77 125.39C74.77 126 74.86 126.61 74.92 127.25C75.23 127.46 75.49 127.66 75.78 127.84C78.03 129.23 79.41 131.33 80.43 133.68C81.32 135.72 81.19 137.85 80.46 139.89C79 144 76.06 146.65 71.89 147.68C68.24 148.58 64.9 147.68 62.51 144.62C59.54 140.81 58.73 136.48 60.13 131.85C61.02 128.89 63.11 127.01 66.09 126.16C66.67 125.99 67.26 125.84 67.94 125.66C67.87 124.13 67.77 122.64 67.73 121.15C67.69 119.65 67.69 118.14 67.68 116.64C67.67 115.07 67.63 113.5 67.68 111.92C67.72 110.42 67.84 108.92 67.96 107.42C68.08 105.92 68.23 104.43 68.4 102.93C68.57 101.44 68.73 99.94 68.96 98.46C69.19 96.91 69.46 95.36 69.79 93.82C70.1 92.35 70.53 90.91 70.88 89.45C71.22 88.02 71.91 86.67 72.17 84.97C71.47 85.17 70.96 85.29 70.47 85.47C66.55 86.9 62.79 88.69 59.06 90.56C56.6 91.8 54.5 93.5 52.76 95.68C49.86 99.31 47.79 103.35 46.53 107.81C45.54 111.3 44.86 114.85 44.28 118.43C44.2 118.9 44.19 119.37 44.15 119.91C48.93 122.44 53.67 124.95 58.52 127.51C58.74 127.01 58.95 126.66 59.05 126.29C59.46 124.77 59.83 123.25 60.22 121.73C60.29 121.47 60.3 121.19 60.38 120.93C60.54 120.4 61.07 120.02 61.42 120.16C61.89 120.35 61.91 120.8 61.89 121.2C61.84 121.95 61.76 122.7 61.61 123.43C61.35 124.7 61.04 125.96 60.71 127.21C60.37 128.51 59.76 129.62 58.31 129.93C58.18 131.65 58.07 133.28 57.93 134.91C57.47 140.08 57.06 145.26 56.51 150.42C55.97 155.51 55.27 160.59 54.66 165.68C54.48 167.24 54.3 168.81 54.25 170.37C54.07 176.18 53.68 181.97 53.04 187.75C52.88 189.17 53 190.63 52.84 192.05C52.66 193.62 53.16 194.85 54.42 195.92C57.25 196.03 60.17 196.13 63.09 196.27C64.73 196.35 66.36 196.44 67.99 196.6C69.56 196.76 71.11 196.86 72.68 196.52C73.41 196.37 74.17 196.33 74.92 196.29C80.11 196.05 85.3 195.78 90.5 195.97C94.05 196.1 97.59 196.38 101.14 196.63C104.62 196.88 108.11 196.88 111.59 196.63C113.16 196.52 114.72 196.33 116.28 196.15C116.82 196.09 117.36 195.99 117.89 195.85C118.14 195.79 118.37 195.62 118.66 195.47C119.05 193.62 118.79 191.79 118.66 189.97C118.53 188.2 118.47 186.44 118.21 184.67C117.95 182.88 118.21 181.02 117.79 179.01C117.3 179.34 116.97 179.52 116.67 179.76C115.05 181.08 113.32 181.15 111.51 180.22C110.11 179.49 108.78 178.66 107.67 177.52C107.44 177.28 107.19 177.05 107.1 176.96C106.16 176.96 105.39 177.08 104.68 176.94C103.36 176.68 102.29 175.96 101.57 174.78C100.95 173.77 100.58 172.69 100.49 171.5C100.34 169.58 100.61 169.08 102.42 168.07C100.7 163.8 100.1 159.25 99.42 154.73C98.73 150.14 98.23 145.51 98.71 140.84C98.92 138.78 99.38 136.8 100.22 134.91C100.61 134.03 100.93 133.19 100.82 132.16C100.69 130.95 101.31 129.91 102.14 129.05C103.9 127.25 105.55 125.31 107.84 124.1C108.56 123.72 108.94 123.07 109.06 122.3C109.23 121.15 109.4 120 109.43 118.84C109.58 112.95 109.02 107.1 108.1 101.28C107.67 98.58 107.16 95.9 106.63 93.22C106.23 91.22 105.64 89.26 104.87 87.31C103.99 87.14 103.23 87.45 102.36 87.7C101.75 89.26 101.12 90.84 100.51 92.43C99.41 95.3 98.35 98.18 97.21 101.04C96.73 102.24 96.12 103.4 95.49 104.53C95.16 105.11 94.71 105.66 94.2 106.1C93.26 106.91 92.05 106.77 91.34 105.78C90.91 105.18 90.61 104.47 90.32 103.78C89.45 101.7 88.65 99.59 87.78 97.52C86.5 94.49 84.84 91.66 83.14 88.85C82.05 87.05 82.03 87.06 80.05 86.51C79.34 86.31 78.63 86.16 77.83 85.97L77.77 86Z" fill="#59BDA9"/>
<path fill-rule="evenodd" clip-rule="evenodd" d="M58.05 198.56C57.7 200.58 57.79 202.49 57.79 204.39C57.79 204.77 58 205.18 58.17 205.54C58.92 207.18 59.25 208.92 59.38 210.7C59.5 212.26 59.56 213.82 59.66 215.52C59.79 215.58 60.01 215.73 60.26 215.8C63.03 216.58 65.66 217.73 68.25 218.96C69.6 219.6 70.9 220.36 72.41 220.62C72.94 220.71 73.24 221.09 73.32 221.6C73.39 222.14 73.4 222.69 73.42 223.23C73.51 225.96 73.6 228.69 73.69 231.42C73.7 231.83 73.73 232.24 73.72 232.65C73.68 234.24 73.47 234.83 72.41 236.26C72.83 237.63 72.59 239.05 72.45 240.47C72.08 244.41 71.7 248.36 71.34 252.31C71.07 255.3 70.82 258.3 70.54 261.29C70.48 261.96 70.3 262.62 70.18 263.25C69.67 263.44 69.21 263.54 68.83 263.77C66.49 265.16 63.92 265.79 61.26 266.15C59.1 266.44 56.93 266.72 54.65 267.02C54.35 267.76 54.11 268.52 54.04 269.33C53.92 270.62 53.8 271.92 53.74 273.21C53.55 277.17 53.38 281.13 53.22 285.09C53.12 287.69 53.19 290.28 53.57 292.86C53.74 294.05 53.89 294.25 55.04 294.48C58.25 295.14 61.48 295.71 64.75 295.96C67.63 296.18 70.47 295.85 73.23 295.19C73.96 294.22 74.12 293.16 74.19 292.06C74.61 285.31 75.04 278.56 75.47 271.81C75.89 265.47 76.26 259.13 76.76 252.79C77.21 247.07 77.72 241.35 78.34 235.65C78.87 230.76 79.67 225.9 81.2 221.2C82.11 218.4 83.62 216.03 85.94 214.17C87.82 212.67 89.99 211.95 92.34 211.67C92.6 211.64 92.88 211.68 93.15 211.73C93.64 211.83 93.85 212.54 93.45 212.87C93.1 213.16 92.66 213.39 92.23 213.54C91.47 213.81 90.68 214 89.85 214.24C89.82 214.67 89.75 215.01 89.8 215.32C90.93 222.76 91.39 230.26 91.96 237.76C92.6 246.21 92.99 254.67 93.16 263.14C93.29 269.22 93.41 275.3 93.45 281.38C93.47 284.45 93.29 287.53 93.24 290.6C93.22 291.76 93.22 292.93 93.36 294.08C93.52 295.39 93.93 295.69 95.21 295.78C100.61 296.15 106 295.9 111.37 295.23C112.11 295.14 112.83 294.93 113.54 294.79C114.19 293.68 114.32 292.52 114.38 291.37C114.47 289.6 114.54 287.82 114.54 286.04C114.54 282.9 114.42 279.75 114.46 276.61C114.49 274.15 114.75 271.7 114.8 269.24C114.89 264.8 114.9 260.36 114.93 255.91C115.01 246.55 115.2 237.19 115.14 227.82C115.08 218.8 114.75 209.78 114.53 200.76C114.52 200.16 114.44 199.56 114.39 198.89C113.27 198.71 112.26 198.85 111.26 198.94C107.85 199.26 104.45 199.2 101.03 198.95C94.14 198.45 87.25 198.09 80.34 198.51C78.29 198.64 76.25 198.7 74.2 198.8C73.72 198.82 73.24 198.87 72.78 198.97C71.29 199.3 69.78 199.27 68.29 199.07C66.19 198.78 64.08 198.67 61.96 198.7C60.74 198.72 59.52 198.6 58.09 198.53L58.05 198.56Z" fill="#4EA694"/>
<path fill-rule="evenodd" clip-rule="evenodd" d="M98.19 24.91C97.81 25.15 97.41 25.39 97.02 25.64C95.24 26.75 93.32 27.38 91.22 27.41C90.6 27.42 89.99 27.4 89.38 27.44C87.74 27.55 86.25 27.25 85.11 25.93C84.82 26.09 84.57 26.21 84.34 26.36C81.28 28.48 77.83 29.45 74.18 29.83C73.5 29.9 72.81 29.96 72.15 30.12C71.7 30.23 71.24 30.43 70.86 30.69C70.03 31.28 69.23 31.92 68.45 32.59C68.16 32.84 67.93 33.21 67.76 33.56C66.62 35.83 65.81 38.23 65.22 40.68C64.93 41.86 64.92 43.11 64.86 44.34C64.53 50.7 64.72 57.04 65.23 63.38C65.46 66.17 65.89 68.93 66.79 71.61C67.81 74.65 69.48 77.27 71.72 79.55C72.99 80.84 74.5 81.73 76.17 82.41C80.84 84.3 85.68 85.36 90.73 85.36C93.73 85.36 96.75 85.34 99.74 85.17C104.89 84.87 109.64 83.4 113.89 80.35C116.4 78.55 118.01 76.25 118.76 73.26C119.55 70.13 119.87 66.94 120.02 63.73C120.1 62.16 120.02 60.59 120.08 59.02C120.14 57.53 119.72 56.09 119.78 54.59C119.84 53.1 119.57 51.6 119.41 50.1C119.25 48.61 119.07 47.11 118.84 45.63C118.6 44.15 118.36 42.66 117.98 41.21C117.57 39.63 117.07 38.06 116.49 36.54C115.3 33.42 114.05 30.31 112.77 27.22C112.38 26.29 111.82 25.43 111.3 24.45C110.75 24.65 110.3 24.78 109.89 24.97C107.26 26.15 104.52 26.95 101.7 27.51C101.37 27.58 101.03 27.65 100.69 27.67C99.17 27.76 98.61 27.28 98.45 25.73C98.43 25.53 98.41 25.33 98.38 25.13C98.38 25.08 98.31 25.03 98.2 24.9L98.19 24.91ZM78.8 62.72C79.13 62.84 79.28 62.85 79.37 62.93C79.84 63.42 80.29 63.93 80.76 64.42C83.62 67.42 87.09 69.07 91.26 69.19C94.66 69.29 97.91 68.73 100.91 67.02C101.81 66.51 102.45 66.6 102.72 67.12C102.98 67.64 102.78 68.28 101.96 68.82C101.06 69.42 100.1 69.98 99.11 70.39C96.62 71.42 94 71.7 91.31 71.73C88.42 71.76 85.8 70.97 83.29 69.65C81.82 68.87 80.59 67.8 79.62 66.45C78.84 65.37 78.37 64.19 78.81 62.71L78.8 62.72ZM99.22 56.65C98.96 55.72 98.78 54.99 98.55 54.28C97.94 52.4 97.3 50.52 96.71 48.64C96.55 48.13 96.45 47.59 96.39 47.05C96.35 46.64 96.88 46.36 97.28 46.5C97.92 46.73 98.25 47.23 98.47 47.82C99.33 50.12 100.19 52.42 101.04 54.72C101.16 55.04 101.22 55.38 101.26 55.72C101.48 57.44 100.98 58.48 99.43 59.22C98.71 59.56 97.88 59.69 97.08 59.85C96.79 59.91 96.39 59.95 96.19 59.45C96.48 58.86 97.03 58.47 97.54 58.03C98.05 57.59 98.58 57.17 99.21 56.65H99.22ZM106.2 45.96C106.29 45.57 106.36 44.89 106.61 44.28C107 43.33 108.11 43.02 109 43.52C110.48 44.35 111.37 46.68 110.83 48.29C110.25 49.99 108.58 50.35 107.35 49.02C106.63 48.24 106.36 47.27 106.21 45.96H106.2ZM77.51 45.71C77.6 45.45 77.73 44.84 78.01 44.31C78.38 43.6 79.02 43.22 79.85 43.26C80.69 43.29 81.25 43.74 81.6 44.47C82.13 45.59 82.09 46.72 81.51 47.81C81.16 48.48 80.57 48.76 79.82 48.73C78.59 48.68 77.55 47.47 77.51 45.71ZM74.75 34.85C75.19 34.49 75.37 34.27 75.6 34.18C77.76 33.35 79.88 33.78 81.98 34.45C82.39 34.58 82.55 35.02 82.5 35.46C82.44 35.91 82.17 36.21 81.74 36.32C81.48 36.38 81.19 36.41 80.93 36.37C79.32 36.1 77.71 35.83 76.11 35.5C75.73 35.42 75.38 35.16 74.75 34.85ZM104.08 35.94C104.62 35.57 104.83 35.36 105.07 35.27C106.84 34.67 108.69 34.69 110.53 34.68C111.09 34.68 111.47 35.11 111.45 35.57C111.43 36.04 111.16 36.34 110.73 36.44C108.99 36.86 107.24 37.02 105.48 36.5C105.11 36.39 104.76 36.21 104.08 35.93V35.94Z" fill="#FFD6CC"/>
<path fill-rule="evenodd" clip-rule="evenodd" d="M86.83 25.15C87.2 25.28 87.5 25.45 87.82 25.49C91.32 25.87 94.65 25.52 97.44 23.06C98.05 22.52 98.69 21.99 99.38 21.55C100.14 21.07 100.92 21.58 100.86 22.5C100.82 23.04 100.64 23.57 100.56 24.1C100.49 24.55 100.47 25 100.42 25.61C100.9 25.57 101.23 25.57 101.54 25.5C104.35 24.89 107.1 24.1 109.71 22.86C111.27 22.12 112.75 21.29 113.7 19.76C113.77 19.65 113.87 19.53 113.99 19.48C114.17 19.4 114.42 19.28 114.54 19.35C114.75 19.48 115.06 19.76 115.03 19.93C114.95 20.45 114.84 21.03 114.54 21.44C113.98 22.2 113.28 22.86 112.53 23.67C112.7 23.94 112.93 24.25 113.11 24.59C113.83 25.91 114.53 27.23 115.23 28.56C115.55 29.16 115.75 29.79 116.27 30.3C116.64 30.66 116.81 31.23 117.01 31.73C118.84 36.39 120.14 41.19 120.96 46.13C120.99 46.33 121.06 46.52 121.15 46.88C121.63 46.18 121.54 45.52 121.55 44.9C121.68 39.28 121.32 33.69 119.94 28.21C119.26 25.5 118.48 22.8 117.75 20.1C117.11 17.72 115.87 15.71 113.96 14.15C112.75 13.16 111.46 12.24 110.2 11.31C109.6 10.87 108.96 10.47 108.32 10.03C108.25 9.48 108.18 8.95 108.09 8.29C107.05 7.8 106.04 7.24 104.97 6.83C99.01 4.52 92.86 3 86.49 2.41C79.67 1.78 73.16 3.04 66.89 5.73C62.51 7.61 59.33 10.8 56.86 14.79C55.91 16.32 55.39 18.02 55.03 19.76C53.85 25.46 53.87 31.16 55.06 36.86C55.41 38.53 55.74 40.2 56.07 41.84C57.26 42.07 58.43 42.15 59.5 42.53C60.49 42.88 61.36 43.55 62.26 44.06C62.74 43.62 62.61 43.11 62.67 42.66C62.9 40.69 63.21 38.73 63.9 36.86C64.16 36.16 64.48 35.47 64.82 34.81C65.36 33.78 65.95 32.79 66.52 31.77C66.69 31.47 66.85 31.17 67.04 30.89C67.49 30.23 67.68 30.19 68.89 30.52C69.05 30.3 69.27 30.05 69.42 29.77C70.17 28.46 71.32 27.91 72.78 27.74C74.4 27.55 76.03 27.31 77.63 26.97C80.35 26.39 82.76 25.14 84.9 23.36C85.39 22.95 85.85 22.21 86.64 22.76C87.3 23.22 86.85 23.88 86.77 24.46C86.75 24.59 86.78 24.73 86.81 25.11L86.83 25.15Z" fill="#BD680B"/>
<path fill-rule="evenodd" clip-rule="evenodd" d="M34.25 212.47C34.11 212.1 33.96 211.73 33.82 211.35C32.84 208.8 33.22 206.24 33.82 203.69C33.86 203.5 33.98 203.3 34.12 203.17C34.26 203.05 34.5 202.94 34.66 202.98C34.82 203.01 35.06 203.21 35.08 203.36C35.16 203.9 35.17 204.44 35.17 204.98C35.17 206.14 35.03 207.32 35.17 208.46C35.57 211.76 37.36 214.12 40.29 215.64C40.44 215.72 40.66 215.64 41.01 215.64C40.84 215.29 40.76 215.05 40.62 214.85C39.12 212.82 38.62 210.53 38.92 208.06C39.07 206.84 39.33 205.64 39.57 204.43C39.62 204.16 39.69 203.87 39.85 203.67C40 203.49 40.29 203.37 40.52 203.35C40.65 203.34 40.89 203.58 40.92 203.73C41 204.2 41.04 204.68 41.01 205.15C40.96 206.17 40.85 207.19 40.8 208.22C40.72 209.74 40.96 211.18 41.64 212.59C42.53 214.42 44.14 215.22 45.89 215.87C46.26 216.01 46.8 215.67 46.78 215.27C46.74 214.05 46.77 212.82 46.25 211.65C45.1 209.05 45.74 206.71 47.42 204.58C48.38 203.36 49.64 202.58 51.22 202.36C52.02 202.25 52.82 202.11 53.7 201.97C53.98 200.31 53.52 198.85 52.89 197.41C52.68 197.31 52.5 197.22 52.32 197.14C50.45 196.32 49.78 195.37 49.9 193.34C50 191.57 50.27 189.81 50.46 188.04C51.2 181.11 52.1 174.19 52.65 167.25C53.36 158.25 54.62 149.32 55.39 140.33C55.65 137.27 56.12 134.22 56.5 131.17C56.58 130.56 56.71 129.96 56.83 129.24C56.11 128.53 55.25 128.02 54.18 127.63C52.65 127.08 51.23 126.21 49.78 125.45C48.46 124.76 47.16 124.03 45.74 123.26C45.38 123.86 45.48 124.41 45.4 124.92C45.32 125.46 45.22 126 45.16 126.54C44.56 131.9 43.9 137.26 43.38 142.63C42.75 149.23 42.31 155.84 41.65 162.44C40.93 169.65 40.06 176.84 39.25 184.03C39.17 184.71 39 185.37 38.92 186.05C38.84 186.75 38.58 187.35 38.16 187.92C37.63 188.63 37.16 189.39 36.66 190.12C36.47 190.4 36.27 190.68 36.02 190.91C33.41 193.29 31.45 196.13 29.97 199.32C29.8 199.69 29.65 200.08 29.54 200.47C28.43 204.34 29.47 207.77 31.79 210.88C32.34 211.62 33.21 212.11 33.93 212.72C34.03 212.62 34.12 212.52 34.22 212.42L34.25 212.47Z" fill="#FFD6CC"/>
<path fill-rule="evenodd" clip-rule="evenodd" d="M126.56 123.22C124.06 124.2 122 125.3 120.55 127.35C120.7 128.13 121.21 128.67 121.75 129.2C122.97 130.42 123.59 131.88 123.49 133.63C123.47 134.03 123.5 134.45 123.58 134.85C124.84 140.85 124.9 146.94 124.56 153.01C124.32 157.38 123.38 161.67 121.67 165.74C121.49 166.18 121.27 166.61 121.06 167.04C120.61 167.95 119.94 168.82 119.76 169.78C119.58 170.75 119.94 171.81 119.98 172.83C120.09 175.63 120.14 178.43 120.27 181.23C120.37 183.48 120.5 185.73 120.73 187.97C121.02 190.83 121.02 193.7 120.96 196.57C120.96 196.71 120.96 196.84 120.94 196.98C120.84 197.81 120.36 198.31 119.58 198.11C118.48 197.83 117.58 198.27 116.55 198.54C116.29 199.71 116.49 200.84 116.55 202.16C116.89 201.98 117.12 201.88 117.32 201.74C118.5 200.92 119.65 200.08 120.84 199.28C121.97 198.52 123.21 197.92 123.99 196.72C124.07 196.59 124.4 196.48 124.52 196.54C124.74 196.65 124.98 196.87 125.05 197.1C125.24 197.75 125.02 198.35 124.54 198.78C123.78 199.46 122.97 200.1 122.15 200.7C121.27 201.34 120.32 201.89 119.43 202.53C118.89 202.93 118.24 203.37 118.4 204.16C118.56 204.91 119.25 205.18 119.9 205.41C121.04 205.8 122.19 205.83 123.29 205.29C124.02 204.93 124.72 204.5 125.42 204.08C125.72 203.9 126 203.76 126.38 203.88C125.63 205.81 124.4 207.12 122.37 207.59C120.37 208.05 118.63 207.41 116.99 206.2C116.69 208.01 116.78 212.14 117.11 213.65C117.23 213.71 117.35 213.83 117.47 213.82C121.31 213.62 124.85 212.54 127.95 210.19C131 207.87 132.22 204.81 131.78 201.03C131.46 198.32 131.16 195.6 130.92 192.88C130.82 191.73 130.94 190.56 130.89 189.41C130.75 185.93 130.53 182.45 130.42 178.97C130.34 176.58 130.42 174.2 130.65 171.81C130.84 169.78 130.71 167.72 130.62 165.67C130.46 162.19 130.22 158.71 130.02 155.24C129.55 147.26 128.86 139.3 127.83 131.37C127.49 128.73 127 126.12 126.54 123.22H126.56Z" fill="#FFD6CC"/>
<path fill-rule="evenodd" clip-rule="evenodd" d="M40.08 265.3C40.11 263.93 40.11 262.77 40.17 261.62C40.37 257.8 40.6 253.98 40.8 250.16C40.92 247.84 40.99 245.52 41.06 243.2C41.08 242.67 41.15 242.09 40.58 241.6C40.27 241.57 39.87 241.57 39.47 241.5C38.73 241.36 37.92 241.33 37.3 240.98C35.67 240.07 33.87 239.65 32.17 238.97C24.87 236.07 17.45 233.5 10.06 230.86C8.32999 230.24 6.55999 229.7 5.11999 228.46C4.94999 228.31 4.61999 228.34 4.39999 228.29C4.26999 228.47 4.14 228.57 4.14 228.67C4.11 230.99 4.02999 233.31 4.11 235.63C4.21 238.63 4.42999 241.63 4.59999 244.63C4.67999 245.99 4.84998 247.36 4.82998 248.72C4.80998 250.11 5.44999 251.05 6.52999 251.79C6.91999 252.06 7.34999 252.29 7.75999 252.53C14.79 256.67 22.24 259.88 29.99 262.42C32.97 263.4 36 264.23 39.01 265.12C39.26 265.2 39.53 265.21 40.1 265.3H40.08ZM17.59 242.05C17.77 241.45 17.91 241.01 18.02 240.57C18.18 239.91 18.25 239.22 18.47 238.58C18.77 237.74 19.56 237.36 20.45 237.56C21.45 237.78 22.43 238.06 23.42 238.29C24.29 238.5 24.88 239.03 25.16 239.86C25.51 240.9 25.74 241.96 25.6 243.07C25.55 243.45 25.6 243.84 25.6 244.25C26.2 244.39 26.66 244.49 27.12 244.6C27.58 244.72 28.05 244.81 28.5 244.98C29.68 245.44 29.96 245.86 29.96 247.13C29.96 248.08 29.94 249.04 29.91 249.99C29.89 250.47 29.85 250.95 29.75 251.41C29.57 252.19 29.08 252.58 28.29 252.54C27.61 252.5 26.95 252.33 26.27 252.27C25.69 252.23 25.08 251.91 24.52 252.29C24.45 252.44 24.36 252.56 24.35 252.68C24.31 253.09 24.29 253.49 24.26 253.9C24.22 254.38 24.23 254.86 24.14 255.32C23.98 256.15 23.31 256.63 22.5 256.46C21.23 256.2 19.98 255.87 18.72 255.57C17.05 255.18 16.54 253.87 16.26 252.41C16.19 252.02 16.29 251.6 16.29 251.19C16.29 250.8 16.26 250.41 16.24 249.96C14.8 249.64 13.57 249.12 12.66 247.95C12.55 246.49 12.77 245.01 13.06 243.54C13.32 242.18 14.37 241.48 15.75 241.67C16.29 241.74 16.82 241.87 17.61 242.03L17.59 242.05Z" fill="#96ACA8"/>
<path fill-rule="evenodd" clip-rule="evenodd" d="M43.05 242.1C43.09 246.21 43 250.16 42.74 254.11C42.48 257.99 42.48 261.88 42.36 265.83C42.91 266.28 43.62 266.1 44.27 266.06C46.18 265.92 48.08 265.71 49.99 265.56C52.17 265.38 54.32 265.02 56.47 264.59C58.61 264.17 60.8 263.99 62.96 263.67C64.65 263.42 66.3 262.99 67.83 262.28C68.32 261.67 68.34 260.98 68.4 260.3C68.69 256.97 68.94 253.63 69.27 250.29C69.6 246.89 69.99 243.5 70.36 240.1C70.45 239.29 70.58 238.49 70.29 237.61C69.98 237.67 69.7 237.66 69.48 237.77C66.14 239.31 62.55 239.8 58.95 240.25C55.09 240.74 51.22 241.21 47.35 241.67C46 241.83 44.64 241.94 43.05 242.09V242.1Z" fill="#96ACA8"/>
<path fill-rule="evenodd" clip-rule="evenodd" d="M93.75 298.04C93.34 299.23 93.23 300.54 93.22 301.8C93.21 304.12 93.36 306.44 93.51 308.75C93.62 310.42 94.56 311.52 96.15 312.04C100.43 313.42 104.72 314.8 109.17 315.59C113.44 316.35 117.71 316.56 122 315.78C123.55 315.5 125.04 315.05 126.41 314.23C127.41 313.63 127.87 312.78 127.61 311.66C127.41 310.81 127.16 309.94 126.78 309.16C126.13 307.8 125.24 306.57 124.13 305.54C122.58 304.1 121.01 302.68 119.34 301.38C117.73 300.12 116 299.02 114.32 297.85C113.66 297.39 112.98 297.33 112.19 297.46C110.64 297.72 109.08 297.95 107.52 298.03C103.09 298.25 98.65 298.53 94.23 297.95C94.11 297.93 93.97 298 93.75 298.06V298.04Z" fill="#6B6A63"/>
<path fill-rule="evenodd" clip-rule="evenodd" d="M72.76 297.37C69.46 298.22 66.33 298.33 63.2 298.02C61.1 297.81 59.02 297.4 56.92 297.09C56.32 297 55.71 296.92 55.29 296.86C52.77 298.59 50.41 300.2 48.06 301.84C46.88 302.66 45.71 303.49 44.59 304.37C43.46 305.26 42.52 306.35 41.75 307.58C41.13 308.58 40.73 309.66 40.6 310.83C40.48 311.87 40.84 312.73 41.68 313.33C42.51 313.92 43.36 314.5 44.26 314.96C45.3 315.49 46.44 315.74 47.62 315.73C53.03 315.68 58.39 315.25 63.67 314.01C64.27 313.87 64.85 313.67 65.42 313.45C69.86 311.73 72.39 308.59 72.58 303.72C72.62 302.77 72.75 301.82 72.82 300.86C72.9 299.78 73.01 298.69 72.76 297.37Z" fill="#6B6A63"/>
<path fill-rule="evenodd" clip-rule="evenodd" d="M49.61 220.38C49.61 219.62 49.61 218.82 49.61 218.02C49.59 216.65 49.65 215.28 49.51 213.93C49.38 212.6 49.23 211.22 47.91 210.01C48.02 210.74 48.08 211.2 48.16 211.65C48.37 212.86 48.68 214.06 48.79 215.28C48.92 216.65 48.03 217.54 46.63 217.73C45.31 217.91 44.04 217.83 42.91 217.18C39.41 218.4 36.55 217.17 33.92 215.09C32.23 213.75 30.62 212.3 28.79 210.75C28.7 211.37 28.61 211.75 28.59 212.12C28.52 213.22 27.87 213.86 26.93 214.26C25.92 214.69 24.85 214.99 23.74 214.88C22.59 214.77 21.44 214.63 20.3 214.4C19.27 214.19 18.57 213.45 18.41 212.46C18.25 211.49 17.68 210.51 18.35 209.59C18.14 209.41 18.03 209.25 17.94 209.25C15.49 209.44 13.04 209.6 10.6 209.87C8.81999 210.07 7.17 210.76 5.56 211.53C4.88 211.85 4.23 212.24 3.86 213.05C4.75 213.9 5.88999 214.34 7.01999 214.79C8.41999 215.34 9.84999 215.81 11.21 216.43C13.45 217.45 15.73 218.34 18.06 219.13C19.93 219.77 21.74 220.59 23.6 221.26C25.46 221.93 27.34 222.54 29.22 223.16C31.49 223.91 33.74 224.7 36.04 225.36C38.08 225.95 40.18 226.08 42.3 225.66C43.37 225.45 44.47 225.34 45.56 225.29C48.57 225.17 51.53 224.6 54.49 224.12C59.2 223.35 63.91 222.52 68.62 221.71C68.67 221.71 68.7 221.64 68.81 221.54C65.69 220.15 62.69 218.59 59.45 217.44C59.34 217.72 59.26 217.89 59.19 218.07C58.65 219.52 57.65 220.43 56.07 220.62C55.94 220.64 55.8 220.66 55.67 220.69C53.72 221.19 51.77 221.42 49.6 220.38H49.61Z" fill="#A6BFBA"/>
<path fill-rule="evenodd" clip-rule="evenodd" d="M109.48 169.15C111.78 168.45 113.56 167.24 114.75 165.16C115.74 163.43 116.42 161.69 116.58 159.61C116.95 154.96 116.57 150.33 116.46 145.7C116.37 141.68 116.05 137.66 115.84 133.64C115.8 132.9 115.84 132.16 115.84 131.3C114.94 130.66 113.81 130.42 112.7 130.14C111.92 129.94 111.19 130.2 110.56 130.6C108.36 132 106.36 133.64 104.9 135.84C104.72 136.11 104.58 136.45 104.53 136.77C104.39 137.71 104.23 138.66 104.2 139.61C104.06 143.3 104.11 146.98 104.61 150.64C104.87 152.53 104.97 154.44 105.31 156.32C105.91 159.61 106.85 162.82 108.14 165.92C108.48 166.74 108.73 167.59 109.05 168.42C109.14 168.66 109.31 168.86 109.48 169.14V169.15Z" fill="#59BDA9"/>
<path fill-rule="evenodd" clip-rule="evenodd" d="M39.12 229.44C38.32 228.21 37.12 227.6 35.78 227.21C35.52 227.13 35.25 227.07 34.99 227C30.97 225.94 27.03 224.69 23.18 223.07C19.16 221.39 15 220.06 10.9 218.55C9.05 217.87 7.2 217.16 5.38 216.39C4.67 216.09 3.96 215.98 3.32 215.89C2.59 216.35 2.30001 216.92 2.25001 217.66C2.19001 218.61 2.14001 219.57 2.01001 220.51C1.69001 222.81 3.5 226.06 5.90001 226.85C9.84001 228.16 13.7 229.73 17.59 231.19C22.25 232.93 26.92 234.66 31.59 236.38C33.44 237.06 35.32 237.69 37.19 238.34C37.83 238.56 38.48 238.78 39.33 238.57C39.45 235.53 39.58 232.48 39.13 229.45L39.12 229.44Z" fill="#A6BFBA"/>
<path fill-rule="evenodd" clip-rule="evenodd" d="M71.08 223.15C70.71 223.18 70.31 223.18 69.93 223.26C66.52 223.94 63.12 224.68 59.7 225.3C56.21 225.94 52.71 226.51 49.2 227.02C47.45 227.28 45.67 227.32 43.9 227.49C43.23 227.55 42.57 227.7 41.99 227.8C41.03 229.74 41.36 231.65 41.44 233.53C41.52 235.3 41.65 237.07 41.76 238.83C41.78 239.09 41.83 239.35 41.88 239.73C42.71 239.94 43.51 239.78 44.3 239.7C46.47 239.48 48.64 239.26 50.81 238.98C54.73 238.47 58.65 237.94 62.57 237.39C65.23 237.02 67.72 236.11 70.11 234.91C71 234.46 71.43 233.81 71.41 232.8C71.34 229.73 71.31 226.66 71.25 223.59C71.25 223.47 71.15 223.34 71.06 223.14L71.08 223.15Z" fill="#A6BFBA"/>
<path fill-rule="evenodd" clip-rule="evenodd" d="M115.87 123.92C116.19 124.2 116.38 124.41 116.6 124.54C117.3 124.95 118.02 125.34 118.81 125.77C120.67 124.65 122.59 123.6 124.39 122.39C126.09 121.25 127.79 120.12 129.63 119.21C130.89 118.59 130.99 118.35 130.42 116.95C129.04 113.61 127.68 110.26 126.16 106.98C124.15 102.63 121.64 98.57 118.69 94.78C116.76 92.29 114.64 89.98 112.19 87.99C111.88 87.74 111.54 87.53 111.1 87.22C111.1 87.57 111.04 87.78 111.1 87.92C112.64 90.94 113.36 94.21 113.9 97.51C114.91 103.64 115.42 109.84 115.83 116.04C116.01 118.68 115.86 121.35 115.86 123.93L115.87 123.92Z" fill="#59BDA9"/>
<path fill-rule="evenodd" clip-rule="evenodd" d="M61.54 135.48C61.61 138.11 62.19 140.25 63.38 142.23C65.79 146.25 70.36 146.48 73.19 145.02C75.57 143.79 77.46 142.08 78.45 139.54C79.82 135.99 79.16 133.22 76.06 130.62C75.75 130.36 75.42 130.13 75.14 129.85C73.82 128.55 72.24 127.88 70.4 127.81C69.99 127.79 69.58 127.8 69.18 127.74C65.72 127.27 62.44 129.98 61.86 133.19C61.7 134.06 61.61 134.94 61.54 135.49V135.48ZM71.12 140.68C69.53 140.71 68.4 140.05 67.64 138.77C66.96 137.62 67.3 136.51 67.93 135.48C68.45 134.64 69.24 134.07 70.19 133.82C70.55 133.73 71.07 133.74 71.34 133.95C72.04 134.48 72.7 135.08 73.27 135.75C74.1 136.73 74.12 137.91 73.63 139.04C73.15 140.13 72.27 140.73 71.11 140.68H71.12Z" fill="#D6D6D6"/>
<path fill-rule="evenodd" clip-rule="evenodd" d="M108.23 86.31C107.61 86.5 107.18 86.64 106.79 86.76C106.73 86.98 106.64 87.13 106.68 87.22C108.76 91.82 109.52 96.75 110.26 101.68C110.72 104.72 111.07 107.77 111.32 110.83C111.61 114.44 111.74 118.06 111.13 121.66C111.03 122.26 110.9 122.87 110.72 123.45C110.36 124.61 109.66 125.54 108.53 126.02C106.29 126.98 104.98 128.97 103.38 130.62C102.52 131.51 102.64 132.19 103.49 133.36C103.78 133.21 104.14 133.12 104.36 132.89C105.66 131.55 107.38 130.78 108.8 129.62C110.75 128.02 112.85 128.13 114.97 128.95C117.04 129.76 118.85 130.97 119.74 133.18C119.84 133.43 119.97 133.7 120.17 133.86C120.53 134.15 120.87 134.55 121.43 134.37C121.78 134.25 121.88 133.81 121.73 133.11C121.46 131.78 120.71 130.75 119.75 129.84C118.47 128.61 117.17 127.4 115.92 126.14C115.45 125.66 115.07 125.08 114.69 124.52C114.23 123.82 114.03 123.05 114.06 122.19C114.18 118.43 113.65 114.7 113.32 110.97C113.02 107.57 112.7 104.17 112.32 100.78C111.93 97.39 111.36 94.02 110.28 90.77C110.02 89.99 109.74 89.22 109.4 88.48C109.09 87.8 108.68 87.17 108.22 86.33L108.23 86.31Z" fill="#9C959A"/>
<path fill-rule="evenodd" clip-rule="evenodd" d="M85.31 87.72C85.86 89.29 86.85 90.45 87.51 91.78C88.15 93.06 88.83 94.33 89.45 95.62C90.1 96.98 90.7 98.35 91.29 99.74C91.84 101.03 92.23 102.39 92.83 103.61C93.52 103.53 93.64 103.08 93.8 102.74C94.48 101.32 95.15 99.9 95.75 98.45C97.04 95.36 98.28 92.25 99.53 89.15C99.65 88.85 99.71 88.51 99.84 88.03C94.95 88.03 90.19 88.33 85.3 87.73L85.31 87.72Z" fill="#FFD6CC"/>
<path fill-rule="evenodd" clip-rule="evenodd" d="M76.29 85.43C75.73 85.2 75.12 84.94 74.41 84.65C74.19 85.08 73.96 85.41 73.85 85.78C72.15 91.27 71.04 96.89 70.5 102.61C70.17 106.14 70.15 109.71 69.68 113.22C69.17 116.99 69.74 120.71 69.79 124.45C69.79 124.85 69.92 125.25 70 125.68C70.82 126.1 71.67 126.24 72.68 126.27C72.74 125.74 72.83 125.3 72.82 124.85C72.75 121.3 72.61 117.75 72.59 114.2C72.55 108.87 72.79 103.55 73.41 98.26C73.86 94.46 74.73 90.74 75.97 87.11C76.1 86.72 76.24 86.34 76.35 85.95C76.38 85.83 76.33 85.69 76.29 85.43Z" fill="#9C959A"/>
<path fill-rule="evenodd" clip-rule="evenodd" d="M53.82 203.86C53.21 204.02 52.63 204.23 52.04 204.32C50.26 204.58 49.08 205.56 48.33 207.16C48.44 207.36 48.5 207.57 48.64 207.69C50.65 209.39 51.48 211.62 51.62 214.17C51.68 215.26 51.65 216.35 51.7 217.43C51.72 217.89 51.81 218.35 51.88 218.91C53.68 219.01 55.31 218.84 56.89 217.92C57.29 215.49 57.48 213.06 57.2 210.61C57.05 209.33 56.87 208.04 56.53 206.8C56.02 204.95 55.66 204.64 53.83 203.85L53.82 203.86Z" fill="#B1CCC7"/>
<path fill-rule="evenodd" clip-rule="evenodd" d="M62.27 59.85C62.4 58.21 62.3 56.53 62.13 54.86C62.08 54.42 61.78 53.96 61.49 53.61C60.84 52.83 60.12 52.1 59.44 51.34C59.12 50.99 58.81 50.63 58.55 50.25C58.37 49.99 58.66 49.47 58.99 49.48C59.38 49.5 59.82 49.52 60.15 49.7C60.74 50.01 61.26 50.45 61.82 50.85C62.37 49.29 62.41 47.72 61.85 46.92C60.88 45.54 59.67 44.44 57.93 44.21C54.98 43.81 52.6 46.63 53.36 49.65C53.57 50.5 53.94 51.33 54.37 52.1C56.04 55.05 58.3 57.48 61.04 59.48C61.36 59.71 61.68 59.99 62.28 59.86L62.27 59.85Z" fill="#FFD6CC"/>
<path fill-rule="evenodd" clip-rule="evenodd" d="M20.43 212.18C22.47 212.77 24.23 213.22 25.91 212.27C26.27 210.75 26.62 209.37 26.92 207.98C27.03 207.46 27.06 206.91 27.06 206.37C27.06 205.62 27.01 204.87 26.92 204.13C26.72 202.54 27.01 201.02 27.49 199.51C27.63 199.07 27.79 198.63 27.94 198.23C27.54 197.79 27.12 197.96 26.76 198.09C25.02 198.71 23.76 199.91 22.8 201.46C22.03 202.69 21.62 204.06 21.34 205.46C21.01 207.06 20.71 208.66 20.45 210.27C20.36 210.85 20.43 211.46 20.43 212.17V212.18Z" fill="#B1CCC7"/>
<path fill-rule="evenodd" clip-rule="evenodd" d="M117.61 134.22C117.93 138.53 118.24 142.71 118.54 146.89C119.28 143.27 119.5 139.64 118.91 136C118.83 135.48 118.53 134.99 118.28 134.52C118.21 134.39 117.95 134.36 117.61 134.21V134.22Z" fill="#FFD6CC"/>
<path fill-rule="evenodd" clip-rule="evenodd" d="M116.62 176.52C114.83 175.43 113.17 174.35 111.44 173.4C109.74 172.47 108.67 171.02 107.75 169.41C107.65 169.23 107.57 169.04 107.49 168.85C104.67 161.91 102.71 154.75 102.21 147.26C101.98 143.78 101.98 140.29 102.65 136.84C102.77 136.21 102.88 135.61 101.93 135.32C101.58 135.78 101.4 136.34 101.3 136.92C101.03 138.61 100.75 140.29 100.54 141.98C99.89 147.12 100.3 152.2 101.42 157.24C101.78 158.84 102.07 160.45 102.38 162.06C102.88 164.62 103.7 167.06 104.88 169.4C105.46 170.55 105.91 171.78 106.43 172.96C106.76 173.72 107.22 174.38 107.92 174.87C108.25 175.1 108.55 175.4 108.8 175.71C109.72 176.86 110.92 177.64 112.19 178.31C114.24 179.39 115.52 178.9 116.62 176.5V176.52Z" fill="#D6D6D6"/>
<path fill-rule="evenodd" clip-rule="evenodd" d="M110.63 170.77C111.81 171.76 112.97 172.15 114.09 172.72C115.33 171.92 116.53 171.18 117.1 169.75C117.19 169.51 117.36 169.24 117.57 169.1C118.28 168.6 118.57 167.82 118.95 167.1C120.65 163.86 121.53 160.36 122.19 156.78C123.2 151.29 123.11 145.77 122.78 140.23C122.72 139.28 122.66 138.32 122.57 137.37C122.54 137.05 122.43 136.74 122.32 136.28C121.78 136.5 121.37 136.67 120.98 136.83C120.95 137.13 120.89 137.33 120.91 137.52C121.37 141.56 120.97 145.58 120.43 149.57C120.02 152.61 119.44 155.63 118.96 158.67C118.51 161.56 117.28 164.13 115.85 166.64C115.01 168.11 113.83 169.2 112.29 169.92C111.8 170.15 111.32 170.41 110.64 170.76L110.63 170.77Z" fill="#D6D6D6"/>
<path fill-rule="evenodd" clip-rule="evenodd" d="M105.83 175.35C105.61 174.89 105.52 174.58 105.33 174.35C104.48 173.34 103.88 172.21 103.5 170.95C103.42 170.69 103.31 170.42 103.14 170.23C103.03 170.1 102.77 170.01 102.6 170.04C102.44 170.07 102.2 170.26 102.19 170.4C102.04 171.67 102.38 172.84 103.08 173.89C103.67 174.78 104.53 175.24 105.83 175.36V175.35Z" fill="#D6D6D6"/>
<path fill-rule="evenodd" clip-rule="evenodd" d="M117.51 174.54C117.65 173.65 117.78 172.8 117.93 171.85C116.99 172.21 116.53 173.05 115.82 173.64C116.25 174.33 116.79 174.62 117.52 174.54H117.51Z" fill="#59BDA9"/>
<path fill-rule="evenodd" clip-rule="evenodd" d="M28.12 246.79C27.33 246.34 26.69 246.15 25.99 246.26C24.91 246.43 24.33 245.84 23.93 244.97C23.64 244.35 23.5 243.69 23.62 242.99C23.77 242.1 23.66 241.23 23.23 240.4C22.31 239.88 21.27 239.92 20.19 239.48C20.06 240.74 19.96 241.75 19.84 242.82C19.62 243.02 19.33 243.22 19.13 243.48C18.73 244 18.22 244.01 17.66 243.92C16.8 243.78 15.97 243.32 15.03 243.71C14.58 244.65 14.65 245.69 14.65 246.69C14.65 247.36 15.05 247.82 15.73 248.01C16.44 248.21 17.15 248.43 17.94 248.66C18.04 249.49 18.19 250.22 18.2 250.95C18.23 253.04 18.94 253.94 20.98 254.26C21.37 254.32 21.78 254.32 22.27 254.36C22.36 253.9 22.44 253.52 22.5 253.13C22.59 252.59 22.63 252.04 22.78 251.52C23.14 250.23 23.54 249.95 24.82 250.04C25.36 250.08 25.9 250.2 26.44 250.28C26.83 250.34 27.23 250.39 27.61 250.45C28.6 249.22 28.14 247.95 28.15 246.8L28.12 246.79Z" fill="#59BDA9"/>
<path fill-rule="evenodd" clip-rule="evenodd" d="M71.08 135.23C70.05 135.36 69.45 135.91 69.21 136.85C69.06 137.44 69.25 137.96 69.71 138.27C70.25 138.63 70.83 138.71 71.44 138.48C71.86 138.32 72.17 137.69 72.13 137.12C72.08 136.32 71.62 135.77 71.08 135.23Z" fill="#ADADAD"/>
<path fill-rule="evenodd" clip-rule="evenodd" d="M115.63 296.39C116.7 293.61 116.91 290.82 116.88 288.02C116.85 285.35 116.7 282.69 116.66 280.03C116.64 278.94 116.73 277.85 116.79 276.77C116.93 274.31 117.2 271.86 117.21 269.4C117.25 254.43 117.25 239.46 117.23 224.49C117.23 222.24 117.09 219.98 117.04 217.73C117.02 216.85 116.89 215.96 117.11 215.12C117.3 215.07 117.43 214.98 117.55 215C123.41 216.1 127.94 213.72 131.76 209.55C132.69 208.53 133.31 207.28 133.63 205.94C134.25 203.32 134.39 200.68 133.57 198.06C133.43 197.61 133.36 197.13 133.33 196.65C133.13 192.9 132.94 189.15 132.77 185.39C132.7 183.82 132.62 182.25 132.66 180.68C132.77 175.69 132.5 170.71 132.22 165.73C132.02 162.25 131.93 158.76 132.04 155.28C132.15 151.78 131.8 148.31 131.49 144.85C131.1 140.5 130.6 136.15 130.02 131.82C129.67 129.18 129.08 126.58 128.6 123.96C128.49 123.37 128.39 122.78 128.3 122.22C129.79 121.03 131.65 120.61 132.79 119.15C133.08 117.38 132.54 115.73 131.94 114.16C128.98 106.47 125.26 99.18 120.02 92.76C117.72 89.95 115.23 87.32 112.08 85.42C111.91 85.32 111.74 85.22 111.45 85.04C112.18 84.59 112.71 84.3 113.21 83.95C114.54 83 115.91 82.09 117.18 81.05C118.8 79.72 119.89 78 120.57 76.01C121.51 73.28 122.02 70.46 122.24 67.59C122.5 64.04 122.46 60.49 122.26 56.93C122.2 55.76 122.17 54.66 122.85 53.58C123.23 52.98 123.34 52.16 123.41 51.42C124.28 42.42 123.91 33.53 121.03 24.87C120.64 23.7 120.25 22.54 119.88 21.36C119.7 20.78 119.54 20.18 119.45 19.57C119.09 17.19 118.02 15.18 116.35 13.47C114.96 12.04 113.36 10.87 111.72 9.75001C111.22 9.40001 110.74 9.10001 110.63 8.37001C110.51 7.59001 109.86 7.07001 109.22 6.68001C108.06 5.97001 106.88 5.26001 105.63 4.73001C101.02 2.76001 96.2 1.53001 91.26 0.710013C88.25 0.210013 85.26 -0.0499874 82.24 1.26143e-05C75.71 0.130013 69.55 1.77001 63.76 4.78001C59.6 6.94001 56.76 10.39 54.45 14.34C53.69 15.64 53.21 17.08 52.89 18.55C51.74 23.81 51.4 29.1 52.31 34.43C52.68 36.58 53.08 38.73 53.46 40.88C53.58 41.55 53.66 42.23 53.77 42.95C53.39 43.36 53.01 43.74 52.66 44.15C51.06 45.99 50.53 48.08 51.2 50.44C51.63 51.97 52.33 53.37 53.22 54.68C54.53 56.62 56.07 58.35 57.8 59.92C59.13 61.13 60.54 62.2 62.49 62.31C62.68 63.88 62.84 65.36 63.03 66.85C63.79 72.89 66.11 78.15 70.67 82.31C70.86 82.48 70.99 82.72 71.1 82.87C67.35 84.49 63.66 86.08 59.97 87.69C59.03 88.1 58.11 88.56 57.2 89.02C56.42 89.42 55.56 89.71 55.15 90.61C55.05 90.83 54.75 90.97 54.53 91.14C49.93 94.84 46.79 99.57 44.84 105.1C43.34 109.37 42.54 113.81 41.75 118.25C41.56 119.33 42 120.25 42.2 121.23C42.26 121.52 42.58 121.79 42.84 121.99C43.16 122.24 43.54 122.4 43.96 122.63C44.08 123.44 43.87 124.24 43.7 125.02C42.73 129.29 42.21 133.64 41.75 137.98C41.09 144.3 40.47 150.63 39.84 156.95C39.23 163.07 38.68 169.2 38.02 175.31C37.57 179.45 36.98 183.58 36.48 187.54C34.02 189.82 31.99 192.22 30.11 194.74C29.57 195.46 29 195.85 28.09 195.91C24.37 196.14 21.95 198.26 20.28 201.42C19.56 202.77 19.27 204.24 18.92 205.7C18.81 206.16 18.72 206.62 18.62 207.04C17.78 207.47 16.94 207.3 16.13 207.42C15.33 207.54 14.52 207.66 13.72 207.84C11.92 208.24 10.12 208.64 8.34 209.11C6.89 209.49 5.45999 209.95 4.03999 210.43C3.18999 210.72 2.45999 211.22 1.98 212.03C1.76999 212.37 1.42 212.63 1.2 212.96C0.98999 213.29 0.75 213.66 0.699997 214.03C0.429993 216.27 0.139999 218.51 0 220.76C-0.110001 222.42 0.25 224.06 1.28 225.42C2 226.37 2.17999 227.39 2.07999 228.5C1.59999 233.69 1.96999 238.88 2.23999 244.06C2.31999 245.49 2.40999 246.93 2.43999 248.36C2.46999 249.95 3.07001 251.28 4.11 252.43C5.21001 253.65 6.43 254.68 7.95 255.41C11.28 256.99 14.49 258.83 17.86 260.32C23.8 262.95 29.91 265.12 36.22 266.7C36.55 266.78 36.89 266.86 37.21 266.98C39.54 267.9 41.94 268.29 44.44 267.94C44.97 267.86 45.53 268 46.08 267.97C47.37 267.9 48.66 267.79 49.95 267.67C50.42 267.63 50.88 267.52 51.42 267.43C51.49 267.75 51.6 268 51.6 268.26C51.6 273.18 51.69 278.1 51.32 283.02C51.07 286.36 51.14 289.72 51.04 293.06C51.02 293.86 51.23 294.54 51.79 295.11C52.12 295.45 52.46 295.77 52.88 296.19C52.48 296.48 52.17 296.73 51.85 296.94C50.02 298.14 48.18 299.32 46.36 300.53C44.3 301.89 42.32 303.34 40.74 305.27C39.46 306.83 38.55 308.56 38.33 310.61C38.1 312.74 38.9 314.35 40.71 315.44C41.35 315.83 41.97 316.19 42.54 316.71C42.96 317.09 43.62 317.32 44.2 317.41C45.75 317.63 47.32 317.86 48.88 317.88C54.09 317.93 59.25 317.39 64.32 316.16C66.34 315.67 68.2 314.82 69.87 313.6C72.54 311.65 74.2 309.02 74.54 305.72C74.83 302.94 75.13 300.14 74.78 297.2C76.03 296.36 76.33 295 76.44 293.54C76.63 291.09 76.9 288.64 77.06 286.19C77.36 281.48 77.62 276.77 77.87 272.06C78.32 263.87 78.72 255.68 79.2 247.49C79.31 245.59 79.69 243.7 79.95 241.81C80.49 237.88 81.01 233.96 81.59 230.04C82.02 227.13 82.72 224.28 83.64 221.48C84.29 219.5 85.28 217.73 86.84 216.31C87.07 216.1 87.37 215.95 87.81 215.64C87.92 216.42 88.04 217.01 88.09 217.61C88.62 224.56 89.2 231.51 89.65 238.47C89.97 243.45 90.16 248.43 90.33 253.42C90.52 258.88 90.49 264.36 90.78 269.82C91.17 277.41 91.06 284.99 91.02 292.58C91.02 293.33 91.05 294.08 91.08 294.84C91.1133 295.66 91.4767 296.413 92.17 297.1C91.88 298.76 91.55 300.43 91.32 302.1C91 304.35 91.16 306.6 91.39 308.85C91.48 309.77 91.78 310.57 92.33 311.3C92.74 311.84 93.1 312.44 93.56 312.94C93.87 313.28 94.27 313.59 94.7 313.74C99.01 315.3 103.34 316.74 107.85 317.61C112.1 318.43 116.37 318.83 120.69 318.26C122.73 317.99 124.73 317.58 126.6 316.67C129.76 315.13 130.64 313.15 129.57 309.81C128.89 307.69 127.59 305.92 126.09 304.31C124.17 302.24 121.94 300.55 119.61 298.98C118.36 298.14 117.09 297.34 115.67 296.42L115.63 296.39ZM77.77 86C78.57 86.19 79.29 86.35 79.99 86.54C81.97 87.09 82 87.08 83.08 88.88C84.78 91.69 86.44 94.52 87.72 97.55C88.6 99.62 89.4 101.73 90.26 103.81C90.55 104.5 90.85 105.2 91.28 105.81C91.99 106.81 93.2 106.94 94.14 106.13C94.65 105.69 95.1 105.15 95.43 104.56C96.07 103.43 96.67 102.27 97.15 101.07C98.29 98.22 99.35 95.33 100.45 92.46C101.06 90.87 101.69 89.29 102.3 87.73C103.18 87.49 103.93 87.18 104.81 87.34C105.58 89.29 106.17 91.25 106.57 93.25C107.1 95.93 107.62 98.61 108.04 101.31C108.96 107.12 109.52 112.97 109.37 118.87C109.34 120.03 109.17 121.18 109 122.33C108.89 123.1 108.51 123.75 107.78 124.13C105.49 125.33 103.84 127.27 102.08 129.08C101.24 129.94 100.63 130.98 100.76 132.19C100.87 133.22 100.55 134.06 100.16 134.94C99.33 136.83 98.86 138.81 98.65 140.87C98.17 145.54 98.68 150.17 99.36 154.76C100.04 159.27 100.64 163.83 102.36 168.1C100.55 169.11 100.28 169.61 100.43 171.53C100.52 172.71 100.9 173.8 101.51 174.81C102.23 175.99 103.3 176.71 104.62 176.97C105.33 177.11 106.1 176.99 107.04 176.99C107.13 177.08 107.37 177.3 107.61 177.55C108.72 178.69 110.05 179.53 111.45 180.25C113.26 181.19 114.99 181.12 116.61 179.79C116.9 179.55 117.24 179.37 117.73 179.04C118.16 181.04 117.89 182.91 118.15 184.7C118.41 186.47 118.47 188.23 118.6 190C118.73 191.83 119 193.66 118.6 195.5C118.32 195.64 118.09 195.81 117.83 195.88C117.3 196.01 116.76 196.11 116.22 196.18C114.66 196.36 113.1 196.55 111.53 196.66C108.05 196.91 104.57 196.9 101.08 196.66C97.54 196.41 93.99 196.13 90.44 196C85.25 195.81 80.05 196.07 74.86 196.32C74.11 196.36 73.35 196.39 72.62 196.55C71.05 196.88 69.5 196.78 67.93 196.63C66.3 196.47 64.66 196.37 63.03 196.3C60.11 196.16 57.19 196.06 54.36 195.95C53.09 194.88 52.6 193.65 52.78 192.08C52.94 190.66 52.82 189.2 52.98 187.78C53.62 182 54.01 176.21 54.19 170.4C54.24 168.83 54.42 167.27 54.6 165.71C55.21 160.62 55.9 155.54 56.45 150.45C57 145.29 57.41 140.11 57.87 134.94C58.02 133.31 58.12 131.68 58.25 129.96C59.7 129.65 60.3 128.54 60.65 127.24C60.98 125.99 61.29 124.73 61.55 123.46C61.7 122.73 61.78 121.98 61.83 121.23C61.86 120.84 61.83 120.39 61.36 120.19C61.01 120.05 60.48 120.43 60.32 120.96C60.24 121.22 60.23 121.5 60.16 121.76C59.78 123.28 59.4 124.81 58.99 126.32C58.89 126.69 58.68 127.04 58.46 127.54C53.61 124.97 48.87 122.47 44.09 119.94C44.13 119.4 44.14 118.93 44.22 118.46C44.8 114.89 45.48 111.33 46.47 107.84C47.73 103.38 49.8 99.34 52.7 95.71C54.44 93.53 56.54 91.83 59 90.59C62.72 88.72 66.48 86.93 70.41 85.5C70.9 85.32 71.4 85.21 72.11 85C71.85 86.7 71.17 88.04 70.82 89.48C70.47 90.94 70.04 92.38 69.73 93.85C69.4 95.39 69.14 96.94 68.9 98.49C68.67 99.98 68.51 101.47 68.34 102.96C68.18 104.45 68.02 105.95 67.9 107.45C67.78 108.95 67.66 110.45 67.62 111.95C67.57 113.52 67.62 115.09 67.62 116.67C67.63 118.17 67.62 119.68 67.67 121.18C67.71 122.67 67.81 124.16 67.88 125.69C67.19 125.88 66.61 126.03 66.03 126.19C63.05 127.05 60.96 128.93 60.07 131.88C58.68 136.51 59.48 140.84 62.45 144.65C64.84 147.71 68.18 148.62 71.83 147.71C76 146.68 78.95 144.02 80.4 139.92C81.13 137.88 81.26 135.74 80.37 133.71C79.35 131.37 77.97 129.26 75.72 127.87C75.43 127.69 75.17 127.49 74.86 127.28C74.81 126.63 74.72 126.03 74.71 125.42C74.66 120.02 74.55 114.62 74.61 109.22C74.68 102.23 75.32 95.3 77.06 88.51C77.26 87.73 77.47 86.94 77.71 86.03L77.77 86ZM58.05 198.56C59.48 198.63 60.7 198.75 61.92 198.73C64.04 198.7 66.15 198.82 68.25 199.1C69.74 199.3 71.25 199.33 72.74 199C73.2 198.9 73.69 198.85 74.16 198.83C76.21 198.73 78.26 198.67 80.3 198.54C87.21 198.11 94.1 198.48 100.99 198.98C104.41 199.23 107.81 199.29 111.22 198.97C112.22 198.87 113.23 198.73 114.35 198.92C114.4 199.59 114.48 200.19 114.49 200.79C114.71 209.81 115.04 218.83 115.1 227.85C115.16 237.21 114.97 246.57 114.89 255.94C114.85 260.38 114.84 264.83 114.76 269.27C114.71 271.73 114.45 274.18 114.42 276.64C114.38 279.78 114.5 282.92 114.5 286.07C114.5 287.84 114.43 289.62 114.34 291.4C114.28 292.55 114.15 293.71 113.5 294.82C112.79 294.97 112.07 295.17 111.33 295.26C105.96 295.93 100.58 296.18 95.17 295.81C93.89 295.72 93.48 295.43 93.32 294.11C93.18 292.96 93.18 291.79 93.2 290.63C93.25 287.56 93.43 284.48 93.41 281.41C93.37 275.33 93.25 269.25 93.12 263.17C92.95 254.7 92.56 246.24 91.92 237.79C91.35 230.3 90.89 222.79 89.76 215.35C89.71 215.04 89.79 214.7 89.81 214.27C90.64 214.03 91.43 213.84 92.19 213.57C92.62 213.42 93.06 213.19 93.41 212.9C93.81 212.57 93.6 211.86 93.11 211.76C92.85 211.71 92.56 211.66 92.3 211.7C89.95 211.98 87.78 212.69 85.9 214.2C83.58 216.06 82.07 218.43 81.16 221.23C79.63 225.93 78.83 230.79 78.3 235.68C77.68 241.38 77.16 247.1 76.72 252.82C76.22 259.15 75.85 265.5 75.43 271.84C74.99 278.59 74.56 285.34 74.15 292.09C74.08 293.19 73.92 294.25 73.19 295.22C70.44 295.88 67.6 296.21 64.71 295.99C61.44 295.74 58.21 295.17 55 294.51C53.86 294.28 53.71 294.08 53.53 292.89C53.16 290.31 53.08 287.72 53.18 285.12C53.33 281.16 53.51 277.2 53.7 273.24C53.76 271.94 53.89 270.65 54 269.36C54.07 268.55 54.32 267.79 54.61 267.05C56.89 266.75 59.05 266.47 61.22 266.18C63.88 265.82 66.45 265.19 68.79 263.8C69.17 263.57 69.63 263.48 70.14 263.28C70.26 262.66 70.43 262 70.5 261.32C70.78 258.33 71.02 255.33 71.3 252.34C71.66 248.39 72.03 244.45 72.41 240.5C72.54 239.08 72.78 237.66 72.37 236.29C73.43 234.86 73.65 234.26 73.68 232.68C73.69 232.27 73.66 231.86 73.65 231.45C73.56 228.72 73.48 225.99 73.38 223.26C73.36 222.72 73.35 222.17 73.28 221.63C73.21 221.12 72.9 220.74 72.37 220.65C70.87 220.38 69.56 219.62 68.21 218.99C65.61 217.76 62.99 216.62 60.22 215.83C59.97 215.76 59.75 215.61 59.62 215.55C59.52 213.85 59.46 212.29 59.34 210.73C59.21 208.95 58.88 207.21 58.13 205.57C57.96 205.2 57.75 204.8 57.75 204.42C57.75 202.52 57.66 200.6 58.01 198.59L58.05 198.56ZM98.19 24.91C98.3 25.04 98.36 25.09 98.37 25.14C98.4 25.34 98.42 25.54 98.44 25.74C98.6 27.28 99.16 27.77 100.68 27.68C101.02 27.66 101.36 27.59 101.69 27.52C104.51 26.96 107.25 26.16 109.88 24.98C110.3 24.79 110.74 24.66 111.29 24.46C111.81 25.43 112.38 26.3 112.76 27.23C114.04 30.32 115.29 33.42 116.48 36.55C117.06 38.08 117.56 39.64 117.97 41.22C118.35 42.67 118.59 44.16 118.83 45.64C119.07 47.12 119.24 48.62 119.4 50.11C119.56 51.6 119.83 53.11 119.77 54.6C119.71 56.1 120.13 57.54 120.07 59.03C120.01 60.6 120.08 62.17 120.01 63.74C119.86 66.95 119.53 70.13 118.75 73.27C118 76.26 116.39 78.56 113.88 80.36C109.63 83.41 104.88 84.88 99.73 85.18C96.73 85.35 93.72 85.36 90.72 85.37C85.67 85.37 80.83 84.31 76.16 82.42C74.49 81.75 72.98 80.85 71.71 79.56C69.47 77.28 67.81 74.66 66.78 71.62C65.88 68.94 65.45 66.18 65.22 63.39C64.7 57.05 64.52 50.7 64.85 44.35C64.91 43.13 64.92 41.87 65.21 40.69C65.8 38.23 66.6 35.83 67.75 33.57C67.93 33.22 68.15 32.85 68.44 32.6C69.21 31.93 70.01 31.29 70.85 30.7C71.23 30.43 71.69 30.23 72.14 30.13C72.8 29.97 73.49 29.91 74.17 29.84C77.82 29.46 81.27 28.49 84.33 26.37C84.55 26.22 84.8 26.1 85.1 25.94C86.24 27.27 87.73 27.56 89.37 27.45C89.98 27.41 90.6 27.43 91.21 27.42C93.31 27.39 95.24 26.76 97.01 25.65C97.4 25.4 97.8 25.16 98.18 24.92L98.19 24.91ZM86.83 25.15C86.81 24.76 86.78 24.63 86.79 24.5C86.87 23.92 87.33 23.27 86.66 22.8C85.87 22.25 85.41 22.99 84.92 23.4C82.78 25.18 80.36 26.42 77.65 27.01C76.05 27.35 74.42 27.6 72.8 27.78C71.34 27.95 70.19 28.5 69.44 29.81C69.28 30.09 69.07 30.33 68.91 30.56C67.7 30.23 67.51 30.27 67.06 30.93C66.87 31.21 66.71 31.52 66.54 31.81C65.97 32.82 65.38 33.82 64.84 34.85C64.49 35.51 64.18 36.2 63.92 36.9C63.23 38.77 62.92 40.73 62.69 42.7C62.64 43.15 62.76 43.66 62.28 44.1C61.38 43.59 60.51 42.92 59.52 42.57C58.46 42.19 57.29 42.11 56.09 41.88C55.76 40.23 55.43 38.56 55.08 36.9C53.89 31.2 53.87 25.5 55.05 19.8C55.41 18.05 55.94 16.36 56.88 14.83C59.35 10.84 62.53 7.65001 66.91 5.77001C73.18 3.08001 79.69 1.82001 86.51 2.45001C92.87 3.04001 99.03 4.55001 104.99 6.87001C106.06 7.29001 107.08 7.84001 108.11 8.33001C108.2 8.99001 108.27 9.52001 108.34 10.07C108.98 10.5 109.61 10.9 110.22 11.35C111.49 12.28 112.77 13.19 113.98 14.19C115.89 15.75 117.13 17.76 117.77 20.14C118.5 22.84 119.27 25.54 119.96 28.25C121.34 33.73 121.7 39.31 121.57 44.94C121.56 45.56 121.64 46.22 121.17 46.92C121.08 46.55 121.01 46.36 120.98 46.17C120.15 41.24 118.86 36.43 117.03 31.77C116.83 31.27 116.66 30.7 116.29 30.34C115.77 29.83 115.57 29.2 115.25 28.6C114.55 27.27 113.84 25.95 113.13 24.63C112.95 24.29 112.72 23.98 112.55 23.71C113.3 22.9 114 22.24 114.56 21.48C114.86 21.07 114.97 20.49 115.05 19.97C115.08 19.8 114.77 19.51 114.56 19.39C114.44 19.32 114.18 19.44 114.01 19.52C113.89 19.57 113.79 19.69 113.72 19.8C112.77 21.32 111.29 22.16 109.73 22.9C107.12 24.13 104.37 24.93 101.56 25.54C101.25 25.61 100.92 25.61 100.44 25.65C100.49 25.04 100.51 24.59 100.58 24.14C100.66 23.6 100.84 23.08 100.88 22.54C100.94 21.62 100.15 21.11 99.4 21.59C98.71 22.03 98.08 22.56 97.46 23.1C94.67 25.57 91.34 25.92 87.84 25.53C87.52 25.49 87.21 25.32 86.85 25.19L86.83 25.15ZM34.25 212.47C34.15 212.57 34.06 212.67 33.96 212.77C33.24 212.16 32.37 211.67 31.82 210.93C29.5 207.82 28.46 204.39 29.57 200.52C29.68 200.13 29.83 199.74 30 199.37C31.48 196.18 33.43 193.33 36.05 190.96C36.3 190.73 36.5 190.45 36.69 190.17C37.2 189.44 37.66 188.68 38.19 187.97C38.61 187.4 38.87 186.8 38.95 186.1C39.03 185.42 39.2 184.76 39.28 184.08C40.09 176.88 40.96 169.69 41.68 162.49C42.34 155.89 42.77 149.28 43.41 142.68C43.92 137.31 44.58 131.95 45.19 126.59C45.25 126.05 45.35 125.51 45.43 124.97C45.51 124.47 45.41 123.92 45.77 123.31C47.19 124.08 48.49 124.81 49.81 125.5C51.26 126.26 52.68 127.13 54.21 127.68C55.28 128.06 56.14 128.57 56.86 129.29C56.74 130.01 56.61 130.61 56.53 131.22C56.15 134.27 55.68 137.31 55.42 140.38C54.65 149.37 53.39 158.3 52.68 167.3C52.13 174.24 51.23 181.16 50.49 188.09C50.3 189.86 50.03 191.62 49.93 193.39C49.81 195.42 50.49 196.37 52.35 197.19C52.53 197.27 52.72 197.36 52.92 197.46C53.55 198.9 54.01 200.36 53.73 202.02C52.85 202.16 52.05 202.3 51.25 202.41C49.68 202.63 48.42 203.41 47.45 204.63C45.77 206.76 45.13 209.1 46.28 211.7C46.8 212.87 46.77 214.09 46.81 215.32C46.82 215.72 46.29 216.06 45.92 215.92C44.16 215.27 42.56 214.47 41.67 212.64C40.99 211.24 40.74 209.8 40.83 208.27C40.88 207.25 40.99 206.23 41.04 205.2C41.06 204.73 41.02 204.25 40.95 203.78C40.92 203.63 40.68 203.39 40.55 203.4C40.31 203.42 40.03 203.54 39.88 203.72C39.72 203.92 39.65 204.21 39.6 204.48C39.37 205.69 39.11 206.89 38.95 208.11C38.64 210.58 39.14 212.87 40.65 214.9C40.79 215.09 40.87 215.34 41.04 215.69C40.69 215.69 40.47 215.76 40.32 215.69C37.39 214.17 35.6 211.8 35.2 208.51C35.06 207.37 35.2 206.19 35.2 205.03C35.2 204.49 35.18 203.94 35.11 203.41C35.09 203.26 34.85 203.07 34.69 203.03C34.52 203 34.29 203.1 34.15 203.22C34.01 203.34 33.89 203.55 33.85 203.74C33.25 206.29 32.86 208.85 33.85 211.4C33.99 211.77 34.14 212.14 34.28 212.52L34.25 212.47ZM126.56 123.22C127.02 126.12 127.51 128.74 127.85 131.37C128.88 139.3 129.57 147.26 130.04 155.24C130.25 158.72 130.48 162.19 130.64 165.67C130.73 167.71 130.86 169.78 130.67 171.81C130.45 174.2 130.37 176.58 130.44 178.97C130.55 182.45 130.77 185.93 130.91 189.41C130.96 190.57 130.83 191.73 130.94 192.88C131.18 195.6 131.48 198.32 131.8 201.03C132.25 204.81 131.02 207.87 127.97 210.19C124.87 212.55 121.33 213.62 117.49 213.82C117.37 213.82 117.25 213.71 117.13 213.65C116.79 212.14 116.7 208.01 117.01 206.2C118.65 207.41 120.39 208.05 122.39 207.59C124.42 207.12 125.65 205.81 126.4 203.88C126.02 203.75 125.74 203.9 125.44 204.08C124.74 204.5 124.04 204.93 123.31 205.29C122.21 205.83 121.06 205.81 119.92 205.41C119.27 205.19 118.57 204.91 118.42 204.16C118.25 203.36 118.91 202.92 119.45 202.53C120.33 201.89 121.28 201.34 122.17 200.7C123 200.1 123.8 199.46 124.56 198.78C125.04 198.35 125.26 197.75 125.07 197.1C125 196.88 124.76 196.65 124.54 196.54C124.42 196.48 124.09 196.59 124.01 196.72C123.23 197.92 121.99 198.52 120.86 199.28C119.67 200.08 118.52 200.93 117.34 201.74C117.14 201.88 116.91 201.97 116.57 202.16C116.5 200.84 116.31 199.7 116.57 198.54C117.6 198.27 118.5 197.83 119.6 198.11C120.38 198.31 120.86 197.8 120.96 196.98C120.97 196.84 120.97 196.71 120.98 196.57C121.04 193.7 121.04 190.84 120.75 187.97C120.52 185.73 120.4 183.48 120.29 181.23C120.16 178.43 120.12 175.63 120 172.83C119.96 171.81 119.6 170.75 119.78 169.78C119.96 168.82 120.63 167.95 121.08 167.04C121.29 166.61 121.5 166.18 121.69 165.74C123.4 161.67 124.34 157.38 124.58 153.01C124.92 146.94 124.86 140.85 123.6 134.85C123.52 134.45 123.48 134.04 123.51 133.63C123.61 131.88 123 130.42 121.77 129.2C121.24 128.67 120.72 128.13 120.57 127.35C122.02 125.29 124.08 124.2 126.58 123.22H126.56ZM40.08 265.3C39.52 265.21 39.25 265.19 38.99 265.12C35.98 264.23 32.95 263.4 29.97 262.42C22.22 259.89 14.78 256.67 7.73999 252.53C7.32999 252.29 6.91 252.06 6.50999 251.79C5.42999 251.06 4.78999 250.12 4.81 248.72C4.83 247.36 4.65999 245.99 4.57999 244.63C4.40999 241.63 4.19 238.63 4.09 235.63C4.01999 233.31 4.09 230.99 4.12 228.67C4.12 228.57 4.25999 228.46 4.37999 228.29C4.59999 228.34 4.92999 228.31 5.09999 228.46C6.53999 229.7 8.30999 230.25 10.04 230.86C17.43 233.5 24.85 236.06 32.15 238.97C33.86 239.65 35.65 240.07 37.28 240.98C37.91 241.33 38.72 241.36 39.45 241.5C39.84 241.58 40.25 241.58 40.56 241.6C41.13 242.09 41.06 242.67 41.04 243.2C40.97 245.52 40.89 247.84 40.78 250.16C40.59 253.98 40.35 257.8 40.15 261.62C40.09 262.77 40.09 263.93 40.06 265.3H40.08ZM43.05 242.1C44.65 241.95 46 241.84 47.35 241.68C51.22 241.22 55.08 240.74 58.95 240.26C62.54 239.81 66.13 239.31 69.48 237.78C69.71 237.67 69.99 237.68 70.29 237.62C70.58 238.51 70.45 239.3 70.36 240.11C69.98 243.5 69.59 246.9 69.27 250.3C68.95 253.63 68.7 256.97 68.4 260.31C68.34 260.98 68.32 261.68 67.83 262.29C66.29 263 64.65 263.43 62.96 263.68C60.8 264 58.61 264.18 56.47 264.6C54.32 265.02 52.17 265.39 49.99 265.57C48.08 265.73 46.18 265.93 44.27 266.07C43.62 266.12 42.91 266.29 42.36 265.84C42.48 261.89 42.48 258 42.74 254.12C43 250.17 43.09 246.22 43.05 242.11V242.1ZM93.75 298.04C93.97 297.99 94.11 297.92 94.23 297.93C98.66 298.51 103.09 298.24 107.52 298.01C109.08 297.93 110.64 297.7 112.19 297.44C112.98 297.31 113.67 297.37 114.32 297.83C116 299 117.73 300.1 119.34 301.36C121 302.66 122.58 304.08 124.13 305.52C125.24 306.55 126.13 307.78 126.78 309.14C127.16 309.93 127.41 310.79 127.61 311.64C127.87 312.77 127.42 313.61 126.41 314.21C125.04 315.03 123.55 315.48 122 315.76C117.71 316.54 113.44 316.33 109.17 315.57C104.72 314.78 100.44 313.4 96.15 312.02C94.55 311.5 93.62 310.4 93.51 308.73C93.35 306.42 93.2 304.1 93.22 301.78C93.22 300.51 93.34 299.21 93.75 298.02V298.04ZM72.76 297.37C73.01 298.69 72.89 299.78 72.82 300.86C72.75 301.81 72.62 302.76 72.58 303.72C72.4 308.59 69.87 311.72 65.42 313.45C64.85 313.67 64.26 313.87 63.67 314.01C58.39 315.25 53.03 315.68 47.62 315.73C46.44 315.74 45.3 315.5 44.26 314.96C43.36 314.5 42.5 313.93 41.68 313.33C40.84 312.73 40.48 311.87 40.6 310.83C40.73 309.66 41.13 308.58 41.75 307.58C42.51 306.35 43.46 305.27 44.59 304.37C45.71 303.48 46.88 302.65 48.06 301.84C50.41 300.2 52.77 298.59 55.29 296.86C55.71 296.92 56.32 297 56.92 297.09C59.01 297.41 61.09 297.81 63.2 298.02C66.33 298.33 69.46 298.22 72.76 297.37ZM49.61 220.38C51.78 221.42 53.73 221.19 55.68 220.69C55.81 220.66 55.95 220.63 56.08 220.62C57.66 220.43 58.65 219.53 59.2 218.07C59.27 217.89 59.34 217.72 59.46 217.44C62.71 218.59 65.71 220.15 68.82 221.54C68.71 221.64 68.67 221.71 68.63 221.71C63.92 222.52 59.22 223.35 54.5 224.12C51.54 224.6 48.58 225.17 45.57 225.29C44.48 225.33 43.38 225.45 42.31 225.66C40.19 226.08 38.1 225.95 36.05 225.36C33.76 224.7 31.5 223.91 29.23 223.16C27.35 222.54 25.47 221.93 23.61 221.26C21.75 220.59 19.94 219.77 18.07 219.13C15.74 218.33 13.46 217.45 11.22 216.43C9.86 215.81 8.43 215.34 7.03 214.79C5.89999 214.35 4.76999 213.9 3.87 213.05C4.23999 212.24 4.89 211.85 5.56999 211.53C7.17999 210.76 8.83 210.07 10.61 209.87C13.05 209.59 15.5 209.44 17.95 209.25C18.04 209.25 18.14 209.4 18.36 209.59C17.69 210.51 18.26 211.49 18.42 212.46C18.58 213.45 19.28 214.19 20.31 214.4C21.44 214.63 22.6 214.77 23.75 214.88C24.86 214.99 25.92 214.69 26.94 214.26C27.87 213.86 28.53 213.22 28.6 212.12C28.62 211.74 28.71 211.37 28.8 210.75C30.63 212.3 32.24 213.75 33.93 215.09C36.56 217.17 39.43 218.4 42.92 217.18C44.05 217.84 45.32 217.91 46.64 217.73C48.04 217.54 48.93 216.65 48.8 215.28C48.69 214.06 48.38 212.86 48.17 211.65C48.09 211.2 48.03 210.74 47.92 210.01C49.24 211.22 49.39 212.6 49.52 213.93C49.65 215.29 49.6 216.66 49.62 218.02C49.63 218.82 49.62 219.62 49.62 220.38H49.61ZM109.48 169.15C109.31 168.88 109.14 168.67 109.05 168.43C108.74 167.6 108.48 166.75 108.14 165.93C106.85 162.83 105.91 159.63 105.31 156.33C104.97 154.46 104.87 152.54 104.61 150.65C104.11 146.99 104.06 143.3 104.2 139.62C104.24 138.67 104.39 137.72 104.53 136.78C104.58 136.46 104.71 136.12 104.9 135.85C106.36 133.65 108.36 132.01 110.56 130.61C111.19 130.21 111.92 129.95 112.7 130.15C113.81 130.43 114.94 130.67 115.84 131.31C115.84 132.17 115.81 132.91 115.84 133.65C116.05 137.67 116.37 141.69 116.46 145.71C116.57 150.34 116.95 154.97 116.58 159.62C116.41 161.69 115.73 163.43 114.75 165.17C113.57 167.24 111.79 168.46 109.48 169.16V169.15ZM39.12 229.44C39.57 232.47 39.45 235.53 39.32 238.56C38.47 238.77 37.83 238.56 37.18 238.33C35.31 237.68 33.44 237.05 31.58 236.37C26.91 234.66 22.25 232.92 17.58 231.18C13.69 229.73 9.83 228.15 5.89 226.84C3.49001 226.04 1.69 222.8 2 220.5C2.13 219.56 2.17999 218.6 2.23999 217.65C2.27998 216.92 2.58 216.35 3.31 215.88C3.95 215.97 4.65999 216.08 5.37 216.38C7.18999 217.15 9.04 217.86 10.89 218.54C14.98 220.05 19.15 221.38 23.17 223.06C27.02 224.67 30.96 225.92 34.98 226.99C35.24 227.06 35.51 227.12 35.77 227.2C37.11 227.59 38.31 228.2 39.11 229.43L39.12 229.44ZM71.08 223.15C71.17 223.36 71.27 223.48 71.27 223.6C71.33 226.67 71.36 229.74 71.43 232.81C71.45 233.81 71.02 234.47 70.13 234.92C67.74 236.13 65.25 237.03 62.59 237.4C58.67 237.95 54.75 238.48 50.83 238.99C48.66 239.27 46.49 239.49 44.32 239.71C43.53 239.79 42.73 239.95 41.9 239.74C41.85 239.36 41.8 239.1 41.78 238.84C41.66 237.07 41.53 235.3 41.46 233.54C41.38 231.66 41.04 229.75 42.01 227.81C42.58 227.72 43.25 227.57 43.92 227.5C45.69 227.33 47.47 227.29 49.22 227.03C52.73 226.52 56.23 225.94 59.72 225.31C63.14 224.69 66.54 223.95 69.95 223.27C70.34 223.19 70.74 223.19 71.1 223.16L71.08 223.15ZM115.87 123.92C115.87 121.33 116.02 118.67 115.84 116.03C115.43 109.83 114.93 103.64 113.91 97.5C113.36 94.2 112.64 90.93 111.11 87.91C111.04 87.77 111.11 87.56 111.11 87.21C111.55 87.52 111.89 87.73 112.2 87.98C114.65 89.97 116.77 92.28 118.7 94.77C121.64 98.56 124.16 102.62 126.17 106.97C127.68 110.25 129.05 113.6 130.43 116.94C131.01 118.34 130.9 118.58 129.64 119.2C127.8 120.11 126.1 121.24 124.4 122.38C122.59 123.59 120.68 124.64 118.82 125.76C118.04 125.33 117.32 124.94 116.61 124.53C116.38 124.4 116.2 124.19 115.88 123.91L115.87 123.92ZM61.54 135.48C61.62 134.93 61.7 134.05 61.86 133.18C62.44 129.97 65.72 127.26 69.18 127.73C69.58 127.79 69.99 127.78 70.4 127.8C72.24 127.88 73.82 128.54 75.14 129.84C75.42 130.12 75.75 130.35 76.06 130.61C79.16 133.21 79.82 135.99 78.45 139.53C77.46 142.07 75.57 143.78 73.19 145.01C70.36 146.47 65.79 146.24 63.38 142.22C62.19 140.24 61.61 138.1 61.54 135.47V135.48ZM108.23 86.31C108.69 87.14 109.1 87.78 109.41 88.46C109.75 89.2 110.03 89.98 110.29 90.75C111.37 94 111.94 97.37 112.33 100.76C112.72 104.15 113.03 107.55 113.33 110.95C113.66 114.69 114.19 118.41 114.07 122.17C114.04 123.03 114.24 123.8 114.7 124.5C115.07 125.07 115.45 125.64 115.93 126.12C117.18 127.38 118.47 128.59 119.76 129.82C120.72 130.73 121.47 131.77 121.74 133.09C121.88 133.79 121.78 134.24 121.44 134.35C120.88 134.53 120.54 134.13 120.18 133.84C119.98 133.68 119.85 133.41 119.75 133.16C118.86 130.96 117.06 129.74 114.98 128.93C112.86 128.1 110.76 128 108.81 129.6C107.39 130.76 105.68 131.53 104.37 132.87C104.15 133.1 103.79 133.19 103.5 133.34C102.65 132.17 102.52 131.49 103.39 130.6C104.99 128.95 106.3 126.96 108.54 126C109.67 125.52 110.37 124.59 110.73 123.43C110.91 122.85 111.04 122.24 111.14 121.64C111.75 118.04 111.62 114.42 111.33 110.81C111.08 107.75 110.72 104.69 110.27 101.66C109.53 96.73 108.77 91.8 106.69 87.2C106.65 87.11 106.75 86.96 106.8 86.74C107.19 86.62 107.63 86.49 108.24 86.29L108.23 86.31ZM116.62 176.52C115.52 178.91 114.24 179.41 112.19 178.33C110.92 177.66 109.72 176.88 108.8 175.73C108.55 175.42 108.25 175.12 107.92 174.89C107.22 174.4 106.76 173.74 106.43 172.98C105.91 171.79 105.47 170.57 104.88 169.42C103.7 167.09 102.88 164.64 102.38 162.08C102.06 160.47 101.77 158.86 101.42 157.26C100.3 152.22 99.89 147.14 100.54 142C100.75 140.31 101.03 138.62 101.3 136.94C101.39 136.35 101.57 135.79 101.93 135.34C102.88 135.63 102.77 136.23 102.65 136.86C101.98 140.31 101.97 143.8 102.21 147.28C102.71 154.78 104.67 161.94 107.49 168.87C107.57 169.06 107.65 169.25 107.75 169.43C108.68 171.04 109.74 172.5 111.44 173.42C113.17 174.36 114.83 175.45 116.62 176.54V176.52ZM85.31 87.72C90.2 88.32 94.96 88.01 99.85 88.02C99.72 88.51 99.66 88.84 99.54 89.14C98.29 92.24 97.04 95.35 95.76 98.44C95.16 99.89 94.49 101.31 93.81 102.73C93.65 103.07 93.53 103.52 92.84 103.6C92.25 102.39 91.86 101.02 91.3 99.73C90.71 98.35 90.1 96.97 89.46 95.61C88.84 94.31 88.16 93.05 87.52 91.77C86.86 90.44 85.87 89.28 85.32 87.71L85.31 87.72ZM76.29 85.43C76.32 85.68 76.38 85.83 76.35 85.95C76.24 86.34 76.1 86.73 75.97 87.11C74.73 90.74 73.86 94.46 73.41 98.26C72.79 103.55 72.55 108.87 72.59 114.2C72.61 117.75 72.75 121.3 72.82 124.85C72.82 125.3 72.73 125.74 72.68 126.27C71.66 126.23 70.81 126.09 70 125.68C69.92 125.25 69.8 124.85 69.79 124.45C69.75 120.71 69.18 116.99 69.68 113.22C70.15 109.71 70.17 106.14 70.5 102.61C71.04 96.89 72.15 91.27 73.85 85.78C73.96 85.42 74.19 85.09 74.41 84.65C75.12 84.95 75.74 85.2 76.29 85.43ZM110.63 170.77C111.31 170.42 111.79 170.16 112.28 169.93C113.81 169.21 114.99 168.12 115.84 166.65C117.27 164.15 118.5 161.57 118.95 158.68C119.42 155.64 120 152.62 120.42 149.58C120.96 145.58 121.36 141.57 120.9 137.53C120.88 137.34 120.94 137.14 120.97 136.84C121.36 136.68 121.78 136.51 122.31 136.29C122.42 136.75 122.53 137.06 122.56 137.38C122.65 138.33 122.71 139.29 122.77 140.24C123.11 145.77 123.19 151.3 122.18 156.79C121.52 160.37 120.64 163.86 118.94 167.11C118.56 167.83 118.27 168.6 117.56 169.11C117.35 169.26 117.19 169.52 117.09 169.76C116.53 171.19 115.32 171.93 114.08 172.73C112.96 172.15 111.8 171.77 110.62 170.78L110.63 170.77ZM53.82 203.86C55.65 204.65 56.02 204.96 56.52 206.81C56.86 208.05 57.04 209.34 57.19 210.62C57.47 213.06 57.27 215.49 56.88 217.93C55.3 218.85 53.66 219.02 51.87 218.92C51.8 218.36 51.71 217.91 51.69 217.44C51.65 216.35 51.67 215.26 51.61 214.18C51.47 211.63 50.64 209.4 48.63 207.7C48.49 207.58 48.43 207.36 48.32 207.17C49.07 205.56 50.25 204.58 52.03 204.33C52.62 204.24 53.2 204.03 53.81 203.87L53.82 203.86ZM62.27 59.85C61.67 59.98 61.35 59.71 61.03 59.47C58.29 57.48 56.04 55.04 54.36 52.09C53.93 51.33 53.56 50.49 53.35 49.64C52.6 46.62 54.97 43.8 57.92 44.2C59.66 44.43 60.87 45.54 61.84 46.91C62.4 47.71 62.37 49.28 61.81 50.84C61.24 50.44 60.72 50.01 60.14 49.69C59.81 49.51 59.37 49.49 58.98 49.47C58.66 49.46 58.37 49.98 58.54 50.24C58.81 50.63 59.12 50.98 59.43 51.33C60.11 52.09 60.84 52.81 61.48 53.6C61.77 53.96 62.08 54.42 62.12 54.85C62.29 56.52 62.39 58.19 62.26 59.84L62.27 59.85ZM20.43 212.18C20.43 211.47 20.35 210.86 20.45 210.28C20.71 208.67 21.02 207.07 21.34 205.47C21.63 204.07 22.04 202.7 22.8 201.47C23.76 199.92 25.02 198.72 26.76 198.1C27.12 197.97 27.54 197.8 27.94 198.24C27.8 198.65 27.64 199.08 27.49 199.52C27.01 201.02 26.72 202.54 26.92 204.14C27.01 204.88 27.05 205.63 27.06 206.38C27.06 206.91 27.03 207.46 26.92 207.99C26.62 209.38 26.27 210.76 25.91 212.28C24.23 213.23 22.47 212.78 20.43 212.19V212.18ZM117.61 134.22C117.95 134.37 118.21 134.39 118.28 134.53C118.53 135 118.82 135.5 118.91 136.01C119.5 139.65 119.29 143.27 118.54 146.9C118.23 142.72 117.92 138.53 117.61 134.23V134.22ZM105.83 175.35C104.53 175.23 103.67 174.77 103.08 173.88C102.38 172.83 102.04 171.66 102.19 170.39C102.21 170.25 102.45 170.05 102.6 170.03C102.77 170 103.03 170.09 103.14 170.22C103.31 170.42 103.42 170.69 103.5 170.94C103.88 172.2 104.48 173.33 105.33 174.34C105.52 174.57 105.61 174.88 105.83 175.34V175.35ZM117.51 174.54C116.78 174.62 116.24 174.33 115.81 173.64C116.53 173.05 116.98 172.21 117.92 171.85C117.77 172.8 117.64 173.65 117.5 174.54H117.51Z" fill="#1D262D"/>
<path fill-rule="evenodd" clip-rule="evenodd" d="M78.8 62.72C78.36 64.2 78.83 65.38 79.61 66.46C80.58 67.81 81.8 68.88 83.28 69.66C85.79 70.98 88.41 71.76 91.3 71.74C93.99 71.71 96.61 71.43 99.1 70.4C100.1 69.99 101.05 69.43 101.95 68.83C102.77 68.29 102.97 67.65 102.71 67.13C102.44 66.61 101.8 66.51 100.9 67.03C97.9 68.74 94.65 69.29 91.25 69.2C87.08 69.08 83.61 67.44 80.75 64.43C80.28 63.94 79.83 63.43 79.36 62.94C79.28 62.86 79.12 62.85 78.79 62.73L78.8 62.72Z" fill="#1D262D"/>
<path fill-rule="evenodd" clip-rule="evenodd" d="M99.22 56.65C98.59 57.17 98.07 57.6 97.55 58.03C97.04 58.46 96.48 58.86 96.2 59.45C96.4 59.95 96.79 59.91 97.09 59.85C97.88 59.69 98.72 59.57 99.44 59.22C100.99 58.48 101.48 57.43 101.27 55.72C101.23 55.38 101.17 55.04 101.05 54.72C100.2 52.42 99.34 50.12 98.48 47.82C98.26 47.23 97.93 46.73 97.29 46.5C96.89 46.36 96.36 46.64 96.4 47.05C96.46 47.59 96.56 48.13 96.72 48.64C97.32 50.53 97.96 52.4 98.56 54.28C98.79 54.99 98.97 55.72 99.23 56.65H99.22Z" fill="#1D262D"/>
<path fill-rule="evenodd" clip-rule="evenodd" d="M106.2 45.96C106.35 47.27 106.63 48.24 107.34 49.02C108.57 50.35 110.24 50 110.82 48.29C111.37 46.67 110.48 44.34 108.99 43.52C108.1 43.03 107 43.34 106.6 44.28C106.35 44.89 106.27 45.57 106.19 45.96H106.2Z" fill="#1D262D"/>
<path fill-rule="evenodd" clip-rule="evenodd" d="M77.51 45.71C77.55 47.47 78.59 48.68 79.82 48.73C80.57 48.76 81.16 48.47 81.51 47.81C82.09 46.72 82.13 45.59 81.6 44.47C81.25 43.74 80.69 43.29 79.85 43.26C79.01 43.23 78.38 43.6 78.01 44.31C77.73 44.84 77.6 45.44 77.51 45.71Z" fill="#1D262D"/>
<path fill-rule="evenodd" clip-rule="evenodd" d="M74.75 34.85C75.38 35.16 75.72 35.42 76.11 35.5C77.71 35.82 79.32 36.1 80.93 36.37C81.19 36.41 81.48 36.39 81.74 36.32C82.17 36.21 82.44 35.91 82.5 35.46C82.56 35.02 82.4 34.58 81.98 34.45C79.88 33.78 77.76 33.34 75.6 34.18C75.37 34.27 75.2 34.49 74.75 34.85Z" fill="#1D262D"/>
<path fill-rule="evenodd" clip-rule="evenodd" d="M104.08 35.94C104.76 36.22 105.11 36.4 105.48 36.51C107.23 37.03 108.99 36.87 110.73 36.45C111.16 36.35 111.43 36.05 111.45 35.58C111.47 35.12 111.09 34.68 110.53 34.69C108.69 34.71 106.85 34.69 105.07 35.28C104.82 35.36 104.62 35.57 104.08 35.95V35.94Z" fill="#1D262D"/>
<path fill-rule="evenodd" clip-rule="evenodd" d="M17.59 242.05C16.8 241.9 16.27 241.76 15.73 241.69C14.35 241.5 13.3 242.2 13.04 243.56C12.76 245.03 12.53 246.51 12.64 247.97C13.55 249.14 14.78 249.66 16.22 249.98C16.24 250.43 16.27 250.82 16.27 251.21C16.27 251.62 16.17 252.04 16.24 252.43C16.51 253.89 17.02 255.2 18.7 255.59C19.96 255.88 21.21 256.22 22.48 256.48C23.29 256.65 23.96 256.16 24.12 255.34C24.21 254.87 24.2 254.39 24.24 253.92C24.27 253.51 24.29 253.1 24.33 252.7C24.35 252.57 24.44 252.45 24.5 252.31C25.06 251.92 25.67 252.24 26.25 252.29C26.93 252.34 27.6 252.52 28.27 252.56C29.07 252.6 29.56 252.2 29.73 251.43C29.83 250.97 29.87 250.49 29.89 250.01C29.93 249.06 29.95 248.1 29.94 247.15C29.94 245.88 29.66 245.46 28.48 245C28.04 244.83 27.56 244.74 27.1 244.62C26.64 244.5 26.18 244.4 25.58 244.27C25.58 243.87 25.54 243.47 25.58 243.09C25.72 241.98 25.49 240.92 25.14 239.88C24.86 239.05 24.27 238.52 23.4 238.31C22.41 238.08 21.42 237.8 20.43 237.58C19.54 237.38 18.75 237.76 18.45 238.6C18.22 239.24 18.16 239.93 18 240.59C17.89 241.04 17.75 241.47 17.57 242.07L17.59 242.05ZM28.12 246.79C28.12 247.94 28.57 249.21 27.58 250.44C27.2 250.38 26.8 250.33 26.41 250.27C25.87 250.19 25.33 250.07 24.79 250.03C23.52 249.94 23.11 250.22 22.75 251.51C22.61 252.03 22.57 252.58 22.47 253.12C22.4 253.5 22.33 253.89 22.24 254.35C21.75 254.31 21.35 254.32 20.95 254.25C18.91 253.92 18.2 253.03 18.17 250.94C18.17 250.21 18.01 249.48 17.91 248.65C17.12 248.42 16.41 248.2 15.7 248C15.02 247.81 14.62 247.34 14.62 246.68C14.62 245.67 14.55 244.64 15 243.7C15.95 243.31 16.78 243.78 17.63 243.91C18.19 244 18.7 243.99 19.1 243.47C19.3 243.21 19.58 243.02 19.81 242.81C19.92 241.74 20.02 240.73 20.16 239.47C21.25 239.91 22.28 239.87 23.2 240.39C23.62 241.22 23.74 242.09 23.59 242.98C23.47 243.69 23.61 244.34 23.9 244.96C24.3 245.83 24.89 246.43 25.96 246.25C26.66 246.14 27.31 246.33 28.09 246.78L28.12 246.79Z" fill="#1D262D"/>
<path fill-rule="evenodd" clip-rule="evenodd" d="M71.12 140.68C72.28 140.72 73.16 140.13 73.64 139.04C74.13 137.91 74.11 136.74 73.28 135.75C72.71 135.08 72.05 134.47 71.35 133.95C71.08 133.75 70.56 133.73 70.2 133.82C69.25 134.07 68.46 134.64 67.94 135.48C67.31 136.51 66.96 137.62 67.65 138.77C68.41 140.04 69.54 140.71 71.13 140.68H71.12ZM71.08 135.23C71.62 135.77 72.08 136.32 72.13 137.12C72.16 137.69 71.86 138.32 71.44 138.48C70.83 138.71 70.25 138.63 69.71 138.27C69.25 137.96 69.06 137.44 69.21 136.85C69.46 135.91 70.05 135.36 71.08 135.23Z" fill="#1D262D"/>
</g>
<defs>
<clipPath id="clip0_4_2748">
<rect width="141.4" height="336.28" fill="white" transform="matrix(-1 0 0 1 141.4 0)"/>
</clipPath>
</defs>
</svg>
