<svg width="262" height="340" viewBox="0 0 262 340" fill="none" xmlns="http://www.w3.org/2000/svg">
<g clip-path="url(#clip0_4_2632)">
<path fill-rule="evenodd" clip-rule="evenodd" d="M161.32 315.95C161.32 329.02 129.2 339.62 89.57 339.62C49.94 339.62 17.82 329.02 17.82 315.95C17.82 302.88 49.94 292.28 89.57 292.28C129.2 292.28 161.32 302.88 161.32 315.95Z" fill="#96A6BB"/>
<path fill-rule="evenodd" clip-rule="evenodd" d="M232.93 282.88C231.62 283.32 230.5 283.62 229.34 283.62C225.24 283.62 221.14 283.69 217.04 283.58C210.88 283.41 204.85 282.25 198.87 280.79C196.49 280.21 194.07 279.78 191.67 279.25C191.14 279.13 190.61 278.98 190.13 278.74C187.46 277.37 184.82 275.98 182.17 274.59C181.54 274.78 181.41 275.22 181.74 275.69C182.08 276.19 182.52 276.65 182.99 277.02C183.52 277.45 184.1 277.82 184.72 278.12C188.11 279.74 191.57 281.18 195.27 281.98C198.54 282.69 201.78 283.53 205.05 284.21C208.73 284.98 212.46 285.43 216.22 285.63C216.77 285.66 217.31 285.68 217.85 285.77C221.95 286.43 226.01 286.22 230.07 285.41C233.03 284.82 235.9 283.98 238.68 282.79C239.81 282.31 241 281.98 242.16 281.57C242.41 281.48 242.66 281.36 242.88 281.21C243.18 281 243.22 280.43 242.99 280.09C242.77 279.76 242.27 279.69 241.9 279.97C241.68 280.13 241.52 280.37 241.29 280.51C241.01 280.69 240.7 280.87 240.38 280.95C238.99 281.31 237.6 281.64 236.2 281.95C235.95 282.01 235.67 281.95 235.34 281.95C234.29 279.22 232.2 277.5 229.82 276.09C224.57 272.99 218.92 271.03 212.83 270.54C209.42 270.27 206.07 269.59 202.71 269.01C202.11 268.91 201.51 268.79 200.91 268.67C200.82 268.13 201.21 268.11 201.51 268.07C208.64 266.95 215.8 266.78 222.97 267.46C226.78 267.82 230.58 268.29 234.36 268.81C238.29 269.35 242.17 270.14 245.97 271.29C249.6 272.39 253.02 273.87 255.91 276.42C256.73 277.15 257.49 277.88 257.85 278.99C258.19 280.02 258.86 280.94 259.19 281.97C260.05 284.68 260.27 287.47 259.75 290.27C259.57 291.25 259.07 292.19 258.65 293.11C258.4 293.66 258.01 294.13 257.31 294.27C257 294.33 256.72 294.59 256.46 294.81C255.04 296.03 253.43 296.88 251.63 297.42C250.39 297.79 249.17 298.23 247.95 298.69C246.8 299.12 245.67 299.6 244.54 300.06C243.59 300.44 242.65 300.83 241.7 301.21C240.88 301.54 240.07 301.87 239.24 302.18C238.99 302.27 238.7 302.27 238.45 302.37C236.72 303.07 234.78 302.56 233.06 303.35C231.37 304.13 229.53 304.38 227.7 304.66C223.71 305.27 219.69 305.58 215.65 305.59C210.45 305.61 205.31 304.96 200.23 303.82C200.03 303.78 199.83 303.71 199.63 303.69C195.96 303.4 192.58 302.09 189.26 300.65C185.5 299.02 181.79 297.27 178.05 295.6C177.16 295.2 176.37 294.68 175.72 293.96C174.99 293.15 174.19 292.38 173.58 291.48C171.22 287.96 168.93 284.4 167.68 280.29C167.44 279.51 167.18 278.72 167.04 277.92C166.72 276.09 167.28 274.99 168.89 274C171.93 272.15 175.24 271.21 178.76 270.86C185.65 270.17 192.55 270.42 199.45 270.43C199.79 270.43 200.14 270.45 200.47 270.51C205.58 271.43 210.69 272.33 215.79 273.29C217.94 273.69 220.09 274.12 222.18 274.72C225.5 275.67 228.48 277.33 231.16 279.51C232.15 280.31 232.61 281.42 232.92 282.84L232.93 282.88Z" fill="#B0B0B0"/>
<path fill-rule="evenodd" clip-rule="evenodd" d="M58.72 35.52C59.83 35.04 60.87 34.55 61.95 34.14C65.85 32.66 69.8 31.37 73.84 30.33C80.03 28.74 86.32 27.93 92.71 28.44C96.6 28.75 100.45 29.38 104.06 30.95C106.97 32.21 107.35 32.78 108.05 35.87C108.46 37.69 108.45 39.53 108.49 41.38C108.59 46.45 108.11 51.48 107.35 56.49C106.97 58.99 106.45 61.46 105.92 63.93C105.51 65.88 104.65 67.68 103.75 69.44C103.59 69.74 103.45 70.1 103.2 70.29C102.41 70.9 101.99 71.77 101.54 72.6C100.25 74.93 98.41 76.69 96.19 78.14C93.66 79.79 91.08 81.29 88.22 82.3C86.47 82.92 84.7 83.37 82.82 83.35C81.45 83.33 80.09 83.52 78.72 83.46C77.23 83.4 75.74 83.18 74.25 82.99C73.31 82.87 72.37 82.68 71.43 82.52C71.23 82.49 71.02 82.47 70.83 82.4C68.26 81.46 65.69 80.52 63.49 78.84C62.33 77.95 61.46 76.81 60.71 75.58C59.35 73.36 58.21 71.03 57.5 68.51C56.71 65.68 55.93 62.85 55.24 60C54.97 58.88 54.9 57.71 54.79 56.55C54.76 56.24 54.85 55.84 55.04 55.6C56.21 54.03 56.76 52.18 57.24 50.34C57.84 48.03 58.31 45.69 58.81 43.35C59.26 41.25 59.2 39.14 58.85 37.03C58.77 36.57 58.76 36.1 58.71 35.52H58.72ZM93.98 67.59C93.16 67.25 92.59 67.76 91.99 68.01C90.55 68.62 89.16 69.37 87.7 69.92C84.02 71.31 80.74 70.54 77.9 67.86C76.9 66.92 76.01 65.91 75.52 64.58C75.31 64.02 74.82 63.81 74.4 63.97C73.96 64.14 73.6 64.6 73.68 65.09C73.76 65.62 73.86 66.2 74.14 66.64C74.72 67.56 75.34 68.47 76.08 69.26C77.9 71.2 80.08 72.51 82.78 72.85C87.17 73.39 90.6 71.6 93.48 68.48C93.7 68.25 93.8 67.91 93.97 67.59H93.98ZM91.11 55.33C91.03 55 90.99 54.27 90.66 53.71C89.52 51.78 88.3 49.91 87.07 48.03C86.96 47.86 86.53 47.7 86.37 47.79C86.11 47.93 85.81 48.25 85.79 48.52C85.75 48.97 85.83 49.48 86.01 49.9C86.3 50.58 86.72 51.21 87.07 51.87C87.55 52.77 88.07 53.65 88.49 54.58C88.9 55.47 88.75 56.32 87.95 56.96C87.42 57.38 86.85 57.76 86.32 58.18C86.01 58.43 85.61 58.69 85.81 59.17C85.99 59.59 86.41 59.68 86.84 59.7C89.04 59.82 91.13 57.85 91.11 55.33ZM96.41 49.39C96.48 49.94 96.48 50.29 96.56 50.61C96.94 52.12 98.42 52.75 99.74 51.92C100.13 51.67 100.51 51.32 100.73 50.93C101.46 49.65 101.45 48.33 100.72 47.05C100.27 46.25 99.55 45.97 98.66 46.02C97.74 46.08 97.11 46.55 96.84 47.41C96.62 48.12 96.52 48.86 96.41 49.4V49.39ZM69.31 49.36C69.33 49.49 69.34 49.91 69.45 50.3C69.78 51.48 70.86 51.98 72.02 51.52C73.78 50.81 74.39 48.34 73.17 46.88C72.4 45.96 71.14 45.88 70.29 46.7C69.62 47.35 69.28 48.14 69.31 49.36ZM76.65 40.41C76.65 39.71 76.15 39.53 75.78 39.29C73.63 37.9 71.17 37.3 68.73 36.69C68.54 36.64 68.32 36.69 68.12 36.71C67.8 36.74 67.58 37.14 67.66 37.48C67.82 38.18 68.34 38.49 68.95 38.65C71.18 39.24 73.43 39.8 75.67 40.35C75.97 40.42 76.3 40.39 76.65 40.41ZM101.98 36.75C101.18 36.23 100.89 36.14 100.08 36.37C98.02 36.94 96.17 37.97 94.39 39.13C93.93 39.43 93.82 39.97 94.04 40.38C94.25 40.76 94.76 40.92 95.3 40.75C95.49 40.69 95.68 40.61 95.86 40.51C97.06 39.86 98.28 39.25 99.45 38.54C100.31 38.02 101.11 37.37 101.97 36.75H101.98Z" fill="#FFD6CC"/>
<path fill-rule="evenodd" clip-rule="evenodd" d="M189.79 310.66C188.75 310.38 187.7 310.12 186.67 309.81C180.08 307.78 174.03 304.7 168.45 300.64C166.71 299.38 165.18 297.93 163.99 296.17C162.22 293.57 160.23 291.15 158.17 288.77C155.22 285.34 152.85 281.47 150.88 277.41C149.22 273.97 147.52 270.51 146.33 266.89C144.16 260.28 142.18 253.59 141.19 246.66C140.12 239.15 139.03 231.65 137.94 224.15C137.54 221.45 137.07 218.75 136.67 216.05C136.12 212.33 135.7 208.6 135.06 204.9C133.51 195.93 130.64 187.44 125.6 179.77C124.89 178.69 124.22 177.65 123.12 176.86C121.69 175.83 120.42 174.57 119.02 173.36C119.27 172.83 119.53 172.29 119.8 171.75C120.87 169.62 121.14 167.33 121.15 164.98C121.15 164.19 121.04 163.35 121.51 162.49C121.88 162.62 122.21 162.67 122.48 162.84C125.09 164.46 127.74 166.03 130.27 167.76C132.42 169.22 134.38 170.93 135.9 173.09C135.98 173.2 136.07 173.3 136.17 173.4C139.12 176.26 141.07 179.77 142.77 183.45C143.06 184.07 143.34 184.7 143.54 185.34C145.57 191.73 147 198.25 147.83 204.92C148.99 214.21 150.2 223.49 151.54 232.75C152.49 239.31 153.28 245.89 154.72 252.37C155.46 255.7 156.33 258.99 157.81 262.1C158.55 263.64 159.04 265.29 159.74 266.84C161.37 270.45 163.06 274.03 164.71 277.64C165.16 278.63 165.6 279.64 165.9 280.68C167.06 284.73 168.98 288.41 171.34 291.87C172.78 293.98 174.5 295.82 176.66 297.21C177.42 297.7 178.01 298.31 178.56 299.04C179.42 300.18 180.41 301.22 181.36 302.29C181.67 302.65 182.03 302.98 182.34 303.34C184.24 305.6 186.43 307.56 188.72 309.4C189.13 309.73 189.51 310.09 189.9 310.44C189.86 310.51 189.82 310.59 189.78 310.67L189.79 310.66Z" fill="#B0B0B0"/>
<path fill-rule="evenodd" clip-rule="evenodd" d="M93.67 219.23C92.78 219.33 91.98 219.46 91.16 219.5C83.64 219.8 76.14 219.59 68.63 218.93C61.72 218.32 54.98 216.99 48.33 215.1C46.83 214.68 45.32 214.25 43.86 213.34C44.25 208.25 45.06 203.19 45.63 198.11C46.19 193.02 46.8 187.93 47.39 182.84C47.83 182.65 47.98 182.99 48.17 183.26C50.96 187.18 54.93 188.06 59.41 187.61C59.55 187.6 59.7 187.61 59.81 187.53C61.72 186.34 64.04 186.63 66.04 185.74C66.61 185.49 67.16 185.47 67.81 185.67C69.16 186.09 70.53 185.72 71.83 185.32C72.93 184.99 73.97 184.44 75.25 183.9C75.35 183.92 75.68 183.97 76 184.06C77.93 184.6 79.55 183.99 80.8 182.56C81.55 181.7 82.15 180.66 82.59 179.6C83.17 178.22 83.52 176.75 84.01 175.2C85.71 174.95 87.5 174.83 89.3 175.59C90.11 176.42 89.62 177.81 90.58 178.69C91.46 179.5 92.37 180.13 93.58 180.37C93.61 193.3 93.65 206.13 93.68 219.23H93.67Z" fill="#FF7E00"/>
<path fill-rule="evenodd" clip-rule="evenodd" d="M40.65 239.23C40.5 237.47 40.65 235.85 40.9 234.24C41.23 232.15 41.65 230.07 41.95 227.98C42.51 224.06 43.01 220.13 43.53 216.2C43.57 215.93 43.61 215.66 43.67 215.25C45.37 215.57 46.84 216.43 48.45 216.85C50.1 217.27 51.73 217.78 53.39 218.2C54.98 218.6 56.58 218.95 58.19 219.26C59.86 219.58 61.55 219.86 63.24 220.1C64.93 220.35 66.62 220.55 68.32 220.74C70.02 220.93 71.72 221.1 73.42 221.23C75.12 221.36 76.83 221.45 78.54 221.52C80.18 221.59 81.82 221.63 83.46 221.64C85.17 221.64 86.88 221.64 88.58 221.58C90.28 221.51 91.98 221.34 93.81 221.2C93.88 221.56 93.99 221.93 94.01 222.31C94.18 226 94.29 229.68 94.5 233.37C94.67 236.3 94.96 239.22 95.15 242.15C95.18 242.59 94.99 243.05 94.89 243.54C94.54 243.61 94.28 243.71 94.03 243.72C87.2 243.76 80.36 243.88 73.53 243.79C66.2 243.69 58.97 242.66 51.78 241.26C48.56 240.64 45.33 240.12 42.1 239.55C41.7 239.48 41.3 239.39 40.66 239.26L40.65 239.23Z" fill="#FFD600"/>
<path fill-rule="evenodd" clip-rule="evenodd" d="M123.18 214.02C122.91 214.32 122.64 214.54 122.48 214.82C122.04 215.6 121.33 215.92 120.52 216.15C117.55 216.99 114.53 217.56 111.48 217.88C107.47 218.3 103.45 218.52 99.43 218.79C98.42 218.86 97.39 218.8 96.44 218.8C95.88 218.21 96.02 217.57 96 216.98C95.87 211.99 95.76 207.01 95.66 202.02C95.55 196.96 95.49 191.91 95.34 186.85C95.28 184.94 95.04 183.04 94.9 181.14C94.88 180.87 94.9 180.6 94.9 180.28C95.99 179.72 97.21 179.31 97.53 177.79C97.94 178.02 98.24 178.14 98.49 178.34C99.41 179.09 100.43 179.6 101.63 179.74C101.95 179.78 102.31 179.87 102.57 180.06C107.84 183.85 113.61 184.41 119.73 182.75C119.85 182.72 119.99 182.75 120.12 182.75C120.19 182.79 120.25 182.81 120.3 182.85C120.35 182.89 120.4 182.95 120.4 183.01C121.33 193.34 122.26 203.68 123.19 214.02H123.18Z" fill="#FF7E00"/>
<path fill-rule="evenodd" clip-rule="evenodd" d="M56.07 243.89C56.4 243.93 56.71 243.88 56.92 244C58.14 244.72 59.51 244.84 60.86 245.01C65.88 245.64 70.93 245.95 75.99 245.94C78.59 245.94 81.18 245.94 83.78 245.96C84.1 245.96 84.42 246.05 84.72 246.09C83.24 256.53 81.78 266.87 80.31 277.21C80.25 277.61 80.09 277.99 79.98 278.4C78.94 278.88 77.87 279.07 76.78 279.09C72.2 279.14 67.62 279.15 63.06 278.65C60.76 278.4 58.52 277.75 56.2 276.91C56.19 276.17 56.16 275.43 56.16 274.69C56.18 267.44 56.23 260.2 56.22 252.95C56.22 250.22 56.06 247.49 55.98 244.76C55.98 244.5 56.03 244.23 56.07 243.9V243.89Z" fill="#D36900"/>
<path fill-rule="evenodd" clip-rule="evenodd" d="M97.32 242.86C97.58 242.77 97.7 242.69 97.82 242.69C103.52 242.8 109.1 241.69 114.73 241.09C116.37 240.92 117.94 240.48 119.49 239.92C119.79 239.81 120.13 239.8 120.56 239.72C120.74 241.44 120.99 243.06 121.06 244.69C121.29 249.6 121.51 254.51 121.64 259.43C121.76 264.14 121.77 268.85 121.83 273.57C121.83 274.11 121.83 274.66 121.83 275.3C119.26 277.2 116.18 277.59 113.2 278.16C109.42 278.88 105.62 279.08 101.78 277.84C101.18 274.94 101.1 272.01 100.73 269.11C100.34 266.13 100.08 263.14 99.71 260.16C99.35 257.25 98.93 254.34 98.53 251.43C98.13 248.56 97.72 245.7 97.32 242.86Z" fill="#D36900"/>
<path fill-rule="evenodd" clip-rule="evenodd" d="M58.33 139.71C56.17 140.75 54.14 141.42 51.89 141.37C49.43 141.32 46.98 141.43 44.55 140.88C42.1 140.32 40.02 139.04 38.02 137.59C37.59 137.28 37.46 136.84 37.41 136.35C37.19 134.25 36.86 132.15 36.74 130.04C36.44 124.99 36.47 119.94 37.34 114.93C37.78 112.42 38.54 110.03 39.67 107.75C41.45 104.18 43.7 100.94 46.57 98.15C47.25 97.49 47.99 96.87 48.74 96.28C49.38 95.78 50.08 95.35 50.67 94.95C51.54 95.04 51.83 95.61 52.03 96.19C52.52 97.61 53 99.03 53.4 100.48C54.55 104.63 55.16 108.89 55.79 113.15C55.81 113.28 55.84 113.42 55.83 113.56C55.59 116.26 56.32 118.84 56.71 121.47C57.17 124.57 57.54 127.69 57.85 130.82C58.09 133.26 58.18 135.72 58.33 138.18C58.36 138.65 58.33 139.13 58.33 139.74V139.71Z" fill="#FF7E00"/>
<path fill-rule="evenodd" clip-rule="evenodd" d="M181.73 299.97C183.39 300.15 184.52 300.6 185.63 301.11C189.55 302.9 193.54 304.48 197.73 305.53C200.78 306.3 203.87 306.83 207.02 307.05C207.84 307.11 208.65 307.26 209.47 307.28C210.56 307.31 211.64 307.26 212.73 307.24C213.68 307.22 214.63 307.18 215.58 307.18C216.53 307.18 217.49 307.28 218.44 307.26C227.88 307.07 237 305.11 245.92 302.15C246.95 301.81 247.93 301.32 248.94 300.9C249.32 300.74 249.68 300.52 250.07 300.45C251.84 300.13 253.47 299.45 255.09 298.7C255.26 298.62 255.47 298.61 255.62 298.57C256.05 298.78 256 299.16 256.03 299.48C256.39 303.09 255.64 306.41 253.47 309.36C253.11 309.84 252.68 310.34 252.17 310.62C250.8 311.39 249.42 312.15 247.96 312.71C245.42 313.69 242.81 314.52 240.24 315.43C234.94 317.31 229.46 318.45 223.89 319.13C222.54 319.3 221.16 319.24 219.8 319.19C215.77 319.05 211.74 318.83 207.84 317.69C206.4 317.27 204.95 316.87 203.52 316.41C201.75 315.84 200.23 314.76 198.69 313.75C197.26 312.82 195.83 311.9 194.31 311.12C190.56 309.18 187.5 306.36 184.6 303.35C183.66 302.37 182.71 301.4 181.71 299.97H181.73Z" fill="#B0B0B0"/>
<path fill-rule="evenodd" clip-rule="evenodd" d="M88 129.44C83.23 130.04 78.74 129.53 74.25 129.32C72.7 129.25 71.12 129.11 69.55 128.52C69.53 127.96 69.48 127.43 69.5 126.9C69.74 120.67 69.4 114.47 68.56 108.29C68.19 105.52 67.82 102.74 67.43 99.97C67.06 97.31 66.32 94.76 64.92 92.44C64.82 92.27 64.78 92.07 64.66 91.73C66.86 92.25 68.95 92.84 71.07 93.22C73.15 93.59 75.26 93.88 77.37 93.98C79.54 94.08 81.72 93.91 84.02 93.85C84.66 97.76 84.99 101.69 85.41 105.61C85.84 109.55 86.23 113.49 86.67 117.43C87.11 121.35 87.82 125.25 88 129.45V129.44Z" fill="#FF7E00"/>
<path fill-rule="evenodd" clip-rule="evenodd" d="M97.29 240.95C96.63 234.1 96.58 227.49 96.14 220.88C96.46 220.78 96.65 220.66 96.83 220.67C101.07 220.86 105.29 220.52 109.52 220.17C113.14 219.87 116.7 219.3 120.22 218.41C121.27 218.14 122.31 217.79 123.46 217.44C123.53 217.97 123.61 218.55 123.69 219.12C123.77 219.73 123.85 220.34 123.92 220.95C124.2 223.46 124.48 225.97 124.77 228.48C124.84 229.09 124.98 229.69 125.08 230.29C125.16 230.76 125.24 231.23 125.3 231.71C125.47 233.14 124.98 234.22 123.68 234.95C122.31 235.72 121.01 236.61 119.65 237.39C118.15 238.26 116.49 238.66 114.79 238.9C113.1 239.14 111.4 239.34 109.71 239.56C106.66 239.96 103.62 240.39 100.57 240.76C99.57 240.88 98.55 240.88 97.29 240.94V240.95Z" fill="#FFD600"/>
<path fill-rule="evenodd" clip-rule="evenodd" d="M85.79 93.74C86.67 93.34 87.49 93.36 88.29 93.28C89.24 93.19 90.2 93.12 91.13 92.94C93.13 92.56 94.98 91.92 95.77 89.75C96.5 90.21 96.65 90.91 96.92 91.51C99.1 96.32 100.67 101.34 101.76 106.5C103.09 112.8 103.76 119.19 103.96 125.62C103.96 125.89 103.97 126.17 103.95 126.44C103.94 126.57 103.86 126.69 103.75 126.96C102.39 127.3 100.95 127.76 99.48 128.01C96.72 128.48 93.94 128.84 91.17 129.23C90.91 129.27 90.63 129.23 90.22 129.23C88.39 117.5 87.67 105.64 85.78 93.73L85.79 93.74Z" fill="#FF7E00"/>
<path fill-rule="evenodd" clip-rule="evenodd" d="M105.38 177.06C105.46 176.61 105.48 176.27 105.59 175.95C106.97 171.83 106.83 167.61 106.34 163.38C106.3 162.99 106.1 162.61 105.9 162.26C105.82 162.12 105.55 162.01 105.38 162.03C105.22 162.05 104.96 162.22 104.93 162.36C104.81 163.02 104.71 163.69 104.67 164.37C104.57 166.48 104.56 168.6 104.4 170.71C104.28 172.34 104.03 173.96 103.77 175.58C103.52 177.16 101.93 178.01 100.55 177.26C99.73 176.81 99 176.18 98.22 175.63C98.41 174.78 98.55 174.05 98.74 173.33C99.33 171 99.56 168.62 99.61 166.23C99.63 165.28 99.47 164.33 99.33 163.38C99.28 163.07 99.04 162.78 98.84 162.52C98.58 162.19 97.94 162.33 97.84 162.72C97.77 162.98 97.72 163.25 97.73 163.52C97.81 167.03 97.19 170.46 96.38 173.85C96.16 174.78 95.89 175.69 96.01 176.67C96.1 177.39 95.67 177.82 95.04 178.07C93.34 178.75 91.64 177.94 91.18 176.19C90.96 175.34 90.81 174.45 90.72 173.57C90.42 170.43 90.57 167.29 90.81 164.15C90.86 163.47 91.02 162.8 91.15 162.13C91.55 160.08 92.63 158.49 94.38 157.35C95.17 156.83 95.92 156.24 96.74 155.77C97.2 155.5 97.75 155.33 98.27 155.25C103.75 154.38 109.14 154.69 114.47 156.35C116.4 156.95 117.69 158.16 118.43 159.92C119.31 162.02 119.84 164.18 119.12 166.5C118.57 168.26 118.23 170.07 117.68 171.83C117.06 173.82 115.48 174.89 113.63 175.6C113.34 175.71 112.98 175.67 112.45 175.72C112.74 174.99 112.96 174.45 113.18 173.91C114.05 171.74 114.73 169.52 114.48 167.14C114.4 166.41 114.12 165.7 113.86 165.01C113.8 164.86 113.4 164.79 113.17 164.8C113.05 164.8 112.89 165.07 112.85 165.24C112.79 165.5 112.8 165.78 112.82 166.05C113.01 168.64 112.37 171.06 111.36 173.41C110.9 174.48 110.4 175.52 109.96 176.59C109.7 177.22 109.27 177.56 108.6 177.67C107.51 177.86 106.43 178 105.38 177.04V177.06Z" fill="#FFD6CC"/>
<path fill-rule="evenodd" clip-rule="evenodd" d="M61.11 149.87C61.11 148.1 61.18 146.47 61.1 144.83C60.89 140.4 60.66 135.97 60.33 131.55C60.19 129.58 59.92 127.6 59.5 125.68C58.85 122.73 58.67 119.74 58.34 116.75C57.73 111.12 56.94 105.51 55.45 100.03C55.29 99.44 55.13 98.84 54.94 98.26C54.46 96.85 54.13 95.39 52.78 94.44C52.31 94.11 52.03 93.49 51.63 92.94C52.27 91.61 53.28 90.77 54.65 90.37C55.69 90.06 56.77 89.85 57.82 89.56C59.31 89.16 60.53 89.67 61.52 90.71C62.91 92.16 63.83 93.93 64.44 95.82C65.13 97.95 65.82 100.09 66.03 102.36C66.28 104.94 66.83 107.48 67.11 110.06C67.84 116.73 68.02 123.41 67.28 130.09C66.99 132.66 66.45 135.21 65.97 137.75C65.71 139.16 65.35 140.55 65.02 141.94C64.36 144.75 63.05 147.29 61.61 149.76C61.59 149.79 61.49 149.79 61.11 149.86V149.87Z" fill="#6A6F74"/>
<path fill-rule="evenodd" clip-rule="evenodd" d="M12.19 188.23C12.45 187.77 12.61 187.49 12.78 187.21C14.27 184.82 14.91 182.22 14.81 179.41C14.71 176.57 13.48 174.45 10.95 173.11C10.71 172.98 10.46 172.86 10.22 172.73C9.99 172.6 9.76 172.46 9.42 172.27C9.61 172.11 9.72 171.96 9.86 171.92C14.66 170.6 19.46 169.28 24.27 168C25.98 167.54 27.71 167.15 29.51 167.12C30.55 167.1 31.55 167.25 32.52 167.61C33.77 168.07 34.77 168.81 35.59 169.89C37.65 172.59 38.8 175.54 38.68 178.99C38.62 180.84 38.46 182.65 37.88 184.43C37.49 185.62 36.75 186.13 35.53 186.34C30.95 187.13 26.34 187.62 21.69 187.76C18.9 187.84 16.11 188.11 13.31 188.29C13 188.31 12.68 188.26 12.17 188.23H12.19Z" fill="#AB9488"/>
<path fill-rule="evenodd" clip-rule="evenodd" d="M106.2 303.65C107.52 303.75 108.54 303.82 109.55 303.91C112.55 304.17 115.56 304.23 118.56 304.02C120.89 303.86 123.16 303.45 125.12 302.45C128 303.82 130.7 305.13 133.41 306.4C134.9 307.09 136.43 307.67 137.92 308.36C138.84 308.79 139.73 309.32 140.59 309.86C141.29 310.31 141.84 310.93 142.14 311.72C142.91 313.72 142.34 314.68 141.1 315.44C140.4 315.86 139.67 316.25 138.91 316.55C137.07 317.28 135.21 317.96 133.35 318.63C132.91 318.79 132.42 318.83 131.95 318.9C128.27 319.47 124.59 319.42 120.92 318.84C117.88 318.36 114.86 317.81 111.94 316.82C110.85 316.45 109.78 315.98 108.74 315.46C107.51 314.84 106.71 313.79 106.52 312.43C106.13 309.59 105.97 306.74 106.19 303.65H106.2Z" fill="#7C6A63"/>
<path fill-rule="evenodd" clip-rule="evenodd" d="M69.53 130.33C75.74 131.71 81.89 131.45 88.15 131.43C88.67 134.61 88.92 137.72 89.19 140.82C89.46 143.93 90.3 146.98 90.28 150.06C90.05 150.2 89.95 150.31 89.83 150.33C86.45 150.82 83.08 151.29 79.7 151.77C79.57 151.79 79.43 151.8 79.29 151.79C75.48 151.58 71.66 151.38 67.85 151.15C66.55 151.07 65.33 150.62 64.02 150.03C64.3 149.38 64.57 148.77 64.84 148.16C66.42 144.67 67.75 141.09 68.39 137.3C68.65 135.75 68.78 134.19 68.98 132.63C69.07 131.9 69.09 131.14 69.53 130.35V130.33Z" fill="#FFD600"/>
<path fill-rule="evenodd" clip-rule="evenodd" d="M57.88 302.81C61.05 304 64.19 304.63 67.37 305.09C70.04 305.48 72.68 305.42 75.29 304.75C75.55 304.68 75.82 304.65 76.21 304.57C76.28 304.91 76.38 305.22 76.41 305.52C76.51 306.54 76.6 307.56 76.66 308.58C76.73 309.81 76.84 311.04 76.79 312.26C76.66 314.96 76.06 315.73 73.47 316.46C70.78 317.22 68.06 317.86 65.36 318.58C61.85 319.51 58.29 320.1 54.67 320.34C51.39 320.55 48.12 320.52 44.9 319.71C43.57 319.38 42.29 318.88 41.18 318.06C40.33 317.43 40.15 316.87 40.68 315.94C41.08 315.24 41.58 314.56 42.16 314.01C42.99 313.21 43.91 312.48 44.85 311.8C48.41 309.26 51.98 306.75 55.56 304.25C56.28 303.75 57.06 303.31 57.89 302.8L57.88 302.81Z" fill="#7C6A63"/>
<path fill-rule="evenodd" clip-rule="evenodd" d="M69.61 7.14001C70.96 8.33001 71.67 9.66001 72.28 11.03C73.53 13.85 74.31 16.82 74.74 19.87C74.86 20.73 74.94 21.61 75.05 22.6C74.32 22.79 73.68 22.98 73.03 23.13C66.4 24.58 60.04 26.81 54.06 30.04C51.96 31.17 49.94 32.44 47.9 33.69C46.85 34.33 45.78 34.89 44.43 35.23C44.47 34.85 44.43 34.51 44.55 34.22C45.05 32.88 45.53 31.52 46.14 30.23C47.7 26.89 49.3 23.58 50.91 20.27C51.87 18.3 53.11 16.5 54.52 14.82C56.45 12.52 58.81 10.8 61.62 9.78001C64.24 8.82001 66.91 8.02001 69.61 7.14001Z" fill="#FF7E00"/>
<path fill-rule="evenodd" clip-rule="evenodd" d="M54.21 65.36C54.49 66.37 54.76 67.21 54.97 68.07C55.69 71.09 56.94 73.88 58.52 76.54C58.93 77.23 59.38 77.91 59.36 78.79C52.9 78.79 46.81 77.57 41.34 74.07C40.19 73.33 39.04 72.57 38.04 71.66C34.7 68.6 33.39 64.79 34.37 60.36C35.36 55.9 37.41 51.89 40.15 48.24C41.74 46.12 43.88 44.73 46.34 43.5C46.45 44.94 46.55 46.2 46.66 47.58C46.45 47.75 46.18 47.95 45.92 48.16C44.88 49.01 44.25 50.11 43.9 51.41C43.3 53.67 43.39 55.88 44.35 58.02C45.62 60.83 47.51 63.11 50.16 64.73C51.64 65.63 52.23 65.73 54.21 65.38V65.36Z" fill="#BF5E00"/>
<path fill-rule="evenodd" clip-rule="evenodd" d="M109.84 146.3C108.45 142.73 108.1 139.04 107.64 135.39C106.98 130.1 106.57 124.78 105.88 119.5C104.97 112.59 103.88 105.71 101.68 99.06C100.39 95.17 98.95 91.33 96.66 87.88C96.48 87.6 96.54 87.16 96.45 86.57C97.03 86.84 97.42 86.96 97.73 87.18C103.7 91.27 108.16 96.48 110.56 103.45C113.67 112.48 114.4 121.71 113.41 131.14C113.15 133.59 112.83 136.02 112.18 138.4C112 139.05 111.94 139.75 111.87 140.42C111.66 142.34 111.01 144.14 110.29 145.91C110.25 146.02 110.09 146.08 109.83 146.28L109.84 146.3Z" fill="#6A6F74"/>
<path fill-rule="evenodd" clip-rule="evenodd" d="M120.64 146.32C120.5 146.09 120.42 145.82 120.23 145.68C119.34 145.01 118.35 144.56 117.22 144.52C116.33 144.49 115.45 144.54 114.56 144.54C114.17 144.54 113.77 144.54 113.32 144.54C113.13 143.32 113.58 142.3 113.84 141.26C113.92 140.92 114.32 140.59 114.65 140.4C115.77 139.75 116.89 139.09 118.08 138.58C120.58 137.5 123.12 136.5 125.66 135.48C126.09 135.31 126.55 135.21 126.99 135.08C129.71 143.28 131.03 157.77 129.05 164.31C128.8 164.25 128.51 164.23 128.3 164.11C127.18 163.46 126.07 162.8 124.96 162.12C124.26 161.69 123.61 161.19 122.89 160.81C122.17 160.43 121.39 160.18 120.55 159.83C120.29 159.36 120.02 158.81 119.69 158.3C118.79 156.9 117.64 155.82 116.13 155.02C113.34 153.55 110.31 153.19 107.28 152.75C106.88 152.69 106.47 152.67 106.06 152.63C106.01 152.63 105.97 152.56 105.8 152.44C105.99 152.26 106.14 152.03 106.35 151.95C107.93 151.32 109.52 150.71 111.12 150.11C111.5 149.97 111.91 149.91 112.3 149.77C112.96 149.54 113.1 149.17 112.79 148.52C112.7 148.34 112.51 148.2 112.46 148.01C112.26 147.23 112.7 146.44 113.48 146.28C115.17 145.94 116.87 145.95 118.57 146.28C119.1 146.38 119.65 146.43 120.19 146.48C120.3 146.49 120.42 146.4 120.66 146.3L120.64 146.32Z" fill="#FF7E00"/>
<path fill-rule="evenodd" clip-rule="evenodd" d="M114.7 37.17C117.88 39.53 120.44 42.24 122.51 45.41C123.6 47.07 124.03 48.9 123.81 50.88C123.77 51.29 123.65 51.69 123.65 52.1C123.65 55 122.41 57.49 121.08 59.96C120.95 60.2 120.77 60.42 120.66 60.67C119.55 63.33 117.38 65 115.1 66.53C113.47 67.62 111.97 68.93 110.18 69.79C108.65 70.53 107.12 71.21 105.22 71.5C105.39 71.02 105.45 70.7 105.61 70.44C107.62 67.25 108.58 63.7 109.14 60.04C109.68 56.53 110.05 53 110.47 49.47C110.55 48.79 110.61 48.17 111.09 47.58C113.33 44.84 114.42 41.66 114.44 38.12C114.44 37.92 114.48 37.72 114.51 37.51C114.51 37.45 114.57 37.4 114.69 37.17H114.7Z" fill="#BF5E00"/>
<path fill-rule="evenodd" clip-rule="evenodd" d="M58.35 141.69C58.42 142.45 58.5 142.98 58.51 143.52C58.56 146.73 58.5 149.95 58.66 153.15C58.75 154.91 57.87 155.85 56.5 156.47C55.08 157.11 53.57 157.58 52.09 158.11C50.84 158.56 49.54 158.56 48.24 158.47C45.5 158.28 42.84 157.67 40.23 156.86C39.78 156.72 39.37 156.46 38.84 156.21C38.57 153.85 38.25 151.49 38.16 149.11C38.16 148.91 38.14 148.66 38.25 148.52C39.02 147.51 38.62 146.41 38.49 145.36C38.29 143.67 38.16 141.98 38.17 140.1C39.8 140.88 41.27 141.68 42.82 142.3C44.48 142.96 46.27 143.21 48.04 143.22C49.74 143.24 51.44 142.99 53.15 142.97C54.9 142.95 56.47 142.27 58.35 141.69Z" fill="#FFD600"/>
<path fill-rule="evenodd" clip-rule="evenodd" d="M90.49 131.21C92 130.98 93.48 130.75 94.95 130.53C96.5 130.3 98.06 130.1 99.61 129.83C101.07 129.57 102.52 129.24 104.04 128.93C105.71 134.19 105.82 139.62 107.04 144.81C105.75 145.84 102.15 147.5 99.61 148.25C94.39 149.8 93.89 149.9 92.21 149.75C91.37 143.89 90.97 137.97 90.36 132.07C90.33 131.82 90.44 131.56 90.5 131.2L90.49 131.21Z" fill="#FFD600"/>
<path fill-rule="evenodd" clip-rule="evenodd" d="M38.73 46.47C38.71 46.22 38.62 46 38.68 45.84C40.14 41.95 42.47 38.75 46.11 36.62C48.71 35.11 51.31 33.6 53.94 32.16C61.13 28.22 68.77 25.59 76.88 24.3C79.92 23.81 82.98 23.62 86.06 23.51C88.45 23.42 90.83 23.31 93.22 23.45C96.99 23.67 100.67 24.32 104.31 25.3C105.85 25.71 107.24 26.43 108.51 27.36C109.94 28.41 111.33 29.51 112.43 30.94C112.89 31.53 113.43 32.06 113.96 32.6C114.77 33.43 115.51 34.3 116.13 35.32C115.94 35.34 115.79 35.41 115.72 35.36C112.72 33.19 109.35 31.68 106.16 29.85C103.16 28.12 99.87 27.55 96.61 26.98C92.99 26.35 89.26 26.24 85.58 26.58C82.59 26.86 79.6 27.21 76.65 27.72C74.71 28.05 72.82 28.69 70.92 29.24C65.47 30.83 60.12 32.67 55.1 35.36C53.96 35.97 52.87 36.69 51.7 37.25C49.54 38.28 47.69 39.76 45.77 41.16C44.67 41.97 43.56 42.76 42.44 43.55C41.33 44.34 40.19 45.09 39.31 46.17C39.2 46.31 38.97 46.36 38.74 46.47H38.73Z" fill="#FF9A00"/>
<path fill-rule="evenodd" clip-rule="evenodd" d="M56.34 300.45C56.2 296.74 56.11 293.1 56.12 289.21C56.7 289.43 57.01 289.5 57.29 289.66C61.27 291.8 65.57 292.25 69.99 292.06C71.35 292 72.72 291.94 74.07 291.78C75.34 291.63 76.6 291.35 77.87 291.12C78.21 291.8 77.97 292.48 77.91 293.14C77.79 294.5 77.6 295.85 77.5 297.21C77.39 298.62 77.34 300.04 78.04 301.47C77.55 301.71 77.16 301.97 76.73 302.12C74.06 303.07 71.31 303.5 68.48 303.13C65.03 302.68 61.59 302.17 58.33 300.88C57.77 300.66 57.15 300.61 56.34 300.43V300.45Z" fill="#D36900"/>
<path fill-rule="evenodd" clip-rule="evenodd" d="M63.37 151.39C65.57 152.66 67.87 153.14 70.29 153.24C73.02 153.36 75.75 153.57 78.48 153.7C81.02 153.82 83.52 153.43 86.02 153C87.23 152.79 88.45 152.66 89.67 152.5C89.79 152.48 89.92 152.56 90.11 152.61C90.17 152.76 90.28 152.94 90.31 153.12C90.34 153.31 90.29 153.52 90.28 153.71C90.15 153.79 90.03 153.92 89.92 153.9C89.38 153.83 88.85 153.71 88.31 153.65C86.34 153.42 84.98 154.39 84.6 156.33C84.35 157.63 84.41 158.92 84.88 160.17C85.06 160.67 85.25 161.16 85.48 161.78C85.05 161.91 84.75 162.03 84.43 162.09C83.64 162.22 82.82 162.09 82.07 162.59C81.61 162.9 81.04 162.66 80.53 162.38C79.63 161.89 78.71 161.45 77.77 161.05C77.13 160.78 76.57 160.96 76.17 161.7C75.82 161.52 75.46 161.36 75.11 161.18C72.79 159.93 71.26 160.17 69.46 162.06C69.37 162.16 69.26 162.23 69.07 162.39C68.64 162.14 68.18 161.86 67.72 161.59C65.21 160.12 63.48 160.27 61.17 162.15C60.98 162.31 60.84 162.61 60.39 162.47C60.32 160.26 60.46 158.04 60.82 155.83C60.84 155.7 60.87 155.55 60.94 155.44C61.75 154.1 62.56 152.77 63.39 151.4L63.37 151.39Z" fill="#FF7E00"/>
<path fill-rule="evenodd" clip-rule="evenodd" d="M56.13 287.13C56.13 284.67 56.13 282.35 56.13 280.03C56.13 279.7 56.19 279.37 56.24 278.9C56.7 279.01 57.09 279.05 57.44 279.19C60.07 280.21 62.79 280.8 65.62 280.9C68.89 281.01 72.17 281.14 75.45 281.19C76.74 281.21 78.03 281.04 79.39 280.95C79.45 281.07 79.63 281.26 79.6 281.41C79.25 283.77 78.87 286.12 78.51 288.37C77.58 289.3 76.46 289.46 75.4 289.6C71.95 290.06 68.48 290.32 64.99 289.97C61.88 289.65 59.05 288.53 56.13 287.13Z" fill="#D3B100"/>
<path fill-rule="evenodd" clip-rule="evenodd" d="M103.28 290.99C106.62 291.75 109.76 292.33 112.96 292.21C116.11 292.09 119.13 291.31 122.2 290.11C122.66 293.69 123.09 297.11 123.54 300.6C122.63 301.3 121.56 301.5 120.5 301.64C115.67 302.28 110.84 302 106.01 301.59C105.75 301.57 105.5 301.44 105.11 301.33C104.24 298.02 103.58 294.66 103.28 291V290.99Z" fill="#D36900"/>
<path fill-rule="evenodd" clip-rule="evenodd" d="M122.09 288C115.85 290.61 109.54 290.79 103.01 288.83C102.5 286.05 102.25 283.29 102 280.4C102.34 280.36 102.6 280.27 102.83 280.31C107.42 281.26 111.93 280.72 116.43 279.67C117.97 279.31 119.45 278.81 120.87 278.14C121.1 278.03 121.36 277.97 121.52 277.92C121.69 278.02 121.76 278.04 121.79 278.09C121.83 278.14 121.84 278.22 121.84 278.29C121.86 278.7 121.89 279.11 121.9 279.52C121.96 282.31 122.02 285.1 122.08 288H122.09Z" fill="#D3B100"/>
<path fill-rule="evenodd" clip-rule="evenodd" d="M48.44 180.33C49.94 180.16 51.36 180 52.78 179.86C52.96 179.84 53.14 179.94 53.46 180.02C53.19 180.69 52.94 181.3 52.67 181.97C52.87 182.17 53.03 182.44 53.25 182.52C53.47 182.6 53.79 182.57 54.02 182.47C54.81 182.13 55.28 181.44 55.72 180.74C56.79 179.02 57.18 177.08 57.52 175.12C57.91 172.89 57.28 170.79 56.73 168.68C56.56 168.03 56.35 167.37 56.3 166.7C56.23 165.76 56.33 165.67 57.3 164.61C58.36 164.66 59.5 164.41 60.37 165.31C61.47 166.45 62.49 167.63 62.82 169.25C62.96 169.92 63.03 170.61 63.26 171.25C63.99 173.23 64.13 175.24 63.72 177.3C63.43 178.7 63.21 180.13 62.82 181.51C62 184.45 59.46 186.06 56.43 185.65C56.02 185.59 55.61 185.58 55.21 185.53C52.21 185.15 50.04 183.55 48.52 180.98C48.46 180.87 48.48 180.72 48.43 180.33H48.44Z" fill="#FFD6CC"/>
<path fill-rule="evenodd" clip-rule="evenodd" d="M96.56 21.46C96.44 21.1 96.3 20.79 96.22 20.47C95.64 18.22 94.88 16.03 93.9 13.93C93.58 13.24 93.36 12.54 93.38 11.77C93.42 9.20004 92.12 7.40004 90.07 6.02004C89.58 5.70004 88.89 5.61004 88.64 4.79004C88.96 4.83004 89.22 4.83004 89.46 4.90004C92.73 5.81004 95.65 7.41004 98.17 9.68004C99.64 11 101.03 12.41 102.36 13.87C105.18 16.94 107.62 20.31 109.98 23.74C110.71 24.8 111.27 25.98 111.89 27.12C112 27.33 112.01 27.6 112.12 28.04C111.17 27.62 110.55 27.09 109.96 26.57C107.26 24.21 104.05 22.97 100.6 22.27C99.27 22 97.94 21.74 96.57 21.47L96.56 21.46Z" fill="#FF7E00"/>
<path fill-rule="evenodd" clip-rule="evenodd" d="M114.64 138.69C114.27 137.06 115.05 135.68 115.13 134.23C115.22 132.67 115.53 131.13 115.68 129.57C115.81 128.08 115.85 126.59 115.93 125.17C119.49 122.79 122.8 121.28 124.96 121.08C125.11 121.47 125.35 121.87 125.43 122.31C126.08 125.79 126.56 129.29 126.41 132.93C125.97 133.16 125.58 133.4 125.15 133.58C123.39 134.32 121.6 134.98 119.87 135.77C118.58 136.36 117.36 137.11 116.11 137.81C115.65 138.07 115.29 138.49 114.64 138.7V138.69Z" fill="#FFD600"/>
<path fill-rule="evenodd" clip-rule="evenodd" d="M63.49 88.7C63.72 86.39 63.94 84.3 64.15 82.15C64.6 81.78 65.06 82.1 65.41 82.32C68.72 84.32 72.48 84.72 76.15 85.44C78.04 85.81 79.94 85.85 81.85 85.71C82.45 85.66 83.05 85.73 83.65 85.74C84.39 87.82 83.95 89.78 83.76 91.72C83.64 91.82 83.54 91.97 83.44 91.97C81.33 92.04 79.22 92.15 77.11 92.14C76.17 92.14 75.22 91.92 74.28 91.73C72.07 91.29 69.86 90.84 67.68 90.31C66.24 89.96 64.76 89.62 63.49 88.68V88.7Z" fill="#FF7E00"/>
<path fill-rule="evenodd" clip-rule="evenodd" d="M115.85 123.46C115.82 118.13 115.24 113.2 114.16 108.33C113.1 103.51 111.17 99.06 108.22 94.59C115.04 98.31 121.36 108.9 123.13 119.13C121.94 119.72 120.69 120.24 119.53 120.93C118.37 121.62 117.3 122.46 115.85 123.46Z" fill="#FF7E00"/>
<path fill-rule="evenodd" clip-rule="evenodd" d="M92.7 16.91C93.39 18.6 93.99 20.03 94.07 21.73C93.62 21.76 93.23 21.82 92.84 21.82C89.01 21.86 85.19 21.86 81.36 21.94C80.08 21.97 78.8 22.18 77.45 22.32C77.05 21.26 76.99 20.24 76.84 19.25C76.4 16.26 75.55 13.39 74.32 10.62C73.41 8.58002 72.01 6.92002 70.47 5.36002C69.79 4.67002 69.02 4.64002 68.22 4.98002C67.68 5.21002 67.22 5.64002 66.2 5.62002C66.94 5.05002 67.38 4.67002 67.87 4.35002C70.04 2.93002 72.42 2.17002 75.01 2.13002C75.76 2.12002 76.51 2.13002 77.27 2.13002C79.25 2.13002 81.02 2.72002 82.49 4.06002C82.49 4.66002 81.98 4.66002 81.64 4.83002C80.07 5.62002 78.83 6.76002 77.89 8.23002C77.21 9.29002 76.9 10.43 76.99 11.73C77.27 15.78 79.64 19.06 83.52 20.28C86.57 21.24 89.32 20.53 91.61 18.25C91.94 17.92 92.22 17.52 92.71 16.93L92.7 16.91Z" fill="#FF5B00"/>
<path fill-rule="evenodd" clip-rule="evenodd" d="M91.65 13.32C91.39 15.06 90.75 16.7 89.08 17.65C87.27 18.67 85.34 18.88 83.41 17.92C81.45 16.94 79.97 15.51 79.18 13.42C78.69 12.13 78.75 10.89 79.43 9.68002C80.38 7.96002 81.55 6.49002 83.63 6.10002C84.09 6.01002 84.59 5.93002 85.04 6.02002C85.9 6.19002 86.78 6.39002 87.59 6.74002C89.57 7.59002 91 8.97002 91.38 11.2C91.49 11.87 91.56 12.55 91.66 13.32H91.65Z" fill="#FFD600"/>
<path fill-rule="evenodd" clip-rule="evenodd" d="M53.51 166.66C55.22 168.18 55.64 170.03 55.61 172.08C55.58 173.86 55.43 175.61 54.63 177.41C51.48 177.97 48.26 178.24 45.02 178.65C44.76 176.73 44.72 174.94 44.25 173.27C43.78 171.59 42.9 170.03 42.15 168.33C42.38 168.25 42.68 168.08 43 168.04C44.75 167.78 46.51 167.55 48.26 167.31C48.53 167.27 48.82 167.2 49.07 167.27C49.9 167.49 50.62 167.35 51.42 166.99C52.07 166.7 52.87 166.76 53.51 166.67V166.66Z" fill="#B0B0B0"/>
<path fill-rule="evenodd" clip-rule="evenodd" d="M62.67 163.2C63.83 162.33 64.93 162.41 66.04 162.94C67.49 163.63 68.61 164.71 69.55 165.99C69.87 166.43 70.07 167 70.47 167.33C71.75 168.39 72.03 169.85 72.21 171.35C72.44 173.26 72.28 175.16 71.72 177.01C71.38 178.13 70.91 179.17 70.01 179.98C69.71 180.25 69.43 180.57 69.24 180.92C68.17 182.88 66.33 183.63 64.12 184.3C65.1 180.61 66.2 177.17 65.83 173.4C65.47 169.74 64.58 166.34 62.68 163.2H62.67Z" fill="#FFD6CC"/>
<path fill-rule="evenodd" clip-rule="evenodd" d="M48.56 46.9C48.01 45.42 48.31 43.72 48.59 42.04C48.68 41.47 48.98 40.89 49.56 40.53C51.94 39.05 54.32 37.58 57 36.34C57.14 36.78 57.32 37.14 57.34 37.5C57.38 38.18 57.34 38.87 57.3 39.55C57.01 43.95 55.86 48.16 54.43 52.3C54.39 52.42 54.26 52.5 54.07 52.71C53.88 52.44 53.62 52.21 53.56 51.94C53.29 50.67 52.42 49.76 51.57 48.92C50.82 48.18 49.8 47.7 48.57 46.89L48.56 46.9Z" fill="#CF950B"/>
<path fill-rule="evenodd" clip-rule="evenodd" d="M154.94 288.07C156.52 290.25 158.38 291.86 159.69 293.96C161.67 297.12 164.38 299.62 167.28 301.91C169.74 303.86 172.38 305.56 175.11 307.11C175.56 307.37 175.99 307.67 176.75 308.16C174.74 307.91 173.2 307.4 171.67 306.85C168.32 305.65 165.12 304.12 162.16 302.15C160.69 301.18 159.32 300.04 158.01 298.85C156.58 297.55 155.61 295.89 154.89 294.1C154.2 292.4 154.18 290.65 154.52 288.88C154.56 288.69 154.7 288.52 154.95 288.07H154.94Z" fill="#B0B0B0"/>
<path fill-rule="evenodd" clip-rule="evenodd" d="M50.37 86.41C52.1 86.92 53.58 87.36 55.07 87.8C55.08 88.48 54.51 88.57 54.12 88.75C53.12 89.22 52.2 89.76 51.39 90.53C50.96 90.94 50.38 91.25 49.82 91.45C48.95 91.76 48.62 92.27 48.8 93.16C48.82 93.28 48.75 93.42 48.78 93.31C47.05 94.86 45.4 96.19 43.93 97.7C42.48 99.2 41.23 100.88 39.83 102.54C39.27 99.55 40.02 95.86 41.76 92.88C43.4 90.05 46.49 87.74 50.37 86.42V86.41Z" fill="#FF4838"/>
<path fill-rule="evenodd" clip-rule="evenodd" d="M40.51 165.93C39.61 163.38 39.43 160.9 39.12 158.34C39.76 158.2 40.24 158.49 40.72 158.64C43.53 159.51 46.38 160.18 49.35 160.13C50.09 160.12 50.86 160.06 51.58 159.88C52.9 159.55 54.16 159.02 55.53 158.86C56.04 158.8 56.52 158.43 57.02 158.21C57.38 158.06 57.64 157.64 58.11 157.79C58.38 159.41 58.33 160.41 57.88 162.24C57.55 162.33 57.14 162.38 56.79 162.56C56.25 162.82 55.58 163.05 55.27 163.5C54.73 164.27 53.97 164.44 53.2 164.62C52.27 164.83 51.32 164.91 50.29 165.07C48.62 163.26 46.43 162.65 44.04 162.59C43.56 162.58 43.08 162.6 42.61 162.69C41.33 162.94 40.78 163.57 40.63 164.91C40.62 165.04 40.63 165.18 40.63 165.32C40.62 165.45 40.58 165.59 40.52 165.93H40.51Z" fill="#FF7E00"/>
<path fill-rule="evenodd" clip-rule="evenodd" d="M69.99 183.61C70.59 182.58 70.96 181.78 71.47 181.09C73.55 178.28 73.89 175.07 73.67 171.74C73.54 169.74 72.91 167.88 71.97 166.11C71.5 165.23 71.24 164.25 70.89 163.33C71.9 162.3 72.51 162.1 73.58 162.64C75.17 163.45 76.26 164.72 76.76 166.45C76.93 167.04 76.99 167.66 77.13 168.25C77.64 170.41 77.69 172.56 77.09 174.73C76.77 175.91 76.5 177.12 76.31 178.33C76.05 179.92 75.18 181.08 73.92 182C72.82 182.8 71.63 183.37 69.98 183.62L69.99 183.61Z" fill="#FFD6CC"/>
<path fill-rule="evenodd" clip-rule="evenodd" d="M6.18 172.93C7.73 173.3 9.24 173.88 10.6 174.81C11.99 175.76 12.73 177.05 12.82 178.74C12.94 180.9 12.62 182.97 11.56 184.86C11.13 185.62 10.59 186.36 9.95 186.94C8.91 187.9 7.33 188 6.14 187.24C1 183.95 0.56 175.92 6.17 172.92L6.18 172.93ZM10.95 180.89C10.88 180.2 10.85 179.66 10.77 179.12C10.63 178.22 10.24 177.43 9.58 176.8C8.31 175.59 6.59 175.77 5.53 177.14C4.35 178.68 4.32 180.43 4.56 182.21C4.75 183.61 5.94 184.7 7.29 184.84C8.85 185.01 10.13 184.25 10.63 182.76C10.84 182.13 10.87 181.43 10.96 180.89H10.95Z" fill="#87766B"/>
<path fill-rule="evenodd" clip-rule="evenodd" d="M53.74 63.86C52.36 63.42 51.25 62.95 50.3 62.2C48.73 60.96 47.5 59.41 46.59 57.64C45.62 55.75 45.34 53.77 45.98 51.71C46.12 51.26 46.3 50.81 46.56 50.42C47.66 48.76 49.68 48.82 50.68 50.54C51.16 51.36 51.64 52.19 52.04 53.05C52.32 53.64 52.65 54.26 52.48 55.12C52.16 55.02 51.9 55 51.71 54.87C51.16 54.47 50.67 53.99 50.1 53.63C49.63 53.34 49.09 53.24 48.62 53.65C48.45 54.24 48.78 54.6 49.16 54.9C50.36 55.83 51.21 57.07 52.17 58.22C53.12 59.37 53.62 60.66 53.64 62.15C53.64 62.62 53.69 63.1 53.74 63.89V63.86Z" fill="#FFD6CC"/>
<path fill-rule="evenodd" clip-rule="evenodd" d="M85.66 91.34V85.58C88.46 84.5 91.28 83.41 94.27 82.25C94.32 82.86 94.39 83.31 94.39 83.76C94.36 85.33 94.3 86.89 94.26 88.46C94.23 89.57 93.68 90.23 92.58 90.43C91.25 90.68 89.92 90.99 88.58 91.18C87.66 91.31 86.71 91.29 85.67 91.34H85.66Z" fill="#FF7E00"/>
<path fill-rule="evenodd" clip-rule="evenodd" d="M77.36 163.09C78.33 163.09 79.16 163.42 79.86 164.13C80.95 165.22 81.68 166.53 82 168.01C82.29 169.33 82.53 170.69 82.34 172.06C82.32 172.19 82.28 172.33 82.3 172.47C82.66 175.21 81.42 177.5 80.22 179.78C79.88 180.43 79.4 181.03 78.89 181.57C78.59 181.88 78.11 182.01 77.47 182.35C77.6 181.57 77.67 181.05 77.78 180.54C78.42 177.68 78.98 174.8 78.94 171.86C78.91 170.03 78.78 168.19 78.49 166.38C78.32 165.29 77.76 164.26 77.35 163.1L77.36 163.09Z" fill="#FFD6CC"/>
<path fill-rule="evenodd" clip-rule="evenodd" d="M106.42 179.76C108.72 180.08 110.41 178.93 111.93 177.57C113.05 177.35 114.16 177.29 115.15 176.91C116.15 176.53 117.03 175.84 118.07 175.22C119.37 175.96 120.45 177.05 121.45 178.2C121.03 179.48 120.22 180.23 119.05 180.61C114.95 181.92 110.88 181.86 106.85 180.29C106.59 180.19 106.36 180.06 106.46 179.72L106.42 179.76Z" fill="#BF5E00"/>
<path fill-rule="evenodd" clip-rule="evenodd" d="M61.76 80.72C61.99 81.41 62.25 82.03 62.39 82.68C62.6 83.64 62.21 84.64 61.35 84.88C59.99 85.27 58.68 85.97 57.21 85.9C55.44 85.82 53.71 85.43 51.99 84.96C51.61 83.51 51.87 82.11 51.78 80.56C55.23 80.9 58.47 81.24 61.76 80.72Z" fill="#B8B3AB"/>
<path fill-rule="evenodd" clip-rule="evenodd" d="M92.16 152.33C94.96 151.61 97.56 151.07 100.07 150.25C102.58 149.43 104.99 148.33 107.58 147.31C108.16 147.48 108.06 148.19 108.45 148.73C106.22 149.94 103.62 150.33 102.2 152.77C101.29 152.89 100.29 153.03 99.28 153.16C98.13 153.32 97.03 153.6 96.04 154.28C95.44 154.7 94.71 154.95 94.01 155.2C93.09 155.53 92.15 155.1 92.15 154.01C92.15 153.48 92.15 152.94 92.15 152.33H92.16Z" fill="#FF7E00"/>
<path fill-rule="evenodd" clip-rule="evenodd" d="M82.76 164.88C84.27 164.23 86.94 163.75 88.42 163.87C88.47 164.09 88.58 164.35 88.56 164.59C88.39 166.97 88.15 169.34 88.65 171.71C88.7 171.95 88.58 172.23 88.53 172.56C87.12 172.84 85.74 173.11 84.26 173.41C84.2 173.05 84.07 172.72 84.11 172.41C84.37 169.77 83.97 167.25 82.77 164.87L82.76 164.88Z" fill="#B0B0B0"/>
<path fill-rule="evenodd" clip-rule="evenodd" d="M40.36 182.36C40.39 179.72 40.62 177.19 40.1 174.69C39.6 172.27 38.4 170.15 36.81 167.81C37.67 168 38.14 168.04 38.56 168.2C39.48 168.55 40.24 169.19 40.74 170.01C42.9 173.52 43.6 177.2 41.82 181.1C41.57 181.64 41.32 182.23 40.37 182.36H40.36Z" fill="#87766B"/>
<path fill-rule="evenodd" clip-rule="evenodd" d="M91.98 156.33C90.24 158.05 89.4 159.94 88.85 161.99C87.56 161.17 86.85 160.16 86.67 158.72C86.28 155.58 87.34 155.35 89.63 155.78C90.29 155.9 90.94 156.08 91.98 156.33Z" fill="#FFD6CC"/>
<path fill-rule="evenodd" clip-rule="evenodd" d="M110.26 33.66C111.2 34.29 111.81 34.69 112.5 35.16C113.03 38.24 112.48 41.15 110.94 43.94C110.72 40.67 110.51 37.39 110.26 33.67V33.66Z" fill="#CF950B"/>
<path fill-rule="evenodd" clip-rule="evenodd" d="M46.96 165.49C45.58 165.71 44.2 165.93 42.74 166.16C42.62 165.66 42.54 165.3 42.43 164.86C44.09 164.29 45.56 164.53 46.96 165.49Z" fill="#FFD6CC"/>
<path fill-rule="evenodd" clip-rule="evenodd" d="M61.6 87.07C61.42 87.63 61.31 87.99 61.15 88.49C60.62 88.26 60.21 88.08 59.68 87.85C60.2 87.33 60.68 87.06 61.6 87.07Z" fill="#FF4838"/>
<path fill-rule="evenodd" clip-rule="evenodd" d="M106.46 179.72C105.02 179.61 104.98 179.59 104.11 178.55C105.07 179.05 105.74 179.41 106.42 179.76L106.47 179.72H106.46Z" fill="#BF5E00"/>
<path fill-rule="evenodd" clip-rule="evenodd" d="M7.32 177.4C7.76 177.65 8.2 177.77 8.41 178.06C9.31 179.33 9.3 180.75 8.81 182.15C8.51 183.01 7.39 183.13 6.8 182.44C6.63 182.24 6.45 181.99 6.41 181.73C6.13 180.21 6.33 178.78 7.33 177.4H7.32Z" fill="#76685E"/>
<path fill-rule="evenodd" clip-rule="evenodd" d="M103.98 73.65C101.94 76.64 98.98 78.63 96.08 80.95C96.21 82.07 96.34 83.27 96.49 84.56C98.82 85.47 100.72 87.03 102.6 88.59C102.91 88.84 103.29 89.01 103.66 89.18C111.34 92.78 117.25 98.25 121.13 105.83C122.91 109.31 124.28 112.95 125.16 116.77C125.25 117.17 125.26 117.62 125.46 117.95C127.35 121.09 127.75 124.63 128.16 128.15C128.34 129.71 128.35 131.28 128.47 132.85C128.51 133.38 128.62 133.92 128.77 134.44C129.98 138.36 131.06 142.31 131.54 146.4C132.13 151.43 132.5 156.47 131.82 161.53C131.75 162.07 131.75 162.62 131.74 163.16C131.73 164.11 131.74 165.06 131.74 166.23C131.93 166.4 132.26 166.73 132.63 167.02C135.38 169.2 137.83 171.65 139.74 174.63C141.02 176.64 142.52 178.53 143.72 180.59C144.57 182.05 145.2 183.67 145.73 185.28C146.96 189.05 147.73 192.94 148.56 196.82C149.69 202.11 150.29 207.48 151.04 212.82C152.13 220.67 153.18 228.53 154.25 236.38C154.81 240.44 155.37 244.5 155.95 248.56C156.21 250.39 156.45 252.22 156.84 254.02C157.11 255.28 157.55 256.52 158.02 257.72C160.16 263.12 162.44 268.46 165.02 273.67C165.17 273.97 165.36 274.25 165.56 274.59C166.31 274.23 166.69 273.55 167.19 273.02C168 272.16 168.8 271.34 170.09 271.28C170.28 271.28 170.48 271.16 170.66 271.07C174 269.48 177.57 268.95 181.21 268.79C185.37 268.61 189.54 268.54 193.71 268.47C194.82 268.45 195.81 268.3 196.82 267.72C198.75 266.62 200.95 266.33 203.11 265.98C208.47 265.12 213.87 264.98 219.27 265.22C224.66 265.46 230.03 266.1 235.36 266.96C239.41 267.62 243.43 268.4 247.35 269.65C249.63 270.38 251.84 271.29 253.91 272.52C255.81 273.65 257.44 275.1 258.83 276.8C259.8 277.99 260.44 279.32 260.66 280.85C260.72 281.25 260.82 281.65 260.96 282.03C261.77 284.25 261.94 286.56 261.88 288.9C261.81 291.62 260.85 293.96 258.97 295.93C258.64 296.27 258.32 296.61 257.96 296.99C258.01 297.62 258.1 298.23 258.11 298.84C258.13 300.34 258.17 301.84 258.11 303.34C258.01 305.81 256.98 307.96 255.66 309.99C255.48 310.27 255.22 310.5 254.95 310.7C251.29 313.41 247.26 315.37 242.81 316.42C242.48 316.5 242.17 316.64 241.85 316.76C237.07 318.68 232.09 319.81 227.01 320.59C224.3 321 221.6 321.39 218.86 321.31C214.54 321.19 210.29 320.63 206.14 319.35C203.13 318.42 200.19 317.32 197.34 315.99C196.17 315.44 195.01 314.84 193.92 314.15C193.21 313.7 192.47 313.4 191.67 313.23C188.72 312.6 185.86 311.7 183.04 310.64C182.07 310.27 181.11 310.05 180.06 310.04C175.26 310 170.73 308.83 166.46 306.65C164.57 305.69 162.72 304.66 160.9 303.58C159.25 302.6 157.79 301.35 156.47 299.95C155.33 298.75 154.4 297.41 153.71 295.9C152.29 292.8 152.16 289.71 153.86 286.6C153.75 286.39 153.66 286.13 153.51 285.91C149.46 279.92 146.64 273.34 144.13 266.6C141.47 259.45 139.76 252.09 138.73 244.55C137.86 238.19 137.07 231.81 136.24 225.44C135.87 222.59 135.53 219.74 135.11 216.9C134.76 214.54 134.22 212.2 133.9 209.84C133.46 206.59 132.94 203.35 132.18 200.16C130.65 193.67 128.34 187.48 125.07 181.66C124.84 181.24 124.58 180.84 124.27 180.31C123.62 180.66 122.99 181 122.3 181.38C122.18 183.43 122.67 185.43 122.88 187.45C123.36 192.14 123.9 196.83 124.38 201.52C124.9 206.62 125.37 211.72 125.9 216.82C126.33 221.03 126.83 225.24 127.25 229.46C127.38 230.75 127.32 232.05 127.35 233.35C127.37 234.23 127.08 234.99 126.42 235.53C125.69 236.14 124.9 236.68 124.11 237.21C123.5 237.62 122.84 237.97 122.17 238.37C122.41 239.9 122.66 241.3 122.84 242.72C123.09 244.62 123.38 246.52 123.48 248.42C123.72 252.85 123.92 257.29 124.03 261.73C124.21 269.18 124.27 276.63 124.46 284.08C124.54 287.02 124.83 289.95 125.02 292.88C125.06 293.49 125.16 294.11 125.15 294.72C125.13 295.83 125.37 296.86 125.83 297.89C126.21 298.75 126.39 299.7 126.74 300.9C127.21 301.16 127.89 301.6 128.63 301.93C131.98 303.46 135.36 304.95 138.7 306.51C139.87 307.05 141.03 307.67 142.08 308.42C143.65 309.55 144.5 311.14 144.59 313.13C144.66 314.72 144.09 315.96 142.8 316.81C141.84 317.44 140.76 317.91 139.74 318.45C139.14 318.77 138.56 319.11 137.96 319.41C137.41 319.68 136.87 319.98 136.28 320.13C131.4 321.38 126.46 321.79 121.44 321.08C118.05 320.6 114.7 319.96 111.45 318.88C110.29 318.49 109.14 318.03 108.05 317.48C105.65 316.26 104.38 314.24 104.3 311.56C104.23 309.24 104.3 306.91 104.3 304.59C104.3 304.11 104.3 303.63 104.3 303.11C103.88 302.57 103.34 302.05 102.99 301.42C102.67 300.83 102.52 300.14 102.33 299.49C101.42 296.32 101.05 293.06 100.66 289.8C100.3 286.75 100.13 283.67 99.7 280.62C99.22 277.24 99.09 273.84 98.68 270.45C98.27 267.13 98.04 263.78 97.67 260.45C97.14 255.7 96.55 250.95 95.97 246.2C95.91 245.74 95.77 245.3 95.65 244.8C92.72 245.17 89.89 245.52 87.01 245.88C84.58 263.53 82.17 281.13 79.75 298.72C80.16 299.27 80.89 299.54 80.89 300.35C80.89 301.16 80.56 301.81 80.07 302.4C79.64 302.93 79.16 303.41 78.49 304.15C78.56 304.99 78.64 306.14 78.74 307.29C78.92 309.4 79.28 311.48 78.96 313.62C78.62 315.88 77.47 317.39 75.33 318.14C74.36 318.48 73.38 318.76 72.39 319.01C68.22 320.08 64.08 321.26 59.82 321.92C55.4 322.61 50.98 322.82 46.55 322.14C44.44 321.82 42.43 321.17 40.6 320.04C38.07 318.48 37.63 316.45 39.37 314C40 313.12 40.79 312.34 41.6 311.62C42.46 310.85 43.4 310.15 44.36 309.49C47.85 307.09 51.36 304.72 54.86 302.34C54.97 302.27 55.04 302.15 55.2 301.98C54.91 301.36 54.52 300.72 54.31 300.03C54.08 299.25 53.98 298.43 53.89 297.61C53.81 296.86 53.8 296.11 53.81 295.36C53.85 286.27 53.87 277.17 53.94 268.08C53.99 261.38 54.12 254.68 54.2 247.98C54.21 246.69 54.14 245.39 54.1 244.09C52.63 243.37 51.12 243.31 49.67 243.04C46.79 242.5 43.88 242.08 40.98 241.63C38.48 241.24 38.27 240.99 38.19 238.53C38.09 235.43 38.76 232.42 39.21 229.38C39.88 224.92 40.52 220.46 41.11 215.99C41.76 211.04 42.31 206.09 42.94 201.14C43.55 196.33 44.19 191.52 44.82 186.71C45.07 184.76 45.33 182.8 45.59 180.86C44.4 180.57 44.36 180.58 44.03 181.22C44 181.28 43.98 181.35 43.96 181.41C43.29 183.3 42.06 184.56 39.98 184.78C39.48 185.53 39.33 186.43 38.54 186.99C37.8 187.51 37.1 187.93 36.2 188.12C32.78 188.85 29.34 189.36 25.85 189.53C22.64 189.69 19.43 189.88 16.22 189.98C13.42 190.06 10.62 190.02 7.82 190.03C6.46 190.03 5.27 189.54 4.24 188.7C0.89 185.95 -0.42 182.37 0.2 178.12C0.43 176.54 1.21 175.15 2.31 173.97C3.59 172.61 5.04 171.64 6.93 171.15C11.36 170 15.72 168.62 20.11 167.34C21.75 166.86 23.36 166.19 25.03 165.97C27.38 165.67 29.79 164.99 32.13 165.8C33.66 166.32 35.12 166.53 36.7 166.25C37.28 166.14 37.9 166.23 38.55 166.23C36.97 160.47 36.75 154.66 36.27 148.89C36.06 146.37 35.99 143.84 35.8 141.32C35.71 140.17 35.48 139.02 35.29 137.88C34.19 131.16 33.94 124.42 34.64 117.65C34.96 114.58 35.57 111.57 36.75 108.7C37.17 107.67 37.39 106.62 37.44 105.52C37.54 103.47 37.66 101.42 37.8 99.38C38.26 92.75 41.71 88.19 47.6 85.33C48.33 84.97 49.09 84.68 49.88 84.33C50.17 82.96 49.96 81.6 50.06 80.15C49.38 79.94 48.73 79.74 48.09 79.54C44.19 78.35 40.62 76.53 37.44 73.97C32.88 70.3 31.48 65.5 32.41 59.87C32.63 58.54 33.23 57.28 33 55.85C32.93 55.43 33.22 54.93 33.39 54.49C34.76 50.92 36.11 47.34 37.54 43.79C38.23 42.08 39.17 40.51 40.34 39.06C40.71 38.6 40.99 38.01 41.14 37.44C42.2 33.46 43.74 29.67 45.57 25.99C46.69 23.72 47.72 21.41 48.91 19.18C49.74 17.62 50.7 16.11 51.73 14.66C54.05 11.41 57.1 9.05001 60.83 7.58001C61.4 7.36001 61.98 7.15001 62.7 6.89001C63.01 5.74001 63.86 4.90001 64.91 4.21001C65.25 3.99001 65.56 3.70001 65.86 3.43001C68.12 1.36001 70.83 0.350012 73.84 0.0800119C76.58 -0.159988 79.31 -0.0899881 81.93 0.910012C82.57 1.15001 83.26 1.34001 83.79 1.74001C84.66 2.40001 85.56 2.63001 86.63 2.64001C87.57 2.65001 88.55 2.81001 89.45 3.11001C91.39 3.75001 93.31 4.48001 95.21 5.25001C95.83 5.50001 96.39 5.94001 96.92 6.36001C101.2 9.79001 105.09 13.6 108.42 17.99C110.46 20.68 112.17 23.53 113.68 26.53C114.85 28.84 116.19 31.06 117.16 33.47C117.38 34.02 117.86 34.48 118.23 34.97C119.54 36.72 120.81 38.49 121.69 40.52C121.95 41.13 122.43 41.66 122.88 42.16C124.46 43.94 125.44 45.92 125.91 48.31C126.8 52.84 126.09 57 123.66 60.89C123.55 61.06 123.41 61.23 123.35 61.42C122.64 63.53 121.05 64.94 119.43 66.32C116.81 68.55 113.89 70.32 110.78 71.76C108.67 72.73 106.47 73.48 104.06 73.61L103.98 73.65ZM106.41 179.77C105.74 179.42 105.06 179.06 104.1 178.56C104.97 179.6 105.02 179.62 106.45 179.73C106.35 180.08 106.58 180.2 106.84 180.3C110.87 181.87 114.94 181.93 119.04 180.62C120.21 180.25 121.02 179.49 121.44 178.21C120.44 177.06 119.36 175.97 118.06 175.23C117.02 175.85 116.14 176.53 115.14 176.92C114.15 177.3 113.04 177.37 111.92 177.58C110.39 178.94 108.7 180.1 106.4 179.78L106.41 179.77ZM232.93 282.88C232.63 281.46 232.16 280.35 231.17 279.55C228.49 277.37 225.51 275.71 222.19 274.76C220.09 274.16 217.94 273.73 215.8 273.33C210.7 272.37 205.59 271.47 200.48 270.55C200.15 270.49 199.8 270.47 199.46 270.47C192.56 270.45 185.65 270.21 178.77 270.9C175.25 271.25 171.94 272.19 168.9 274.04C167.28 275.03 166.72 276.13 167.05 277.96C167.19 278.76 167.45 279.55 167.69 280.33C168.94 284.44 171.24 288 173.59 291.52C174.19 292.42 174.99 293.19 175.73 294C176.38 294.72 177.17 295.24 178.06 295.64C181.8 297.32 185.51 299.06 189.27 300.69C192.59 302.13 195.97 303.43 199.64 303.73C199.84 303.75 200.04 303.81 200.24 303.86C205.32 305 210.45 305.65 215.66 305.63C219.69 305.62 223.71 305.3 227.71 304.7C229.54 304.42 231.37 304.17 233.07 303.39C234.79 302.6 236.73 303.1 238.46 302.41C238.71 302.31 239 302.31 239.25 302.22C240.07 301.91 240.89 301.58 241.71 301.25C242.66 300.87 243.6 300.48 244.55 300.1C245.69 299.64 246.81 299.16 247.96 298.73C249.18 298.28 250.4 297.84 251.64 297.46C253.44 296.92 255.05 296.07 256.47 294.85C256.72 294.63 257.01 294.37 257.32 294.31C258.02 294.17 258.4 293.71 258.66 293.15C259.08 292.23 259.58 291.29 259.76 290.31C260.29 287.51 260.07 284.72 259.2 282.01C258.87 280.98 258.2 280.06 257.86 279.03C257.5 277.92 256.74 277.19 255.92 276.46C253.04 273.92 249.61 272.43 245.98 271.33C242.18 270.18 238.3 269.4 234.37 268.85C230.58 268.32 226.78 267.86 222.98 267.5C215.81 266.82 208.65 266.98 201.52 268.11C201.22 268.16 200.83 268.18 200.92 268.71C201.52 268.82 202.12 268.94 202.72 269.05C206.08 269.62 209.43 270.3 212.84 270.58C218.94 271.07 224.58 273.02 229.83 276.13C232.21 277.54 234.3 279.26 235.35 281.99C235.68 281.99 235.95 282.04 236.21 281.99C237.61 281.67 239 281.34 240.39 280.99C240.71 280.91 241.01 280.73 241.3 280.55C241.52 280.4 241.69 280.17 241.91 280.01C242.28 279.73 242.78 279.8 243 280.13C243.23 280.47 243.2 281.04 242.89 281.25C242.67 281.4 242.42 281.52 242.17 281.61C241.01 282.02 239.82 282.34 238.69 282.83C235.91 284.02 233.04 284.85 230.08 285.45C226.02 286.27 221.96 286.47 217.86 285.81C217.32 285.72 216.77 285.7 216.23 285.67C212.47 285.46 208.74 285.02 205.06 284.25C201.79 283.56 198.55 282.72 195.28 282.02C191.58 281.22 188.12 279.78 184.73 278.16C184.12 277.87 183.53 277.49 183 277.06C182.53 276.68 182.09 276.22 181.75 275.73C181.43 275.26 181.56 274.82 182.18 274.63C184.83 276.01 187.48 277.41 190.14 278.78C190.62 279.02 191.15 279.18 191.68 279.29C194.08 279.82 196.5 280.25 198.88 280.83C204.86 282.29 210.88 283.45 217.05 283.62C221.15 283.73 225.25 283.66 229.35 283.66C230.52 283.66 231.63 283.36 232.94 282.92L232.93 282.88ZM58.72 35.52C58.77 36.1 58.78 36.57 58.86 37.03C59.21 39.14 59.27 41.25 58.82 43.35C58.32 45.69 57.85 48.03 57.25 50.34C56.77 52.19 56.22 54.03 55.05 55.6C54.87 55.85 54.78 56.24 54.8 56.55C54.91 57.71 54.97 58.88 55.25 60C55.95 62.85 56.72 65.69 57.51 68.51C58.22 71.03 59.36 73.36 60.72 75.58C61.47 76.81 62.35 77.95 63.5 78.84C65.7 80.53 68.27 81.46 70.84 82.4C71.03 82.47 71.24 82.49 71.44 82.52C72.38 82.68 73.31 82.87 74.26 82.99C75.75 83.18 77.24 83.39 78.73 83.46C80.09 83.52 81.46 83.34 82.83 83.35C84.71 83.37 86.48 82.92 88.23 82.3C91.09 81.29 93.67 79.79 96.2 78.14C98.42 76.69 100.26 74.93 101.55 72.6C102.01 71.77 102.43 70.91 103.21 70.29C103.46 70.09 103.61 69.74 103.76 69.44C104.67 67.68 105.52 65.88 105.93 63.93C106.45 61.46 106.98 58.98 107.36 56.49C108.11 51.48 108.6 46.45 108.5 41.38C108.46 39.54 108.47 37.69 108.06 35.87C107.36 32.78 106.98 32.21 104.07 30.95C100.46 29.38 96.6 28.75 92.72 28.44C86.33 27.93 80.04 28.74 73.85 30.33C69.81 31.36 65.85 32.66 61.96 34.14C60.89 34.55 59.84 35.04 58.73 35.52H58.72ZM189.79 310.66C189.83 310.58 189.87 310.51 189.91 310.43C189.52 310.08 189.14 309.72 188.73 309.39C186.44 307.54 184.25 305.59 182.35 303.33C182.04 302.97 181.69 302.64 181.37 302.28C180.43 301.2 179.44 300.16 178.57 299.03C178.02 298.31 177.43 297.69 176.67 297.2C174.51 295.81 172.79 293.97 171.35 291.86C168.99 288.4 167.07 284.72 165.91 280.67C165.61 279.63 165.17 278.62 164.72 277.63C163.08 274.02 161.38 270.44 159.75 266.83C159.05 265.27 158.56 263.62 157.82 262.09C156.34 258.98 155.47 255.69 154.73 252.36C153.29 245.89 152.5 239.3 151.55 232.74C150.21 223.48 149 214.2 147.84 204.91C147.01 198.24 145.58 191.73 143.55 185.33C143.34 184.68 143.06 184.05 142.78 183.44C141.08 179.76 139.13 176.25 136.18 173.39C136.08 173.29 135.99 173.19 135.91 173.08C134.39 170.92 132.43 169.22 130.28 167.75C127.74 166.02 125.1 164.45 122.49 162.83C122.23 162.67 121.89 162.61 121.52 162.48C121.06 163.34 121.17 164.17 121.16 164.97C121.16 167.32 120.88 169.6 119.81 171.74C119.54 172.28 119.28 172.82 119.03 173.35C120.43 174.56 121.69 175.82 123.13 176.85C124.23 177.64 124.9 178.68 125.61 179.76C130.65 187.43 133.53 195.92 135.07 204.89C135.71 208.59 136.13 212.33 136.68 216.04C137.08 218.74 137.55 221.43 137.95 224.14C139.05 231.64 140.13 239.14 141.2 246.65C142.19 253.58 144.17 260.26 146.34 266.88C147.53 270.5 149.22 273.96 150.89 277.4C152.86 281.47 155.22 285.33 158.18 288.76C160.23 291.14 162.22 293.56 164 296.16C165.2 297.92 166.73 299.36 168.46 300.63C174.04 304.69 180.09 307.77 186.68 309.8C187.71 310.12 188.76 310.37 189.8 310.65L189.79 310.66ZM93.67 219.23C93.64 206.14 93.6 193.3 93.57 180.37C92.36 180.13 91.45 179.49 90.57 178.69C89.61 177.81 90.1 176.42 89.29 175.59C87.5 174.83 85.7 174.94 84 175.2C83.51 176.75 83.15 178.22 82.58 179.6C82.14 180.65 81.54 181.7 80.79 182.56C79.54 183.99 77.92 184.6 75.99 184.06C75.67 183.97 75.34 183.92 75.24 183.9C73.96 184.44 72.92 184.99 71.82 185.32C70.52 185.71 69.16 186.09 67.8 185.67C67.15 185.47 66.6 185.49 66.03 185.74C64.04 186.63 61.71 186.34 59.8 187.53C59.69 187.6 59.54 187.59 59.4 187.61C54.92 188.05 50.95 187.17 48.16 183.26C47.97 182.99 47.82 182.66 47.38 182.84C46.79 187.93 46.19 193.02 45.62 198.11C45.06 203.19 44.24 208.25 43.85 213.34C45.31 214.25 46.82 214.68 48.32 215.1C54.97 216.98 61.71 218.32 68.62 218.93C76.12 219.59 83.63 219.8 91.15 219.5C91.96 219.47 92.77 219.33 93.66 219.23H93.67ZM40.65 239.23C41.29 239.36 41.69 239.45 42.09 239.52C45.32 240.09 48.55 240.61 51.77 241.23C58.96 242.62 66.19 243.66 73.52 243.76C80.35 243.85 87.18 243.73 94.02 243.69C94.28 243.69 94.53 243.59 94.88 243.51C94.98 243.02 95.17 242.57 95.14 242.12C94.95 239.19 94.66 236.27 94.49 233.34C94.28 229.66 94.17 225.97 94 222.28C93.98 221.9 93.87 221.53 93.8 221.17C91.97 221.31 90.28 221.48 88.57 221.55C86.86 221.62 85.15 221.62 83.45 221.61C81.81 221.61 80.17 221.56 78.53 221.49C76.82 221.42 75.12 221.33 73.41 221.2C71.71 221.07 70.01 220.9 68.31 220.71C66.61 220.52 64.92 220.32 63.23 220.07C61.54 219.82 59.86 219.55 58.18 219.23C56.57 218.92 54.97 218.56 53.38 218.17C51.73 217.76 50.1 217.25 48.44 216.82C46.83 216.41 45.36 215.54 43.66 215.22C43.6 215.63 43.56 215.9 43.52 216.17C43 220.1 42.5 224.03 41.94 227.95C41.64 230.04 41.22 232.12 40.89 234.21C40.64 235.82 40.49 237.44 40.64 239.2L40.65 239.23ZM123.18 214.02C122.25 203.68 121.32 193.34 120.39 183.01C120.39 182.95 120.33 182.89 120.29 182.85C120.24 182.81 120.17 182.78 120.11 182.75C119.98 182.75 119.84 182.72 119.72 182.75C113.6 184.42 107.83 183.86 102.56 180.06C102.3 179.87 101.94 179.78 101.62 179.74C100.42 179.6 99.41 179.09 98.48 178.34C98.23 178.14 97.93 178.02 97.52 177.79C97.2 179.31 95.98 179.72 94.89 180.28C94.89 180.6 94.87 180.87 94.89 181.14C95.04 183.05 95.28 184.95 95.33 186.85C95.48 191.9 95.54 196.96 95.65 202.02C95.76 207.01 95.86 211.99 95.99 216.98C96.01 217.57 95.87 218.22 96.43 218.8C97.38 218.8 98.4 218.86 99.42 218.79C103.44 218.52 107.47 218.3 111.47 217.88C114.52 217.56 117.55 216.99 120.51 216.15C121.33 215.92 122.03 215.6 122.47 214.82C122.63 214.53 122.91 214.31 123.17 214.02H123.18ZM56.07 243.89C56.03 244.22 55.97 244.49 55.98 244.75C56.06 247.48 56.22 250.21 56.22 252.94C56.23 260.19 56.18 267.43 56.16 274.68C56.16 275.42 56.19 276.16 56.2 276.9C58.52 277.74 60.75 278.38 63.06 278.64C67.62 279.14 72.2 279.13 76.78 279.08C77.87 279.07 78.95 278.88 79.98 278.39C80.1 277.98 80.26 277.6 80.31 277.2C81.78 266.86 83.24 256.52 84.72 246.08C84.42 246.04 84.1 245.95 83.78 245.95C81.18 245.93 78.59 245.92 75.99 245.93C70.93 245.93 65.88 245.64 60.86 245C59.51 244.83 58.14 244.72 56.92 243.99C56.71 243.87 56.4 243.92 56.07 243.88V243.89ZM97.32 242.86C97.72 245.7 98.13 248.56 98.53 251.43C98.93 254.34 99.35 257.25 99.71 260.16C100.08 263.14 100.34 266.14 100.73 269.11C101.11 272 101.19 274.94 101.78 277.84C105.63 279.09 109.43 278.89 113.2 278.16C116.18 277.59 119.27 277.2 121.83 275.3C121.83 274.66 121.83 274.11 121.83 273.57C121.77 268.86 121.77 264.14 121.64 259.43C121.51 254.52 121.29 249.6 121.06 244.69C120.98 243.06 120.74 241.44 120.56 239.72C120.13 239.8 119.79 239.81 119.49 239.92C117.94 240.48 116.37 240.91 114.73 241.09C109.1 241.69 103.52 242.8 97.82 242.69C97.7 242.69 97.58 242.77 97.32 242.86ZM58.33 139.71C58.33 139.1 58.35 138.62 58.33 138.15C58.18 135.7 58.09 133.24 57.85 130.79C57.54 127.67 57.17 124.55 56.71 121.44C56.32 118.81 55.59 116.23 55.83 113.53C55.84 113.4 55.81 113.26 55.79 113.12C55.17 108.87 54.56 104.61 53.4 100.45C53 99.01 52.52 97.58 52.03 96.16C51.83 95.59 51.55 95.01 50.67 94.92C50.08 95.32 49.38 95.75 48.74 96.25C47.99 96.84 47.25 97.45 46.57 98.12C43.7 100.91 41.45 104.15 39.67 107.72C38.54 109.99 37.78 112.39 37.34 114.9C36.46 119.91 36.44 124.96 36.74 130.01C36.86 132.12 37.19 134.22 37.41 136.32C37.46 136.81 37.59 137.25 38.02 137.56C40.02 139.01 42.1 140.29 44.55 140.85C46.97 141.41 49.43 141.29 51.89 141.34C54.14 141.39 56.17 140.72 58.33 139.68V139.71ZM181.73 299.97C182.73 301.4 183.67 302.37 184.62 303.35C187.52 306.36 190.58 309.18 194.33 311.12C195.85 311.91 197.28 312.82 198.71 313.75C200.25 314.75 201.77 315.83 203.54 316.41C204.97 316.87 206.42 317.27 207.86 317.69C211.77 318.83 215.79 319.06 219.82 319.19C221.18 319.24 222.57 319.3 223.91 319.13C229.48 318.44 234.95 317.3 240.26 315.43C242.83 314.52 245.44 313.7 247.98 312.71C249.44 312.15 250.82 311.38 252.19 310.62C252.7 310.33 253.13 309.84 253.49 309.36C255.66 306.42 256.41 303.09 256.05 299.48C256.02 299.16 256.06 298.78 255.64 298.57C255.49 298.61 255.28 298.62 255.11 298.7C253.5 299.45 251.86 300.13 250.09 300.45C249.7 300.52 249.33 300.74 248.96 300.9C247.95 301.32 246.97 301.81 245.94 302.15C237.02 305.12 227.9 307.07 218.46 307.26C217.51 307.28 216.55 307.18 215.6 307.18C214.65 307.18 213.7 307.22 212.75 307.24C211.66 307.26 210.58 307.31 209.49 307.28C208.67 307.26 207.86 307.11 207.04 307.05C203.9 306.83 200.81 306.3 197.75 305.53C193.56 304.48 189.57 302.9 185.65 301.11C184.53 300.6 183.41 300.16 181.75 299.97H181.73ZM88 129.44C87.82 125.24 87.11 121.35 86.67 117.42C86.23 113.48 85.84 109.54 85.41 105.6C84.99 101.68 84.66 97.75 84.02 93.84C81.71 93.9 79.53 94.07 77.37 93.97C75.26 93.87 73.15 93.59 71.07 93.21C68.95 92.83 66.86 92.24 64.66 91.72C64.78 92.06 64.82 92.27 64.92 92.43C66.32 94.75 67.06 97.29 67.43 99.96C67.82 102.73 68.18 105.51 68.56 108.28C69.39 114.46 69.73 120.66 69.5 126.89C69.48 127.42 69.53 127.95 69.55 128.51C71.13 129.09 72.7 129.23 74.25 129.31C78.74 129.52 83.24 130.03 88 129.43V129.44ZM97.29 240.95C98.54 240.89 99.56 240.89 100.57 240.77C103.62 240.4 106.66 239.97 109.71 239.57C111.4 239.35 113.1 239.14 114.79 238.91C116.49 238.67 118.15 238.27 119.65 237.4C121.01 236.61 122.31 235.73 123.68 234.96C124.98 234.23 125.47 233.15 125.3 231.72C125.24 231.25 125.16 230.78 125.08 230.3C124.98 229.7 124.84 229.09 124.77 228.49C124.48 225.98 124.2 223.47 123.92 220.96C123.85 220.35 123.77 219.74 123.69 219.13C123.61 218.55 123.53 217.97 123.46 217.45C122.31 217.8 121.28 218.15 120.22 218.42C116.7 219.31 113.14 219.88 109.52 220.18C105.3 220.53 101.08 220.87 96.83 220.68C96.65 220.68 96.46 220.79 96.14 220.89C96.57 227.5 96.62 234.11 97.29 240.96V240.95ZM85.79 93.74C87.69 105.65 88.4 117.51 90.23 129.24C90.65 129.24 90.92 129.27 91.18 129.24C93.95 128.85 96.73 128.49 99.49 128.02C100.96 127.77 102.39 127.31 103.76 126.97C103.87 126.7 103.95 126.58 103.96 126.45C103.98 126.18 103.98 125.9 103.97 125.63C103.77 119.19 103.1 112.81 101.77 106.51C100.68 101.35 99.11 96.33 96.93 91.52C96.66 90.91 96.51 90.21 95.78 89.76C94.99 91.94 93.14 92.58 91.14 92.95C90.2 93.13 89.25 93.2 88.3 93.29C87.5 93.37 86.68 93.34 85.8 93.75L85.79 93.74ZM105.38 177.06C106.44 178.01 107.51 177.87 108.6 177.69C109.27 177.58 109.7 177.24 109.96 176.61C110.41 175.54 110.91 174.49 111.36 173.43C112.37 171.08 113.01 168.66 112.82 166.07C112.8 165.8 112.8 165.52 112.85 165.26C112.89 165.09 113.05 164.83 113.17 164.82C113.41 164.81 113.81 164.88 113.86 165.03C114.12 165.72 114.4 166.43 114.48 167.16C114.73 169.54 114.05 171.76 113.18 173.93C112.96 174.47 112.74 175.01 112.45 175.74C112.98 175.69 113.33 175.74 113.63 175.62C115.48 174.9 117.05 173.84 117.68 171.85C118.23 170.09 118.57 168.28 119.12 166.52C119.84 164.21 119.31 162.04 118.43 159.94C117.69 158.18 116.4 156.97 114.47 156.37C109.15 154.71 103.75 154.39 98.27 155.27C97.74 155.35 97.2 155.52 96.74 155.79C95.92 156.26 95.17 156.85 94.38 157.37C92.63 158.51 91.55 160.11 91.15 162.15C91.02 162.82 90.86 163.49 90.81 164.17C90.57 167.31 90.42 170.45 90.72 173.59C90.8 174.47 90.95 175.35 91.18 176.21C91.64 177.97 93.34 178.77 95.04 178.09C95.66 177.84 96.09 177.41 96.01 176.69C95.89 175.71 96.16 174.8 96.38 173.87C97.2 170.48 97.81 167.05 97.73 163.54C97.73 163.27 97.78 163 97.84 162.74C97.94 162.35 98.58 162.21 98.84 162.54C99.04 162.8 99.28 163.1 99.33 163.4C99.48 164.34 99.63 165.3 99.61 166.25C99.55 168.64 99.32 171.02 98.74 173.35C98.56 174.07 98.41 174.8 98.22 175.65C99 176.21 99.72 176.84 100.55 177.28C101.93 178.03 103.52 177.19 103.77 175.6C104.02 173.98 104.28 172.36 104.4 170.73C104.56 168.62 104.57 166.5 104.67 164.39C104.7 163.72 104.8 163.05 104.93 162.38C104.96 162.24 105.21 162.06 105.38 162.05C105.55 162.03 105.82 162.14 105.9 162.28C106.1 162.63 106.29 163.01 106.34 163.4C106.84 167.63 106.97 171.84 105.59 175.97C105.48 176.29 105.46 176.63 105.38 177.08V177.06ZM61.11 149.87C61.49 149.8 61.59 149.81 61.61 149.77C63.05 147.3 64.36 144.76 65.02 141.95C65.35 140.56 65.71 139.17 65.97 137.76C66.45 135.21 67 132.67 67.28 130.1C68.02 123.42 67.84 116.74 67.11 110.07C66.83 107.49 66.27 104.95 66.03 102.37C65.81 100.1 65.13 97.96 64.44 95.83C63.83 93.94 62.91 92.17 61.52 90.72C60.53 89.68 59.3 89.17 57.82 89.57C56.77 89.86 55.69 90.07 54.65 90.38C53.29 90.78 52.28 91.62 51.63 92.95C52.04 93.5 52.31 94.12 52.78 94.45C54.13 95.4 54.46 96.87 54.94 98.27C55.14 98.85 55.29 99.45 55.45 100.04C56.94 105.52 57.73 111.13 58.34 116.76C58.67 119.74 58.85 122.74 59.5 125.69C59.92 127.62 60.19 129.59 60.33 131.56C60.65 135.98 60.88 140.41 61.1 144.84C61.18 146.47 61.11 148.11 61.11 149.88V149.87ZM12.19 188.23C12.71 188.26 13.02 188.31 13.33 188.29C16.12 188.12 18.91 187.85 21.71 187.76C26.36 187.62 30.96 187.13 35.55 186.34C36.76 186.13 37.51 185.63 37.9 184.43C38.48 182.65 38.63 180.85 38.7 178.99C38.82 175.54 37.67 172.58 35.61 169.89C34.79 168.81 33.79 168.07 32.54 167.61C31.57 167.25 30.57 167.1 29.53 167.12C27.74 167.15 26.01 167.54 24.29 168C19.48 169.28 14.68 170.6 9.88 171.92C9.74 171.96 9.63 172.11 9.44 172.27C9.78 172.47 10.01 172.6 10.24 172.73C10.48 172.86 10.72 172.98 10.97 173.11C13.49 174.45 14.73 176.57 14.83 179.41C14.93 182.22 14.29 184.82 12.8 187.21C12.63 187.48 12.47 187.77 12.21 188.23H12.19ZM106.2 303.65C105.98 306.74 106.14 309.6 106.53 312.43C106.72 313.79 107.52 314.84 108.75 315.46C109.78 315.98 110.85 316.45 111.95 316.82C114.87 317.81 117.9 318.37 120.93 318.84C124.6 319.42 128.28 319.47 131.96 318.9C132.43 318.83 132.92 318.79 133.36 318.63C135.22 317.96 137.08 317.28 138.92 316.55C139.68 316.25 140.41 315.86 141.11 315.44C142.36 314.68 142.92 313.72 142.15 311.72C141.85 310.93 141.3 310.3 140.6 309.86C139.74 309.31 138.85 308.79 137.93 308.36C136.45 307.66 134.91 307.09 133.42 306.4C130.7 305.14 128 303.83 125.13 302.45C123.18 303.45 120.9 303.86 118.57 304.02C115.56 304.23 112.56 304.16 109.56 303.91C108.54 303.82 107.53 303.75 106.21 303.65H106.2ZM69.53 130.33C69.09 131.12 69.07 131.88 68.98 132.61C68.78 134.17 68.65 135.73 68.39 137.28C67.75 141.08 66.43 144.65 64.84 148.14C64.56 148.75 64.3 149.36 64.02 150.01C65.34 150.6 66.55 151.05 67.85 151.13C71.66 151.37 75.48 151.56 79.29 151.77C79.43 151.77 79.56 151.77 79.7 151.75C83.08 151.27 86.45 150.8 89.83 150.31C89.95 150.29 90.05 150.18 90.28 150.04C90.3 146.96 89.46 143.91 89.19 140.8C88.92 137.69 88.67 134.59 88.15 131.41C81.89 131.43 75.74 131.7 69.53 130.31V130.33ZM57.88 302.81C57.05 303.32 56.27 303.76 55.55 304.26C51.97 306.76 48.39 309.27 44.84 311.81C43.9 312.48 42.99 313.22 42.15 314.02C41.57 314.58 41.07 315.25 40.67 315.95C40.14 316.88 40.31 317.44 41.17 318.07C42.29 318.89 43.56 319.38 44.89 319.72C48.1 320.53 51.38 320.56 54.66 320.35C58.28 320.11 61.84 319.53 65.35 318.59C68.05 317.87 70.77 317.23 73.46 316.47C76.05 315.74 76.66 314.96 76.78 312.27C76.84 311.05 76.72 309.82 76.65 308.59C76.59 307.57 76.5 306.55 76.4 305.53C76.37 305.23 76.28 304.92 76.2 304.58C75.81 304.65 75.54 304.69 75.28 304.76C72.66 305.43 70.03 305.49 67.36 305.1C64.18 304.64 61.05 304 57.87 302.82L57.88 302.81ZM69.61 7.14001C66.91 8.03001 64.23 8.82001 61.62 9.78001C58.81 10.81 56.45 12.53 54.52 14.82C53.11 16.5 51.87 18.3 50.91 20.27C49.29 23.58 47.69 26.9 46.14 30.23C45.54 31.53 45.06 32.88 44.55 34.22C44.44 34.51 44.47 34.85 44.43 35.23C45.77 34.89 46.85 34.33 47.9 33.69C49.94 32.44 51.96 31.17 54.06 30.04C60.04 26.81 66.39 24.58 73.03 23.13C73.68 22.99 74.32 22.8 75.05 22.6C74.94 21.6 74.86 20.73 74.74 19.87C74.31 16.82 73.54 13.85 72.28 11.03C71.67 9.65001 70.97 8.33001 69.61 7.14001ZM54.21 65.36C52.23 65.71 51.64 65.61 50.16 64.71C47.51 63.09 45.62 60.81 44.35 58C43.38 55.86 43.3 53.65 43.9 51.39C44.24 50.09 44.88 49 45.92 48.14C46.18 47.93 46.45 47.73 46.66 47.56C46.55 46.18 46.45 44.92 46.34 43.48C43.88 44.71 41.73 46.1 40.15 48.22C37.42 51.87 35.36 55.87 34.37 60.34C33.39 64.77 34.7 68.59 38.04 71.64C39.04 72.56 40.2 73.32 41.34 74.05C46.81 77.56 52.9 78.78 59.36 78.77C59.38 77.89 58.94 77.22 58.52 76.52C56.94 73.86 55.69 71.07 54.97 68.05C54.77 67.19 54.5 66.35 54.21 65.34V65.36ZM109.84 146.3C110.1 146.1 110.25 146.03 110.3 145.93C111.02 144.16 111.67 142.36 111.88 140.44C111.95 139.76 112.01 139.07 112.19 138.42C112.84 136.04 113.16 133.6 113.42 131.16C114.41 121.73 113.68 112.5 110.57 103.47C108.17 96.5 103.71 91.29 97.74 87.2C97.42 86.98 97.04 86.86 96.46 86.59C96.54 87.18 96.48 87.62 96.67 87.9C98.96 91.35 100.4 95.19 101.69 99.08C103.9 105.72 104.98 112.61 105.89 119.52C106.59 124.8 106.99 130.12 107.65 135.41C108.1 139.06 108.46 142.74 109.85 146.32L109.84 146.3ZM120.64 146.32C120.4 146.41 120.28 146.51 120.17 146.5C119.63 146.45 119.09 146.4 118.55 146.3C116.85 145.98 115.15 145.97 113.46 146.3C112.68 146.46 112.24 147.25 112.44 148.03C112.49 148.21 112.69 148.36 112.77 148.54C113.08 149.19 112.94 149.56 112.28 149.79C111.89 149.93 111.48 149.99 111.1 150.13C109.51 150.73 107.91 151.34 106.33 151.97C106.12 152.05 105.98 152.28 105.78 152.46C105.95 152.59 105.99 152.65 106.04 152.65C106.45 152.7 106.86 152.72 107.26 152.77C110.29 153.21 113.32 153.57 116.11 155.04C117.62 155.84 118.77 156.92 119.67 158.32C120 158.83 120.27 159.38 120.53 159.85C121.37 160.2 122.15 160.45 122.87 160.83C123.59 161.21 124.25 161.71 124.94 162.14C126.05 162.82 127.16 163.48 128.28 164.13C128.5 164.26 128.78 164.27 129.03 164.33C131 157.79 129.69 143.3 126.97 135.1C126.53 135.23 126.07 135.33 125.64 135.5C123.11 136.52 120.57 137.51 118.06 138.6C116.87 139.11 115.75 139.78 114.63 140.42C114.3 140.61 113.9 140.94 113.82 141.28C113.57 142.31 113.12 143.34 113.3 144.56C113.75 144.56 114.14 144.56 114.54 144.56C115.43 144.56 116.31 144.5 117.2 144.54C118.33 144.58 119.32 145.03 120.21 145.7C120.39 145.84 120.48 146.11 120.62 146.34L120.64 146.32ZM114.7 37.17C114.58 37.39 114.52 37.45 114.52 37.51C114.49 37.71 114.46 37.91 114.45 38.12C114.42 41.66 113.34 44.84 111.1 47.58C110.62 48.17 110.56 48.79 110.48 49.47C110.06 52.99 109.69 56.53 109.15 60.04C108.59 63.7 107.63 67.26 105.62 70.44C105.46 70.7 105.4 71.02 105.23 71.5C107.13 71.21 108.66 70.53 110.19 69.79C111.98 68.92 113.48 67.62 115.11 66.53C117.39 65 119.56 63.33 120.67 60.67C120.77 60.42 120.96 60.21 121.09 59.96C122.41 57.49 123.66 55 123.66 52.1C123.66 51.69 123.78 51.29 123.82 50.88C124.04 48.9 123.61 47.08 122.52 45.41C120.45 42.24 117.89 39.53 114.71 37.17H114.7ZM58.35 141.69C56.48 142.28 54.9 142.95 53.15 142.97C51.45 142.99 49.74 143.24 48.04 143.22C46.26 143.2 44.48 142.96 42.82 142.3C41.27 141.68 39.79 140.88 38.17 140.1C38.17 141.98 38.3 143.67 38.49 145.36C38.61 146.41 39.02 147.51 38.25 148.52C38.14 148.66 38.15 148.91 38.16 149.11C38.25 151.5 38.57 153.86 38.84 156.21C39.37 156.46 39.78 156.72 40.23 156.86C42.85 157.67 45.51 158.27 48.24 158.47C49.54 158.56 50.84 158.56 52.09 158.11C53.57 157.58 55.07 157.11 56.5 156.47C57.87 155.85 58.75 154.9 58.66 153.15C58.49 149.95 58.56 146.73 58.51 143.52C58.51 142.98 58.42 142.45 58.35 141.69ZM90.49 131.21C90.43 131.57 90.32 131.83 90.35 132.08C90.96 137.98 91.37 143.9 92.2 149.76C93.88 149.91 94.38 149.81 99.6 148.26C102.13 147.51 105.74 145.85 107.03 144.82C105.81 139.63 105.7 134.19 104.03 128.94C102.52 129.25 101.07 129.58 99.6 129.84C98.05 130.11 96.5 130.3 94.94 130.54C93.47 130.76 91.99 130.99 90.48 131.22L90.49 131.21ZM38.73 46.47C38.96 46.35 39.19 46.31 39.3 46.17C40.18 45.09 41.32 44.34 42.43 43.55C43.54 42.76 44.65 41.96 45.76 41.16C47.67 39.76 49.52 38.28 51.69 37.25C52.86 36.69 53.95 35.97 55.09 35.36C60.11 32.68 65.47 30.84 70.91 29.24C72.81 28.69 74.7 28.05 76.64 27.72C79.6 27.21 82.58 26.86 85.57 26.58C89.26 26.24 92.98 26.35 96.6 26.98C99.86 27.55 103.15 28.12 106.15 29.85C109.34 31.68 112.71 33.19 115.71 35.36C115.78 35.41 115.93 35.34 116.12 35.32C115.5 34.3 114.76 33.43 113.95 32.6C113.42 32.06 112.88 31.54 112.42 30.94C111.32 29.51 109.93 28.41 108.5 27.36C107.23 26.43 105.84 25.71 104.3 25.3C100.66 24.32 96.98 23.67 93.21 23.45C90.82 23.31 88.44 23.42 86.05 23.51C82.97 23.62 79.92 23.82 76.87 24.3C68.77 25.59 61.12 28.22 53.93 32.16C51.29 33.6 48.69 35.11 46.1 36.62C42.46 38.74 40.13 41.95 38.67 45.84C38.61 46 38.7 46.22 38.72 46.47H38.73ZM56.34 300.45C57.15 300.63 57.77 300.68 58.33 300.9C61.6 302.18 65.04 302.7 68.48 303.15C71.31 303.52 74.06 303.08 76.73 302.14C77.16 301.99 77.56 301.73 78.04 301.49C77.34 300.06 77.39 298.64 77.5 297.23C77.6 295.87 77.79 294.52 77.91 293.16C77.97 292.5 78.21 291.82 77.87 291.14C76.6 291.36 75.34 291.65 74.07 291.8C72.72 291.96 71.35 292.02 69.99 292.08C65.57 292.26 61.27 291.82 57.29 289.68C57.01 289.53 56.69 289.45 56.12 289.23C56.12 293.12 56.2 296.77 56.34 300.47V300.45ZM63.37 151.39C62.54 152.76 61.72 154.09 60.92 155.43C60.85 155.54 60.82 155.69 60.8 155.82C60.45 158.03 60.3 160.26 60.37 162.46C60.82 162.6 60.96 162.3 61.15 162.14C63.46 160.26 65.18 160.11 67.7 161.58C68.16 161.85 68.62 162.12 69.05 162.38C69.24 162.23 69.35 162.15 69.44 162.05C71.25 160.16 72.77 159.93 75.09 161.17C75.43 161.36 75.79 161.52 76.15 161.69C76.55 160.96 77.11 160.77 77.75 161.04C78.69 161.44 79.61 161.88 80.51 162.37C81.02 162.65 81.59 162.89 82.05 162.58C82.8 162.08 83.62 162.22 84.41 162.08C84.73 162.03 85.03 161.9 85.46 161.77C85.23 161.15 85.04 160.66 84.86 160.16C84.4 158.91 84.33 157.62 84.58 156.32C84.96 154.38 86.31 153.41 88.29 153.64C88.83 153.7 89.36 153.83 89.9 153.89C90 153.9 90.13 153.77 90.26 153.7C90.27 153.51 90.32 153.3 90.29 153.11C90.26 152.92 90.15 152.75 90.09 152.6C89.91 152.55 89.77 152.47 89.65 152.49C88.43 152.65 87.21 152.78 86 152.99C83.5 153.42 81.01 153.81 78.46 153.69C75.73 153.56 73 153.35 70.27 153.23C67.85 153.12 65.55 152.64 63.35 151.38L63.37 151.39ZM56.13 287.13C59.04 288.53 61.88 289.66 64.99 289.97C68.48 290.33 71.95 290.06 75.4 289.6C76.46 289.46 77.57 289.3 78.51 288.37C78.87 286.12 79.25 283.77 79.6 281.41C79.62 281.25 79.45 281.07 79.39 280.95C78.04 281.04 76.74 281.21 75.45 281.19C72.17 281.14 68.9 281.01 65.62 280.9C62.8 280.8 60.08 280.21 57.44 279.19C57.09 279.05 56.7 279.01 56.24 278.9C56.19 279.37 56.13 279.7 56.13 280.03C56.13 282.35 56.13 284.66 56.13 287.13ZM103.28 290.99C103.58 294.64 104.24 298.01 105.11 301.32C105.5 301.44 105.75 301.56 106.01 301.58C110.84 302 115.67 302.27 120.5 301.63C121.56 301.49 122.64 301.29 123.54 300.59C123.1 297.1 122.66 293.69 122.2 290.1C119.13 291.3 116.11 292.08 112.96 292.2C109.76 292.33 106.62 291.74 103.28 290.98V290.99ZM122.09 288C122.03 285.11 121.97 282.31 121.91 279.52C121.91 279.11 121.87 278.7 121.85 278.29C121.85 278.22 121.83 278.15 121.8 278.09C121.77 278.04 121.7 278.02 121.53 277.92C121.37 277.97 121.11 278.03 120.88 278.14C119.45 278.81 117.98 279.31 116.44 279.67C111.94 280.72 107.43 281.26 102.84 280.31C102.61 280.26 102.34 280.36 102.01 280.4C102.26 283.29 102.51 286.05 103.02 288.83C109.55 290.8 115.85 290.61 122.1 288H122.09ZM48.44 180.33C48.49 180.72 48.46 180.88 48.53 180.98C50.04 183.54 52.21 185.15 55.22 185.53C55.63 185.58 56.04 185.59 56.44 185.65C59.47 186.06 62.01 184.45 62.83 181.51C63.21 180.13 63.44 178.71 63.73 177.3C64.15 175.24 64.01 173.23 63.27 171.25C63.04 170.62 62.97 169.92 62.83 169.25C62.5 167.63 61.48 166.45 60.38 165.31C59.51 164.41 58.38 164.66 57.31 164.61C56.34 165.66 56.24 165.75 56.31 166.7C56.36 167.37 56.57 168.03 56.74 168.68C57.29 170.79 57.91 172.88 57.53 175.12C57.19 177.08 56.8 179.02 55.73 180.74C55.3 181.44 54.82 182.12 54.03 182.47C53.8 182.57 53.48 182.6 53.26 182.52C53.04 182.44 52.88 182.17 52.68 181.97C52.95 181.3 53.2 180.69 53.47 180.02C53.15 179.94 52.96 179.84 52.79 179.86C51.37 180 49.95 180.17 48.45 180.33H48.44ZM96.56 21.46C97.93 21.73 99.27 21.99 100.59 22.26C104.04 22.97 107.25 24.2 109.95 26.56C110.54 27.08 111.15 27.61 112.11 28.03C112.01 27.59 112 27.32 111.88 27.11C111.26 25.97 110.7 24.79 109.97 23.73C107.61 20.3 105.17 16.93 102.35 13.86C101.02 12.4 99.62 10.99 98.16 9.67001C95.64 7.40001 92.73 5.81001 89.45 4.89001C89.21 4.82001 88.95 4.82001 88.63 4.78001C88.88 5.60001 89.57 5.68001 90.06 6.01001C92.12 7.39001 93.41 9.19001 93.37 11.76C93.36 12.53 93.57 13.22 93.89 13.92C94.87 16.03 95.62 18.21 96.21 20.46C96.29 20.78 96.43 21.09 96.55 21.45L96.56 21.46ZM114.64 138.69C115.28 138.48 115.65 138.06 116.11 137.8C117.35 137.1 118.57 136.35 119.87 135.76C121.6 134.97 123.39 134.3 125.15 133.57C125.58 133.39 125.97 133.15 126.41 132.92C126.56 129.29 126.08 125.79 125.43 122.3C125.35 121.86 125.11 121.46 124.96 121.07C122.8 121.27 119.49 122.78 115.93 125.16C115.85 126.58 115.82 128.08 115.68 129.56C115.54 131.12 115.22 132.66 115.13 134.22C115.05 135.67 114.27 137.05 114.64 138.68V138.69ZM63.49 88.7C64.76 89.63 66.24 89.98 67.68 90.33C69.87 90.86 72.08 91.3 74.28 91.75C75.21 91.94 76.16 92.15 77.11 92.16C79.22 92.17 81.33 92.06 83.44 91.99C83.54 91.99 83.64 91.84 83.76 91.74C83.95 89.8 84.39 87.85 83.65 85.76C83.05 85.75 82.45 85.68 81.85 85.73C79.94 85.88 78.04 85.84 76.15 85.46C72.48 84.73 68.72 84.33 65.41 82.34C65.05 82.12 64.59 81.8 64.15 82.17C63.93 84.31 63.72 86.41 63.49 88.72V88.7ZM115.85 123.46C117.29 122.45 118.36 121.61 119.53 120.93C120.69 120.25 121.94 119.72 123.13 119.13C121.37 108.91 115.04 98.31 108.22 94.59C111.16 99.06 113.09 103.51 114.16 108.33C115.24 113.2 115.82 118.13 115.85 123.46ZM92.7 16.91C92.21 17.51 91.93 17.9 91.6 18.23C89.31 20.51 86.56 21.22 83.51 20.26C79.64 19.05 77.26 15.76 76.98 11.71C76.89 10.41 77.2 9.28001 77.88 8.21001C78.82 6.74001 80.07 5.60001 81.63 4.81001C81.96 4.64001 82.48 4.64001 82.48 4.04001C81.01 2.70001 79.24 2.12001 77.26 2.11001C76.51 2.11001 75.76 2.10001 75 2.11001C72.4 2.15001 70.02 2.91001 67.86 4.33001C67.37 4.65001 66.93 5.04001 66.19 5.60001C67.21 5.62001 67.67 5.19001 68.21 4.96001C69.02 4.62001 69.78 4.65001 70.46 5.34001C72.01 6.91001 73.41 8.57001 74.31 10.6C75.54 13.36 76.39 16.23 76.83 19.23C76.98 20.22 77.04 21.24 77.44 22.3C78.79 22.16 80.07 21.95 81.35 21.92C85.18 21.84 89 21.84 92.83 21.8C93.22 21.8 93.6 21.74 94.06 21.71C93.98 20.01 93.37 18.58 92.69 16.89L92.7 16.91ZM91.65 13.32C91.55 12.55 91.48 11.87 91.37 11.2C90.99 8.97001 89.56 7.59001 87.58 6.74001C86.77 6.39001 85.9 6.19001 85.03 6.02001C84.58 5.93001 84.08 6.02001 83.62 6.10001C81.54 6.48001 80.38 7.96001 79.42 9.68001C78.75 10.89 78.68 12.13 79.17 13.42C79.96 15.51 81.44 16.94 83.4 17.92C85.33 18.88 87.26 18.68 89.07 17.65C90.74 16.7 91.38 15.06 91.64 13.32H91.65ZM53.51 166.66C52.87 166.74 52.06 166.68 51.42 166.98C50.63 167.34 49.9 167.48 49.07 167.26C48.82 167.19 48.53 167.26 48.26 167.3C46.5 167.53 44.75 167.77 43 168.03C42.68 168.08 42.38 168.24 42.15 168.32C42.89 170.02 43.78 171.59 44.25 173.26C44.72 174.93 44.76 176.72 45.02 178.64C48.26 178.24 51.49 177.96 54.63 177.4C55.42 175.6 55.58 173.86 55.61 172.07C55.64 170.02 55.22 168.17 53.51 166.65V166.66ZM62.67 163.2C64.57 166.34 65.46 169.75 65.82 173.4C66.19 177.16 65.09 180.61 64.11 184.3C66.31 183.63 68.16 182.88 69.23 180.92C69.42 180.57 69.7 180.25 70 179.98C70.9 179.17 71.37 178.13 71.71 177.01C72.27 175.16 72.43 173.26 72.2 171.35C72.02 169.86 71.74 168.39 70.46 167.33C70.06 167 69.86 166.43 69.54 165.99C68.61 164.71 67.48 163.63 66.03 162.94C64.92 162.41 63.82 162.32 62.66 163.2H62.67ZM48.56 46.9C49.79 47.71 50.81 48.19 51.56 48.93C52.41 49.77 53.27 50.68 53.55 51.95C53.61 52.22 53.87 52.44 54.06 52.72C54.25 52.51 54.38 52.42 54.42 52.31C55.85 48.17 57.01 43.96 57.29 39.56C57.33 38.88 57.37 38.19 57.33 37.51C57.31 37.15 57.12 36.79 56.99 36.35C54.31 37.59 51.93 39.06 49.55 40.54C48.97 40.9 48.68 41.47 48.58 42.05C48.3 43.73 48.01 45.42 48.55 46.91L48.56 46.9ZM154.94 288.07C154.7 288.53 154.55 288.69 154.51 288.88C154.18 290.65 154.19 292.4 154.88 294.1C155.61 295.89 156.57 297.55 158 298.85C159.31 300.03 160.69 301.17 162.15 302.15C165.11 304.12 168.31 305.64 171.66 306.85C173.19 307.4 174.73 307.91 176.74 308.16C175.98 307.67 175.55 307.37 175.1 307.11C172.37 305.56 169.74 303.86 167.27 301.91C164.37 299.62 161.65 297.12 159.68 293.96C158.37 291.86 156.51 290.26 154.93 288.07H154.94ZM50.37 86.41C46.49 87.74 43.41 90.04 41.76 92.87C40.02 95.86 39.26 99.54 39.83 102.53C41.22 100.87 42.48 99.18 43.93 97.69C45.4 96.18 47.05 94.85 48.78 93.3C48.76 93.41 48.83 93.27 48.8 93.15C48.62 92.26 48.95 91.75 49.82 91.44C50.38 91.24 50.96 90.93 51.39 90.52C52.2 89.75 53.12 89.21 54.12 88.74C54.51 88.56 55.08 88.48 55.07 87.79C53.59 87.35 52.1 86.91 50.37 86.4V86.41ZM40.51 165.93C40.57 165.59 40.61 165.46 40.62 165.32C40.63 165.18 40.62 165.05 40.62 164.91C40.77 163.57 41.32 162.94 42.6 162.69C43.06 162.6 43.55 162.58 44.03 162.59C46.42 162.64 48.6 163.25 50.28 165.07C51.31 164.92 52.27 164.83 53.19 164.62C53.96 164.45 54.72 164.27 55.26 163.5C55.57 163.05 56.24 162.82 56.78 162.56C57.13 162.39 57.54 162.34 57.87 162.24C58.32 160.41 58.37 159.41 58.1 157.79C57.63 157.64 57.37 158.05 57.01 158.21C56.51 158.43 56.04 158.8 55.52 158.86C54.15 159.02 52.89 159.55 51.57 159.88C50.85 160.06 50.09 160.12 49.34 160.13C46.37 160.18 43.52 159.51 40.71 158.64C40.23 158.49 39.76 158.2 39.11 158.34C39.42 160.9 39.6 163.38 40.5 165.93H40.51ZM69.99 183.61C71.64 183.36 72.83 182.79 73.93 181.99C75.19 181.07 76.06 179.92 76.32 178.32C76.52 177.11 76.78 175.9 77.1 174.72C77.69 172.56 77.65 170.41 77.14 168.24C77 167.64 76.94 167.03 76.77 166.44C76.27 164.71 75.17 163.44 73.59 162.63C72.52 162.09 71.9 162.28 70.9 163.32C71.25 164.24 71.52 165.22 71.98 166.1C72.92 167.88 73.55 169.73 73.68 171.73C73.9 175.06 73.56 178.27 71.48 181.08C70.97 181.77 70.6 182.57 70 183.6L69.99 183.61ZM6.18 172.93C0.57 175.93 1.01 183.96 6.15 187.25C7.34 188.01 8.92 187.9 9.96 186.95C10.6 186.36 11.14 185.63 11.57 184.87C12.63 182.98 12.95 180.91 12.83 178.75C12.74 177.06 12 175.77 10.61 174.82C9.24 173.89 7.73 173.31 6.19 172.94L6.18 172.93ZM53.74 63.86C53.69 63.07 53.65 62.59 53.64 62.12C53.62 60.63 53.12 59.34 52.17 58.19C51.21 57.04 50.36 55.8 49.16 54.87C48.78 54.57 48.45 54.22 48.62 53.62C49.09 53.2 49.64 53.3 50.1 53.6C50.67 53.96 51.16 54.45 51.71 54.84C51.89 54.97 52.16 54.99 52.48 55.09C52.65 54.23 52.32 53.61 52.04 53.02C51.64 52.16 51.16 51.33 50.68 50.51C49.68 48.79 47.66 48.73 46.56 50.39C46.3 50.78 46.12 51.24 45.98 51.68C45.34 53.74 45.62 55.73 46.59 57.61C47.5 59.39 48.73 60.93 50.3 62.17C51.25 62.93 52.36 63.39 53.74 63.83V63.86ZM85.66 91.34C86.7 91.29 87.65 91.31 88.57 91.18C89.91 90.99 91.24 90.67 92.57 90.43C93.67 90.23 94.22 89.57 94.25 88.46C94.29 86.9 94.35 85.33 94.38 83.76C94.38 83.31 94.31 82.86 94.26 82.25C91.27 83.4 88.45 84.49 85.65 85.58V91.34H85.66ZM77.36 163.09C77.78 164.24 78.33 165.27 78.5 166.37C78.79 168.18 78.92 170.02 78.95 171.85C78.99 174.79 78.44 177.67 77.79 180.53C77.67 181.04 77.61 181.56 77.48 182.34C78.12 182 78.6 181.87 78.9 181.56C79.41 181.03 79.88 180.42 80.23 179.77C81.43 177.48 82.67 175.19 82.31 172.46C82.29 172.33 82.33 172.19 82.35 172.05C82.55 170.67 82.3 169.32 82.01 168C81.69 166.51 80.96 165.21 79.87 164.12C79.17 163.42 78.34 163.09 77.37 163.08L77.36 163.09ZM61.76 80.72C58.47 81.24 55.24 80.9 51.78 80.56C51.87 82.1 51.61 83.5 51.99 84.96C53.71 85.43 55.44 85.82 57.21 85.9C58.68 85.97 59.98 85.27 61.35 84.88C62.21 84.64 62.6 83.64 62.39 82.68C62.25 82.03 61.99 81.41 61.76 80.72ZM92.16 152.33C92.16 152.94 92.16 153.47 92.16 154.01C92.16 155.1 93.1 155.53 94.02 155.2C94.72 154.95 95.45 154.7 96.05 154.28C97.04 153.59 98.14 153.32 99.29 153.16C100.29 153.02 101.3 152.89 102.21 152.77C103.64 150.34 106.23 149.95 108.46 148.73C108.07 148.19 108.17 147.48 107.59 147.31C105 148.34 102.59 149.44 100.08 150.25C97.57 151.07 94.97 151.61 92.17 152.33H92.16ZM82.76 164.88C83.96 167.25 84.36 169.78 84.1 172.42C84.07 172.73 84.19 173.05 84.25 173.42C85.74 173.13 87.12 172.85 88.52 172.57C88.57 172.25 88.69 171.97 88.64 171.72C88.14 169.35 88.38 166.97 88.55 164.6C88.57 164.35 88.46 164.1 88.41 163.88C86.94 163.76 84.26 164.24 82.75 164.89L82.76 164.88ZM40.36 182.36C41.31 182.23 41.57 181.65 41.81 181.1C43.59 177.2 42.89 173.51 40.73 170.01C40.23 169.2 39.47 168.56 38.55 168.2C38.13 168.04 37.67 168 36.8 167.81C38.39 170.15 39.59 172.27 40.09 174.69C40.61 177.18 40.38 179.71 40.35 182.36H40.36ZM91.98 156.33C90.93 156.08 90.28 155.9 89.63 155.78C87.34 155.35 86.28 155.57 86.67 158.72C86.85 160.16 87.56 161.18 88.85 161.99C89.4 159.94 90.24 158.06 91.98 156.33ZM110.26 33.66C110.51 37.38 110.72 40.66 110.94 43.93C112.48 41.14 113.03 38.23 112.5 35.15C111.81 34.69 111.2 34.28 110.26 33.65V33.66ZM46.96 165.49C45.56 164.53 44.09 164.29 42.43 164.86C42.53 165.3 42.62 165.66 42.74 166.16C44.2 165.93 45.58 165.71 46.96 165.49ZM61.6 87.07C60.69 87.06 60.2 87.33 59.68 87.85C60.21 88.08 60.62 88.26 61.15 88.49C61.31 87.99 61.42 87.63 61.6 87.07Z" fill="#1D262D"/>
<path fill-rule="evenodd" clip-rule="evenodd" d="M93.98 67.59C93.81 67.9 93.71 68.24 93.49 68.48C90.6 71.6 87.18 73.39 82.79 72.85C80.08 72.52 77.91 71.2 76.09 69.26C75.35 68.47 74.73 67.56 74.15 66.64C73.87 66.2 73.78 65.62 73.69 65.09C73.61 64.6 73.97 64.14 74.41 63.97C74.82 63.81 75.32 64.02 75.53 64.58C76.01 65.91 76.91 66.92 77.91 67.86C80.75 70.54 84.03 71.31 87.71 69.92C89.17 69.37 90.56 68.62 92 68.01C92.6 67.75 93.17 67.25 93.99 67.59H93.98Z" fill="#1D262D"/>
<path fill-rule="evenodd" clip-rule="evenodd" d="M91.11 55.33C91.13 57.85 89.05 59.81 86.84 59.7C86.42 59.68 85.99 59.59 85.81 59.17C85.61 58.69 86.01 58.43 86.32 58.18C86.85 57.76 87.42 57.39 87.95 56.96C88.75 56.32 88.89 55.47 88.49 54.58C88.07 53.65 87.55 52.77 87.07 51.87C86.72 51.21 86.3 50.58 86.01 49.9C85.83 49.48 85.75 48.98 85.79 48.52C85.81 48.25 86.11 47.93 86.37 47.79C86.52 47.71 86.95 47.86 87.07 48.03C88.3 49.9 89.52 51.78 90.66 53.71C90.99 54.27 91.03 55 91.11 55.33Z" fill="#1D262D"/>
<path fill-rule="evenodd" clip-rule="evenodd" d="M96.41 49.39C96.52 48.85 96.62 48.11 96.84 47.4C97.11 46.54 97.74 46.07 98.66 46.01C99.55 45.95 100.27 46.24 100.72 47.04C101.45 48.33 101.46 49.65 100.73 50.92C100.51 51.32 100.13 51.67 99.74 51.91C98.42 52.74 96.94 52.12 96.56 50.6C96.48 50.27 96.47 49.93 96.41 49.38V49.39Z" fill="#1D262D"/>
<path fill-rule="evenodd" clip-rule="evenodd" d="M69.31 49.36C69.28 48.15 69.61 47.35 70.29 46.7C71.14 45.88 72.4 45.96 73.17 46.88C74.39 48.34 73.78 50.81 72.02 51.52C70.86 51.98 69.78 51.49 69.45 50.3C69.34 49.91 69.33 49.5 69.31 49.36Z" fill="#1D262D"/>
<path fill-rule="evenodd" clip-rule="evenodd" d="M76.65 40.41C76.31 40.39 75.98 40.42 75.67 40.35C73.43 39.8 71.18 39.24 68.95 38.65C68.35 38.49 67.82 38.17 67.66 37.48C67.58 37.14 67.8 36.74 68.12 36.71C68.32 36.69 68.54 36.65 68.73 36.69C71.17 37.3 73.63 37.9 75.78 39.29C76.15 39.53 76.65 39.71 76.65 40.41Z" fill="#1D262D"/>
<path fill-rule="evenodd" clip-rule="evenodd" d="M101.98 36.75C101.11 37.37 100.32 38.02 99.46 38.54C98.29 39.25 97.07 39.86 95.87 40.51C95.69 40.61 95.5 40.69 95.31 40.75C94.77 40.92 94.25 40.76 94.05 40.38C93.83 39.97 93.93 39.43 94.4 39.13C96.18 37.98 98.03 36.95 100.09 36.37C100.9 36.15 101.2 36.23 101.99 36.75H101.98Z" fill="#1D262D"/>
<path fill-rule="evenodd" clip-rule="evenodd" d="M10.95 180.89C10.86 181.43 10.84 182.12 10.62 182.76C10.12 184.26 8.85 185.02 7.28 184.84C5.93 184.69 4.74 183.61 4.55 182.21C4.31 180.43 4.34 178.68 5.52 177.14C6.58 175.76 8.3 175.58 9.57 176.8C10.23 177.43 10.62 178.22 10.76 179.12C10.84 179.66 10.87 180.2 10.94 180.89H10.95ZM7.32 177.4C6.32 178.78 6.12 180.21 6.4 181.73C6.45 181.98 6.62 182.23 6.79 182.44C7.38 183.13 8.5 183.01 8.8 182.15C9.29 180.75 9.31 179.33 8.4 178.06C8.2 177.77 7.75 177.65 7.31 177.4H7.32Z" fill="#1D262D"/>
</g>
<defs>
<clipPath id="clip0_4_2632">
<rect width="261.89" height="339.61" fill="white"/>
</clipPath>
</defs>
</svg>
