<svg width="308" height="239" viewBox="0 0 308 239" fill="none" xmlns="http://www.w3.org/2000/svg">
<g clip-path="url(#clip0_4_2873)">
<path d="M213.881 41.0044H5.17328V209.455H213.881V41.0044Z" fill="#FA0A0B"/>
<path d="M213.881 41.0044H5.17328V43.9522H213.881V41.0044Z" fill="#A00E16"/>
<path d="M213.881 71.6579H5.17328V74.9826H213.881V71.6579Z" fill="#A00E16"/>
<path d="M213.881 79.4155H5.17328V83.8484H213.881V79.4155Z" fill="#A00E16"/>
<path d="M213.881 91.606H5.17328V96.593H213.881V91.606Z" fill="#A00E16"/>
<path d="M213.881 166.965H5.17328V209.455H213.881V166.965Z" fill="#A00E16"/>
<path d="M213.881 108.783H5.17328V113.216H213.881V108.783Z" fill="#A00E16"/>
<path d="M215.924 47.2769H0V54.4804H215.924V47.2769Z" fill="#FDCF00"/>
<path d="M215.924 189.13H0V196.333H215.924V189.13Z" fill="#FDCF00"/>
<path d="M196.363 152.204H163.703C160.564 152.204 158.019 154.744 158.019 157.878V174.235C158.019 177.369 160.564 179.909 163.703 179.909H196.363C199.502 179.909 202.047 177.369 202.047 174.235V157.878C202.047 154.744 199.502 152.204 196.363 152.204Z" fill="#311206"/>
<path d="M196.363 74.2512H163.703C160.564 74.2512 158.019 76.7916 158.019 79.9253V136.179C158.019 139.313 160.564 141.853 163.703 141.853H196.363C199.502 141.853 202.047 139.313 202.047 136.179V79.9253C202.047 76.7916 199.502 74.2512 196.363 74.2512Z" fill="#E8EDEF"/>
<path d="M166.522 87.7272C168.668 87.7272 170.408 85.9906 170.408 83.8484C170.408 81.7062 168.668 79.9696 166.522 79.9696C164.377 79.9696 162.637 81.7062 162.637 83.8484C162.637 85.9906 164.377 87.7272 166.522 87.7272Z" fill="#A00E16"/>
<path d="M166.522 101.026C168.668 101.026 170.408 99.2893 170.408 97.1471C170.408 95.0049 168.668 93.2683 166.522 93.2683C164.377 93.2683 162.637 95.0049 162.637 97.1471C162.637 99.2893 164.377 101.026 166.522 101.026Z" fill="#A00E16"/>
<path d="M166.522 114.325C168.668 114.325 170.408 112.588 170.408 110.446C170.408 108.304 168.668 106.567 166.522 106.567C164.377 106.567 162.637 108.304 162.637 110.446C162.637 112.588 164.377 114.325 166.522 114.325Z" fill="#A00E16"/>
<path d="M94.8734 128.554H25.4002C22.0036 128.554 19.25 131.303 19.25 134.694V171.908C19.25 175.299 22.0036 178.048 25.4002 178.048H94.8734C98.2701 178.048 101.024 175.299 101.024 171.908V134.694C101.024 131.303 98.2701 128.554 94.8734 128.554Z" fill="#E8EDEF"/>
<path d="M30.5291 144.247C32.6751 144.247 34.4147 142.51 34.4147 140.368C34.4147 138.226 32.6751 136.489 30.5291 136.489C28.3832 136.489 26.6436 138.226 26.6436 140.368C26.6436 142.51 28.3832 144.247 30.5291 144.247Z" fill="#A00E16"/>
<path d="M30.5291 157.545C32.6751 157.545 34.4147 155.809 34.4147 153.667C34.4147 151.524 32.6751 149.788 30.5291 149.788C28.3832 149.788 26.6436 151.524 26.6436 153.667C26.6436 155.809 28.3832 157.545 30.5291 157.545Z" fill="#A00E16"/>
<path d="M30.5291 170.844C32.6751 170.844 34.4147 169.107 34.4147 166.965C34.4147 164.823 32.6751 163.086 30.5291 163.086C28.3832 163.086 26.6436 164.823 26.6436 166.965C26.6436 169.107 28.3832 170.844 30.5291 170.844Z" fill="#A00E16"/>
<path d="M57.1727 136.689H43.4957C41.7544 136.689 40.3428 138.098 40.3428 139.836V149.234C40.3428 150.972 41.7544 152.381 43.4957 152.381H57.1727C58.914 152.381 60.3255 150.972 60.3255 149.234V139.836C60.3255 138.098 58.914 136.689 57.1727 136.689Z" fill="#A00E16"/>
<path d="M82.3287 136.689H68.6517C66.9104 136.689 65.4988 138.098 65.4988 139.836V149.234C65.4988 150.972 66.9104 152.381 68.6517 152.381H82.3287C84.07 152.381 85.4815 150.972 85.4815 149.234V139.836C85.4815 138.098 84.07 136.689 82.3287 136.689Z" fill="#A00E16"/>
<path d="M46.0712 161.978H42.9184V171.021H46.0712V161.978Z" fill="#A00E16"/>
<path d="M51.9106 161.978H48.7578V171.021H51.9106V161.978Z" fill="#A00E16"/>
<path d="M57.7278 161.978H54.575V171.021H57.7278V161.978Z" fill="#A00E16"/>
<path d="M30.7068 43.9522H12.2117V32.4932C12.2117 29.0355 15.0315 26.2206 18.4951 26.2206H24.4233C27.887 26.2206 30.7068 29.0355 30.7068 32.4932V43.9522Z" fill="#311206"/>
<path d="M225.738 5.91794H16.2748V37.6797H17.9401L17.9845 37.724L18.0289 37.6797H46.1601L46.2045 37.724L46.2489 37.6797H47.5367L47.5811 37.724L47.6255 37.6797H75.7567L75.8011 37.724L75.8455 37.6797H77.1333L77.1777 37.724L77.2221 37.6797H105.353L105.398 37.724L105.442 37.6797H106.73L106.774 37.724L106.819 37.6797H134.95L134.994 37.724L135.039 37.6797H136.326L136.371 37.724L136.415 37.6797H164.546L164.591 37.724L164.635 37.6797H165.923L165.967 37.724L166.012 37.6797H194.143L194.187 37.724L194.232 37.6797H195.52L195.564 37.724L195.608 37.6797H223.74L223.784 37.724L223.828 37.6797H225.671V5.91794H225.738ZM211.306 22.0759L223.518 9.88539V34.2664L211.306 22.0759ZM33.682 22.0759L45.8936 9.88539V34.2664L33.682 22.0759ZM30.5292 22.0759L18.4951 34.089V10.0627L30.5292 22.0759ZM19.6941 8.13439H44.4949L32.1056 20.5022L19.7163 8.13439H19.6941ZM48.1139 10.0627L60.148 22.0759L48.1139 34.089V10.0627ZM49.3129 8.13439H74.1137L61.7244 20.5022L49.3351 8.13439H49.3129ZM61.7022 23.6496L73.5364 35.4632H49.8458L61.68 23.6496H61.7022ZM63.2786 22.0759L75.4902 9.88539V34.2664L63.2786 22.0759ZM77.7105 10.0627L89.7446 22.0759L77.7105 34.089V10.0627ZM78.9095 8.13439H103.71L91.321 20.5022L78.9317 8.13439H78.9095ZM91.321 23.6496L103.155 35.4632H79.4646L91.2988 23.6496H91.321ZM92.8752 22.0759L105.087 9.88539V34.2664L92.8752 22.0759ZM107.307 10.0627L119.341 22.0759L107.307 34.089V10.0627ZM108.506 8.13439H133.307L120.918 20.5022L108.528 8.13439H108.506ZM120.918 23.6496L132.752 35.4632H109.061L120.895 23.6496H120.918ZM122.494 22.0759L134.706 9.88539V34.2664L122.494 22.0759ZM136.926 10.0627L148.96 22.0759L136.926 34.089V10.0627ZM138.125 8.13439H162.926L150.536 20.5022L138.147 8.13439H138.125ZM150.514 23.6496L162.348 35.4632H138.658L150.492 23.6496H150.514ZM152.091 22.0759L164.302 9.88539V34.2664L152.091 22.0759ZM166.523 10.0627L178.557 22.0759L166.523 34.089V10.0627ZM167.721 8.13439H192.522L180.133 20.5022L167.744 8.13439H167.721ZM180.133 23.6496L191.967 35.4632H168.277L180.111 23.6496H180.133ZM181.687 22.0759L193.899 9.88539V34.2664L181.687 22.0759ZM196.119 10.0627L208.153 22.0759L196.119 34.089V10.0627ZM197.318 8.13439H222.119L209.73 20.5022L197.34 8.13439H197.318ZM32.1056 23.6496L43.9398 35.4632H20.2492L32.0834 23.6496H32.1056ZM197.873 35.4632L209.707 23.6496L221.542 35.4632H197.851H197.873Z" fill="#311206"/>
<path d="M248.119 43.5976H223.318C220.143 43.5976 217.589 41.0265 217.589 37.8792V0H253.847V37.857C253.847 41.0265 251.271 43.5754 248.119 43.5754V43.5976Z" fill="#311206"/>
<path d="M268.279 71.3033C268.456 70.461 268.123 69.5745 267.613 68.7987C267.013 67.9343 266.214 67.1364 265.725 66.2498C264.926 64.8312 264.904 63.2132 264.86 61.6617C264.815 60.1102 264.749 58.4922 263.838 57.0958C263.017 55.8103 261.285 54.7686 259.464 54.835C257.644 54.7686 255.912 55.7881 255.09 57.0958C254.202 58.4922 254.113 60.1102 254.069 61.6617C254.024 63.2132 254.002 64.8312 253.203 66.2498C252.692 67.1585 251.893 67.9343 251.316 68.7987C250.783 69.5745 250.45 70.461 250.65 71.3033H268.323H268.279Z" fill="#311206"/>
<path d="M260.619 51.9093H258.199V78.3294H260.619V51.9093Z" fill="#311206"/>
<path d="M213.881 209.455H284.931V139.548L275.228 83.7154C274.429 79.1052 270.41 75.7361 265.725 75.7361H213.904V209.455H213.881Z" fill="#A00E16"/>
<path d="M213.881 133.164V209.455H304.092V139.548L302.671 133.164H213.881Z" fill="#FA0A0B"/>
<path d="M304.07 140.013H213.881V144.823H304.07V140.013Z" fill="#A00E16"/>
<path d="M260.974 169.98L258.221 166.19C255.712 162.732 251.715 160.693 247.43 160.693H213.881V209.455H304.07V175.476H271.72C267.457 175.476 263.439 173.437 260.93 169.98H260.974Z" fill="#A00E16"/>
<path d="M245.898 178.602H213.881V209.455H276.139V208.812C276.139 192.144 262.595 178.624 245.898 178.624V178.602Z" fill="#311206"/>
<path d="M224.25 75.7361H213.881V209.455H224.25V75.7361Z" fill="#311206"/>
<path d="M238.682 67.225H228.513V76.0908H238.682V67.225Z" fill="#311206"/>
<path d="M239.371 71.6579H229.401C227.292 71.6579 225.693 69.7739 226.071 67.6904L228.136 55.8989C228.424 54.2809 229.823 53.1062 231.466 53.1062H237.328C238.971 53.1062 240.392 54.2809 240.658 55.8989L242.723 67.6904C243.078 69.7517 241.48 71.6579 239.393 71.6579H239.371Z" fill="#FDCF00"/>
<path d="M249.451 133.164C246.253 133.164 243.678 130.571 243.678 127.402V87.2395C243.678 84.0478 246.276 81.4767 249.451 81.4767H261.462C267.813 81.4767 273.186 86.22 273.941 92.5147L278.137 126.715C278.337 128.355 277.826 129.995 276.738 131.236C275.65 132.477 274.052 133.187 272.409 133.187H249.451V133.164Z" fill="#E8EDEF"/>
<path d="M249.451 130.948H272.409C274.54 130.948 276.205 129.086 275.939 126.958L271.742 92.7585C271.099 87.572 266.702 83.671 261.463 83.671H249.451C247.475 83.671 245.898 85.2669 245.898 87.2173V127.379C245.898 129.352 247.497 130.926 249.451 130.926V130.948Z" fill="#311206"/>
<path d="M232.976 81.4546H236.773C239.97 81.4546 242.546 84.0478 242.546 87.2174V127.379C242.546 130.571 239.948 133.142 236.773 133.142H232.976C229.779 133.142 227.203 130.549 227.203 127.379V87.2174C227.203 84.0257 229.801 81.4546 232.976 81.4546Z" fill="#E8EDEF"/>
<path d="M236.795 83.671H232.976C231.014 83.671 229.424 85.2588 229.424 87.2173V127.402C229.424 129.36 231.014 130.948 232.976 130.948H236.795C238.757 130.948 240.347 129.36 240.347 127.402V87.2173C240.347 85.2588 238.757 83.671 236.795 83.671Z" fill="#311206"/>
<path d="M308 145.865H300.962V164.882H308V145.865Z" fill="#FDCF00"/>
<path d="M307.889 186.448H286.419V205.465H307.889V186.448Z" fill="#311206"/>
<path d="M277.537 90.2318H269.211V112.13H277.537V90.2318Z" fill="#E8EDEF"/>
<path d="M45.3385 183.212C60.6142 183.212 72.9813 195.58 72.9813 210.829C72.9813 226.078 60.6142 238.446 45.3385 238.446C30.0629 238.446 17.6736 226.078 17.6736 210.829C17.6736 195.58 30.0629 183.212 45.3385 183.212ZM64.7217 210.829C64.7217 200.146 56.0404 191.479 45.3385 191.479C34.6367 191.479 25.9331 200.146 25.9331 210.829C25.9331 221.512 34.6145 230.179 45.3385 230.179C56.0626 230.179 64.7217 221.512 64.7217 210.829ZM47.5366 232.04C54.3529 231.996 60.9916 227.962 64.1445 221.933C59.4818 226.499 53.7535 229.979 47.5366 232.04ZM45.1609 186.071C40.3206 185.251 35.214 186.559 31.2174 189.374C27.2209 192.211 24.3345 196.488 22.9135 201.165C27.4429 193.075 35.9467 187.312 45.1609 186.071Z" fill="#311206"/>
<path d="M45.3385 191.479C56.0404 191.479 64.7217 200.146 64.7217 210.829C64.7217 221.512 56.0404 230.178 45.3385 230.178C34.6367 230.178 25.9331 221.512 25.9331 210.829C25.9331 200.146 34.6145 191.479 45.3385 191.479ZM58.8601 210.829C58.8601 203.382 52.7987 197.331 45.3385 197.331C37.8783 197.331 31.7947 203.382 31.7947 210.829C31.7947 218.276 37.8561 224.327 45.3385 224.327C52.8209 224.327 58.8601 218.298 58.8601 210.829Z" fill="#543832"/>
<path d="M64.1445 221.933C60.9916 227.962 54.3529 231.996 47.5366 232.04C53.7535 229.979 59.4818 226.499 64.1445 221.933Z" fill="#543832"/>
<path d="M45.3385 197.331C52.7987 197.331 58.8601 203.382 58.8601 210.829C58.8601 218.276 52.7987 224.327 45.3385 224.327C37.8783 224.327 31.7947 218.298 31.7947 210.829C31.7947 203.359 37.8561 197.331 45.3385 197.331Z" fill="#E8EDEF"/>
<path d="M31.2174 189.374C35.214 186.559 40.3207 185.251 45.1609 186.071C35.9467 187.312 27.4429 193.075 22.9135 201.165C24.3345 196.488 27.2209 192.211 31.2174 189.374Z" fill="#543832"/>
<path d="M104.176 183.212C119.452 183.212 131.819 195.58 131.819 210.829C131.819 226.078 119.452 238.446 104.176 238.446C88.9008 238.446 76.5115 226.078 76.5115 210.829C76.5115 195.58 88.9008 183.212 104.176 183.212ZM123.56 210.829C123.56 200.146 114.878 191.479 104.176 191.479C93.4746 191.479 84.7711 200.146 84.7711 210.829C84.7711 221.512 93.4524 230.179 104.176 230.179C114.901 230.179 123.56 221.512 123.56 210.829ZM106.375 232.04C113.191 231.996 119.83 227.962 122.982 221.933C118.32 226.499 112.591 229.979 106.375 232.04ZM103.999 186.071C99.1586 185.251 94.0519 186.559 90.0554 189.374C86.0588 192.211 83.1724 196.488 81.7514 201.165C86.2809 193.075 94.7846 187.312 103.999 186.071Z" fill="#311206"/>
<path d="M104.176 191.479C114.878 191.479 123.56 200.146 123.56 210.829C123.56 221.512 114.878 230.178 104.176 230.178C93.4746 230.178 84.7711 221.512 84.7711 210.829C84.7711 200.146 93.4524 191.479 104.176 191.479ZM117.698 210.829C117.698 203.382 111.637 197.331 104.176 197.331C96.7163 197.331 90.6326 203.382 90.6326 210.829C90.6326 218.276 96.6941 224.327 104.176 224.327C111.659 224.327 117.698 218.298 117.698 210.829Z" fill="#543832"/>
<path d="M122.982 221.933C119.83 227.962 113.191 231.996 106.375 232.04C112.591 229.979 118.32 226.499 122.982 221.933Z" fill="#543832"/>
<path d="M104.176 197.331C111.637 197.331 117.698 203.382 117.698 210.829C117.698 218.276 111.637 224.327 104.176 224.327C96.7162 224.327 90.6326 218.298 90.6326 210.829C90.6326 203.359 96.694 197.331 104.176 197.331Z" fill="#E8EDEF"/>
<path d="M90.0554 189.374C94.0519 186.559 99.1586 185.251 103.999 186.071C94.7846 187.312 86.2809 193.075 81.7515 201.165C83.1725 196.488 86.0589 192.211 90.0554 189.374Z" fill="#543832"/>
<path d="M273.312 215.247C275.75 200.19 265.499 186.012 250.415 183.578C235.332 181.145 221.129 191.379 218.691 206.436C216.254 221.493 226.505 235.672 241.588 238.105C256.671 240.538 270.875 230.305 273.312 215.247Z" fill="#311206"/>
<path d="M253.454 228.703C263.335 224.591 268.006 213.261 263.887 203.397C259.768 193.534 248.419 188.871 238.538 192.983C228.657 197.095 223.986 208.424 228.105 218.288C232.224 228.152 243.574 232.814 253.454 228.703Z" fill="#543832"/>
<path d="M259.509 210.829C259.509 218.298 253.447 224.327 245.987 224.327C238.527 224.327 232.465 218.276 232.465 210.829C232.465 203.382 238.527 197.331 245.987 197.331C253.447 197.331 259.509 203.382 259.509 210.829Z" fill="#E8EDEF"/>
<path d="M223.562 201.165C228.091 193.075 236.595 187.312 245.809 186.071C240.991 185.229 235.885 186.559 231.888 189.374C227.892 192.211 225.005 196.466 223.584 201.143L223.562 201.165Z" fill="#543832"/>
<path d="M248.185 232.04C255.001 231.996 261.64 227.962 264.793 221.933C260.13 226.499 254.38 230.001 248.185 232.04Z" fill="#543832"/>
</g>
<defs>
<clipPath id="clip0_4_2873">
<rect width="308" height="239" fill="white"/>
</clipPath>
</defs>
</svg>
