<svg width="133" height="341" viewBox="0 0 133 341" fill="none" xmlns="http://www.w3.org/2000/svg">
<g clip-path="url(#clip0_4_2705)">
<path fill-rule="evenodd" clip-rule="evenodd" d="M132.83 317.27C132.83 330.34 103.1 340.94 66.42 340.94C29.74 340.94 0 330.34 0 317.27C0 304.2 29.73 293.6 66.41 293.6C103.09 293.6 132.82 304.2 132.82 317.27H132.83Z" fill="#96A6BB"/>
<path fill-rule="evenodd" clip-rule="evenodd" d="M41.74 203.41C46.48 205.13 51.17 205.95 55.97 205.86C56.57 207.13 57.65 207.73 58.68 208.31C60.8 209.5 63.11 210.06 65.57 209.93C67 209.86 68.44 209.87 69.86 209.76C71.54 209.63 73 209.05 74.19 207.74C75.26 206.56 76.6 205.84 78.32 205.84C82.53 205.84 86.59 204.99 90.56 203.62C90.69 203.58 90.83 203.59 91.12 203.57C91.29 204.03 91.54 204.51 91.63 205.01C91.93 206.76 92.18 208.52 92.42 210.28C92.91 213.94 93.4 217.59 93.84 221.26C94.02 222.74 93.95 224.26 94.18 225.74C94.67 228.79 94.46 231.87 94.64 234.94C94.79 237.6 94.86 240.27 94.98 242.93C95.02 243.73 94.93 244.53 95.54 245.25C95.8 245.55 95.74 246.16 95.75 246.63C95.84 252.71 95.97 258.8 95.98 264.88C95.98 269.53 95.87 274.18 95.72 278.82C95.6 282.65 95.34 286.47 95.15 290.29C95.08 291.65 95.02 293.02 94.93 294.38C94.83 295.88 94.66 297.37 94.58 298.87C94.53 299.91 94.04 300.5 93.04 300.72C90.77 301.21 88.52 301.8 86.24 302.19C84.01 302.58 81.75 302.5 79.5 302.16C78.39 301.99 77.74 301.5 77.61 300.38C77.54 299.77 77.44 299.16 77.41 298.55C76.73 286.66 76.75 274.78 77.31 262.89C77.34 262.14 77.36 261.38 77.31 260.64C77.05 256.96 76.84 253.28 76.48 249.61C75.8 242.74 74.85 235.91 72.81 229.27C72.23 227.37 71.52 225.53 70.54 223.79C68.86 220.82 66.26 219.07 63.07 218.1C62.57 217.95 62 218.01 61.46 218.04C61.32 218.04 61.12 218.3 61.07 218.47C61.03 218.64 61.09 218.94 61.21 219.02C61.65 219.32 62.14 219.55 62.66 219.84C62.64 220.01 62.68 220.24 62.59 220.38C60.55 223.62 59.42 227.19 58.9 230.94C58.37 234.8 57.98 238.67 57.58 242.55C57.22 246.09 56.8 249.62 56.64 253.17C56.26 261.84 55.65 270.5 55.91 279.2C56.03 283.29 55.82 287.4 55.72 291.5C55.66 293.82 55.54 296.15 55.42 298.46C55.38 299.21 55.28 299.95 55.15 300.69C55.01 301.52 54.49 301.96 53.63 302.11C51.52 302.5 49.41 302.52 47.3 302.31C44.57 302.04 41.94 301.29 39.31 300.54C39.06 300.47 38.83 300.3 38.57 300.16C38.14 298.76 38.01 297.33 37.93 295.91C37.72 291.95 37.48 287.99 37.42 284.03C37.39 282.06 37.49 280.08 37.38 278.11C37.22 275.38 37.1 272.65 36.99 269.92C36.69 262.46 37.34 255.03 37.61 247.58C37.83 241.57 38.12 235.56 38.34 229.55C38.46 226.07 38.76 222.61 39.23 219.17C39.76 215.31 40.25 211.45 40.77 207.59C40.95 206.25 41.07 204.89 41.73 203.42L41.74 203.41Z" fill="#394857"/>
<path fill-rule="evenodd" clip-rule="evenodd" d="M83.9 191.63C82.35 191.76 80.92 191.82 79.5 192.01C78.1 192.2 76.73 192.53 75.26 192.81C75.15 192.52 74.99 192.28 74.97 192.04C74.93 191.47 74.59 191.14 74.11 191.01C73.32 190.8 72.52 190.59 71.71 190.55C69.39 190.46 67.07 190.47 64.75 190.42C63.17 190.39 61.62 190.44 60.06 190.77C58.7 191.06 57.37 191.32 56.59 192.39C53.91 192.1 51.42 191.84 48.9 191.57C48.72 190.65 48.57 189.85 48.39 188.91C49.52 187.11 49.81 184.96 49.94 182.76C50.04 181.05 49.6 179.52 48.63 178.12C47.28 176.15 45.5 174.7 43.31 173.77C42.63 173.48 41.93 173.23 41.19 172.94C40.95 170.39 40.71 167.89 40.49 165.38C39.5 153.8 38.84 142.2 38.66 130.58C38.62 127.71 38.39 124.85 38.21 121.98C38.16 121.1 38 120.22 37.87 119.34C37.82 118.99 37.65 118.6 37.25 118.71C36.99 118.79 36.69 119.14 36.63 119.42C36.52 119.95 36.56 120.51 36.57 121.05C36.62 123.37 36.67 125.68 36.38 128C36.23 129.21 36.38 130.46 36.39 131.69C36.39 132.01 36.39 132.34 36.39 132.85C35.7 132.64 35.18 132.53 34.71 132.34C32.12 131.27 29.55 130.17 26.96 129.1C24.42 128.05 22.11 126.6 19.77 125.17C18.74 124.54 18.37 123.46 18.8 122.34C19.24 121.19 19.72 120.05 20.31 118.98C21.92 116.04 23.58 113.13 25.25 110.24C27.14 106.98 29.74 104.44 32.99 102.51C36.72 100.29 40.67 98.65 44.86 97.56C46.69 97.08 48.51 97.1 50.26 97.79C50.75 98.45 50.49 99.15 50.46 99.81C50.4 101.72 50.27 103.63 50.25 105.54C50.25 106.56 50.34 107.59 50.51 108.6C50.85 110.55 52.28 111.36 54.14 110.61C55.15 110.2 56.07 109.59 57.03 109.07C57.49 108.82 57.96 108.58 58.56 108.26C58.78 109.05 58.97 109.68 59.12 110.33C59.31 111.13 59.37 111.97 59.67 112.72C60.31 114.37 60.2 116.01 59.98 117.73C59.39 122.41 58.92 127.1 58.41 131.79C57.69 138.31 56.81 144.81 55.33 151.21C54.71 153.87 54.19 156.55 53.69 159.24C53.48 160.38 53.43 161.55 53.35 162.7C53.27 163.98 53.65 165.11 54.51 166.09C56.21 168.05 57.79 170.13 59.6 171.99C61.26 173.7 63.1 175.23 64.93 176.77C66.03 177.69 66.52 177.66 67.67 176.83C69.89 175.23 72.04 173.57 73.75 171.38C75.09 169.66 76.53 168 78 166.38C79.09 165.18 79.47 163.83 79.39 162.25C79.28 159.85 78.77 157.51 78.29 155.17C77.49 151.22 76.63 147.28 75.88 143.32C74.95 138.42 74.51 133.44 73.96 128.49C73.5 124.28 73 120.07 72.52 115.87C72.48 115.54 72.4 115.18 72.48 114.87C73 112.75 73.57 110.64 74.15 108.4C74.52 108.53 74.9 108.61 75.22 108.79C76.06 109.25 76.86 109.77 77.7 110.23C78.12 110.46 78.56 110.67 79.02 110.78C80.66 111.2 81.87 110.44 82.2 108.78C82.36 107.98 82.46 107.15 82.46 106.34C82.46 104.43 82.41 102.52 82.35 100.6C82.32 99.78 82.24 98.97 82.18 98.19C82.79 97.52 83.55 97.42 84.28 97.34C85.58 97.22 86.85 97.29 88.14 97.63C92.94 98.9 97.41 100.91 101.51 103.69C103.5 105.04 105.26 106.69 106.52 108.76C108.16 111.44 109.73 114.16 111.27 116.9C112.11 118.39 112.82 119.94 113.58 121.47C113.73 121.78 113.87 122.09 113.98 122.42C114.34 123.54 113.98 124.6 112.94 125.24C110.55 126.7 108.17 128.17 105.57 129.25C103.11 130.27 100.66 131.3 98.19 132.32C97.7 132.52 97.19 132.69 96.53 132.93C96.45 132.5 96.34 132.19 96.36 131.89C96.46 130.11 96.4 128.35 96.24 126.57C96.08 124.81 96.22 123.02 96.22 121.25C96.22 120.64 96.24 120.02 96.16 119.41C96.1 118.99 95.82 118.67 95.17 118.71C95.08 118.94 94.89 119.22 94.86 119.52C94.6 122.38 94.28 125.23 94.16 128.1C93.94 133.22 93.81 138.35 93.69 143.47C93.55 149.07 93.11 154.66 92.66 160.25C92.32 164.46 91.98 168.68 91.63 172.97C90.91 173.25 90.21 173.5 89.53 173.79C87.27 174.74 85.44 176.23 84.07 178.28C83.16 179.63 82.73 181.1 82.84 182.74C82.99 184.86 83.13 186.98 84.39 188.85C84.23 189.71 84.07 190.57 83.87 191.67L83.9 191.63ZM75.51 132.9C75.54 136.15 76.17 139.28 77.2 142.35C77.75 143.99 78.55 145.48 79.64 146.82C81.18 148.71 84.11 149.44 86.32 148.42C86.73 148.23 87.15 147.89 87.4 147.51C88.5 145.79 89.65 144.09 90.38 142.15C91.73 138.57 91.96 134.84 92.04 131.09C92.07 129.43 91.67 128.96 90.11 128.37C89.86 128.27 89.59 128.18 89.33 128.13C88.2 127.93 87.33 127.3 86.56 126.49C86.28 126.19 85.99 125.9 85.71 125.61C85.17 125.05 84.5 125.02 83.81 125.23C83.49 125.33 83.19 125.51 82.92 125.72C81.41 126.84 79.72 127.53 77.89 127.91C77.42 128.01 76.96 128.14 76.53 128.33C76.07 128.53 75.77 128.9 75.74 129.43C75.67 130.59 75.6 131.75 75.53 132.91L75.51 132.9Z" fill="#274675"/>
<path fill-rule="evenodd" clip-rule="evenodd" d="M38.06 43.14C38.32 43.46 38.53 43.64 38.64 43.87C40.43 47.54 43.49 49.69 47.19 51.09C49.52 51.97 51.96 52.29 54.42 52.43C56.12 52.53 57.84 52.54 59.54 52.43C64.05 52.15 68.55 52.17 73.06 52.43C76.96 52.66 80.86 52.51 84.63 51.33C87.55 50.41 90.15 48.92 92.13 46.55C92.95 45.56 93.59 44.42 94.37 43.26C94.6 43.57 94.85 43.85 95.04 44.18C95.52 45.01 95.96 45.86 96.44 46.68C97.07 47.77 97.38 48.91 97.4 50.18C97.48 53.94 97.68 57.69 97.74 61.45C97.83 66.52 97.38 71.55 96.59 76.56C96.44 77.5 96.25 78.44 96.04 79.38C95.18 83.3 93.22 86.55 90.38 89.39C85.97 93.8 80.62 96.34 74.64 97.65C72.25 98.18 69.8 98.54 67.35 98.74C65.73 98.87 64.07 98.69 62.45 98.48C58.51 97.96 54.67 97.04 51 95.45C46.3 93.42 42.51 90.27 39.4 86.26C38.3 84.84 37.61 83.2 37.06 81.5C36.21 78.89 35.77 76.19 35.45 73.48C34.76 67.7 34.59 61.9 34.87 56.08C34.96 54.17 35.02 52.26 35.08 50.34C35.12 49.02 35.38 47.78 36.09 46.63C36.77 45.53 37.36 44.38 38.04 43.14H38.06ZM77.91 78.1C75.75 80.81 73.25 82.66 70.31 83.87C66.91 85.26 63.53 85.1 60.21 83.51C58.65 82.76 57.36 81.67 56.12 80.48C55.68 80.06 55.21 79.66 54.7 79.34C54.53 79.23 54.13 79.28 53.95 79.41C53.77 79.55 53.6 79.91 53.65 80.11C53.77 80.56 53.94 81.04 54.25 81.37C55.13 82.32 56.01 83.29 57.01 84.09C60.41 86.82 64.36 87.7 68.56 86.87C72.57 86.08 75.91 84.03 78.19 80.51C78.45 80.11 78.76 79.75 79.02 79.35C79.08 79.25 79.05 79.09 79.07 78.84C78.74 78.63 78.36 78.39 77.92 78.11L77.91 78.1ZM67.38 77.64C66.78 76.79 66.09 76.45 65.45 76.1C64.62 75.65 64.29 74.99 64.31 74.1C64.32 73.35 64.34 72.6 64.38 71.86C64.5 69.69 64.65 67.51 64.75 65.34C64.77 64.81 64.69 64.26 64.56 63.75C64.51 63.55 64.2 63.36 63.96 63.28C63.59 63.16 63.25 63.38 63.12 63.7C62.94 64.13 62.82 64.6 62.78 65.07C62.53 67.85 62.31 70.63 62.1 73.41C62.06 74.02 62.1 74.64 62.16 75.24C62.26 76.26 62.77 77.05 63.65 77.55C64.77 78.18 65.94 78.26 67.38 77.64ZM53.08 67.43C53.08 65.97 52.23 64.72 50.94 64.3C49.48 63.82 48.18 64.71 48.05 66.22C47.94 67.52 48.61 68.42 49.51 69.18C50.24 69.8 51.09 69.91 51.97 69.44C52.77 69.01 53.08 68.3 53.08 67.42V67.43ZM79.87 69.84C81.9 69.84 82.85 68.51 82.18 66.6C82.07 66.28 81.97 65.93 81.77 65.67C81.53 65.36 81.22 65.04 80.87 64.89C79.92 64.49 78.99 64.65 78.2 65.32C77.41 66 77.23 67.18 77.68 68.34C78.08 69.36 78.77 69.83 79.87 69.83V69.84ZM86.79 55.62C86.13 55.33 85.83 55.09 85.54 55.09C84.59 55.09 83.63 55.09 82.7 55.23C81.22 55.43 79.76 55.73 78.29 56.01C77.96 56.07 77.63 56.17 77.33 56.32C76.75 56.6 76.69 57.56 77.27 57.83C77.74 58.05 78.31 58.24 78.81 58.19C81.04 57.95 83.25 57.56 85.32 56.62C85.73 56.44 86.07 56.12 86.79 55.63V55.62ZM54.42 57.89C53.57 57.08 52.82 56.82 52.05 56.59C49.64 55.88 47.23 55.15 44.82 54.44C44.56 54.36 44.27 54.27 44.03 54.33C43.73 54.41 43.34 54.59 43.24 54.83C43.14 55.06 43.27 55.56 43.47 55.71C43.95 56.07 44.51 56.34 45.08 56.55C47.96 57.63 50.92 58.24 54.42 57.88V57.89Z" fill="#FFD6CC"/>
<path fill-rule="evenodd" clip-rule="evenodd" d="M36.12 39.1C32.43 37.29 29.78 34.74 28.28 31.11C27.71 29.73 27.22 28.3 26.72 26.89C26.49 26.24 26.63 25.6 26.72 24.91C27.18 21.14 29.46 18.45 31.9 15.86C33.54 14.11 35.5 12.73 37.53 11.44C41.83 8.73002 46.45 6.71002 51.23 5.01002C54.32 3.91002 57.45 2.93002 60.7 2.41002C62.44 2.13002 64.16 1.71002 65.94 1.69002C68.35 1.66002 70.7 2.10002 73.01 2.62002C80.45 4.29002 87.53 6.96002 94.09 10.89C95.73 11.87 97.28 13 98.79 14.18C101.47 16.27 103.54 18.88 105.02 21.95C105.34 22.62 105.8 23.25 105.59 24.07C105.57 24.13 105.59 24.21 105.62 24.27C106.37 25.86 105.78 27.33 105.21 28.8C104.3 31.16 103.29 33.45 101.54 35.37C100.08 36.97 98.34 38.08 96.41 39.12C94.79 35.6 91.57 34.31 88.44 32.96C87.2 32.43 85.83 32.17 84.49 31.91C81 31.25 77.52 30.49 73.97 30.24C68.17 29.84 62.35 29.76 56.57 30.45C53.19 30.86 49.83 31.54 46.48 32.21C43.69 32.77 41.23 34.12 38.91 35.72C38.3 36.14 37.73 36.66 37.25 37.23C36.82 37.74 36.55 38.38 36.13 39.08L36.12 39.1ZM74.92 15.5C74.82 14.67 74.8 14.05 74.66 13.46C73.68 9.43002 69.12 4.95002 63.16 6.45002C59.86 7.28002 57.5 9.35002 56.73 12.87C56.66 13.2 56.54 13.52 56.42 13.84C55.82 15.59 55.88 17.37 56.45 19.07C58.57 25.5 65.29 27.74 70.46 23.5C72.35 21.94 73.7 20.01 74.43 17.67C74.67 16.9 74.79 16.09 74.92 15.49V15.5Z" fill="#274675"/>
<path fill-rule="evenodd" clip-rule="evenodd" d="M38.83 171.44C39.51 172.4 38.16 172.61 38.35 173.36C38.73 174.17 39.31 174.66 40.25 174.93C41.48 175.28 42.69 175.82 43.81 176.45C45.67 177.47 46.88 179.13 47.81 181C47.96 181.3 48.11 181.66 48.08 181.96C47.92 183.44 47.87 184.95 47.22 186.54C46.8 186.16 46.43 185.9 46.15 185.57C44.37 183.47 42.39 181.6 39.95 180.27C39.47 180.01 38.97 179.79 38.46 179.59C38.11 179.45 37.72 179.58 37.6 179.91C37.49 180.19 37.49 180.63 37.64 180.85C37.91 181.22 38.32 181.52 38.71 181.77C40.98 183.23 42.89 185.06 44.6 187.13C44.99 187.6 45.4 188.08 45.9 188.43C46.59 188.92 46.86 189.56 46.87 190.35C46.89 191.25 46.24 191.65 45.55 192.01C44.4 191.94 43.44 191.41 42.66 190.64C41.5 189.48 40.42 188.26 39.34 187.03C38.53 186.11 37.78 185.13 36.99 184.19C36.91 184.1 36.76 184.08 36.63 184.02C36.1 184.1 36.01 184.53 36.06 184.93C36.09 185.25 36.24 185.6 36.43 185.87C37.76 187.69 39.02 189.57 40.48 191.27C41.4 192.34 42.63 193.13 43.86 194.17C43.81 194.38 43.79 194.79 43.64 195.14C43.15 196.27 42.46 196.58 41.36 195.99C40.53 195.54 39.74 194.96 39.1 194.27C37.93 193.03 36.9 191.66 35.78 190.37C35.43 189.96 35.03 189.58 34.61 189.25C34.49 189.15 34.15 189.16 34.04 189.26C33.86 189.42 33.67 189.72 33.71 189.92C33.78 190.3 33.97 190.69 34.18 191.03C35.78 193.49 37.5 195.86 39.87 197.64C39.67 198.41 38.97 198.18 38.59 198.5C36.89 197.42 35.43 196.19 34.07 194.85C32.43 193.24 31.24 191.33 30.57 189.14C29.81 186.66 29.16 184.15 28.42 181.66C28.17 180.81 27.93 179.93 27.48 179.18C26.57 177.66 25.59 176.17 24.51 174.77C22.38 172.01 20.13 169.35 18.01 166.58C16.72 164.9 15.57 163.12 14.37 161.38C11.92 157.83 11.25 153.89 11.74 149.66C12.65 141.9 15.1 134.62 18.48 127.62C18.54 127.5 18.65 127.41 18.83 127.19C20.33 127.69 21.58 128.79 23.05 129.44C24.61 130.13 26.14 130.89 27.7 131.58C29.19 132.24 30.71 132.85 32.32 133.52C32.12 133.99 32 134.37 31.81 134.71C30.49 137.03 29.34 139.43 28.35 141.91C26.94 145.45 26.35 149.11 26.34 152.93C26.33 155.86 26.86 158.62 28.04 161.28C29.09 163.65 30.09 166.05 31.12 168.43C31.64 169.64 32.54 170.59 33.37 171.58C33.95 172.27 34.7 172.54 35.57 172.33C36.62 172.07 37.67 171.76 38.81 171.45L38.83 171.44Z" fill="#FFD6CC"/>
<path fill-rule="evenodd" clip-rule="evenodd" d="M87.29 192.02C85.89 191.03 85.64 190.5 86.13 189.37C86.26 189.07 86.51 188.82 86.74 188.58C87.35 187.94 88.01 187.35 88.59 186.68C90.11 184.91 91.77 183.3 93.74 182.02C94.25 181.69 94.75 181.31 95.15 180.86C95.32 180.67 95.31 180.2 95.21 179.92C95.09 179.58 94.71 179.45 94.35 179.58C93.9 179.74 93.46 179.94 93.04 180.16C90.84 181.33 88.98 182.92 87.34 184.78C86.85 185.34 86.35 185.88 85.89 186.39C85.26 186.25 85.28 185.77 85.19 185.42C85.06 184.89 85.12 184.31 84.94 183.8C84.35 182.12 84.99 180.75 85.9 179.4C87.21 177.45 89.01 176.17 91.17 175.35C91.68 175.16 92.2 174.93 92.73 174.87C93.34 174.8 93.71 174.45 94.08 174.04C94.57 173.5 94.58 173.38 94.15 172.62C94.05 172.45 93.94 172.29 93.85 172.14C94.08 171.68 94.42 171.55 94.88 171.69C95.6 171.9 96.32 172.1 97.05 172.29C98.09 172.57 98.92 172.24 99.59 171.4C100.4 170.39 101.29 169.43 101.79 168.21C103.1 165.06 104.43 161.92 105.68 158.74C106.2 157.41 106.53 156 106.39 154.53C106.39 154.46 106.39 154.39 106.39 154.32C106.91 148.03 105.04 142.31 102.17 136.84C101.63 135.82 101.07 134.81 100.46 133.68C100.87 133.44 101.18 133.21 101.53 133.06C103.29 132.32 105.09 131.66 106.82 130.85C108.67 129.98 110.46 128.98 112.28 128.03C112.82 127.75 113.34 127.44 113.95 127.1C114.18 127.44 114.4 127.69 114.53 127.99C117.25 133.9 119.6 139.94 120.56 146.42C120.85 148.37 121.02 150.35 121.17 152.32C121.39 155.07 120.66 157.63 119.24 159.95C117.89 162.16 116.46 164.33 114.91 166.42C113.08 168.89 111.12 171.26 109.17 173.64C107.91 175.17 106.75 176.77 105.71 178.46C105.06 179.52 104.63 180.64 104.32 181.85C103.67 184.36 102.95 186.85 102.16 189.33C101.49 191.45 100.32 193.29 98.73 194.85C97.36 196.19 95.9 197.42 94.24 198.48C93.81 198.31 93.38 198.14 92.97 197.98C93 197.77 92.97 197.58 93.05 197.53C95.51 195.69 97.2 193.2 98.85 190.69C99.26 190.07 99.19 189.41 98.78 189.24C98.23 189.02 97.86 189.35 97.55 189.73C96.98 190.41 96.46 191.13 95.88 191.81C95.04 192.8 94.22 193.82 93.28 194.7C92.65 195.29 91.86 195.77 91.07 196.12C90.24 196.49 89.66 196.18 89.25 195.33C89.08 194.97 88.99 194.57 88.88 194.27C89.01 194.05 89.05 193.88 89.15 193.83C91.23 192.68 92.8 190.98 94.17 189.08C94.85 188.14 95.51 187.19 96.15 186.21C96.41 185.82 96.64 185.38 96.75 184.92C96.84 184.53 96.71 184.1 96.19 184C96.06 184.06 95.9 184.08 95.83 184.17C95.08 185.06 94.37 185.97 93.61 186.85C92.63 187.99 91.67 189.14 90.62 190.22C89.76 191.11 88.75 191.83 87.29 192.01V192.02Z" fill="#FFD6CC"/>
<path fill-rule="evenodd" clip-rule="evenodd" d="M40.2 40.5C41.67 39.61 43.22 39.09 44.79 38.62C49.31 37.26 53.92 36.34 58.59 35.73C60.55 35.47 62.52 35.23 64.48 35.02C67.23 34.72 69.92 35.26 72.63 35.56C77.31 36.09 81.93 36.99 86.47 38.25C88.5 38.81 90.53 39.42 92.29 40.48C92.95 41.58 92.64 42.47 92.05 43.38C90.51 45.75 88.36 47.37 85.82 48.51C83.42 49.58 80.87 49.93 78.27 50.17C71.94 50.75 65.59 50.5 59.26 50.46C56.35 50.44 53.43 50.08 50.53 49.67C47.86 49.29 45.45 48.15 43.31 46.47C42.17 45.58 41.24 44.51 40.43 43.3C39.86 42.44 39.67 41.58 40.2 40.49V40.5Z" fill="#274675"/>
<path fill-rule="evenodd" clip-rule="evenodd" d="M54.5 304.36C55.11 307.31 55.59 310.06 55.24 312.87C55.15 313.61 54.91 314.33 54.68 315.04C54.31 316.19 53.54 316.99 52.48 317.62C48.17 320.19 43.57 322.08 38.82 323.64C36.48 324.41 34.11 324.31 31.75 323.68C30.97 323.47 30.16 323.38 29.36 323.23C29.23 323.21 29.08 323.23 28.95 323.18C26.8 322.47 24.7 321.66 22.88 320.27C21.76 319.41 21.55 318.68 22.22 317.42C22.79 316.35 23.49 315.31 24.3 314.4C26.7 311.66 29.48 309.34 32.59 307.43C34.22 306.43 35.92 305.55 37.6 304.64C38.56 304.12 39.5 303.39 40.52 303.24C41.46 303.11 42.5 303.62 43.48 303.87C46.09 304.51 48.73 304.73 51.41 304.57C52.36 304.51 53.31 304.45 54.49 304.37L54.5 304.36Z" fill="#956363"/>
<path fill-rule="evenodd" clip-rule="evenodd" d="M78.35 304.48C79.05 304.48 79.59 304.44 80.13 304.48C83.84 304.79 87.5 304.56 91.06 303.36C91.88 303.09 92.6 303.15 93.39 303.62C94.91 304.53 96.52 305.29 98.08 306.13C101.66 308.06 104.84 310.52 107.67 313.43C108.52 314.31 109.28 315.29 110.01 316.27C110.37 316.75 110.63 317.33 110.83 317.91C111.09 318.67 110.97 319.41 110.3 319.96C109.88 320.31 109.46 320.68 108.98 320.91C107.51 321.62 106.06 322.44 104.51 322.91C102.63 323.48 100.67 323.8 98.73 324.1C97.09 324.35 95.46 324.1 93.88 323.58C89.27 322.04 84.81 320.17 80.58 317.75C78.92 316.8 78.18 315.4 77.74 313.71C77.55 312.99 77.44 312.22 77.47 311.48C77.56 309.17 77.69 306.85 78.36 304.46L78.35 304.48Z" fill="#956363"/>
<path fill-rule="evenodd" clip-rule="evenodd" d="M36.17 225.16C34.22 225.05 33.07 223.95 32.27 222.43C31.63 221.2 31.32 219.87 31.34 218.48C31.39 215.68 31.41 212.88 31.54 210.08C31.69 206.81 31.94 203.53 32.17 200.26C32.25 199.18 32.43 198.1 32.59 196.83C33.06 197.11 33.42 197.25 33.7 197.49C35.26 198.84 36.88 200.08 38.84 200.84C39.17 201.5 39.5 202.15 39.88 202.92C38.91 205.49 38.7 208.28 38.31 211.05C37.71 215.31 37.15 219.58 36.56 223.84C36.5 224.29 36.3 224.73 36.16 225.17L36.17 225.16Z" fill="#908175"/>
<path fill-rule="evenodd" clip-rule="evenodd" d="M93.05 202.65C93.74 202.31 93.27 200.85 94.69 200.68C94.87 201.01 95.1 201.34 95.23 201.7C96.49 205.03 97.32 208.48 98.12 211.94C99.54 218.13 100.58 224.39 101.37 230.69C101.58 232.31 101.58 233.96 101.58 235.6C101.58 236.26 101.4 236.95 101.17 237.58C100.91 238.29 100.28 238.59 99.54 238.59C98.32 238.59 97.17 237.55 97.08 236.32C96.92 234.07 96.86 231.82 96.64 229.58C96.19 224.96 95.69 220.35 95.16 215.74C94.87 213.23 94.5 210.73 94.11 208.24C93.83 206.49 93.45 204.76 93.05 202.67V202.65Z" fill="#D3A245"/>
<path fill-rule="evenodd" clip-rule="evenodd" d="M73.22 193.04C73.29 193.4 73.44 193.8 73.44 194.19C73.37 198.14 73.28 202.1 73.19 205.97C69.32 208.29 63.77 208.32 59.7 206.05C59.67 205.58 59.61 205.04 59.6 204.51C59.52 201.57 59.44 198.64 59.39 195.7C59.38 194.82 59.46 193.95 59.5 193.11C60.63 192.53 61.72 192.44 62.81 192.45C64.65 192.45 66.5 192.51 68.34 192.54C69.36 192.56 70.38 192.6 71.41 192.58C72.04 192.58 72.63 192.62 73.22 193.04ZM62.52 195.67C61.97 198.03 61.98 200.18 62.45 202.33C62.76 203.76 63.35 204.32 64.8 204.42C65.95 204.5 67.11 204.48 68.26 204.39C69.44 204.31 70.05 203.7 70.37 202.52C70.85 200.78 70.7 199.01 70.66 197.25C70.65 196.66 70.36 196.19 69.85 195.92C69.38 195.67 68.87 195.41 68.35 195.36C66.45 195.17 64.57 195.31 62.53 195.66L62.52 195.67Z" fill="#C4B8A7"/>
<path fill-rule="evenodd" clip-rule="evenodd" d="M62.09 117C65.04 117.45 67.81 117.47 70.64 117.03C70.99 117.68 70.96 118.37 71 119.03C71.5 127.28 72.39 135.49 73.66 143.65C74.25 147.42 75.15 151.14 75.87 154.89C76.3 157.1 76.63 159.33 77.06 161.54C77.34 163 77.02 164.17 75.98 165.28C74.4 166.98 72.93 168.78 71.46 170.57C70.02 172.32 68.22 173.68 66.42 175.22C65.86 174.82 65.3 174.46 64.78 174.05C64.25 173.63 63.7 173.2 63.26 172.69C60.97 170.07 58.71 167.42 56.43 164.79C55.8 164.07 55.54 163.27 55.68 162.34C55.97 160.45 56.22 158.56 56.58 156.68C57.36 152.66 58.33 148.68 58.98 144.64C59.75 139.79 60.33 134.91 60.87 130.03C61.3 126.16 61.54 122.28 61.87 118.4C61.9 118 62 117.6 62.09 117.01V117Z" fill="#90B4AC"/>
<path fill-rule="evenodd" clip-rule="evenodd" d="M60.52 107.16C62.59 105.5 64.5 103.98 66.42 102.44C68.24 103.9 70.13 105.42 72.19 107.08C72.17 107.25 72.17 107.64 72.08 108.01C71.67 109.66 71.21 111.3 70.8 112.94C70.51 114.09 69.89 114.71 68.7 115.13C66.8 115.8 65.09 115.41 63.33 114.84C62.77 114.66 62.46 114.19 62.29 113.66C62.02 112.82 61.79 111.96 61.56 111.11C61.21 109.8 60.88 108.48 60.54 107.15L60.52 107.16Z" fill="#90B4AC"/>
<path fill-rule="evenodd" clip-rule="evenodd" d="M38.4 38.82C38.57 37.99 39.26 37.6 39.86 37.19C42.18 35.58 44.67 34.32 47.47 33.79C51.22 33.08 54.98 32.32 58.75 31.78C61.58 31.37 64.46 31.28 67.33 31.48C69.78 31.66 72.25 31.72 74.68 32.07C78.52 32.63 82.35 33.35 86.17 34.09C88.63 34.57 90.73 35.88 92.77 37.26C93.32 37.63 93.91 38.02 94.17 38.9C93.79 38.91 93.43 39.03 93.22 38.9C88.95 36.4 84.16 35.55 79.42 34.55C78.09 34.27 76.74 34.03 75.38 33.87C74.16 33.73 72.93 33.7 71.71 33.67C70.14 33.63 68.57 33.65 67 33.64C65.98 33.64 64.95 33.61 63.93 33.62C62.36 33.63 60.79 33.62 59.22 33.7C57.93 33.77 56.64 33.94 55.36 34.15C51.99 34.7 48.65 35.41 45.37 36.37C43.4 36.95 41.47 37.62 39.7 38.69C39.27 38.95 39.26 38.93 38.39 38.82H38.4Z" fill="#FFD600"/>
<path fill-rule="evenodd" clip-rule="evenodd" d="M32.5 58.95C32.19 58.53 31.88 58.12 31.57 57.7C31.21 57.21 30.87 56.69 30.46 56.24C30.31 56.08 29.87 55.96 29.76 56.05C29.53 56.24 29.36 56.57 29.32 56.87C29.28 57.11 29.43 57.4 29.55 57.63C29.8 58.11 30.1 58.57 30.37 59.04C30.72 59.63 31.12 60.19 31.4 60.81C31.86 61.8 32.25 62.81 32.67 63.82C32.72 63.94 32.77 64.08 32.78 64.21C32.83 65.64 32.88 67.08 32.91 68.51C32.91 68.83 32.87 69.16 32.83 69.62C29.86 68.72 27.46 67.38 26.34 64.4C25.03 60.91 24.88 57.34 25.59 53.72C25.68 53.26 25.88 52.81 26.1 52.39C26.68 51.33 27.54 50.79 28.79 51.07C28.95 51.25 29.12 51.38 29.22 51.55C29.91 52.69 30.77 53.62 32.07 54.08C32.73 54.31 33.01 54.81 32.98 55.51C32.93 56.59 32.91 57.68 32.88 58.76C32.75 58.81 32.62 58.87 32.49 58.92L32.5 58.95Z" fill="#FFD6CC"/>
<path fill-rule="evenodd" clip-rule="evenodd" d="M103.67 51.08C105.14 50.88 105.99 51.48 106.47 52.58C106.79 53.32 107.07 54.13 107.14 54.92C107.38 57.51 107.43 60.1 106.75 62.65C106.37 64.11 105.85 65.51 104.85 66.69C103.94 67.76 102.78 68.45 101.52 69C100.97 69.24 100.41 69.44 99.71 69.71C99.66 69.22 99.59 68.9 99.6 68.59C99.62 67.91 99.76 67.22 99.71 66.55C99.53 64.05 100.47 61.89 101.69 59.81C102.11 59.1 102.57 58.43 102.94 57.69C103.11 57.35 103.14 56.91 103.14 56.52C103.14 56.07 102.56 55.81 102.24 56.12C101.85 56.49 101.51 56.92 101.18 57.35C100.78 57.88 100.42 58.44 100.02 59.02C99.84 58.81 99.69 58.71 99.69 58.61C99.62 57.52 99.56 56.44 99.51 55.35C99.48 54.81 99.75 54.38 100.23 54.23C101.85 53.72 102.75 52.44 103.67 51.1V51.08Z" fill="#FFD6CC"/>
<path fill-rule="evenodd" clip-rule="evenodd" d="M79.98 108.46C79.38 108.24 79.04 108.17 78.77 108C75.64 106.08 72.52 104.14 69.41 102.19C69.2 102.06 69.04 101.82 68.72 101.49C69.37 101.28 69.85 101.05 70.36 100.97C73.46 100.5 76.52 99.9 79.51 98.96C79.63 98.92 79.77 98.96 80.07 98.98C80.44 99.89 80.25 100.9 80.27 101.88C80.29 102.97 80.25 104.06 80.22 105.15C80.19 106.16 80.15 107.17 79.98 108.46Z" fill="#3763A6"/>
<path fill-rule="evenodd" clip-rule="evenodd" d="M53.07 108.35C52.48 106.3 52.36 100.93 52.82 99C52.95 98.98 53.1 98.91 53.22 98.95C56.53 100.03 59.97 100.49 63.36 101.19C63.55 101.23 63.71 101.39 64 101.57C63.77 101.82 63.6 102.1 63.35 102.26C60.3 104.18 57.24 106.08 54.16 107.97C53.84 108.17 53.44 108.24 53.08 108.37L53.07 108.35Z" fill="#3763A6"/>
<path fill-rule="evenodd" clip-rule="evenodd" d="M36.73 41.27C36.58 42.12 36.29 42.79 35.6 43.2C34.44 43.89 33.99 45 33.8 46.23C33.6 47.51 33.5 48.8 33.35 50.09C33.3 50.48 33.41 50.92 32.91 51.29C31.77 50.53 30.66 49.79 30.24 48.26C29.4 45.24 29.22 42.22 29.75 39.15C29.79 38.95 29.84 38.75 29.91 38.56C29.98 38.37 30.1 38.2 30.26 37.91C31.3 38.55 32.29 39.25 33.36 39.8C34.44 40.36 35.59 40.78 36.74 41.28L36.73 41.27Z" fill="#904A0B"/>
<path fill-rule="evenodd" clip-rule="evenodd" d="M95.75 41.4C96.73 40.55 98.05 40.51 99.07 39.87C100.11 39.22 101.15 38.59 102.25 37.91C102.4 38.18 102.59 38.39 102.65 38.64C103.43 42.05 103.22 45.41 102.11 48.72C101.89 49.39 101.55 49.94 100.94 50.33C100.49 50.62 100.1 50.99 99.53 51.44C99.38 50.84 99.23 50.41 99.17 49.97C99 48.69 98.91 47.39 98.7 46.11C98.5 44.88 98.01 43.81 96.82 43.14C96.21 42.8 95.97 42.12 95.75 41.39V41.4Z" fill="#904A0B"/>
<path fill-rule="evenodd" clip-rule="evenodd" d="M104.95 212.66C103.8 211.83 103.05 210.69 102.32 209.56C100.7 207.03 99.32 204.38 98.29 201.56C98.23 201.4 98.31 201.18 98.35 200.78C101.72 204.23 103.86 208.15 104.95 212.67V212.66Z" fill="#C4B8A7"/>
<path fill-rule="evenodd" clip-rule="evenodd" d="M90.13 130.7C89.67 134.52 89.72 138.29 88.39 141.88C87.84 143.38 87.09 144.72 86.07 145.94C85.49 146.63 84.75 146.89 83.89 146.84C82.69 146.77 81.64 146.32 80.76 145.49C80.61 145.35 80.47 145.19 80.39 145.01C79.11 142.22 78.07 139.35 77.69 136.28C77.62 135.74 77.56 135.2 77.5 134.65C77.42 133.9 77.29 133.16 77.29 132.41C77.29 131.74 77.44 131.06 77.54 130.26C78.65 129.93 79.84 129.66 80.96 129.21C82.09 128.76 83.15 128.14 84.35 127.54C85.16 128.16 85.96 128.92 86.89 129.43C87.83 129.95 88.91 130.23 90.14 130.69L90.13 130.7Z" fill="#FFD600"/>
<path fill-rule="evenodd" clip-rule="evenodd" d="M64.78 23.5C62.13 23.45 60.27 22.01 59.04 19.86C57.31 16.84 57.83 13.8 59.63 10.99C60.08 10.28 60.87 9.66001 61.65 9.33001C63.14 8.69001 64.71 8.27001 66.38 8.22001C70.08 8.10001 74.33 12.97 72.36 17.51C71.47 19.57 70.17 21.26 68.27 22.47C67.22 23.14 66.06 23.53 64.79 23.5H64.78Z" fill="#FFD600"/>
<path fill-rule="evenodd" clip-rule="evenodd" d="M56.91 204.05C54.15 203.76 51.49 203.61 48.88 203.17C46.34 202.74 43.84 202 41.19 201.36C41.99 199.98 42.84 198.71 44.21 197.81C45.27 197.12 45.52 196.43 45.85 194.4C46.55 193.83 47.35 193.64 48.29 193.72C50.94 193.96 53.59 194.13 56.24 194.34C56.44 194.36 56.63 194.42 56.8 194.46C57.18 195.98 57.26 201.76 56.9 204.04L56.91 204.05Z" fill="#6A868E"/>
<path fill-rule="evenodd" clip-rule="evenodd" d="M75.83 194.84C77.62 194.6 79.43 194.36 81.24 194.13C82.19 194.01 83.14 193.93 84.09 193.79C85.07 193.64 85.99 193.67 86.94 194.35C87 194.72 87.07 195.18 87.18 195.63C87.38 196.45 87.72 197.25 88.45 197.68C89.9 198.54 90.73 199.9 91.62 201.24C86.62 202.88 81.52 203.86 76.25 203.89C76.02 202.96 75.74 196.92 75.84 194.85L75.83 194.84Z" fill="#6A868E"/>
<path fill-rule="evenodd" clip-rule="evenodd" d="M64.33 197.19C65.8 196.42 67.08 197.03 68.47 197.16C68.64 198.74 68.55 200.2 68.28 201.67C68.16 202.29 67.75 202.6 67.17 202.68C66.77 202.73 66.36 202.73 65.96 202.7C64.98 202.63 64.7 202.37 64.52 201.34C64.28 200 64.25 198.66 64.34 197.18L64.33 197.19Z" fill="#6A868E"/>
<path fill-rule="evenodd" clip-rule="evenodd" d="M115.7 125.95C116.08 126.7 116.41 127.37 116.76 128.03C120.33 134.82 122.53 142.02 123.45 149.64C124 154.16 123.26 158.36 120.76 162.19C119.53 164.08 118.32 165.99 116.93 167.76C114.09 171.35 111.17 174.88 108.21 178.38C107.39 179.35 106.81 180.37 106.5 181.59C105.92 183.91 105.31 186.22 104.72 188.54C104 191.38 102.51 193.82 100.82 196.15C100.63 196.41 100.32 196.57 100.06 196.78C99.43 197.29 98.8 197.81 98.11 198.37C98.45 198.7 98.69 198.93 98.94 199.15C102.88 202.55 105.44 206.85 107.08 211.73C107.36 212.56 107.55 213.46 107.6 214.33C107.68 215.79 106.45 216.62 105.13 216C104.53 215.72 103.94 215.29 103.51 214.79C102.57 213.71 101.73 212.55 100.84 211.42C100.61 211.13 100.35 210.86 99.81 210.24C100.14 211.6 100.38 212.51 100.57 213.44C101.89 219.73 103.12 226.03 103.74 232.44C103.84 233.53 103.94 234.63 103.87 235.71C103.81 236.65 103.63 237.62 103.27 238.48C102.53 240.25 101.06 241.04 99.15 240.85C98.62 240.8 98.09 240.63 97.46 240.49C97.4 240.85 97.3 241.17 97.31 241.48C97.48 250.7 97.65 259.93 97.86 269.15C97.89 270.58 98.12 272 98.24 273.43C98.3 274.18 98.37 274.93 98.33 275.68C98.1 280.25 97.84 284.82 97.61 289.4C97.52 291.24 97.46 293.08 97.41 294.92C97.37 296.49 97.54 298.06 96.92 299.57C96.51 300.58 96.26 301.68 94.84 302.19C95.47 302.54 95.8 302.76 96.16 302.9C101.45 305.03 105.94 308.32 109.84 312.44C110.54 313.18 111.18 313.99 111.77 314.83C112.2 315.44 112.56 316.12 112.83 316.81C113.58 318.77 113.15 320.42 111.56 321.78C110.19 322.95 108.62 323.82 106.91 324.32C104.75 324.95 102.55 325.42 100.35 325.91C97.97 326.44 95.59 326.31 93.26 325.58C88.68 324.14 84.25 322.35 80.22 319.7C79.08 318.95 78.05 318.05 76.97 317.21C76.11 316.54 75.74 315.65 75.6 314.57C75.19 311.47 75.47 308.44 76.27 305.44C76.43 304.85 76.55 304.25 76.71 303.58C75.2 301.94 75.2 299.86 75.1 297.81C74.68 288.79 74.69 279.77 74.88 270.75C74.94 267.88 74.8 265.01 74.76 262.14C74.76 261.66 74.73 261.18 74.74 260.71C74.95 251.85 73.79 243.13 71.96 234.48C71.52 232.41 70.9 230.38 70.3 228.35C69.79 226.64 69.07 225.02 68.06 223.54C67.44 222.62 66.69 221.83 65.74 221.25C65.16 220.89 64.46 221.05 64.18 221.67C63.56 223.03 62.83 224.34 62.53 225.84C62.3 226.98 62.05 228.12 61.68 229.22C60.64 232.3 60.34 235.49 60.03 238.68C59.6 243.04 59.3 247.39 59.15 251.77C59.07 254.02 58.66 256.25 58.39 258.49C57.93 262.37 57.88 266.26 57.91 270.16C57.97 277.06 57.99 283.97 57.97 290.87C57.97 293.4 57.8 295.92 57.69 298.45C57.61 300.31 57.5 302.16 56.09 303.55C56.29 304.34 56.46 305 56.62 305.66C57.37 308.67 57.64 311.71 57.19 314.8C57.06 315.73 56.72 316.51 55.99 317.09C54.98 317.91 54.02 318.79 52.94 319.5C48.75 322.29 44.14 324.16 39.36 325.66C36.53 326.54 33.68 326.29 30.85 325.65C29.19 325.27 27.53 324.86 25.9 324.34C24.2 323.79 22.62 322.96 21.26 321.79C19.67 320.42 19.26 318.78 19.99 316.81C20.45 315.58 21.19 314.51 22.03 313.51C23.98 311.19 26.23 309.2 28.66 307.42C31.14 305.59 33.79 304.03 36.68 302.92C36.99 302.8 37.29 302.65 37.54 302.54C37.71 301.98 37.27 301.9 37.06 301.69C35.99 300.61 35.68 299.21 35.49 297.79C35.36 296.78 35.44 295.74 35.42 294.72C35.4 293.42 35.42 292.12 35.34 290.83C35.17 288.17 34.93 285.51 34.75 282.86C34.69 281.98 34.71 281.08 34.75 280.2C34.89 276.79 35.07 273.37 35.19 269.96C35.23 268.73 35.1 267.5 35.13 266.27C35.3 258.21 35.48 250.14 35.7 242.08C35.77 239.35 35.97 236.62 36.11 233.89C36.21 231.79 36.46 229.68 35.71 227.47C35.45 227.42 35.06 227.37 34.68 227.28C33.15 226.91 31.97 226.03 31.02 224.8C30.09 223.58 29.48 222.2 29.29 220.69C29.11 219.27 28.99 217.83 29.05 216.4C29.2 212.65 29.44 208.89 29.71 205.14C29.85 203.17 30.06 201.19 30.34 199.23C30.53 197.88 30.89 196.56 31.19 195.15C30.58 194.06 29.77 192.94 29.28 191.68C28.49 189.65 27.88 187.55 27.26 185.45C26.87 184.14 26.59 182.8 26.28 181.47C26 180.32 25.43 179.36 24.66 178.45C21.71 174.95 18.78 171.43 15.94 167.84C14.55 166.08 13.33 164.17 12.1 162.28C9.60999 158.45 8.81999 154.27 9.36999 149.74C10.29 142.12 12.47 134.92 16.04 128.13C16.39 127.47 16.72 126.8 17.12 126.02C16.93 125.71 16.71 125.38 16.51 125.04C16.06 124.27 16.08 123.45 16.36 122.66C16.89 121.18 17.34 119.65 18.09 118.29C19.82 115.11 21.68 112 23.56 108.9C24.7 107.02 26.09 105.33 27.78 103.91C28.91 102.96 29.72 101.67 31.14 101C32.5 100.36 33.74 99.5 35.09 98.83C36.37 98.19 37.69 97.62 39.03 97.11C40.43 96.58 41.88 96.17 43.31 95.72C43.87 95.54 44.44 95.38 45.22 95.15C44.57 94.62 44.1 94.24 43.63 93.86C41.8 92.41 40.14 90.8 38.6 89.05C36.72 86.9 35.45 84.43 34.68 81.69C34.01 79.32 33.56 76.9 33.35 74.44C33.28 73.56 33.15 72.68 33.03 71.71C32.6 71.62 32.22 71.52 31.84 71.47C28.32 70.96 25.74 69.12 24.32 65.85C22.51 61.69 22.35 57.36 23.49 53.01C24 51.05 25.14 49.57 27.27 49.11C27.47 49.07 27.65 48.96 27.95 48.84C27.84 48.2 27.74 47.54 27.6 46.89C26.86 43.24 27.12 39.7 28.74 36.19C28.48 35.78 28.2 35.33 27.91 34.87C26.5 32.66 25.5 30.26 24.93 27.71C24.46 25.61 24.63 23.53 25.51 21.5C26.9 18.3 28.9 15.57 31.53 13.31C32.93 12.11 34.4 10.97 35.94 9.98001C42.26 5.92001 49.17 3.20001 56.4 1.27001C61.41 -0.0799873 66.51 -0.159987 71.64 0.150013C72.25 0.190013 72.87 0.300013 73.46 0.460013C79.13 2.01001 84.74 3.73001 90.03 6.33001C92.35 7.48001 94.61 8.77001 96.83 10.12C99.12 11.51 101.14 13.25 102.97 15.21C104.86 17.24 106.29 19.55 107.27 22.14C108.04 24.18 108.04 26.29 107.44 28.38C106.74 30.82 105.78 33.16 104.35 35.27C104.16 35.55 104.01 35.85 103.81 36.18C105.7 40.22 105.63 44.38 104.54 48.71C104.82 48.85 105.09 49.06 105.4 49.13C107.28 49.55 108.3 50.85 108.9 52.54C109.2 53.37 109.4 54.25 109.51 55.13C109.92 58.28 109.8 61.42 108.79 64.45C107.4 68.59 104.62 71.09 100.16 71.5C100.03 71.51 99.9 71.56 99.64 71.63C99.56 72.03 99.45 72.47 99.38 72.92C99 75.35 98.71 77.79 98.24 80.2C97.43 84.35 95.39 87.86 92.34 90.77C90.86 92.18 89.37 93.57 87.74 95.09C88.34 95.3 88.8 95.52 89.29 95.64C94.65 97 99.55 99.36 104.07 102.52C104.75 103 105.32 103.53 105.78 104.24C106.6 105.5 107.47 106.73 108.41 107.9C111.12 111.28 113.08 115.13 115.1 118.92C115.64 119.94 116 121.06 116.34 122.17C116.89 123.93 116.82 124.19 115.72 125.96L115.7 125.95ZM41.74 203.41C41.08 204.88 40.96 206.24 40.78 207.58C40.26 211.44 39.76 215.3 39.24 219.16C38.77 222.61 38.47 226.07 38.35 229.54C38.13 235.55 37.84 241.56 37.62 247.57C37.35 255.01 36.7 262.45 37 269.91C37.11 272.64 37.23 275.37 37.39 278.1C37.5 280.08 37.4 282.05 37.43 284.02C37.49 287.98 37.73 291.94 37.94 295.9C38.01 297.32 38.15 298.75 38.58 300.15C38.84 300.29 39.07 300.45 39.32 300.53C41.95 301.28 44.58 302.02 47.31 302.3C49.42 302.51 51.54 302.49 53.64 302.1C54.5 301.94 55.01 301.51 55.16 300.68C55.29 299.94 55.39 299.2 55.43 298.45C55.55 296.13 55.67 293.81 55.73 291.49C55.83 287.39 56.04 283.28 55.92 279.19C55.66 270.5 56.27 261.83 56.65 253.16C56.8 249.61 57.23 246.08 57.59 242.54C57.99 238.67 58.38 234.79 58.91 230.93C59.43 227.18 60.55 223.61 62.6 220.37C62.69 220.22 62.65 219.99 62.67 219.83C62.15 219.55 61.66 219.31 61.22 219.01C61.1 218.93 61.03 218.63 61.08 218.46C61.12 218.29 61.32 218.04 61.47 218.03C62 218 62.58 217.94 63.08 218.09C66.26 219.06 68.87 220.81 70.55 223.78C71.53 225.52 72.24 227.36 72.82 229.26C74.86 235.89 75.8 242.72 76.49 249.6C76.85 253.27 77.07 256.95 77.32 260.63C77.37 261.38 77.36 262.13 77.32 262.88C76.77 274.77 76.74 286.66 77.42 298.54C77.46 299.15 77.55 299.76 77.62 300.37C77.75 301.49 78.39 301.98 79.51 302.15C81.76 302.49 84.02 302.57 86.25 302.18C88.53 301.78 90.79 301.2 93.05 300.71C94.05 300.49 94.54 299.91 94.59 298.86C94.66 297.36 94.83 295.87 94.94 294.37C95.03 293.01 95.09 291.64 95.16 290.28C95.36 286.46 95.61 282.64 95.73 278.81C95.88 274.17 95.99 269.52 95.99 264.87C95.99 258.79 95.85 252.7 95.76 246.62C95.76 246.15 95.81 245.54 95.55 245.24C94.93 244.53 95.02 243.72 94.99 242.92C94.87 240.26 94.81 237.59 94.65 234.93C94.47 231.87 94.68 228.79 94.19 225.73C93.95 224.26 94.03 222.74 93.85 221.25C93.41 217.59 92.92 213.93 92.43 210.27C92.2 208.51 91.94 206.75 91.64 205C91.55 204.49 91.3 204.01 91.13 203.56C90.84 203.59 90.7 203.57 90.57 203.61C86.6 204.98 82.53 205.83 78.33 205.83C76.61 205.83 75.27 206.55 74.2 207.73C73.01 209.04 71.55 209.62 69.87 209.75C68.44 209.86 67.01 209.85 65.58 209.92C63.12 210.05 60.82 209.49 58.69 208.3C57.66 207.72 56.58 207.12 55.98 205.85C51.18 205.94 46.49 205.12 41.75 203.4L41.74 203.41ZM83.9 191.63C84.1 190.53 84.26 189.67 84.42 188.81C83.17 186.94 83.02 184.82 82.87 182.7C82.76 181.07 83.19 179.59 84.1 178.24C85.47 176.19 87.3 174.7 89.56 173.75C90.24 173.46 90.94 173.21 91.66 172.93C92.01 168.64 92.35 164.42 92.69 160.21C93.14 154.63 93.58 149.04 93.72 143.43C93.84 138.3 93.97 133.18 94.19 128.06C94.32 125.2 94.63 122.34 94.89 119.48C94.92 119.18 95.11 118.9 95.2 118.67C95.86 118.63 96.14 118.95 96.19 119.37C96.27 119.97 96.25 120.59 96.25 121.21C96.25 122.99 96.11 124.77 96.27 126.53C96.43 128.31 96.49 130.07 96.39 131.85C96.37 132.15 96.49 132.46 96.56 132.89C97.22 132.65 97.73 132.48 98.22 132.28C100.68 131.26 103.14 130.23 105.6 129.21C108.2 128.13 110.59 126.67 112.97 125.2C114.01 124.56 114.37 123.51 114.01 122.38C113.91 122.06 113.77 121.74 113.61 121.43C112.85 119.9 112.14 118.35 111.3 116.86C109.76 114.12 108.19 111.4 106.55 108.72C105.29 106.65 103.53 105 101.54 103.65C97.44 100.87 92.97 98.86 88.17 97.59C86.88 97.25 85.61 97.18 84.31 97.3C83.58 97.37 82.82 97.47 82.21 98.15C82.27 98.93 82.36 99.75 82.38 100.56C82.44 102.47 82.5 104.38 82.49 106.3C82.49 107.11 82.39 107.94 82.23 108.74C81.9 110.41 80.69 111.16 79.05 110.74C78.59 110.62 78.15 110.42 77.73 110.19C76.89 109.73 76.08 109.21 75.25 108.75C74.93 108.57 74.55 108.49 74.18 108.36C73.6 110.61 73.03 112.71 72.51 114.83C72.43 115.14 72.51 115.5 72.55 115.83C73.03 120.04 73.52 124.24 73.99 128.45C74.53 133.41 74.98 138.38 75.91 143.28C76.66 147.24 77.52 151.18 78.32 155.13C78.8 157.47 79.31 159.81 79.42 162.21C79.5 163.79 79.12 165.14 78.03 166.34C76.56 167.96 75.12 169.61 73.78 171.34C72.07 173.53 69.92 175.19 67.7 176.79C66.55 177.62 66.06 177.66 64.96 176.73C63.13 175.2 61.28 173.66 59.63 171.95C57.83 170.09 56.25 168.01 54.54 166.05C53.68 165.06 53.3 163.94 53.38 162.66C53.45 161.5 53.51 160.33 53.72 159.2C54.22 156.51 54.74 153.83 55.36 151.17C56.84 144.77 57.72 138.27 58.44 131.75C58.95 127.06 59.42 122.37 60.01 117.69C60.23 115.97 60.34 114.34 59.7 112.68C59.41 111.92 59.34 111.08 59.15 110.29C59 109.65 58.8 109.01 58.59 108.22C57.99 108.53 57.53 108.78 57.06 109.03C56.1 109.55 55.18 110.16 54.17 110.57C52.31 111.32 50.88 110.51 50.54 108.56C50.37 107.55 50.27 106.52 50.28 105.5C50.3 103.59 50.42 101.68 50.49 99.77C50.51 99.11 50.78 98.41 50.29 97.75C48.54 97.06 46.72 97.04 44.89 97.52C40.7 98.61 36.75 100.25 33.02 102.47C29.77 104.4 27.17 106.94 25.28 110.2C23.6 113.1 21.95 116.01 20.34 118.94C19.75 120.01 19.27 121.16 18.83 122.3C18.4 123.42 18.77 124.51 19.8 125.13C22.13 126.55 24.45 128.01 26.99 129.06C29.58 130.13 32.15 131.23 34.74 132.3C35.22 132.5 35.74 132.61 36.42 132.81C36.42 132.3 36.42 131.97 36.42 131.65C36.41 130.42 36.26 129.17 36.41 127.96C36.7 125.64 36.64 123.33 36.6 121.01C36.59 120.47 36.55 119.91 36.66 119.38C36.72 119.1 37.02 118.74 37.28 118.67C37.68 118.56 37.84 118.95 37.9 119.3C38.03 120.18 38.19 121.06 38.24 121.94C38.42 124.81 38.64 127.67 38.69 130.54C38.87 142.16 39.54 153.76 40.52 165.34C40.73 167.85 40.98 170.35 41.22 172.9C41.95 173.19 42.65 173.44 43.34 173.73C45.54 174.66 47.31 176.11 48.66 178.08C49.62 179.48 50.07 181.01 49.97 182.72C49.84 184.92 49.55 187.07 48.42 188.87C48.6 189.81 48.76 190.61 48.93 191.53C51.44 191.8 53.93 192.06 56.62 192.35C57.4 191.28 58.73 191.02 60.09 190.73C61.65 190.4 63.2 190.34 64.78 190.38C67.1 190.43 69.42 190.42 71.74 190.51C72.55 190.54 73.35 190.76 74.14 190.97C74.62 191.1 74.96 191.43 75 192C75.02 192.25 75.17 192.48 75.29 192.77C76.76 192.49 78.13 192.16 79.53 191.97C80.95 191.78 82.38 191.72 83.93 191.59L83.9 191.63ZM38.06 43.14C37.37 44.38 36.79 45.53 36.11 46.63C35.4 47.78 35.14 49.02 35.1 50.34C35.04 52.25 34.98 54.17 34.89 56.08C34.61 61.89 34.78 67.69 35.47 73.48C35.79 76.2 36.23 78.89 37.08 81.5C37.63 83.2 38.32 84.84 39.42 86.26C42.53 90.27 46.32 93.42 51.02 95.45C54.69 97.03 58.53 97.96 62.47 98.48C64.09 98.69 65.75 98.88 67.37 98.74C69.81 98.54 72.26 98.18 74.66 97.65C80.64 96.33 85.99 93.79 90.4 89.39C93.24 86.55 95.2 83.3 96.06 79.38C96.27 78.45 96.46 77.51 96.61 76.56C97.4 71.56 97.85 66.52 97.76 61.45C97.69 57.69 97.49 53.94 97.42 50.18C97.39 48.91 97.09 47.76 96.46 46.68C95.98 45.85 95.54 45 95.06 44.18C94.87 43.85 94.61 43.57 94.39 43.26C93.61 44.42 92.97 45.56 92.15 46.55C90.17 48.93 87.58 50.42 84.65 51.33C80.88 52.51 76.98 52.66 73.08 52.43C68.57 52.17 64.07 52.15 59.56 52.43C57.86 52.54 56.14 52.53 54.44 52.43C51.98 52.29 49.54 51.97 47.21 51.09C43.51 49.69 40.45 47.54 38.66 43.87C38.55 43.64 38.34 43.46 38.08 43.14H38.06ZM36.12 39.1C36.54 38.39 36.81 37.76 37.24 37.25C37.72 36.68 38.29 36.16 38.9 35.74C41.22 34.14 43.69 32.79 46.47 32.23C49.82 31.56 53.17 30.87 56.56 30.47C62.34 29.78 68.15 29.86 73.96 30.26C77.51 30.51 80.99 31.27 84.48 31.93C85.82 32.18 87.19 32.44 88.43 32.98C91.56 34.32 94.78 35.61 96.4 39.14C98.33 38.1 100.07 36.99 101.53 35.39C103.28 33.47 104.29 31.18 105.2 28.82C105.77 27.35 106.36 25.88 105.61 24.29C105.58 24.23 105.57 24.15 105.58 24.09C105.79 23.27 105.33 22.64 105.01 21.97C103.53 18.9 101.46 16.29 98.78 14.2C97.28 13.02 95.72 11.89 94.08 10.91C87.52 6.99001 80.44 4.31001 73 2.64001C70.69 2.12001 68.34 1.68001 65.93 1.71001C64.15 1.73001 62.43 2.15001 60.69 2.43001C57.44 2.94001 54.31 3.92001 51.22 5.03001C46.45 6.73001 41.82 8.75001 37.52 11.46C35.49 12.74 33.53 14.13 31.89 15.88C29.46 18.47 27.18 21.16 26.71 24.93C26.62 25.62 26.49 26.26 26.71 26.91C27.21 28.32 27.7 29.75 28.27 31.13C29.78 34.76 32.42 37.31 36.11 39.12L36.12 39.1ZM38.83 171.44C37.69 171.75 36.65 172.06 35.59 172.32C34.72 172.54 33.96 172.27 33.39 171.57C32.56 170.57 31.67 169.62 31.14 168.42C30.11 166.04 29.11 163.65 28.06 161.27C26.88 158.6 26.35 155.85 26.36 152.92C26.37 149.11 26.96 145.45 28.37 141.9C29.36 139.42 30.51 137.02 31.83 134.7C32.02 134.36 32.14 133.99 32.34 133.51C30.73 132.84 29.21 132.23 27.72 131.57C26.16 130.88 24.63 130.12 23.07 129.43C21.6 128.78 20.35 127.68 18.85 127.18C18.67 127.4 18.56 127.49 18.5 127.61C15.12 134.61 12.67 141.89 11.76 149.65C11.26 153.88 11.94 157.82 14.39 161.37C15.59 163.11 16.74 164.9 18.03 166.57C20.15 169.33 22.41 172 24.53 174.76C25.61 176.16 26.59 177.65 27.5 179.17C27.95 179.92 28.19 180.8 28.44 181.65C29.17 184.14 29.82 186.65 30.59 189.13C31.26 191.32 32.45 193.24 34.09 194.84C35.46 196.18 36.92 197.41 38.61 198.49C39 198.17 39.7 198.4 39.89 197.63C37.52 195.85 35.8 193.48 34.2 191.02C33.98 190.69 33.8 190.3 33.73 189.91C33.69 189.71 33.89 189.41 34.06 189.25C34.17 189.15 34.51 189.14 34.63 189.24C35.05 189.58 35.45 189.95 35.8 190.36C36.91 191.65 37.95 193.02 39.12 194.26C39.76 194.94 40.56 195.53 41.38 195.98C42.48 196.57 43.16 196.27 43.66 195.13C43.81 194.78 43.83 194.37 43.88 194.16C42.65 193.12 41.41 192.32 40.5 191.26C39.04 189.56 37.77 187.68 36.45 185.86C36.26 185.59 36.11 185.24 36.08 184.92C36.04 184.52 36.12 184.09 36.65 184.01C36.78 184.07 36.94 184.09 37.01 184.18C37.8 185.12 38.55 186.1 39.36 187.02C40.44 188.25 41.53 189.48 42.68 190.63C43.46 191.41 44.42 191.94 45.57 192C46.26 191.64 46.91 191.24 46.89 190.34C46.87 189.56 46.61 188.91 45.92 188.42C45.43 188.07 45.01 187.59 44.62 187.12C42.91 185.05 41 183.21 38.73 181.76C38.33 181.51 37.93 181.21 37.66 180.84C37.5 180.62 37.51 180.18 37.62 179.9C37.75 179.57 38.13 179.44 38.48 179.58C38.99 179.78 39.49 180 39.97 180.26C42.41 181.58 44.38 183.46 46.17 185.56C46.45 185.89 46.82 186.15 47.24 186.53C47.89 184.94 47.93 183.44 48.1 181.95C48.13 181.64 47.98 181.28 47.83 180.99C46.9 179.12 45.68 177.47 43.83 176.44C42.7 175.82 41.5 175.28 40.27 174.92C39.32 174.65 38.74 174.16 38.37 173.35C38.18 172.61 39.53 172.39 38.85 171.43L38.83 171.44ZM87.29 192.02C88.75 191.84 89.75 191.11 90.62 190.23C91.67 189.15 92.63 188 93.61 186.86C94.37 185.98 95.08 185.07 95.83 184.18C95.91 184.09 96.07 184.07 96.19 184.01C96.71 184.11 96.84 184.54 96.75 184.93C96.65 185.38 96.41 185.82 96.15 186.22C95.52 187.19 94.85 188.15 94.17 189.09C92.8 190.99 91.23 192.69 89.15 193.84C89.05 193.9 89.01 194.06 88.88 194.28C88.98 194.58 89.07 194.98 89.25 195.34C89.66 196.19 90.24 196.5 91.07 196.13C91.86 195.77 92.65 195.3 93.28 194.71C94.22 193.83 95.03 192.8 95.88 191.82C96.46 191.15 96.99 190.43 97.55 189.74C97.86 189.36 98.24 189.04 98.78 189.25C99.2 189.42 99.26 190.08 98.85 190.7C97.19 193.21 95.51 195.7 93.05 197.54C92.98 197.59 93.01 197.78 92.97 197.99C93.38 198.15 93.81 198.32 94.24 198.49C95.91 197.43 97.36 196.2 98.73 194.86C100.32 193.3 101.49 191.46 102.16 189.34C102.94 186.87 103.67 184.38 104.32 181.86C104.63 180.65 105.07 179.53 105.71 178.47C106.74 176.78 107.9 175.18 109.17 173.65C111.13 171.28 113.08 168.9 114.91 166.43C116.45 164.35 117.89 162.18 119.24 159.96C120.65 157.64 121.39 155.08 121.17 152.33C121.01 150.36 120.84 148.38 120.56 146.43C119.6 139.95 117.24 133.91 114.53 128C114.4 127.71 114.17 127.46 113.95 127.11C113.34 127.45 112.82 127.76 112.28 128.04C110.47 128.99 108.68 129.99 106.82 130.86C105.09 131.67 103.29 132.33 101.53 133.07C101.18 133.22 100.86 133.45 100.46 133.69C101.07 134.82 101.64 135.83 102.17 136.85C105.05 142.32 106.91 148.04 106.39 154.33C106.39 154.4 106.39 154.47 106.39 154.54C106.53 156.01 106.21 157.42 105.68 158.75C104.44 161.93 103.1 165.07 101.79 168.22C101.28 169.44 100.39 170.39 99.59 171.41C98.93 172.24 98.1 172.57 97.05 172.3C96.33 172.11 95.6 171.91 94.88 171.7C94.41 171.56 94.08 171.7 93.85 172.15C93.95 172.3 94.06 172.46 94.15 172.63C94.58 173.39 94.57 173.51 94.08 174.05C93.71 174.46 93.34 174.81 92.73 174.88C92.2 174.94 91.68 175.17 91.17 175.36C89.01 176.19 87.21 177.46 85.9 179.41C84.99 180.76 84.35 182.12 84.94 183.81C85.12 184.32 85.06 184.9 85.19 185.43C85.28 185.78 85.26 186.26 85.89 186.4C86.35 185.89 86.85 185.35 87.34 184.79C88.98 182.93 90.84 181.34 93.04 180.17C93.46 179.95 93.9 179.75 94.35 179.59C94.7 179.46 95.08 179.59 95.21 179.93C95.31 180.21 95.32 180.68 95.15 180.87C94.75 181.32 94.25 181.7 93.74 182.03C91.77 183.31 90.11 184.92 88.59 186.69C88.01 187.36 87.35 187.95 86.74 188.59C86.51 188.83 86.26 189.08 86.13 189.38C85.64 190.5 85.88 191.04 87.29 192.03V192.02ZM62.09 117C61.99 117.59 61.9 117.99 61.87 118.39C61.54 122.27 61.29 126.15 60.87 130.02C60.33 134.9 59.76 139.78 58.98 144.63C58.34 148.67 57.36 152.65 56.58 156.67C56.22 158.54 55.97 160.44 55.68 162.33C55.54 163.26 55.8 164.06 56.43 164.78C58.72 167.4 60.97 170.06 63.26 172.68C63.71 173.19 64.25 173.62 64.78 174.04C65.3 174.45 65.86 174.82 66.42 175.21C68.22 173.67 70.02 172.32 71.46 170.56C72.93 168.77 74.4 166.96 75.98 165.27C77.02 164.16 77.34 162.99 77.06 161.53C76.63 159.32 76.29 157.09 75.87 154.88C75.15 151.13 74.25 147.41 73.66 143.64C72.39 135.48 71.5 127.27 71 119.02C70.96 118.36 70.98 117.67 70.64 117.02C67.8 117.46 65.04 117.44 62.09 116.99V117ZM40.2 40.5C39.67 41.59 39.85 42.45 40.43 43.31C41.23 44.52 42.17 45.58 43.31 46.48C45.45 48.16 47.86 49.3 50.53 49.68C53.42 50.09 56.34 50.45 59.26 50.47C65.6 50.5 71.94 50.75 78.27 50.18C80.87 49.94 83.42 49.59 85.82 48.52C88.36 47.38 90.51 45.77 92.05 43.39C92.65 42.47 92.95 41.58 92.29 40.49C90.53 39.43 88.5 38.82 86.47 38.26C81.93 37 77.31 36.1 72.63 35.57C69.93 35.26 67.23 34.73 64.48 35.03C62.51 35.24 60.55 35.48 58.59 35.74C53.92 36.35 49.31 37.28 44.79 38.63C43.22 39.1 41.67 39.62 40.2 40.51V40.5ZM54.5 304.36C53.32 304.44 52.37 304.5 51.42 304.56C48.74 304.72 46.1 304.5 43.49 303.86C42.5 303.62 41.47 303.1 40.53 303.23C39.51 303.38 38.56 304.11 37.61 304.63C35.93 305.54 34.23 306.42 32.6 307.42C29.49 309.32 26.71 311.65 24.31 314.39C23.51 315.3 22.81 316.34 22.23 317.41C21.56 318.67 21.77 319.41 22.89 320.26C24.7 321.65 26.81 322.46 28.96 323.17C29.09 323.21 29.23 323.2 29.37 323.22C30.17 323.36 30.98 323.46 31.76 323.67C34.13 324.3 36.49 324.4 38.83 323.63C43.58 322.07 48.18 320.18 52.49 317.61C53.55 316.98 54.31 316.18 54.69 315.03C54.92 314.32 55.16 313.6 55.25 312.86C55.61 310.05 55.12 307.31 54.51 304.35L54.5 304.36ZM78.35 304.48C77.67 306.88 77.55 309.19 77.46 311.5C77.43 312.24 77.54 313.01 77.73 313.73C78.17 315.41 78.91 316.82 80.57 317.77C84.81 320.19 89.26 322.06 93.87 323.6C95.45 324.12 97.09 324.36 98.72 324.12C100.67 323.82 102.63 323.5 104.5 322.93C106.05 322.46 107.5 321.64 108.97 320.93C109.45 320.7 109.87 320.32 110.29 319.98C110.95 319.43 111.08 318.7 110.82 317.93C110.62 317.35 110.36 316.77 110 316.29C109.27 315.3 108.51 314.33 107.66 313.45C104.84 310.54 101.65 308.08 98.07 306.15C96.51 305.31 94.9 304.54 93.38 303.64C92.59 303.17 91.87 303.11 91.05 303.38C87.49 304.57 83.83 304.81 80.12 304.5C79.58 304.46 79.04 304.5 78.34 304.5L78.35 304.48ZM34.34 134.53C32.54 137.71 31.17 140.82 30.05 144.05C28.61 148.22 28.46 152.47 29.14 156.79C29.67 160.13 30.97 163.21 32.29 166.28C32.77 167.41 33.38 168.48 34 169.54C34.22 169.92 34.64 170.17 34.89 170.4C36.22 169.83 37.39 169.32 38.61 168.79C38.62 168.75 38.71 168.61 38.7 168.49C38.54 165.49 38.56 162.47 38.17 159.5C37.6 155.09 37.33 150.67 37.06 146.25C36.99 145.16 37.1 144.07 37.06 142.98C36.97 140.4 36.84 137.82 36.73 135.19C35.9 134.96 35.2 134.77 34.34 134.53ZM96.1 135.17C95.98 137.81 95.85 140.32 95.75 142.84C95.67 144.95 95.7 147.07 95.57 149.17C95.41 151.96 95.08 154.73 94.93 157.52C94.76 160.86 94.7 164.2 94.61 167.54C94.6 168 94.67 168.47 94.69 168.86C95.82 169.42 96.84 169.93 97.85 170.43C98.07 170.29 98.28 170.21 98.41 170.07C98.63 169.82 98.84 169.54 99 169.24C101.26 165.09 103.09 160.76 103.78 156.06C104.33 152.32 104.19 148.58 103.04 144.92C102 141.59 100.57 138.42 98.94 135.35C98.79 135.07 98.53 134.83 98.32 134.56C97.59 134.76 96.94 134.94 96.08 135.17H96.1ZM36.17 225.16C36.3 224.72 36.5 224.29 36.57 223.83C37.17 219.57 37.73 215.3 38.32 211.04C38.71 208.28 38.92 205.48 39.89 202.91C39.51 202.15 39.18 201.49 38.85 200.83C36.89 200.07 35.27 198.83 33.71 197.48C33.43 197.24 33.07 197.1 32.6 196.82C32.44 198.09 32.26 199.17 32.18 200.25C31.94 203.52 31.7 206.79 31.55 210.07C31.42 212.87 31.4 215.67 31.35 218.47C31.33 219.86 31.63 221.19 32.28 222.42C33.08 223.95 34.23 225.04 36.18 225.15L36.17 225.16ZM93.05 202.65C93.45 204.75 93.83 206.48 94.11 208.22C94.5 210.72 94.87 213.22 95.16 215.72C95.69 220.33 96.19 224.94 96.64 229.56C96.86 231.8 96.93 234.05 97.08 236.3C97.17 237.53 98.31 238.58 99.54 238.57C100.28 238.57 100.91 238.27 101.17 237.56C101.4 236.93 101.58 236.24 101.58 235.58C101.58 233.94 101.58 232.29 101.37 230.67C100.58 224.37 99.54 218.11 98.12 211.92C97.32 208.46 96.49 205.01 95.23 201.68C95.09 201.32 94.87 201 94.69 200.66C93.28 200.83 93.75 202.29 93.05 202.63V202.65ZM73.22 193.04C72.63 192.62 72.04 192.57 71.41 192.58C70.39 192.59 69.37 192.55 68.34 192.54C66.5 192.51 64.65 192.46 62.81 192.45C61.72 192.45 60.63 192.53 59.5 193.11C59.46 193.95 59.38 194.83 59.39 195.7C59.44 198.64 59.52 201.57 59.6 204.51C59.61 205.05 59.67 205.58 59.7 206.05C63.77 208.32 69.31 208.29 73.19 205.97C73.28 202.09 73.37 198.14 73.44 194.19C73.44 193.8 73.3 193.4 73.22 193.04ZM56.91 204.05C57.27 201.77 57.19 195.98 56.81 194.47C56.63 194.43 56.44 194.37 56.25 194.35C53.6 194.14 50.95 193.97 48.3 193.73C47.36 193.64 46.56 193.84 45.86 194.41C45.53 196.44 45.27 197.12 44.22 197.82C42.85 198.72 42 199.99 41.2 201.37C43.85 202.01 46.34 202.75 48.89 203.18C51.5 203.62 54.16 203.77 56.92 204.06L56.91 204.05ZM75.83 194.84C75.73 196.92 76.01 202.95 76.24 203.88C81.51 203.85 86.61 202.86 91.61 201.23C90.71 199.89 89.89 198.53 88.44 197.67C87.72 197.24 87.37 196.44 87.17 195.62C87.06 195.17 87 194.7 86.93 194.34C85.99 193.66 85.06 193.63 84.08 193.78C83.14 193.93 82.18 194 81.23 194.12C79.42 194.35 77.61 194.6 75.82 194.83L75.83 194.84ZM60.52 107.16C60.87 108.5 61.19 109.81 61.54 111.12C61.77 111.97 62 112.83 62.27 113.67C62.44 114.2 62.75 114.67 63.31 114.85C65.07 115.41 66.78 115.81 68.68 115.14C69.88 114.72 70.5 114.1 70.78 112.95C71.19 111.3 71.65 109.66 72.06 108.02C72.15 107.65 72.15 107.25 72.17 107.09C70.11 105.43 68.22 103.91 66.4 102.45C64.48 103.99 62.58 105.51 60.5 107.17L60.52 107.16ZM38.4 38.82C39.26 38.93 39.28 38.95 39.71 38.69C41.48 37.63 43.41 36.95 45.38 36.37C48.66 35.41 52 34.7 55.37 34.15C56.65 33.94 57.94 33.78 59.23 33.7C60.79 33.61 62.37 33.63 63.94 33.62C64.96 33.62 65.99 33.64 67.01 33.64C68.58 33.64 70.15 33.64 71.72 33.67C72.95 33.7 74.18 33.73 75.39 33.87C76.74 34.03 78.09 34.27 79.43 34.55C84.17 35.55 88.96 36.39 93.23 38.9C93.44 39.02 93.8 38.9 94.18 38.9C93.92 38.02 93.33 37.63 92.78 37.26C90.74 35.88 88.63 34.57 86.18 34.09C82.36 33.35 78.54 32.63 74.69 32.07C72.26 31.72 69.8 31.65 67.34 31.48C64.47 31.27 61.59 31.37 58.76 31.78C54.98 32.33 51.23 33.08 47.48 33.79C44.68 34.32 42.19 35.58 39.87 37.19C39.27 37.6 38.58 37.99 38.41 38.82H38.4ZM32.5 58.95C32.63 58.9 32.76 58.84 32.89 58.79C32.92 57.71 32.94 56.62 32.99 55.54C33.02 54.84 32.75 54.34 32.08 54.11C30.78 53.66 29.92 52.72 29.23 51.58C29.13 51.41 28.96 51.28 28.8 51.1C27.56 50.82 26.7 51.36 26.11 52.42C25.88 52.83 25.69 53.29 25.6 53.75C24.88 57.37 25.04 60.94 26.35 64.43C27.47 67.41 29.87 68.75 32.84 69.65C32.88 69.18 32.93 68.86 32.92 68.54C32.89 67.11 32.84 65.67 32.79 64.24C32.79 64.11 32.73 63.97 32.68 63.85C32.26 62.84 31.87 61.82 31.41 60.84C31.12 60.23 30.72 59.66 30.38 59.07C30.1 58.6 29.81 58.14 29.56 57.66C29.44 57.42 29.29 57.13 29.33 56.9C29.38 56.6 29.55 56.26 29.77 56.08C29.88 55.99 30.33 56.11 30.47 56.27C30.88 56.72 31.22 57.24 31.58 57.73C31.89 58.15 32.2 58.56 32.51 58.98L32.5 58.95ZM103.67 51.08C102.75 52.42 101.85 53.7 100.23 54.21C99.75 54.36 99.48 54.8 99.51 55.33C99.56 56.42 99.62 57.51 99.69 58.59C99.69 58.7 99.85 58.79 100.02 59C100.42 58.42 100.78 57.86 101.18 57.33C101.5 56.9 101.85 56.48 102.24 56.1C102.56 55.79 103.14 56.05 103.14 56.5C103.14 56.89 103.11 57.33 102.94 57.67C102.58 58.4 102.11 59.08 101.69 59.79C100.47 61.87 99.52 64.02 99.71 66.53C99.76 67.2 99.62 67.89 99.6 68.57C99.6 68.89 99.66 69.21 99.71 69.69C100.41 69.42 100.97 69.22 101.52 68.98C102.78 68.43 103.94 67.74 104.85 66.67C105.85 65.5 106.37 64.09 106.75 62.63C107.42 60.09 107.38 57.49 107.14 54.9C107.06 54.1 106.79 53.3 106.47 52.56C105.99 51.47 105.14 50.86 103.67 51.06V51.08ZM79.98 108.46C80.15 107.17 80.19 106.16 80.22 105.15C80.25 104.06 80.3 102.97 80.27 101.88C80.25 100.9 80.43 99.89 80.07 98.98C79.77 98.96 79.63 98.92 79.51 98.96C76.52 99.9 73.45 100.5 70.36 100.97C69.86 101.05 69.37 101.28 68.72 101.49C69.04 101.82 69.2 102.06 69.41 102.19C72.52 104.14 75.64 106.07 78.77 108C79.04 108.17 79.38 108.23 79.98 108.46ZM53.07 108.35C53.44 108.22 53.84 108.15 54.15 107.95C57.22 106.06 60.28 104.16 63.34 102.24C63.59 102.08 63.76 101.8 63.99 101.55C63.7 101.38 63.54 101.21 63.35 101.17C59.96 100.47 56.52 100.01 53.21 98.93C53.09 98.89 52.95 98.96 52.81 98.98C52.35 100.91 52.47 106.28 53.06 108.33L53.07 108.35ZM36.73 41.27C35.58 40.77 34.43 40.35 33.35 39.79C32.28 39.24 31.29 38.54 30.25 37.9C30.09 38.19 29.98 38.36 29.9 38.55C29.82 38.74 29.77 38.94 29.74 39.14C29.21 42.22 29.39 45.24 30.23 48.25C30.66 49.78 31.76 50.52 32.9 51.28C33.4 50.91 33.3 50.47 33.34 50.08C33.49 48.79 33.59 47.5 33.79 46.22C33.98 44.99 34.43 43.87 35.59 43.19C36.28 42.78 36.57 42.12 36.72 41.26L36.73 41.27ZM95.75 41.4C95.97 42.13 96.22 42.81 96.82 43.15C98.01 43.82 98.49 44.89 98.7 46.12C98.91 47.4 98.99 48.69 99.17 49.98C99.23 50.42 99.38 50.84 99.53 51.45C100.1 50.99 100.49 50.62 100.94 50.34C101.56 49.95 101.89 49.4 102.11 48.73C103.22 45.42 103.43 42.06 102.65 38.65C102.59 38.4 102.4 38.19 102.25 37.92C101.15 38.6 100.11 39.23 99.07 39.88C98.05 40.52 96.73 40.57 95.75 41.41V41.4ZM104.95 212.66C103.87 208.13 101.72 204.22 98.35 200.77C98.32 201.18 98.23 201.39 98.29 201.55C99.32 204.37 100.7 207.03 102.32 209.55C103.05 210.69 103.79 211.82 104.95 212.65V212.66Z" fill="#1D262D"/>
<path fill-rule="evenodd" clip-rule="evenodd" d="M75.51 132.9C75.58 131.74 75.65 130.58 75.72 129.42C75.75 128.89 76.05 128.51 76.51 128.32C76.94 128.13 77.41 127.99 77.87 127.9C79.7 127.52 81.39 126.83 82.9 125.71C83.17 125.51 83.48 125.32 83.79 125.22C84.47 125.01 85.14 125.04 85.69 125.6C85.97 125.89 86.26 126.19 86.54 126.48C87.31 127.29 88.18 127.92 89.31 128.12C89.58 128.17 89.84 128.26 90.09 128.36C91.65 128.96 92.05 129.43 92.02 131.08C91.94 134.83 91.71 138.57 90.36 142.14C89.63 144.08 88.48 145.78 87.38 147.5C87.14 147.88 86.72 148.22 86.3 148.41C84.09 149.43 81.16 148.7 79.62 146.81C78.53 145.47 77.73 143.98 77.18 142.34C76.16 139.27 75.52 136.14 75.49 132.89L75.51 132.9ZM90.13 130.7C88.9 130.24 87.82 129.96 86.88 129.44C85.95 128.93 85.16 128.17 84.34 127.55C83.15 128.15 82.09 128.77 80.95 129.22C79.83 129.67 78.64 129.94 77.53 130.27C77.43 131.07 77.28 131.74 77.28 132.42C77.28 133.17 77.41 133.91 77.49 134.66C77.55 135.2 77.61 135.75 77.68 136.29C78.07 139.36 79.1 142.23 80.38 145.02C80.46 145.2 80.61 145.36 80.75 145.5C81.63 146.32 82.68 146.78 83.88 146.85C84.74 146.9 85.48 146.64 86.06 145.95C87.07 144.73 87.82 143.39 88.38 141.89C89.71 138.3 89.66 134.53 90.12 130.71L90.13 130.7Z" fill="#1D262D"/>
<path fill-rule="evenodd" clip-rule="evenodd" d="M77.91 78.1C78.36 78.38 78.74 78.62 79.06 78.83C79.04 79.09 79.08 79.25 79.01 79.34C78.75 79.74 78.44 80.1 78.18 80.5C75.9 84.03 72.56 86.07 68.55 86.86C64.35 87.69 60.4 86.82 57 84.08C56 83.27 55.12 82.31 54.24 81.36C53.94 81.03 53.76 80.54 53.64 80.1C53.59 79.9 53.76 79.54 53.94 79.4C54.12 79.27 54.52 79.22 54.69 79.33C55.2 79.66 55.67 80.05 56.11 80.47C57.35 81.65 58.64 82.75 60.2 83.5C63.51 85.09 66.9 85.25 70.3 83.86C73.24 82.66 75.74 80.8 77.9 78.09L77.91 78.1Z" fill="#1D262D"/>
<path fill-rule="evenodd" clip-rule="evenodd" d="M67.38 77.64C65.94 78.26 64.77 78.18 63.65 77.55C62.77 77.06 62.26 76.26 62.16 75.24C62.1 74.63 62.05 74.01 62.1 73.41C62.3 70.63 62.53 67.85 62.78 65.07C62.82 64.61 62.94 64.13 63.12 63.7C63.25 63.38 63.59 63.17 63.96 63.28C64.19 63.35 64.51 63.55 64.56 63.75C64.7 64.26 64.78 64.81 64.75 65.34C64.65 67.52 64.5 69.69 64.38 71.86C64.34 72.61 64.33 73.36 64.31 74.1C64.29 74.99 64.62 75.65 65.45 76.1C66.09 76.45 66.78 76.79 67.38 77.64Z" fill="#1D262D"/>
<path fill-rule="evenodd" clip-rule="evenodd" d="M53.08 67.43C53.08 68.31 52.76 69.02 51.97 69.45C51.1 69.92 50.24 69.8 49.51 69.19C48.61 68.43 47.94 67.53 48.05 66.23C48.18 64.72 49.48 63.83 50.94 64.31C52.23 64.73 53.08 65.98 53.08 67.44V67.43Z" fill="#1D262D"/>
<path fill-rule="evenodd" clip-rule="evenodd" d="M79.87 69.84C78.77 69.84 78.08 69.37 77.68 68.35C77.22 67.19 77.4 66.01 78.2 65.33C78.99 64.65 79.91 64.49 80.87 64.9C81.22 65.05 81.53 65.37 81.77 65.68C81.97 65.94 82.07 66.29 82.18 66.61C82.85 68.53 81.9 69.86 79.87 69.85V69.84Z" fill="#1D262D"/>
<path fill-rule="evenodd" clip-rule="evenodd" d="M86.79 55.62C86.07 56.11 85.73 56.43 85.32 56.61C83.25 57.54 81.04 57.94 78.81 58.18C78.31 58.23 77.74 58.04 77.27 57.82C76.69 57.55 76.75 56.59 77.33 56.31C77.63 56.16 77.96 56.07 78.29 56C79.76 55.73 81.22 55.43 82.7 55.22C83.64 55.09 84.59 55.08 85.54 55.08C85.83 55.08 86.13 55.32 86.79 55.61V55.62Z" fill="#1D262D"/>
<path fill-rule="evenodd" clip-rule="evenodd" d="M54.42 57.89C50.92 58.25 47.96 57.63 45.08 56.56C44.52 56.35 43.95 56.08 43.47 55.72C43.27 55.57 43.14 55.07 43.24 54.84C43.34 54.6 43.73 54.42 44.03 54.34C44.27 54.28 44.57 54.37 44.82 54.45C47.23 55.16 49.64 55.88 52.05 56.6C52.82 56.83 53.56 57.09 54.42 57.9V57.89Z" fill="#1D262D"/>
<path fill-rule="evenodd" clip-rule="evenodd" d="M74.92 15.5C74.79 16.1 74.67 16.91 74.43 17.68C73.7 20.02 72.35 21.95 70.46 23.51C65.29 27.75 58.58 25.51 56.45 19.08C55.89 17.37 55.82 15.59 56.42 13.85C56.53 13.53 56.65 13.21 56.73 12.88C57.5 9.36 59.85 7.29 63.16 6.46C69.12 4.96 73.69 9.44 74.66 13.47C74.8 14.06 74.82 14.68 74.92 15.51V15.5ZM64.78 23.5C66.06 23.53 67.21 23.14 68.26 22.47C70.16 21.26 71.45 19.57 72.35 17.51C74.32 12.97 70.07 8.1 66.37 8.22C64.7 8.27 63.13 8.68 61.64 9.33C60.86 9.67 60.07 10.29 59.62 10.99C57.82 13.81 57.3 16.84 59.03 19.86C60.27 22.02 62.12 23.46 64.77 23.5H64.78Z" fill="#1D262D"/>
<path fill-rule="evenodd" clip-rule="evenodd" d="M62.52 195.67C64.56 195.32 66.45 195.18 68.34 195.37C68.86 195.42 69.37 195.69 69.84 195.93C70.35 196.19 70.64 196.66 70.65 197.26C70.69 199.02 70.84 200.79 70.36 202.53C70.03 203.7 69.43 204.31 68.25 204.4C67.1 204.48 65.94 204.51 64.79 204.43C63.34 204.33 62.75 203.77 62.44 202.34C61.97 200.19 61.97 198.05 62.51 195.68L62.52 195.67ZM64.33 197.19C64.24 198.66 64.27 200.01 64.51 201.35C64.69 202.37 64.97 202.64 65.95 202.71C66.35 202.74 66.76 202.74 67.16 202.69C67.74 202.61 68.16 202.3 68.27 201.68C68.54 200.22 68.63 198.75 68.46 197.17C67.07 197.03 65.79 196.43 64.32 197.2L64.33 197.19Z" fill="#1D262D"/>
</g>
<defs>
<clipPath id="clip0_4_2705">
<rect width="132.83" height="340.94" fill="white"/>
</clipPath>
</defs>
</svg>
