<svg width="447" height="263" viewBox="0 0 447 263" fill="none" xmlns="http://www.w3.org/2000/svg">
<g clip-path="url(#clip0_4_2955)">
<path d="M126.353 39.1082H285.979C296.011 39.1082 305.628 43.3664 311.713 50.8743C326.286 68.8316 336.942 89.3942 346.677 110.545C373.034 115.364 396.097 121.331 416.725 128.166C432.842 133.517 443.646 147.86 443.646 163.997V219.101C443.646 225.937 437.769 231.484 430.527 231.484H40.8711C27.0693 231.484 15.4343 221.819 13.6831 208.904L4.86772 144.415C4.54123 142.089 4.749 139.736 5.49103 137.495L8.69661 127.606C11.4273 119.118 19.7084 113.347 29.1173 113.347H74.6484L113.501 46.3079C116.083 41.8536 121.011 39.1082 126.383 39.1082H126.353Z" fill="#EFFAFF"/>
<path d="M5.46133 148.813H440.262C438.689 145.423 436.641 142.286 434.148 139.484H4.98643C4.68962 141.109 4.63026 142.762 4.86771 144.415L5.46133 148.841V148.813Z" fill="#AFC8CE"/>
<path d="M443.646 163.773C443.646 161.223 443.319 158.73 442.785 156.293H6.47052L7.47968 163.773H443.616H443.646Z" fill="#AFC8CE"/>
<path d="M11.9615 196.438L13.6534 208.876C15.4046 221.791 27.0693 231.456 40.8414 231.456H430.527C437.769 231.456 443.646 225.909 443.646 219.073V196.438H11.9615Z" fill="#AFC8CE"/>
<path d="M72.63 113.347H29.0579C19.6786 113.347 11.3976 119.146 8.6372 127.606L5.43162 137.495C4.71927 139.736 4.5115 142.089 4.80831 144.415L13.6237 208.904C15.3748 221.819 27.0396 231.484 40.8117 231.484H72.6003V113.347H72.63Z" fill="#366182"/>
<path d="M20.8956 125.141C24.4276 125.953 28.0191 127.186 30.3639 129.791C32.7681 132.453 33.5101 136.178 33.243 139.68C32.9461 143.182 31.7589 146.544 30.7201 149.906C27.1286 161.616 25.3774 173.858 25.5555 186.044C25.5555 187.921 25.6446 189.826 25.0806 191.619C24.5167 193.412 23.181 195.121 21.2814 195.625C19.2037 196.186 16.8886 195.205 15.4342 193.692C13.9798 192.151 13.2081 190.162 12.5254 188.229C6.79695 171.729 5.52065 154.024 7.00472 136.711C7.39057 132.256 8.51846 127.046 12.8222 125.197C15.3155 124.132 18.2242 124.524 20.8956 125.141Z" fill="#311206"/>
<path d="M416.755 128.166C396.928 121.583 374.785 115.812 349.675 111.105V231.456H430.557C437.799 231.456 443.676 225.909 443.676 219.073V163.969C443.676 147.832 432.872 133.489 416.755 128.138V128.166Z" fill="#366182"/>
<path d="M123.83 231.456H37.3984V229.13C37.3984 206.831 56.5428 188.734 80.1988 188.734H81.0595C104.686 188.734 123.86 206.803 123.86 229.13V231.456H123.83Z" fill="#311206"/>
<path d="M424.353 231.456H337.921V229.13C337.921 206.831 357.066 188.734 380.722 188.734H381.582C405.209 188.734 424.383 206.803 424.383 229.13V231.456H424.353Z" fill="#311206"/>
<path d="M224.747 30.0035H206.938V42.1338H224.747V30.0035Z" fill="#311206"/>
<path d="M228.397 34.3177H204.445C199.755 34.3177 196.223 30.3117 197.024 25.9694L200.794 5.88304C201.417 2.49329 204.563 0 208.214 0H224.628C228.279 0 231.395 2.46527 232.048 5.88304L235.818 25.9694C236.619 30.3117 233.087 34.3177 228.397 34.3177Z" fill="#FA0A0B"/>
<path d="M130.36 50.314H124.454C122.079 50.314 119.912 51.5187 118.755 53.4797L89.6671 102.897C87.7378 106.175 89.3406 110.321 93.0805 111.638L103.469 115.28C106.764 116.428 110.414 114.915 111.75 111.862C119.467 94.1007 127.511 76.4515 136.207 59.0826C138.255 54.9924 135.139 50.314 130.36 50.314Z" fill="#311206"/>
<path d="M197.855 50.314H154.046C151.553 50.314 149.237 51.6587 148.169 53.7878C138.79 72.1093 130.182 90.7389 121.96 109.537C120.209 113.571 123.355 117.997 127.986 117.997H197.855C201.447 117.997 204.356 115.252 204.356 111.862V56.4492C204.356 53.0594 201.447 50.314 197.855 50.314Z" fill="#311206"/>
<path d="M297.228 50.314H220.888C217.297 50.314 214.388 53.0594 214.388 56.4492V111.862C214.388 115.252 217.297 117.997 220.888 117.997H261.878C262.026 117.997 262.204 117.997 262.353 117.997L331.599 113.066C336.111 112.758 335.458 110.013 333.588 106.119C324.565 87.4612 316.729 68.2433 302.155 52.4431C300.909 51.0984 299.098 50.342 297.228 50.342V50.314Z" fill="#311206"/>
<path d="M325.782 224.116H132.2C127.481 224.116 123.415 221.062 122.317 216.692C117.182 196.382 99.6994 190.302 89.7265 188.481C84.9181 187.613 81.4157 183.635 81.4157 179.097C81.3861 157.217 81.3267 120.238 81.4157 118.417C82.6624 98.1908 109.702 59.6148 117.953 48.2689C119.853 45.6636 122.97 44.1228 126.324 44.1228H297.644C301.117 44.1228 304.292 45.7476 306.162 48.4931L342.552 108.836C342.789 109.172 342.848 109.593 342.7 110.013C342.374 111.021 341.097 111.61 338.871 112.59C337.832 113.038 336.111 113.767 335.844 114.187V214.535C335.873 219.83 331.332 224.144 325.722 224.144L325.782 224.116ZM126.324 46.2239C123.712 46.2239 121.278 47.4285 119.794 49.4456C111.631 60.6794 84.8588 98.8351 83.6418 118.529C83.5528 119.818 83.5528 141.865 83.6418 179.069C83.6418 182.626 86.4022 185.708 90.1717 186.408C100.679 188.341 119.081 194.757 124.513 216.188C125.374 219.606 128.55 221.987 132.23 221.987H325.782C330.175 221.987 333.707 218.625 333.707 214.479V113.963C333.707 112.478 335.695 111.638 338.01 110.629C338.752 110.321 339.91 109.817 340.444 109.453L304.292 49.5296C302.868 47.4285 300.375 46.1679 297.674 46.1679H126.353L126.324 46.2239Z" fill="#311206"/>
<path d="M210.292 44.7111H208.066V223.079H210.292V44.7111Z" fill="#311206"/>
<path d="M135.525 126.429H121.396C119.872 126.429 118.636 127.596 118.636 129.035V129.091C118.636 130.53 119.872 131.696 121.396 131.696H135.525C137.049 131.696 138.285 130.53 138.285 129.091V129.035C138.285 127.596 137.049 126.429 135.525 126.429Z" fill="#311206"/>
<path d="M238.252 126.429H224.123C222.599 126.429 221.363 127.596 221.363 129.035V129.091C221.363 130.53 222.599 131.696 224.123 131.696H238.252C239.776 131.696 241.012 130.53 241.012 129.091V129.035C241.012 127.596 239.776 126.429 238.252 126.429Z" fill="#311206"/>
<path d="M193.225 185.232L175.03 193.664L156.123 185.232V151.278H193.225V185.232Z" fill="#CE8172"/>
<path d="M12.8222 124.805C8.69655 125.281 5.49097 128.558 3.88818 132.172C1.42464 137.803 2.13699 144.135 2.87902 150.186C3.97723 159.066 5.07543 167.975 6.17364 176.855C6.58918 180.133 7.06408 183.607 9.29018 186.128C11.5163 188.65 16.1169 189.602 18.432 187.137C18.6991 170.86 21.1033 154.612 25.5258 138.868C26.3272 135.982 27.188 132.761 25.6742 130.127C24.5167 128.138 22.2609 126.99 20.0645 126.121C17.779 125.225 15.3155 124.496 12.8519 124.777L12.8222 124.805Z" fill="#FA0A0B"/>
<path d="M2.5822 163.885H17.3932C19.3521 163.885 20.8362 161.98 21.2517 160.019C22.1422 155.789 21.5782 155.088 22.7358 151.446C24.6947 145.227 21.0736 140.409 14.6328 140.409H3.14614C1.33559 140.409 -0.0891146 141.837 -7.07377e-05 143.546C0.118654 145.759 0.415467 148.001 0.71228 150.214C1.33559 154.78 1.95889 159.346 2.5822 163.885Z" fill="#AFC8CE"/>
<path d="M428.33 169.628C429.31 171.309 430.408 172.989 432.07 174.11C433.732 175.203 436.048 175.623 437.799 174.614C440.173 173.214 440.351 170.076 440.173 167.415C439.787 161.7 439.045 155.957 436.938 150.606C434.831 145.255 431.239 140.269 426.134 137.187C425.155 136.599 423.967 136.066 422.899 136.459C421.474 136.963 421.148 138.672 421.088 140.1C420.673 150.326 423.166 160.635 428.33 169.628Z" fill="#AFC8CE"/>
<path d="M441.717 186.997H428.123C425.221 186.997 422.869 189.217 422.869 191.955V219.858C422.869 222.596 425.221 224.816 428.123 224.816H441.717C444.618 224.816 446.97 222.596 446.97 219.858V191.955C446.97 189.217 444.618 186.997 441.717 186.997Z" fill="#311206"/>
<path d="M334.834 101.553L328.423 93.0081C326.732 90.7389 324.476 88.2176 321.567 88.4698C319.489 88.6378 317.827 90.2347 317.055 92.0556C316.284 93.8766 316.224 95.8656 316.195 97.8266C316.135 100.572 316.106 103.289 316.046 106.035C315.987 110.237 316.313 115.196 320.113 117.409C323.526 119.398 328.127 117.969 331.124 115.476C332.549 114.299 333.707 112.898 334.864 111.47V101.581L334.834 101.553Z" fill="#366182"/>
<path d="M117.792 233.663C121.051 214.632 107.347 196.711 87.1831 193.635C67.0197 190.56 48.0324 203.494 44.7738 222.526C41.5153 241.557 55.2194 259.478 75.3829 262.553C95.5464 265.629 114.534 252.694 117.792 233.663Z" fill="#311206"/>
<path d="M91.2396 250.657C104.448 245.46 110.693 231.14 105.186 218.673C99.6797 206.206 84.5079 200.312 71.299 205.509C58.0902 210.707 51.8461 225.026 57.3525 237.494C62.859 249.961 78.0307 255.854 91.2396 250.657Z" fill="#543832"/>
<path d="M99.3433 228.094C99.3433 237.535 91.2403 245.155 81.2674 245.155C71.2944 245.155 63.1915 237.507 63.1915 228.094C63.1915 218.681 71.2944 211.033 81.2674 211.033C91.2403 211.033 99.3433 218.681 99.3433 228.094Z" fill="#E8EDEF"/>
<path d="M51.2892 215.852C57.3442 205.626 68.7121 198.343 81.0299 196.774C74.589 195.709 67.7624 197.39 62.4197 200.948C57.0771 204.534 53.2185 209.913 51.3189 215.824L51.2892 215.852Z" fill="#543832"/>
<path d="M84.2057 254.876C93.3179 254.82 102.193 249.721 106.407 242.101C100.174 247.872 92.4868 252.299 84.2057 254.876Z" fill="#543832"/>
<path d="M417.33 236.058C421.998 217.29 409.662 198.505 389.777 194.099C369.893 189.694 349.989 201.337 345.322 220.105C340.654 238.873 352.99 257.659 372.875 262.064C392.759 266.469 412.663 254.826 417.33 236.058Z" fill="#311206"/>
<path d="M406.7 233.165C409.653 219.949 400.696 206.975 386.693 204.188C372.691 201.4 358.945 209.855 355.992 223.071C353.038 236.287 361.996 249.261 375.998 252.048C390.001 254.836 403.746 246.382 406.7 233.165Z" fill="#543832"/>
<path d="M399.421 228.094C399.421 237.535 391.318 245.155 381.345 245.155C371.372 245.155 363.269 237.507 363.269 228.094C363.269 218.681 371.372 211.033 381.345 211.033C391.318 211.033 399.421 218.681 399.421 228.094Z" fill="#E8EDEF"/>
<path d="M351.367 215.852C357.422 205.626 368.79 198.343 381.108 196.774C374.667 195.709 367.84 197.39 362.497 200.948C357.155 204.534 353.296 209.913 351.397 215.824L351.367 215.852Z" fill="#543832"/>
<path d="M384.283 254.876C393.396 254.82 402.27 249.721 406.485 242.101C400.252 247.872 392.565 252.298 384.283 254.876Z" fill="#543832"/>
</g>
<defs>
<clipPath id="clip0_4_2955">
<rect width="447" height="263" fill="white"/>
</clipPath>
</defs>
</svg>
